<svg xmlns="http://www.w3.org/2000/svg" viewBox="0 0 217.48 410.35">
  <g id="Layer_2" data-name="Layer 2">
    <g id="Layer_6" data-name="Layer 6">
      <polygon points="55.48 21.12 91.48 102.12 143.47 0 217.48 340.12 136.48 410.36 0 385.61 12.48 95.12 55.48 21.12" fill="#fcbe79"/>
      <g>
        <g>
          <path d="M111.76,201.79l0,0,0,0A.2.2,0,0,1,111.76,201.79Z" fill="#af5341"/>
          <path d="M112.13,201.94c.07,0,.16,0,.12,0a1,1,0,0,1-.17,0l-.09,0-.12,0a.72.72,0,0,0,.27.09S112.14,201.94,112.13,201.94Z" fill="#af5341"/>
          <path d="M118,201.61h0Z" fill="#af5341"/>
          <path d="M121.56,200.58a0,0,0,0,0,0,.06S121.57,200.59,121.56,200.58Z" fill="#af5341"/>
          <path d="M122.29,200.58h-.05S122.29,200.6,122.29,200.58Z" fill="#af5341"/>
          <path d="M118,201.61l.12,0C118.1,201.58,118.05,201.61,118,201.61Z" fill="#af5341"/>
          <path d="M112.94,202h0Z" fill="#af5341"/>
          <path d="M116.44,202.09h0v.06Z" fill="#af5341"/>
          <path d="M115.2,202.27s0-.1,0-.14a.09.09,0,0,1-.06.07A.36.36,0,0,0,115.2,202.27Z" fill="#af5341"/>
          <path d="M113.2,202.16h0Z" fill="#af5341"/>
          <path d="M117.34,202a.08.08,0,0,0,0,.05S117.35,202,117.34,202Z" fill="#af5341"/>
          <path d="M108.92,190.86h0S108.91,190.86,108.92,190.86Z" fill="#af5341"/>
          <polygon points="107.52 191.19 107.53 191.18 107.54 191.18 107.52 191.19" fill="#af5341"/>
          <path d="M123.6,200.17h0C123.58,200.22,123.59,200.2,123.6,200.17Z" fill="#af5341"/>
          <path d="M120.41,192.77c-.35,0-.33-.11-.73-.09A3.36,3.36,0,0,0,120.41,192.77Z" fill="#af5341"/>
          <path d="M113,202h0Z" fill="#af5341"/>
          <path d="M119.68,192.68h0Z" fill="#af5341"/>
          <path d="M124.62,196.5a.34.34,0,0,0-.09.08S124.58,196.55,124.62,196.5Z" fill="#af5341"/>
          <path d="M123.91,199.25l.07,0Z" fill="#af5341"/>
          <path d="M123.57,195.64s0-.07,0-.07v0S123.58,195.59,123.57,195.64Z" fill="#af5341"/>
          <path d="M122.7,194.86l0,.06h0Z" fill="#af5341"/>
          <path d="M112,190,112,190C112,190,111.86,190.09,112,190Z" fill="#af5341"/>
          <path d="M112.94,202l0,0h0S112.93,202,112.94,202Z" fill="#af5341"/>
          <path d="M122,197.08,122,197A.24.24,0,0,0,122,197.08Z" fill="#af5341"/>
          <path d="M119.25,188.65l0,0S119.24,188.68,119.25,188.65Z" fill="#af5341"/>
          <path d="M121.64,196.74a.55.55,0,0,0,.06-.19l-.06,0Z" fill="#af5341"/>
          <path d="M112,190Z" fill="#af5341"/>
          <path d="M111,190.46c.15,0,0-.14,0-.22.17-.08.12.07.21.13s.15-.21.24-.23,0,0,0,.06c.08-.15.36-.1.45-.29l0,0a.6.6,0,0,1-.09-.21c.06,0,.09-.14.15-.05s0,.06,0,.1l.06-.07c.11.13-.09.08,0,.19.13-.09.25-.27.37-.25s-.24.12,0,.21h-.19c.21.2-.11,0,.09.23.24,0,.23-.14.46-.14,0-.1-.06-.13,0-.23.26-.25.39.35.54.07,0-.13,0-.35.18-.28v.21c.22,0,0-.32.29-.24,0,.09-.14.11-.1.13.19.13.06-.14.17-.17l.09.18c.22-.08.42-.29.66-.39,0,.07,0,.14.06.19a1.4,1.4,0,0,1,1-.06l.06-.22s.07.08.06.12,0-.12,0-.21.12.09.1.16c.16-.2.5-.5.78-.32l0,.07c.19.06.09-.47.29-.3l0,0c.4,0,.77-.25,1.11.05,0-.34.39.1.34-.37.24.22.2.31.5.45.08,0,.08-.32.17-.38l0,.26.1-.27.08.31.08-.07a.3.3,0,0,1-.07-.19c.13-.12.33.18.33.31.11-.08.11-.14.19-.21a1.27,1.27,0,0,1-.07.21c.1-.27,0,.28.06,0a1.17,1.17,0,0,1,.06-.2c0,.16,0,.17.11.11l-.1.18s.13-.06.17,0,.37-.28.43-.26l-.27.18c.18-.09.08-.1.32-.18,0,.07-.31.19-.41.24l.11,0-.25.11c.2-.06-.3.13,0,0l-.1,0s.11,0,.12.08a.77.77,0,0,1,.39.16c-.14.11-.37.16-.43.31s.19.13.31.25c-.23-.09-.29.07-.4-.09a1.13,1.13,0,0,0-.07.6c.1,0,.16,0,.22.08s-.15,0-.25,0v0c.12.49-1,.16-.81.69v0a3.16,3.16,0,0,1-.1.5c-.21.14-.07-.2-.34-.15a.64.64,0,0,1-.39.58c-.22.13-.49.27-.49.45a2,2,0,0,0-1.31.59,2.32,2.32,0,0,1-1.16.7l.41-.07h0c.28,0-.19.09-.17.14.24,0,.2-.11.45-.11a4.37,4.37,0,0,1,1.53.67c.42.28.87.62,1.4,1s.79-.64,1-.09l-.29.22.32,0,.18,0a1,1,0,0,1,.3.14,1,1,0,0,0,.63.2c-.06,0-.11.13-.15.11,0,.24.27.18.38,0,0,.05-.08.15-.1.25s.34-.13.25.09a.1.1,0,0,1-.08.05c.11-.06.19.17.31-.08,0,.19.3.07.3.27.25-.19.1.26.39,0-.28.32,0,.41.16.33-.11.07,0,.14-.2.25.07,0,.18.06.34-.1-.13.23,0,.22.1.22s.21,0,0,.23a.78.78,0,0,1,.62.31c-.4,0-.06-.16-.49-.07.21,0,.55.13.42.27s-.15-.08-.22-.1c.11.16-.09.2-.06.47,0,0,0-.06-.06-.1s-.09,0,0,.15v-.07c.24.12.28.5.35.61-.28-.42-.27.07-.59-.49a.35.35,0,0,0,.11.21c-.06,0-.11,0-.16-.17,0,.17.11.29,0,.38-.05-.07,0-.11-.09-.2,0,.17.06.35-.09.37s-.06-.09,0-.11c-.16.16-.13.57-.43.58-.09-.35-.13-.06-.28-.32l-.08.14.11.11c-.11.05-.13.29-.27.25l0-.15-.19.15.16,0c-.06.2.16.33,0,.33,0,0-.12.05-.25-.08h0c0,.11-.06.22-.17.19a2.11,2.11,0,0,1-.13-.34c0,.24-.26.19-.25.44a.63.63,0,0,0-.07-.22l0,.19c-.08,0-.09-.05-.13-.16s.18.3-.07.24c0,0,0,0,0-.08-.23,0-.35.27-.57.26-.14-.22.14-.12,0-.3-.25.16-.46.51-.74.55h.05c.07.33-.24-.08-.33.12,0,0,0-.19,0-.15-.19,0-.34.2-.59.39V201c-.13,0-.29.06-.42.07s-.08.1,0,.19c-.47-.29-.64.4-1,.18,0,0,.08-.08,0-.07l-.27.13c0,.1,0,.05.13.12a.22.22,0,0,1-.16.15c.11-.09,0-.16-.1-.2s0,.06,0,.09c-.18-.14,0,.21-.2.13v0c-.07,0-.13.13-.21.13s.07-.07,0-.16-.18.24-.3.16c0,0,.11-.05.15-.09-.13-.1-.14-.06-.22-.07h0l-.19,0,0,0c-.11.28-.28.12-.46.29.18-.16,0-.09,0-.19s-.13,0-.11-.06-.16,0-.28.1c0,0-.09,0-.08-.06s0,0,0,.08c-.18.12-.43,0-.69.1a3.32,3.32,0,0,1-.49.14c-.07,0,.06-.06.06-.06a.81.81,0,0,0-.31,0s0,0,0,0-.06.05-.18,0l.1-.05a1.72,1.72,0,0,1-.32,0s.07,0,.11,0h-.35l.07,0s0,0,0,0,.14,0,.15,0h-.08c.07.07.3,0,.46,0l-.07.05.16,0s0,.05,0,.06c.1,0,.09,0,.19,0s0,0,0,0l.11,0s0,.06,0,0c.2.06.32,0,.39,0h0c.27,0,0-.06.22-.15l.14.18,0-.08s.08,0,.07,0,0,0,0-.09.37-.06.41.08c0-.08-.13-.05,0-.11.06.16.17,0,.3,0,0,.09-.15.06,0,.12.06-.15.24,0,.34,0s.22-.08.39-.15c0,0,.34,0,.51.06v0c0-.16.17-.16.28-.22a.18.18,0,0,1,0,.2l.11,0a.18.18,0,0,1,.12-.12v.12c.15,0,.27-.2.48-.16,0-.12-.23-.3-.06-.43,0,.06.06.17,0,.21s0-.07.09-.05l0,.14c.1,0,0-.11.09-.12s.07.06.08.14-.07,0-.09,0a.35.35,0,0,1,.25.1s0-.13,0-.16.09.11.19.15.13,0,.09-.18.08.06.11.1.35-.11.21-.26h0c.2-.23.55-.05.77-.19l0,.06c.13-.11.31-.14.37-.3s.14.07.15.15c.1-.08.08-.15.28-.1-.07.14.07.08-.09.11.17,0,.24.1.33-.12a.14.14,0,0,0,.24.1l-.15-.09a.6.6,0,0,1,.22-.06l0,.23c.41.17.36-.64.77-.26,0-.19-.21-.06-.21-.27.15,0,.42.26.46.25.24.06,0-.4.27-.38-.06-.08-.17-.28-.06-.42s.32.28.26.38a0,0,0,0,1-.07,0c0,.05-.08.11,0,.18l0-.09c.1.05.29,0,.31.12.07-.12,0-.15-.11-.16.23,0,.28-.11.5-.11,0,0-.12-.12-.09-.13.32,0,0-.22.19-.35.17.08.13.33.25.13.16,0,.15.21.14.3.08-.24.39-.08.52-.11l-.06.12a.25.25,0,0,1,.13-.12l-.16-.13c.07,0,.12,0,.16,0,0-.14-.22-.24-.22-.45.13,0,.13-.23.32,0-.27.09.19.19,0,.37a.17.17,0,0,1,.14-.1.05.05,0,0,1,0,.07c.37,0-.08-.31.13-.47.07.13.25.17.26.11s-.21-.15-.22-.3c.21,0,.07-.2.14-.26l-.11,0c-.09-.13,0-.17,0-.29.1.07,0,.13.06.13-.13-.26.42-.1.39-.38.13,0,.26.13.37.07-.09-.34.35-.2.25-.58-.23,0-.17.06-.34-.17a2,2,0,0,1,0,.48,1.8,1.8,0,0,0-.21-.35c0,.12,0,.29,0,.35-.11-.18-.07-.14-.25-.16.37,0-.09-.33.15-.46l.52.06c.15-.17.07-.34,0-.5a.9.9,0,0,1-.21-.51l-.06.16c-.21,0-.09-.22-.22-.3.17-.06.2-.16.28-.26-.11.06-.12-.26-.45-.1l.13-.26c-.09-.3-.6.05-.7-.16.2-.08.22-.26.45-.22-.06-.07-.08-.14-.18-.06,0-.12-.34,0-.26-.18-.08,0-.23.17-.28.09l.06-.06c-.06.06-.18,0-.27.2.23-.61-.51-.4-.35-.91a2.89,2.89,0,0,1-.5-.2s.06-.07.07,0c-.07-.27-.41.38-.49.09s.19-.07.2-.21c.31-.55-.29-.08-.22-.48h.05c0-.25-.38.05-.52-.08a.31.31,0,0,0,0-.09,1,1,0,0,1-.75.19c.17-.19.14-.08.23-.32-.09,0-.18.37-.35.36a1,1,0,0,1,.12-.53l.1,0c.12-.34-.11,0-.13-.12l.09-.13c-.13,0-.39.3-.53.2l-.08.09c-.42.22.12-.18-.23,0l.36-.26a2.9,2.9,0,0,1-.8.13c.43-.12.7-.16.92-.25,0,0-.15,0-.41.06.07,0,.2-.06.15,0a1.36,1.36,0,0,1-.84.12c.53-.17.54-.22.52-.26s-.1-.07.39-.17h-.15c0-.06.46-.14.46-.18-.83,0,0,0-.79-.07,0,0,0-.06.07-.06a3.25,3.25,0,0,1,.53,0c.21,0,.13.05.29.08a1.91,1.91,0,0,1,.48.09c-.23-.06-.32-.1-.22-.09l-.31-.07c-.25-.2.53.17.26,0l.16.11c0-.05-.07,0,0-.13a.49.49,0,0,0-.09-.5c.07,0,.22.1.22.18.27-.24.05-.94.43-1l.11.1c0-.08-.17-.25,0-.24s.11.09.13.07-.12-.29,0-.32l.11.14c.33-.26-.09-.68-.09-1a.54.54,0,0,0,.72-.28l.06,0a1.73,1.73,0,0,0-.5-1.57.53.53,0,0,0,.08-.39,1.66,1.66,0,0,0-.2-.4c-.08-.15-.24-.23-.35-.35l-.17-.18a.86.86,0,0,1-.18-.14c0,.09-.18.25-.29.26s-.43.13-.27-.2l0,0c0-.39-.28-.32-.49-.34L120,187c-.54-.75-1,.27-1.29-.31-.07.12-.18.14-.25.27l0-.24a1.26,1.26,0,0,0-.65.09l0-.17c-.17,0-.09.69-.23.74l-.11-.32c-.27.07-.61-.14-.81.22,0,0,0-.14,0-.16-.13,0-.54-.06-.39.34-.07-.27-.29.06-.4.22l0-.2c-.06.29,0,.35-.19.47s-.08-.14,0-.11c-.16-.05-.06.21-.24.16l0-.14c-.14,0-.11.09-.15.25s-.26,0-.33-.12c0,.11,0,.26-.12.24a.12.12,0,0,1,0-.12c-.26,0-.27.31-.48.19,0,0,0-.08,0-.09.18-.06.32-.1.31-.08,0-.16-.2-.13-.15-.4-.08.17-.2.49-.36.47l0,0v0a.08.08,0,0,0-.08.06.28.28,0,0,0-.13,0c-.06-.12-.19,0-.26,0s0,.17.09.26c0,0,0,0,0,0l0,0h0l.17-.07c0,.1-.06.19-.17.13l0,.29c-.16-.19-.39-.23-.46-.35-.18.17-.48.26-.53.58-.05.06-.09,0-.13-.08s.07-.05.08-.1c-.1.12-.36.17-.33.36-.18,0,0-.2-.16-.09V189c-.5-.07-.54.67-1.1.54,0,0,.05,0,.07,0-.56.11-1,.53-1.59.62-.16,0-.15.1-.23.18l0,0-.12.13c-.2.13-.42,0-.66.25h0c-.1,0-.3.15-.3.12s0,0-.06,0h0L108,191c-.18.08,0-.06-.24.08l-.24.14.11-.05-.1,0,.15,0,.17-.06h.05l-.14,0a.71.71,0,0,0,.19-.06s0,0,.07,0l.15-.08s-.06,0,0,0-.08,0,0-.06.07,0,.15,0,0,0,0,0,.22-.06.25-.1.27-.09.29,0a.79.79,0,0,1,.2-.12c-.1.13.28-.07.29.05.07-.12.36-.14.52-.25,0,0,0,0,0,0a.5.5,0,0,1,.22,0c0-.11.13-.17.19-.27.16.07,0,.15,0,.24,0-.08.18-.14.11-.21.12.05.09,0,.18.1,0-.16.08,0,.13-.17.16.05.09.15.22.06S111,190.46,111,190.46Zm3.48-1.28h0l-.07,0Zm.31-.08-.14,0c0-.05,0-.12,0-.12S114.69,189.06,114.76,189.1Zm-1-1s.06,0,.08,0l-.08.05v0A.27.27,0,0,1,113.77,188.14Z" fill="#af5341"/>
          <path d="M113.75,188.39s0,0,0,0l0,0v-.06Z" fill="#af5341"/>
          <path d="M118,201.6h0l0,0Z" fill="#af5341"/>
          <polygon points="118.95 188.77 118.95 188.71 118.93 188.76 118.95 188.77" fill="#af5341"/>
          <path d="M116.16,201.57l0,0S116.14,201.56,116.16,201.57Z" fill="#af5341"/>
          <path d="M115.44,201.71h0Z" fill="#af5341"/>
          <path d="M114.87,201.78v0h0Z" fill="#af5341"/>
          <path d="M122.65,198.22s0,0,0,0S122.64,198.18,122.65,198.22Z" fill="#af5341"/>
          <path d="M120.94,200a.5.5,0,0,1,0-.13S120.9,199.84,120.94,200Z" fill="#af5341"/>
          <polygon points="122.05 197.09 122.05 197.09 122.04 197.08 122.05 197.09" fill="#af5341"/>
          <path d="M121.1,199.78a.09.09,0,0,0-.12,0S121.07,199.83,121.1,199.78Z" fill="#af5341"/>
          <polygon points="112.44 201.94 112.41 201.94 112.41 201.94 112.44 201.94" fill="#af5341"/>
          <path d="M112.41,201.94h0Z" fill="#af5341"/>
          <path d="M112.31,201.94h0Z" fill="#af5341"/>
          <path d="M113.18,202h0Z" fill="#af5341"/>
          <path d="M113.41,202a.65.65,0,0,0-.21,0v0S113.36,202,113.41,202Z" fill="#af5341"/>
          <path d="M114.38,202.22h-.19s.08.06,0,.07C114.44,202.37,114.13,202.22,114.38,202.22Z" fill="#af5341"/>
          <path d="M115,202.24c-.1,0,0,0,0,.07S115.08,202.26,115,202.24Z" fill="#af5341"/>
          <path d="M119.31,201.35l0,.16C119.43,201.46,119.34,201.45,119.31,201.35Z" fill="#af5341"/>
          <polygon points="119.79 200.24 119.69 200.16 119.71 200.33 119.79 200.24" fill="#af5341"/>
          <polygon points="120.71 201.26 120.69 201.3 120.79 201.19 120.71 201.26" fill="#af5341"/>
          <path d="M123,194.8l-.16.25C122.92,195.05,123.14,194.79,123,194.8Z" fill="#af5341"/>
          <path d="M120.26,193.46c.11-.12.17-.2,0-.11C120.28,193.38,120.21,193.48,120.26,193.46Z" fill="#af5341"/>
          <polygon points="119.78 186.59 119.89 186.51 119.69 186.57 119.78 186.59" fill="#af5341"/>
        </g>
        <g>
          <path d="M152.74,155.49l0,0,0,0Z" fill="#af5341"/>
          <path d="M152.54,155.64s-.06.08,0,.07,0,0,.06-.09l.05,0,.06-.05a1.1,1.1,0,0,0-.14.11S152.54,155.64,152.54,155.64Z" fill="#af5341"/>
          <path d="M149.37,157.37h0Z" fill="#af5341"/>
          <path d="M147.31,158.18a.06.06,0,0,0,0-.06A.06.06,0,0,0,147.31,158.18Z" fill="#af5341"/>
          <path d="M146.84,158.06h0S146.84,158,146.84,158.06Z" fill="#af5341"/>
          <path d="M149.37,157.37l-.08,0C149.32,157.4,149.34,157.37,149.37,157.37Z" fill="#af5341"/>
          <path d="M152.2,156l0,0,0,0Z" fill="#af5341"/>
          <path d="M150.18,156.81h0l0-.05Z" fill="#af5341"/>
          <path d="M150.85,156.47s0,.09.05.13,0-.06,0-.07Z" fill="#af5341"/>
          <path d="M152,156l0,0Z" fill="#af5341"/>
          <path d="M149.68,157l0-.05Z" fill="#af5341"/>
          <path d="M129.45,159.92h0Z" fill="#af5341"/>
          <polygon points="128.72 159.38 128.73 159.38 128.73 159.39 128.72 159.38" fill="#af5341"/>
          <path d="M146.09,158h0S146.1,158,146.09,158Z" fill="#af5341"/>
          <path d="M140.21,159.66c.1.24-.07.33.07.6C140.26,160.15,140.32,159.81,140.21,159.66Z" fill="#af5341"/>
          <path d="M152.18,156l0,0Z" fill="#af5341"/>
          <path d="M140.28,160.26h0l0,0Z" fill="#af5341"/>
          <path d="M144.67,158.61a.28.28,0,0,0,.05.11Z" fill="#af5341"/>
          <path d="M145.9,158.59l0,0S145.89,158.59,145.9,158.59Z" fill="#af5341"/>
          <path d="M144.21,159.15s0-.05-.05,0l0,0S144.18,159.11,144.21,159.15Z" fill="#af5341"/>
          <path d="M143.6,159.3l0,0v0Z" fill="#af5341"/>
          <path d="M131.28,160.83a.24.24,0,0,1,0-.12C131.26,160.8,131.16,160.79,131.28,160.83Z" fill="#af5341"/>
          <path d="M152.19,156a0,0,0,0,1,0,0l0,0Z" fill="#af5341"/>
          <path d="M144.83,161.15h0Z" fill="#af5341"/>
          <path d="M136,162l0,0S136,162,136,162Z" fill="#af5341"/>
          <path d="M144.42,161.28a1,1,0,0,0-.11-.16v.08Z" fill="#af5341"/>
          <path d="M131.28,160.71Z" fill="#af5341"/>
          <path d="M130.56,160.66c.09.05.08-.1.13-.16s0,.12,0,.2.16-.1.21-.08,0,0,0,.07.22.09.34,0a.09.09,0,0,1,0,.05.62.62,0,0,1,0-.22s.1-.08.09,0,0,0-.06.06l.06,0c0,.17-.07,0-.1.14s.23-.11.29-.05-.17,0-.12.17l-.09-.09c0,.26-.06,0,0,.24.12.1.17,0,.3.08.05-.08,0-.14.07-.22.23-.1,0,.48.25.31s.13-.33.2-.17l-.08.19c.13.07.14-.27.25-.09,0,.08-.12,0-.1.07.05.2.09-.1.16-.07l0,.19c.15,0,.34-.08.5-.08,0,.06-.06.12,0,.19.22,0,.42.15.6.34l.11-.17a.2.2,0,0,1,0,.13c.06.1,0-.13.07-.2s0,.13,0,.19c.17-.13.44-.3.56,0l0,.06c.1.11.18-.42.26-.2l0,0c.23.14.52,0,.67.36.07-.33.23.2.29-.28.12.25.07.33.26.52,0,0,.1-.3.17-.34l0,.26.11-.27,0,.32.06-.06a.35.35,0,0,1,0-.2c.1-.11.22.21.22.34l.24-.2a.41.41,0,0,1-.09.21c.14-.26,0,.29.14,0a.71.71,0,0,1,0-.21c0,.17.18.18.27.12l0,.19c.17.07.36-.05.55-.05a.56.56,0,0,1,0-.46l0,.3c0-.19-.06-.12,0-.34.07,0,0,.34,0,.43l.09-.1c0,.09,0,.14,0,.25,0-.18.16.31.2,0v.09c.19,0,.28-.09.44-.1,0-.27.05-.21.09-.43.12.09.26.3.39.28s0-.23.05-.39c0,.24.16.22.1.4.16,0,.21-.06.4-.27a.53.53,0,0,1-.05-.23s.09.09.1.21v0c.19-.39.61.68.75.14v0l.16-.29c.09,0,0,.19.05.34.16-.44.34,0,.48-.26.24.74.46-.12.71.32l0-.18c0-.18.08.09.12.13,0-.14-.08-.15-.07-.25.35-.29.85.1,1.29.17.16,0-.11-.91.16-.53l0,.33c.2-.45.59-.16.79-.56,0,.07,0,.17,0,.18.12.2.22-.06.17-.25.05,0,.06.17.11.25s.07-.33.17-.12a.16.16,0,0,1,0,.1c0-.12.19,0,.08-.27.14.09.17-.18.3-.06,0-.3.22.08.11-.32.12.41.29.27.29.06,0,.13.1.11.13.29.07,0,.12-.13,0-.34.29.43.14-.5.42.08a2.49,2.49,0,0,1,.45-.7c.13.38-.2.13-.05.53.13-.24.11-.61.33-.6.07,0,0,.18,0,.25.13-.23.37-.12.45-.39a.37.37,0,0,1,0,.11s.09,0,0-.14V160c-.15-.22-.08-.55-.12-.68.14.49.2,0,.36.67a.39.39,0,0,0-.05-.23c.05,0,.08.08.1.21.08-.14,0-.29.07-.33a.72.72,0,0,1,0,.21c0-.17,0-.35.09-.33s.05.1,0,.12c.14-.11.08-.52.3-.46.09.34.1.07.23.34l0-.13-.09-.11c.08,0,.05-.26.16-.21v.14l.12-.13-.13-.06c0-.17-.16-.32,0-.3s.08,0,.19.1h0c0-.1,0-.2.08-.17s.12.28.15.33c-.06-.23.15-.15.08-.39a1.09,1.09,0,0,0,.09.21l-.05-.18c.06,0,.08.06.13.16s-.19-.29,0-.22c0,0,0,0,0,.07.16,0,.19-.22.34-.2.15.21-.07.11.07.28.13-.14.19-.44.36-.5h0c-.13-.31.19.07.19-.12a.76.76,0,0,0,0,.14c.13,0,.17-.21.27-.39l0,.08c.1,0,.18-.07.26-.09s0-.09-.05-.17c.4.22.27-.42.6-.27,0,0,0,.09,0,.07l.12-.15c-.07-.08-.06,0-.13-.09s0-.13,0-.15.09.14.15.16,0-.06,0-.08c.17.1-.09-.18.08-.14l0,0c0-.05,0-.12.08-.14s0,.07,0,.15,0-.25.12-.19,0,.06-.06.1.12,0,.17,0h0l.13,0h0c-.06-.27.13-.15.14-.35,0,.19,0,.08.08.17s.09,0,.09,0,.11,0,.11-.16c0,0,0,0,.08,0s0,0-.06-.07.26-.09.32-.3.07-.19.16-.29,0,.07,0,.07a.26.26,0,0,0,.15-.12s0,0,0,0,0-.06.07-.09a.25.25,0,0,1,0,.08,1,1,0,0,1,.12-.17s0,.05,0,.08.14-.15.14-.18l0,0s0,0,0,0-.07,0-.08,0l0,0c-.07,0-.15.12-.22.19v-.07l-.05.09s-.06,0,0-.05,0,.05-.1.05a0,0,0,0,1,0,0l0,.05s0,0,0-.05c-.13,0-.13.16-.2.13h0c-.12.11,0,.06,0,.2l-.17-.11,0,.07s-.05,0-.06,0,0,0,0,.08-.17.16-.26,0c0,.08.09,0,0,.09-.1-.12-.06.08-.17.06s.06-.08,0-.11c0,.15-.14,0-.18.1s-.09.11-.16.2-.22,0-.34,0v0c.07.14,0,.16-.09.22a.22.22,0,0,1,0-.18l-.06,0a.14.14,0,0,1,0,.13l0-.12c-.08,0-.08.21-.24.19.07.11.27.25.2.39a.36.36,0,0,1-.09-.2s0,.07,0,.06l0-.13c-.07,0,0,.1,0,.11s-.06,0-.1-.11.06,0,.05,0a.23.23,0,0,1-.19-.07s.07.11,0,.14-.09-.09-.16-.11-.08,0,0,.17-.06-.05-.1-.09-.18.12-.05.25h0c0,.23-.33.07-.43.21l0,0c-.05.1-.16.13-.15.28s-.11-.07-.14-.14,0,.14-.16.08c0-.13-.07-.08,0-.1-.11,0-.18-.1-.19.09,0-.16-.16-.16-.18-.1l.12.09s-.08,0-.13,0l-.08-.21c-.3-.19-.09.56-.44.18,0,.17.14.06.19.26-.09,0-.33-.28-.35-.27s.05.36-.1.33c.05.07.17.28.12.4s-.26-.31-.24-.39,0,0,.05,0a.13.13,0,0,0-.05-.16l0,.08c-.08-.07-.18,0-.22-.16a.14.14,0,0,0,.1.17c-.15-.08-.16.06-.3,0,0,0,.1.14.08.14-.2,0,0,.19-.08.28-.11-.11-.12-.33-.17-.17a.4.4,0,0,1-.12-.31c0,.2-.23,0-.3-.06l0-.09a.09.09,0,0,1-.06.07l.11.17s-.07,0-.1-.09c0,.13.15.29.16.48-.08-.08-.08.14-.2-.1.16,0-.12-.24,0-.31s0,0-.07,0a.12.12,0,0,1,0-.07c-.21-.19.06.29-.06.32-.05-.14-.14-.25-.15-.22s.12.23.12.35c-.13-.08-.06.11-.1.11l.07,0c0,.15,0,.14-.05.21,0-.11,0-.1,0-.14,0,.27-.24-.22-.26,0-.08-.08-.11-.27-.17-.33,0,.22-.19-.16-.23,0a.43.43,0,0,1,.1.36l.11-.19v.32c.06,0,.06-.16.11-.14a.38.38,0,0,0,.08.29c-.18-.28-.07.22-.23,0l-.18-.49c-.2-.19-.12.32-.32.25l.08.07c0,.21-.08.06-.1.16a1.32,1.32,0,0,0-.17-.32c0,.12-.12,0,0,.37l-.15-.2c-.16-.06,0,.54-.12.53,0-.21-.12-.31-.09-.48,0,0-.08,0,0,.12-.06-.1,0,.26-.13.11,0,.08.06.27,0,.26a.27.27,0,0,1,0-.08c0,.08,0,.13.07.32-.3-.52-.35.14-.6-.32a.9.9,0,0,1-.24.21c0-.06,0-.09,0-.08-.16-.14.08.55-.1.39s0-.18-.05-.28c-.18-.61-.13.13-.31-.21v0c-.12-.2-.1.27-.22.26l0-.1a.91.91,0,0,1-.19.6,1,1,0,0,0-.07-.38s.11.39,0,.49a1.82,1.82,0,0,1-.23-.5l.08,0c-.12-.34-.11,0-.17,0l0-.15c-.12.07,0,.45-.19.45l0,.12c0,.39-.11-.2-.14.09l-.1-.38a1.91,1.91,0,0,1-.19.5,3,3,0,0,1,.11-.65c-.05,0-.17.06-.16.26,0,0,0-.14.06-.08,0,.31-.06.48-.17.49-.12-.76-.31-.14-.48-.71-.14.31-.38,0-.58,0,.16.57-.06,0,0,.62-.05.05-.07,0-.08,0l-.2-.34c-.06-.18,0-.14,0-.28s-.08-.25-.17-.4c0,.22,0,.31-.07.24l.12.27c-.11.34-.19-.49-.31-.16l0-.19c-.06.12-.28,0-.31.52,0-.06-.06-.22,0-.27-.19-.05-.37.56-.54.29v-.15c0,.05,0,.28-.1.14s0-.14,0-.15-.08.27-.13.18l0-.16c-.19-.18-.25.41-.41.52a.74.74,0,0,0-.24-.61v-.06c-.21,0-.35.37-.55.55-.13-.44-.42-.15-.61-.39a.58.58,0,0,1-.05.35c0-.08-.13.27-.12-.09h0c0-.36-.13-.26-.2-.27l0,.47c-.17-.67-.52.24-.6-.34-.06.11-.11.12-.17.23l0-.24a.48.48,0,0,0-.36,0l.05-.16c-.09,0-.17.66-.26.66v-.33c-.16,0-.29-.29-.48,0,0,0,0-.14.05-.15s-.27-.21-.29.21c0-.27-.17,0-.27.09l0-.2c-.11.25-.12.32-.23.38s0-.16,0-.1c-.06-.11-.09.17-.17.06l.06-.12c-.09,0-.09,0-.16.18s-.15-.07-.13-.24c0,.1-.1.23-.14.18a.24.24,0,0,1,0-.12c-.12-.13-.25.19-.31,0a.19.19,0,0,0,0-.11c.11,0,.2,0,.19,0,0-.16-.06-.19,0-.42-.09.13-.26.38-.33.3V160h0s0,0-.06,0,0,0-.07,0-.09-.08-.13-.08c0,.16-.08.13-.06.27,0,0,0,0,0,0h.13c0,.08-.1.15-.14,0l-.11.26c0-.24-.11-.37-.1-.51-.15.07-.33,0-.48.28-.05,0,0-.08,0-.12s.05,0,.07-.06-.23,0-.29.17c-.08-.09.09-.15-.05-.14l0-.05c-.2-.28-.54.33-.74,0,0,0,0,0,0,0-.31-.17-.72-.06-1-.28-.08,0-.11,0-.18,0v-.07l-.12.05c-.15,0-.19-.19-.4-.16v0c-.06,0-.2-.05-.18-.07a0,0,0,0,1,0,0h0l-.16,0c-.12-.05,0,0-.14-.08l-.17,0,.07,0-.06,0,.07.06.1.05,0,0-.07-.05a.27.27,0,0,0,.1.06s0,0,0,0l.1,0s-.05,0,0,0,0-.06,0,0,0,.05.07.06,0,0,0,0,.12.07.16.06.16.08.13.14a.39.39,0,0,1,.14,0c-.11,0,.16.1.1.19.09-.06.23.08.35.07s0,0,0,0a.42.42,0,0,1,.09.14c0-.1.14-.08.21-.13,0,.15-.08.11-.09.23,0-.09.15,0,.15-.12,0,.1,0,.06,0,.18.05-.15.06,0,.13-.08.06.11,0,.16.08.15S130.56,160.66,130.56,160.66Zm2.31.46Zm.2,0-.09,0c0-.06,0-.12,0-.11S133.05,161.1,133.07,161.16Zm-.19-1.25s0,0,0,.05h-.06v0S132.87,159.93,132.88,159.91Z" fill="#af5341"/>
          <path d="M132.79,160.12l0,0v0l0,0Z" fill="#af5341"/>
          <path d="M149.41,157.38Z" fill="#af5341"/>
          <polygon points="135.73 162.08 135.73 162.02 135.71 162.07 135.73 162.08" fill="#af5341"/>
          <path d="M150.57,157.24s0,0,0,0Z" fill="#af5341"/>
          <path d="M151,157h0Z" fill="#af5341"/>
          <path d="M151.27,156.83v0h0Z" fill="#af5341"/>
          <path d="M146.53,160.09s0,0,0,0S146.52,160.14,146.53,160.09Z" fill="#af5341"/>
          <path d="M147.84,158.83a.49.49,0,0,1,0,.12S147.89,158.94,147.84,158.83Z" fill="#af5341"/>
          <polygon points="144.84 161.15 144.84 161.15 144.83 161.15 144.84 161.15" fill="#af5341"/>
          <path d="M147.76,159c.05,0,.06,0,.07,0S147.77,158.94,147.76,159Z" fill="#af5341"/>
          <polygon points="152.43 155.8 152.44 155.79 152.44 155.78 152.43 155.8" fill="#af5341"/>
          <path d="M152.44,155.78h0Z" fill="#af5341"/>
          <path d="M152.48,155.74l0,0Z" fill="#af5341"/>
          <path d="M152.08,156.11v0Z" fill="#af5341"/>
          <path d="M152,156.21s.09,0,.12-.07h0S152,156.17,152,156.21Z" fill="#af5341"/>
          <path d="M151.33,156.32l.11,0s-.08,0,0-.06C151.22,156.21,151.47,156.25,151.33,156.32Z" fill="#af5341"/>
          <path d="M151,156.46c.05,0,0,0,0-.06S150.92,156.46,151,156.46Z" fill="#af5341"/>
          <path d="M148.62,157.64l-.08-.15S148.57,157.55,148.62,157.64Z" fill="#af5341"/>
          <polygon points="148.57 158.65 148.66 158.72 148.61 158.57 148.57 158.65" fill="#af5341"/>
          <polygon points="147.72 157.63 147.72 157.59 147.68 157.68 147.72 157.63" fill="#af5341"/>
          <path d="M143.64,159.05l.1.28C143.76,159.27,143.67,159,143.64,159.05Z" fill="#af5341"/>
          <path d="M141.91,159.79c-.06-.15-.13-.24-.13-.08C141.83,159.72,141.9,159.83,141.91,159.79Z" fill="#af5341"/>
          <polygon points="136.34 159.93 136.38 159.84 136.31 159.92 136.34 159.93" fill="#af5341"/>
        </g>
        <g>
          <path d="M150.23,157.19h0Z" fill="#af5341"/>
          <path d="M150.27,157.27h0l0,0a0,0,0,0,1,0,0v0a.05.05,0,0,0,0,0A0,0,0,0,1,150.27,157.27Z" fill="#af5341"/>
          <path d="M150.48,158.48l0,0Z" fill="#af5341"/>
          <path d="M150.55,159.26s0,0-.05,0Z" fill="#af5341"/>
          <path d="M150.32,159.49v0S150.3,159.49,150.32,159.49Z" fill="#af5341"/>
          <path d="M150.48,158.48l0,0C150.49,158.5,150.47,158.49,150.48,158.48Z" fill="#af5341"/>
          <path d="M150.44,157.37h0Z" fill="#af5341"/>
          <path d="M150.29,158.2h0l0,0Z" fill="#af5341"/>
          <path d="M150.25,157.94l.13,0h-.06Z" fill="#af5341"/>
          <path d="M150.3,157.49Z" fill="#af5341"/>
          <path d="M150.29,158.4l0,0Z" fill="#af5341"/>
          <path d="M153.55,164.68h0Z" fill="#af5341"/>
          <polygon points="153.46 165.03 153.46 165.03 153.46 165.03 153.46 165.03" fill="#af5341"/>
          <path d="M150.08,159.84Z" fill="#af5341"/>
          <path d="M150.88,161.82c.23-.12.32-.09.56-.23A5.58,5.58,0,0,0,150.88,161.82Z" fill="#af5341"/>
          <path d="M150.44,157.38h0Z" fill="#af5341"/>
          <path d="M151.44,161.59Z" fill="#af5341"/>
          <path d="M150.32,160.32l.11,0Z" fill="#af5341"/>
          <path d="M150.55,159.79l0,0S150.55,159.79,150.55,159.79Z" fill="#af5341"/>
          <path d="M150.72,160.38s-.05,0,0,0h0S150.69,160.4,150.72,160.38Z" fill="#af5341"/>
          <path d="M150.79,160.58l.05,0h0Z" fill="#af5341"/>
          <path d="M153.58,164l-.1,0C153.56,164,153.59,164,153.58,164Z" fill="#af5341"/>
          <path d="M150.42,157.38h0Z" fill="#af5341"/>
          <path d="M152.66,159.59v0S152.67,159.6,152.66,159.59Z" fill="#af5341"/>
          <path d="M153.41,162.35h0Z" fill="#af5341"/>
          <path d="M152.73,159.71l-.16.09.07,0Z" fill="#af5341"/>
          <path d="M153.48,164Z" fill="#af5341"/>
          <path d="M153.69,164.17s-.11,0-.18.05.09-.06.16-.1-.15,0-.14,0l.05,0c-.1,0,0-.09-.14-.06l0,0-.21.09s-.1,0,0,0,0,0,.07,0h-.05c.15-.08.06,0,.16-.05s-.17,0-.13,0,.05,0,.18-.06l-.06.07c.23-.13,0,0,.23-.1.05-.07-.07,0,0-.1s-.13.06-.21.08.4-.22.18-.18-.33.11-.22,0l.2-.07c0-.05-.29.09-.16,0s.07,0,.09,0-.11,0-.12,0l.18-.08s-.17,0-.21-.08a.67.67,0,0,0,.18-.07c-.11,0,0-.16.14-.29l-.19,0,.12,0c.07-.05-.12,0-.19.07s.1-.07.16-.08c-.16,0-.38,0-.17-.12h.06c.07-.08-.42.12-.24,0h0c.07-.11-.14-.12.17-.31-.31.11.13-.14-.31,0a2.29,2.29,0,0,0,.43-.28s-.29.09-.34.09l.24-.1-.26.08.29-.14h-.07l-.17.09c-.12,0,.15-.15.28-.2h-.23a.71.71,0,0,1,.2-.05c-.26.06.27-.12,0-.06l-.2.08c.14-.08.14-.12.07-.13l.17-.06c0-.08-.1-.08-.11-.14a1.89,1.89,0,0,1-.43.17l.27-.12a2.54,2.54,0,0,1-.31.12,1.74,1.74,0,0,1,.4-.16h-.1l.23-.09c-.17.06.27-.16,0-.06l.08,0c0-.06-.11,0-.14-.09a2.4,2.4,0,0,1-.4.12c.07-.06.25-.18.22-.22a3.3,3.3,0,0,0-.37.13c.23-.1.19-.13.36-.17,0,0-.06-.05-.27,0l-.21.1s.09-.06.2-.11h0c-.38.08.62-.44.11-.3h0l-.28,0s.19-.05.32-.13c-.41.1,0-.12-.26-.07.69-.32-.1-.12.32-.36l-.16.08c-.17.05.09-.06.12-.09a1.52,1.52,0,0,1-.23.11c-.25,0,.14-.34.23-.52s-.85.33-.49.11l.31-.11c-.4.07-.07-.18-.42-.14a.82.82,0,0,1,.17-.05c.2-.1,0-.07-.2,0,0,0,.16-.07.24-.12s-.3.07-.09,0l.09,0c-.11,0,0-.07-.24.05.1-.08-.14,0,0-.1-.28.09.1-.11-.29,0,.4-.16.29-.18.1-.13.12,0,.11-.06.28-.12,0,0-.1,0-.3.07.44-.23-.42.08.16-.19a2.23,2.23,0,0,1-.54,0c.38-.15.07,0,.47-.11-.19,0-.53.11-.47,0a1,1,0,0,1,.23-.08c-.19,0,0-.12-.26-.08a.19.19,0,0,1,.1,0s0,0-.12,0h0a3.56,3.56,0,0,1-.64.21c.47-.17.09-.09.69-.31a1,1,0,0,0-.22.08.61.61,0,0,1,.21-.09c-.11,0-.27.08-.29.05l.2-.07c-.16,0-.31.09-.27,0s.11,0,.11,0-.43.08-.32,0c.32-.11.09-.06.36-.17h-.1l-.12.07s-.22,0-.14,0l.12,0-.08,0-.08.06c-.15,0-.33.14-.28.08s0,0,.14-.1h0c-.09,0-.18,0-.12,0l.33-.14c-.22.08-.09,0-.32,0l.21-.08-.17.06a.68.68,0,0,1,.17-.08c0-.05-.3.13-.19,0l.07,0c0-.07-.15,0-.09-.1.23-.11.08,0,.27-.09-.08,0-.35,0-.32-.06l0,0c-.31.12.13-.1,0-.07l.14,0c0-.05-.13,0-.24-.05l.07,0c.05,0,0-.07,0-.11a.46.46,0,0,0-.16.06c.33-.22-.27-.06,0-.23l.06,0-.09,0a.5.5,0,0,0-.13.07c-.06,0-.11,0-.11,0a.39.39,0,0,0,.19-.1l-.09,0c.15-.09-.18.07-.09,0l0,0s-.09,0-.09,0,.06,0,.14,0-.21,0-.12,0,0,0,.07,0,.07,0,.07-.07h0l0,0,0,0c-.24.06-.08,0-.23,0,.14,0,.07,0,.16-.05s0-.05.06-.05,0,0-.08,0,0,0,.05,0,0,0-.07,0,0-.11-.1-.11-.13,0-.18,0,.07,0,.07,0,0,0,0-.06,0,0,0,0-.06,0,0,0h.06l-.08,0s0,0,0,0a.28.28,0,0,0-.09-.05v0h0s0,0,0,0h0s0,0,.05.07h0s0,0-.06,0,0,0,0,.05h0s-.05,0,0,0,.07,0,0,.08h0s.06,0,.15,0l-.15.09.07,0s0,0,0,0,0,0,.08,0,.06.06-.06.12c.06,0,0-.05.09,0-.14.07,0,0,0,.08s0,0-.11,0c.14,0,0,.06,0,.07s.05,0,.1.05,0,.09-.1.15h0c.14-.05.12,0,.16,0a.41.41,0,0,1-.17,0v0h.1l-.12,0s.15,0,.07.08c.13-.05.32-.17.42-.16l-.21.07s.06,0,0,0l-.12,0s.1,0,.09,0l-.14.07s0,0,0,0a.4.4,0,0,1-.13.1.39.39,0,0,1,.14-.05s-.11.06-.16.1,0,0,.15,0-.07,0-.11.06,0,.06.19,0h0c.17,0-.06.14,0,.17l-.06,0c.08,0,.06.05.19,0a.49.49,0,0,1-.17.09c.05,0,.12,0,0,.06s-.1,0-.09,0-.14.1,0,.07c-.15.05-.19.1-.14.1l.11-.07s0,0,0,.05l-.21.08c-.26.17.47-.08,0,.16.15,0,.1-.08.28-.14a3.53,3.53,0,0,1-.34.21c-.12.09.34-.1.27,0a1.4,1.4,0,0,1,.39-.14,1.48,1.48,0,0,1-.42.19s0,0,.05,0a.29.29,0,0,0-.16,0l.09,0c-.09.05-.07.09-.21.13a.3.3,0,0,0,.18-.08c-.12.09,0,.06-.07.13l.15-.06c-.1.1.17,0,.22,0-.13.07-.32.12-.2.11a1.22,1.22,0,0,1-.31.12c.18,0-.1.12-.14.15H150s0,0,0,0l.18-.09a.36.36,0,0,1-.1.06c.12,0,.3-.13.47-.17-.09.05.11,0-.14.1.08-.08-.24.11-.29.09s0,0,0,0l-.06,0c-.22.13.28-.09.28-.05s-.26.12-.23.12a1.32,1.32,0,0,1,.34-.14c-.1.08.09,0,.08,0l0,0c.14-.05.13,0,.18,0-.11.05-.08,0-.13,0,.26-.08-.24.16-.07.12-.09.05-.27.11-.33.15.2,0-.19.12,0,.09a1.21,1.21,0,0,1,.35-.12h-.16l.3-.08s-.14,0-.11,0a1,1,0,0,0,.28-.11c-.29.15.19,0,0,.09l-.49.2c-.21.13.27,0,.16.07l.08,0c.2-.07,0,0,.12,0a2.5,2.5,0,0,0-.32.15c.12-.05,0,0,.33-.09l-.21.12c-.08.08.5-.15.46-.09a2.48,2.48,0,0,1-.45.16s0,0,.09,0c-.1.06.25-.05.09,0a.93.93,0,0,1,.25-.08l-.09,0a1.29,1.29,0,0,0,.31-.11c-.52.26.09.1-.37.33a.4.4,0,0,1,.16,0c-.05,0-.09,0-.07,0-.15.11.52-.18.35-.07s-.16,0-.27.1c-.58.25.1,0-.23.19h0c-.19.1.24,0,.21,0l-.09,0a1.41,1.41,0,0,1,.53-.09,2.2,2.2,0,0,0-.36.13s.38-.16.45-.15a4.15,4.15,0,0,1-.47.23l0,0c-.32.15,0,0,0,.07l-.15.06c.06,0,.43-.12.42-.07l.11-.05c.37-.12-.2.11.08,0l-.36.16a4,4,0,0,1,.46-.08c-.28.09-.43.11-.6.16,0,0,.05,0,.23,0,0,0-.13,0-.08,0,.3-.1.45-.13.46-.1-.71.29-.15.16-.68.41.28,0-.07.17,0,.22.53-.25,0,0,.58-.22,0,0,0,0,0,0l-.31.19a1.35,1.35,0,0,1-.26.09s-.23.11-.37.2c.2-.09.29-.11.23-.06l.24-.13c.32-.08-.45.23-.13.16l-.18.06c.11,0,0,.09.5-.07a1.24,1.24,0,0,1-.26.1c0,.09.54-.06.29.1l-.14.05s.26-.09.14,0l-.15.06c.05,0,.25-.07.18,0l-.15,0c-.15.13.41-.06.52,0a1.74,1.74,0,0,0-.54.3l-.05,0c0,.09.38,0,.56,0-.39.21-.1.2-.28.35l.33-.12c-.07,0,.27-.06-.06.07h0c-.32.15-.21.14-.21.17l.43-.18c-.58.32.32.07-.2.32.11,0,.12,0,.23,0l-.22.09c0,.06,0,.09,0,.12l-.16,0s.63-.22.66-.2l-.3.14s-.19.2.11.13l-.15,0s-.13.16.26,0c-.25.11,0,.06.14,0l-.19.07a1.32,1.32,0,0,1,.4-.1s-.14.07-.1,0,.18-.05.1,0l-.12,0s.06,0,.2,0,0,.06-.17.13c.1,0,.23-.08.2,0l-.12,0c-.08.08.24,0,.09.07l-.09,0s0-.06,0-.07a1.74,1.74,0,0,1-.38.17c.13,0,.41-.1.35,0l0,0h0s0,0,0,0,0,0,0,0,0,.05,0,.07a1.53,1.53,0,0,0,.25-.11h0l0,0c.08,0,.16,0,.08,0l.26-.08c-.2.1-.29.18-.41.24a.69.69,0,0,0,.4,0s-.06.05-.1.07h-.07c.08,0,.07.06.25,0-.06.06-.17,0-.11.08h-.06c-.17.17.48,0,.24.17l0,0c0,.14.22.17.16.32s0,0,.09,0l-.05,0h.09c.06,0-.08.11,0,.13l0,0s.05.06,0,.06,0,0,0,0h0l.05,0s0,0,0,.06l.05,0s0,0,0,0v0s0,0,0,0v0s0,0,0,0l0,0,0,0s0,0,0,0,0,0,0,0,0,0,0,0h0s0,0,0,0,0-.06.06-.08l-.06,0c.09,0,0-.07.12-.1-.09,0,0-.08-.09-.09h0s0-.05.07-.08-.12,0-.19,0c.1-.07.13,0,.22-.08-.08,0-.08,0-.15,0l.12-.08c-.14.06,0,0-.11,0,.08-.06.14-.07.1-.08A.13.13,0,0,1,153.69,164.17Zm-.36-.68Zm0-.06v0l-.11,0A.34.34,0,0,0,153.31,163.43Zm-1.05.58s0,0,0,0h.05Z" fill="#af5341"/>
          <path d="M152.48,163.94h0l0,0-.05,0Z" fill="#af5341"/>
          <path d="M150.5,158.46Z" fill="#af5341"/>
          <polygon points="153.54 162.38 153.48 162.4 153.53 162.39 153.54 162.38" fill="#af5341"/>
          <path d="M150.8,158h0Z" fill="#af5341"/>
          <path d="M150.73,157.82l0,0Z" fill="#af5341"/>
          <path d="M150.7,157.7l0,0h0Z" fill="#af5341"/>
          <path d="M152.05,159.17h0Z" fill="#af5341"/>
          <path d="M151.27,158.89l.1,0S151.38,158.84,151.27,158.89Z" fill="#af5341"/>
          <polygon points="152.67 159.58 152.66 159.59 152.66 159.59 152.67 159.58" fill="#af5341"/>
          <path d="M151.38,158.89s0,0,0,0S151.35,158.89,151.38,158.89Z" fill="#af5341"/>
          <polygon points="150.35 157.3 150.35 157.29 150.35 157.29 150.35 157.3" fill="#af5341"/>
          <path d="M150.35,157.29h0Z" fill="#af5341"/>
          <path d="M150.32,157.28h0Z" fill="#af5341"/>
          <path d="M150.46,157.42h0Z" fill="#af5341"/>
          <path d="M150.5,157.46s0,0,0-.05h0S150.46,157.46,150.5,157.46Z" fill="#af5341"/>
          <path d="M150.32,157.74v0s-.06,0-.07,0S150.32,157.69,150.32,157.74Z" fill="#af5341"/>
          <path d="M150.29,157.89s0,0-.06,0S150.27,157.91,150.29,157.89Z" fill="#af5341"/>
          <path d="M150.44,158.78l-.15.06S150.35,158.82,150.44,158.78Z" fill="#af5341"/>
          <polygon points="151.32 158.6 151.42 158.55 151.26 158.6 151.32 158.6" fill="#af5341"/>
          <polygon points="150.17 159.19 150.15 159.19 150.21 159.19 150.17 159.19" fill="#af5341"/>
          <path d="M150.56,160.64l.28-.12C150.78,160.53,150.47,160.66,150.56,160.64Z" fill="#af5341"/>
          <path d="M151.06,161.13c-.14.06-.23.12-.08.07S151.1,161.12,151.06,161.13Z" fill="#af5341"/>
          <polygon points="151.47 163.04 151.38 163.07 151.46 163.06 151.47 163.04" fill="#af5341"/>
        </g>
        <g>
          <path d="M156.63,157.19h0Z" fill="#af5341"/>
          <path d="M156.68,157.26a0,0,0,0,0,0,0h0a0,0,0,0,1,0,0l0,0s0,0,0,0Z" fill="#af5341"/>
          <path d="M157.11,158.41v0Z" fill="#af5341"/>
          <path d="M157.32,159.17s0,0,0,0Z" fill="#af5341"/>
          <path d="M157.13,159.44v0S157.11,159.45,157.13,159.44Z" fill="#af5341"/>
          <path d="M157.11,158.41l0,.05C157.12,158.43,157.1,158.43,157.11,158.41Z" fill="#af5341"/>
          <path d="M156.87,157.33h0Z" fill="#af5341"/>
          <path d="M156.87,158.17h0l-.05,0Z" fill="#af5341"/>
          <path d="M156.79,157.93s.08,0,.11-.07l-.06,0Z" fill="#af5341"/>
          <path d="M156.75,157.47Z" fill="#af5341"/>
          <path d="M156.9,158.37l0,0Z" fill="#af5341"/>
          <path d="M161.26,164h0Z" fill="#af5341"/>
          <polygon points="161.24 164.33 161.23 164.32 161.23 164.32 161.24 164.33" fill="#af5341"/>
          <path d="M157,159.83h0S156.94,159.83,157,159.83Z" fill="#af5341"/>
          <path d="M158.12,161.63c.19-.16.29-.14.5-.32A4.51,4.51,0,0,0,158.12,161.63Z" fill="#af5341"/>
          <path d="M156.87,157.34h0Z" fill="#af5341"/>
          <polygon points="158.62 161.31 158.62 161.31 158.64 161.29 158.62 161.31" fill="#af5341"/>
          <path d="M157.29,160.25l.09-.06Z" fill="#af5341"/>
          <path d="M157.42,159.69l0,0Z" fill="#af5341"/>
          <path d="M157.69,160.24s0,0,0,0l0,0S157.66,160.27,157.69,160.24Z" fill="#af5341"/>
          <path d="M157.8,160.43l0,0h0Z" fill="#af5341"/>
          <path d="M161.16,163.25l-.09.07C161.14,163.27,161.17,163.29,161.16,163.25Z" fill="#af5341"/>
          <path d="M156.85,157.35h0Z" fill="#af5341"/>
          <path d="M159.46,159.11v0S159.47,159.12,159.46,159.11Z" fill="#af5341"/>
          <path d="M160.7,161.69h0Z" fill="#af5341"/>
          <path d="M159.55,159.22l-.15.11.07,0Z" fill="#af5341"/>
          <path d="M161.07,163.32Z" fill="#af5341"/>
          <path d="M161.3,163.43s-.1,0-.16.09.08-.08.13-.13-.14,0-.14,0l.05,0c-.1,0,0-.08-.15,0l0,0-.19.12s-.1,0,0,0l.07,0h-.05c.13-.09.06,0,.15-.07s-.17,0-.14,0,.06,0,.17-.08l0,.07c.2-.16,0,0,.2-.14,0-.08-.07,0,0-.09l-.2.12c-.17,0,.35-.29.15-.22s-.3.17-.21.07l.18-.1c0-.06-.27.14-.16,0s.07,0,.09,0-.11,0-.12,0l.16-.11s-.17,0-.22,0a.7.7,0,0,0,.16-.1c-.1,0,0-.16.09-.31l-.18.09.11-.08c.06-.06-.11.07-.18.1a.45.45,0,0,1,.15-.1c-.16,0-.37.08-.19-.09l.06,0c.06-.09-.39.2-.24.06l0,0c.05-.13-.16-.1.11-.34-.29.17.1-.16-.3.09a3.4,3.4,0,0,0,.38-.36s-.27.14-.32.15l.22-.14-.24.12.25-.18-.06,0a1,1,0,0,1-.16.12c-.11,0,.12-.17.24-.25l-.22.06a1.2,1.2,0,0,1,.19-.1c-.25.11.24-.16,0-.06l-.18.12c.13-.11.12-.15,0-.14l.16-.1c0-.07-.12-.06-.14-.11a2.45,2.45,0,0,1-.39.25l.25-.17c-.16.09-.09.07-.29.18a1.69,1.69,0,0,1,.37-.24l-.1,0,.21-.13c-.16.09.24-.21,0-.05l.07,0c0-.06-.12,0-.16-.06a2.62,2.62,0,0,1-.37.19c.06-.08.22-.23.18-.25a1.68,1.68,0,0,0-.34.19c.21-.14.17-.17.33-.24-.06,0-.08,0-.28,0a1.07,1.07,0,0,1-.19.13s.08-.08.18-.14h0c-.35.13.53-.55.06-.32h0l-.26.09s.16-.08.29-.19c-.39.17,0-.12-.27,0,.61-.44-.12-.1.25-.41l-.15.1c-.15.08.08-.07.11-.1-.12.08-.13.1-.22.15-.24,0,.08-.36.14-.55s-.78.47-.46.19l.28-.16c-.38.13-.1-.17-.44-.06.07,0,.15-.09.16-.08.18-.15,0-.07-.2,0,0,0,.14-.1.22-.16s-.28.12-.09,0a.2.2,0,0,1,.08,0c-.1,0,0-.07-.23.09.09-.1-.14,0,0-.1-.26.15.09-.12-.27.1.37-.23.25-.24.07-.14a2.73,2.73,0,0,1,.26-.18s-.11,0-.29.13c.4-.31-.4.15.13-.22a2.37,2.37,0,0,1-.54.09c.35-.22.09,0,.44-.2-.18,0-.5.2-.46.1a1.45,1.45,0,0,1,.22-.12c-.19,0-.06-.11-.28,0l.1,0s0-.05-.12,0l.05,0a4.33,4.33,0,0,1-.59.33c.43-.26.07-.11.62-.43a1.1,1.1,0,0,0-.2.11,1,1,0,0,1,.19-.13c-.11,0-.25.14-.27.11l.18-.11c-.15.07-.29.15-.26.09s.1-.07.1-.06-.41.16-.32,0c.3-.17.08-.07.33-.23l-.1,0-.11.09s-.21.07-.14,0l.11-.05h-.08l-.07.08c-.14.06-.3.2-.26.13s0,0,.12-.13h0c-.08,0-.17.08-.12,0l.3-.19c-.2.11-.09,0-.31.1a1.17,1.17,0,0,0,.2-.12l-.16.09a.47.47,0,0,1,.16-.11c0-.05-.28.19-.19.07l.07,0c0-.07-.15,0-.11-.08.21-.15.08,0,.25-.14-.08,0-.34.07-.33,0v0c-.29.18.11-.12-.05-.06l.13-.07c0-.06-.13,0-.24,0l.07,0c0-.05,0-.06,0-.1a.44.44,0,0,0-.15.08c.28-.28-.27,0-.06-.22,0,0,.06,0,.06,0h-.09c-.09.05,0,0-.11.09s-.11,0-.12,0a.42.42,0,0,0,.18-.13l-.08,0c.12-.12-.17.1-.1,0l0,0s-.1,0-.1,0,.05,0,.13-.06-.19.07-.12,0h.07c.08-.09,0-.07.06-.09h0l0-.06,0,0c-.23.11-.08,0-.23,0,.14-.05.07,0,.15-.09a.15.15,0,0,1,0-.06c-.08,0,0,0-.09,0s0,0,0-.05,0,0-.07.05,0-.12-.12-.1-.13,0-.18,0a.08.08,0,0,1,.06,0s0,0,0,0l0,0s-.05,0-.05,0l.06,0a.13.13,0,0,1-.09,0h.05l-.09,0v0s0,0,0,0,0,0,0,0h0s0,0,.07.07l-.06,0h.06l-.05,0s0,0,0,0h0s0,0,0,0,.08,0,0,.08h0s0,0,.14,0l-.13.12.06,0,0,0c.05,0,0,0,.07,0s.07,0,0,.13c.06,0,0-.05.08-.05-.12.09,0,0,0,.07s0,0-.09.06c.12-.07,0,.06,0,.07s.07,0,.12,0,0,.1-.08.17h0c.13-.08.12,0,.16,0a.45.45,0,0,1-.15.07v0a.16.16,0,0,1,.1,0l-.11.06s.15,0,.08.07c.11-.07.28-.22.38-.23l-.19.11s.06,0,0,0l-.11,0s.09,0,.09,0l-.13.09s0,0,0,0a.42.42,0,0,1-.12.12l.13-.07s-.1.08-.13.12,0,0,.14,0l-.1.07c.07,0,.05.06.19-.05h0c.17,0,0,.15.05.16l-.05,0c.07,0,.06,0,.19,0l-.15.12s.11,0,0,0-.08.06-.08,0-.12.12,0,.06c-.14.08-.17.14-.12.12l.1-.09s0,0,0,0l-.2.12c-.22.21.46-.16.07.15.15-.08.08-.1.25-.19a3.45,3.45,0,0,1-.29.27c-.1.11.32-.16.26-.07a1.8,1.8,0,0,1,.35-.21,1.16,1.16,0,0,1-.37.26l0,0a.25.25,0,0,0-.14.08l.07-.05c-.07.07,0,.1-.18.17a.36.36,0,0,0,.17-.11c-.1.11,0,.06-.05.14s.13-.1.14-.09.16-.07.21-.06c-.11.1-.3.18-.18.15a1.05,1.05,0,0,1-.28.17c.17-.06-.08.13-.1.17l-.08,0c.05,0,.05,0,.05,0l.16-.11s0,0-.09.08a4.84,4.84,0,0,1,.43-.26c-.08.07.11,0-.11.13.06-.09-.23.15-.27.13s0,0,0,0l-.06,0c-.19.17.26-.15.27-.1s-.23.16-.2.15a1.12,1.12,0,0,1,.31-.19c-.09.09.09,0,.08,0l0,0c.13-.08.12-.06.17-.07s-.08,0-.12.07c.24-.13-.21.19,0,.12-.09.07-.25.16-.3.21.18-.07-.17.16,0,.1a1.23,1.23,0,0,1,.31-.19l-.15,0,.27-.13s-.12,0-.1,0a1,1,0,0,0,.25-.16c-.25.2.18,0,0,.09l-.44.28c-.18.17.26-.07.17.05l.07-.07c.19-.11,0,0,.13,0a1.85,1.85,0,0,0-.3.21c.12-.08,0,0,.32-.15l-.19.15c-.07.1.46-.24.43-.17a3.25,3.25,0,0,1-.41.24s0,.05.09,0c-.09.07.23-.1.09,0a1.67,1.67,0,0,1,.23-.13l-.08,0a1.5,1.5,0,0,0,.29-.17c-.47.36.1.09-.31.4a.3.3,0,0,1,.17,0s-.08.05-.07,0c-.13.13.48-.27.33-.13s-.15.07-.24.15c-.53.35.1,0-.2.23h0c-.17.14.23-.08.21,0l-.08,0a1.37,1.37,0,0,1,.5-.19,3.62,3.62,0,0,0-.33.2s.34-.23.42-.24a3.94,3.94,0,0,1-.43.32h0c-.29.2,0,0,0,.07l-.13.08c.06,0,.39-.2.4-.14l.09-.07c.34-.18-.17.14.09,0l-.33.22a3,3,0,0,1,.44-.16,5.82,5.82,0,0,1-.56.26s0,0,.22-.06c0,0-.12.06-.07,0,.27-.15.41-.21.43-.17-.65.41-.11.18-.6.53.28-.1,0,.17.05.2.49-.34,0,0,.54-.32,0,0,0,0,0,0l-.27.24c-.15.1-.13.06-.24.13s-.21.15-.33.26c.18-.12.27-.16.21-.09l.22-.18c.3-.13-.4.31-.1.18l-.17.09c.11,0,.06.09.48-.15l-.23.15c0,.09.51-.16.3,0l-.13.07s.25-.13.13,0l-.13.09s.24-.12.18-.06l-.15.08c-.12.15.39-.14.51-.15a1.45,1.45,0,0,0-.48.4l0,0c0,.09.37-.09.55-.12-.34.27-.06.21-.21.39a1.87,1.87,0,0,1,.3-.17c-.06.05.26-.12,0,.08h0c-.29.2-.19.17-.18.19l.39-.24c-.51.41.32,0-.14.35a2,2,0,0,1,.22-.08l-.2.12c0,.07,0,.1.07.11l-.14.08s.58-.33.61-.31l-.28.18c.05,0-.15.23.14.11a.53.53,0,0,1-.14.08s-.1.18.26-.06c-.24.15,0,.06.14,0l-.17.11a1.32,1.32,0,0,1,.37-.17l-.09.06c-.07.07.17-.09.1,0l-.11,0s.06,0,.19-.07,0,.07-.14.16c.09-.05.21-.11.18-.08a.29.29,0,0,1-.1.06c-.07.1.22-.06.1.06l-.08.06s0,0,0-.06a2.57,2.57,0,0,1-.35.24c.13-.06.38-.17.34-.11l0,0h0s0,0,0,0,0,.06,0,.07a1.14,1.14,0,0,0,.23-.15h0l0,0c.09,0,.15-.07.09,0l.24-.13c-.18.14-.25.24-.36.31a.62.62,0,0,0,.39-.08s-.06.05-.09.08l-.07,0c.08,0,.09,0,.25-.06-.05.07-.16.08-.1.09l-.05,0c-.14.2.46-.12.27.12,0,0,0,0,0,0s.24.12.21.28,0,0,.1,0l-.05,0,.09,0c.06,0-.05.13.07.13v0s.06,0,0,.05,0,0,0,0h0l.06,0s0,0,0,.05l0,0a0,0,0,0,0,0,0v0s0,0,0,0v0s0,0,0-.05,0,0,0,0,0,0,0,0,0,0,0,0,0,0,0,0,0,0,0,0,0,0,0,0,0-.05,0,0,0-.06,0-.1-.05,0-.06,0,0-.06.09-.12c-.08,0,0-.06-.1-.07h0s0-.06.05-.09-.11,0-.17.05.11-.05.2-.12c-.08.05-.09,0-.15.05s0,0,.11-.1c-.13.08,0,0-.11,0s.13-.09.08-.1A.12.12,0,0,1,161.3,163.43Zm-.48-.6h0Zm0-.06s0,0,0,0l-.1.06S160.76,162.81,160.8,162.77Zm-.93.76s0,0,0,0h.05Z" fill="#af5341"/>
          <polygon points="160.07 163.43 160.08 163.43 160.11 163.4 160.06 163.43 160.07 163.43" fill="#af5341"/>
          <path d="M157.13,158.39h0Z" fill="#af5341"/>
          <polygon points="160.83 161.7 160.78 161.73 160.82 161.71 160.83 161.7" fill="#af5341"/>
          <path d="M157.33,157.84l0,0Z" fill="#af5341"/>
          <path d="M157.24,157.72v0A.08.08,0,0,0,157.24,157.72Z" fill="#af5341"/>
          <path d="M157.18,157.61l0,0h0Z" fill="#af5341"/>
          <path d="M158.78,158.81h0C158.84,158.79,158.82,158.79,158.78,158.81Z" fill="#af5341"/>
          <path d="M158,158.67l.1,0S158.06,158.61,158,158.67Z" fill="#af5341"/>
          <polygon points="159.46 159.11 159.46 159.11 159.46 159.11 159.46 159.11" fill="#af5341"/>
          <path d="M158.07,158.65s0,0,0,0S158,158.67,158.07,158.65Z" fill="#af5341"/>
          <polygon points="156.77 157.27 156.76 157.27 156.76 157.27 156.77 157.27" fill="#af5341"/>
          <path d="M156.76,157.27h0Z" fill="#af5341"/>
          <path d="M156.74,157.26h0A0,0,0,0,0,156.74,157.26Z" fill="#af5341"/>
          <path d="M156.9,157.37h0Z" fill="#af5341"/>
          <path d="M156.94,157.4s0,0,0,0h0S156.91,157.41,156.94,157.4Z" fill="#af5341"/>
          <path d="M156.81,157.72v-.05s0,.05-.06,0S156.81,157.66,156.81,157.72Z" fill="#af5341"/>
          <path d="M156.82,157.86s0,0-.06,0S156.8,157.9,156.82,157.86Z" fill="#af5341"/>
          <path d="M157.13,158.72l-.14.09S157,158.77,157.13,158.72Z" fill="#af5341"/>
          <polygon points="157.96 158.38 158.04 158.31 157.9 158.4 157.96 158.38" fill="#af5341"/>
          <polygon points="156.93 159.17 156.91 159.17 156.97 159.16 156.93 159.17" fill="#af5341"/>
          <path d="M157.58,160.53l.25-.17C157.78,160.38,157.49,160.56,157.58,160.53Z" fill="#af5341"/>
          <path d="M158.17,160.91c-.13.09-.21.17-.07.09S158.2,160.9,158.17,160.91Z" fill="#af5341"/>
          <polygon points="158.91 162.73 158.83 162.77 158.91 162.75 158.91 162.73" fill="#af5341"/>
        </g>
        <g>
          <path d="M77.46,155.49s0,0,0,0l0,0Z" fill="#af5341"/>
          <path d="M77.59,155.67s.08.05.08,0l-.09-.05s0,0,0,0,0,0,0,0a.74.74,0,0,0,.09.12S77.59,155.67,77.59,155.67Z" fill="#af5341"/>
          <path d="M80,157.86l0,0S80,157.85,80,157.86Z" fill="#af5341"/>
          <path d="M82,158.49a.08.08,0,0,0,0,0A.08.08,0,0,0,82,158.49Z" fill="#af5341"/>
          <path d="M82.31,158.81l0,0S82.31,158.83,82.31,158.81Z" fill="#af5341"/>
          <path d="M80,157.86l0,.08C80,157.88,80,157.88,80,157.86Z" fill="#af5341"/>
          <path d="M77.94,156h0l0,0Z" fill="#af5341"/>
          <path d="M79.1,157.53h0l0,0Z" fill="#af5341"/>
          <path d="M78.54,157.09s.08-.06.11-.09-.05,0-.07,0Z" fill="#af5341"/>
          <path d="M77.9,156.18h0Z" fill="#af5341"/>
          <path d="M79.52,157.85l0,.05A.17.17,0,0,0,79.52,157.85Z" fill="#af5341"/>
          <path d="M96.86,151.87h0Z" fill="#af5341"/>
          <polygon points="97.62 151.6 97.61 151.61 97.61 151.61 97.62 151.6" fill="#af5341"/>
          <path d="M83,159.15h0S83,159.16,83,159.15Z" fill="#af5341"/>
          <path d="M88.86,157.74c-.15-.2,0-.34-.21-.56C88.7,157.28,88.73,157.63,88.86,157.74Z" fill="#af5341"/>
          <path d="M78,156l0,0Z" fill="#af5341"/>
          <polygon points="88.65 157.18 88.65 157.18 88.63 157.16 88.65 157.18" fill="#af5341"/>
          <path d="M84.54,158.94a.81.81,0,0,0,0-.11A.45.45,0,0,0,84.54,158.94Z" fill="#af5341"/>
          <path d="M83.37,158.67l0,0Z" fill="#af5341"/>
          <path d="M85.06,158.49s0,0,0,0v0S85.08,158.53,85.06,158.49Z" fill="#af5341"/>
          <path d="M85.64,158.37l0-.05v0Z" fill="#af5341"/>
          <path d="M95.24,152.56l.08.08C95.27,152.57,95.33,152.51,95.24,152.56Z" fill="#af5341"/>
          <path d="M77.93,156h0Z" fill="#af5341"/>
          <path d="M84.66,156.43l.09,0A.15.15,0,0,0,84.66,156.43Z" fill="#af5341"/>
          <path d="M91.5,154.18v0S91.49,154.16,91.5,154.18Z" fill="#af5341"/>
          <path d="M85,156.34a.43.43,0,0,0,.09.17v-.07Z" fill="#af5341"/>
          <path d="M95.33,152.64h0Z" fill="#af5341"/>
          <path d="M95.74,152.19c-.08,0,0,.12.06.2s-.1-.07-.17-.12,0,.19-.06.2,0,0,0-.05c0,.13-.19.08-.17.25t0,0l.13.18s0,.13-.08,0,0,0,0-.08v.06c-.12-.12,0-.07,0-.17,0,.08-.06.23-.14.22s.1-.1-.05-.19h.12c-.19-.18.06,0-.14-.2-.14,0-.08.12-.22.12,0,.09.08.12.1.21s-.36-.32-.35-.07.14.32,0,.25l-.08-.19c-.12,0,.1.29-.09.22,0-.08.05-.1,0-.11s0,.12,0,.15l-.11-.16c-.1.07-.15.26-.26.35,0-.06,0-.12-.1-.16-.11.16-.36.13-.59.07l0,.2s-.07-.07-.08-.11.06.11.08.19-.11-.08-.12-.14c0,.19-.11.47-.34.32v-.06c-.13,0,.12.43-.06.29v0c-.24,0-.35.29-.66,0,.13.31-.26,0,0,.38-.22-.17-.23-.26-.46-.34,0,0,.08.3.06.37l-.13-.23.06.27-.18-.26v.08a.46.46,0,0,1,.12.16c0,.14-.26-.09-.33-.21l-.07.28a.69.69,0,0,1,0-.22c0,.29-.15-.24-.12,0a.82.82,0,0,1,.09.19c-.11-.13-.21-.09-.25,0l-.07-.17c-.16,0-.24.19-.38.25a.77.77,0,0,1,.2.42l-.15-.26c0,.17.09.08.13.31-.06,0-.18-.29-.19-.4l0,.13a1.94,1.94,0,0,1-.1-.24c.06.18-.24-.22-.14.08l0-.08c-.15.06-.17.18-.28.24.11.24,0,.21.09.42-.12,0-.3-.19-.4-.13s.07.22.11.38c-.11-.22-.21-.16-.23-.34-.1.08-.14.1-.21.35a1.13,1.13,0,0,1,.12.21c0,.05-.11-.07-.16-.18v0c0,.42-.7-.51-.64,0v0l0,.31c-.09,0,0-.19-.14-.32,0,.46-.27,0-.3.36-.37-.66-.34.18-.65-.22l.07.16c0,.18-.08-.08-.12-.11,0,.13.1.14.11.24-.23.32-.71,0-1.06-.07-.12,0,.22.89,0,.54l-.06-.33c-.11.45-.46.13-.59.52,0-.07,0-.17,0-.17-.11-.22-.18,0-.13.23,0,0,0-.17-.1-.26s0,.32-.12.11a.11.11,0,0,1,0-.1c0,.12-.15,0-.06.26-.11-.1-.13.16-.23,0,0,.3-.18-.1-.1.31-.09-.42-.22-.29-.23-.08,0-.14-.08-.13-.09-.31-.06,0-.1.12-.05.33-.2-.47-.15.45-.33-.17a1.6,1.6,0,0,1-.43.57c0-.4.17-.07.1-.49-.12.19-.17.55-.34.48s0-.17,0-.24c-.13.18-.3,0-.42.25a.43.43,0,0,1,0-.11s-.06-.05,0,.13l0-.05c.06.25-.08.54-.07.67,0-.5-.15-.11-.11-.75a.47.47,0,0,0,0,.24s0-.1,0-.23c-.09.1,0,.28-.14.29s0-.12,0-.22c0,.17-.08.34-.16.27s0-.11,0-.11c-.13.05-.22.44-.37.29,0-.35,0-.12,0-.41l-.07.09,0,.14c-.06,0-.13.21-.19.12l.06-.12-.13.06.06.1c-.07.15,0,.37-.1.28s-.07,0-.09-.17h0c0,.09-.09.18-.13.11s0-.31,0-.37c0,.23-.16.06-.23.29a1,1,0,0,0,0-.22l-.06.18a.33.33,0,0,1,0-.2c-.09,0,0,.34-.11.18,0,0,0,0,0-.06s-.24.09-.33,0c0-.25.11,0,.11-.27-.15,0-.36.25-.5.17l0,0c-.1.32-.06-.18-.17,0,0,0,.07-.17,0-.14s-.22.05-.39.09l0-.07c0-.09-.13-.08-.18-.13s-.08,0-.1.14c0-.41-.44.06-.46-.3,0,0,.07,0,.06,0h-.17c0,.1,0,.07,0,.15s-.11.07-.14,0,.08-.14.08-.2,0,.05,0,.08c0-.19-.12.17-.15,0l0,0s-.12,0-.15,0,.06,0,.12-.09-.22.1-.2,0H79c0-.13,0-.11,0-.15h0l-.06-.1v0c-.21.16-.16-.05-.34,0,.18-.05.07-.05.14-.12s0-.08,0-.1,0-.08-.17,0c0,0,0,0,0-.08s0,0,0,.06-.11-.21-.3-.22-.19,0-.29-.09.07,0,.07,0a.41.41,0,0,0-.11-.12s0,0,0,0-.06,0-.09-.05h.07a.71.71,0,0,1-.14-.1s0,0,.06,0a1.1,1.1,0,0,0-.16-.12l0,0s0,0,0,0,0,.07,0,.08l0,0c0,.06.11.12.16.18h-.06l.09,0s0,.06-.06,0,0,0,0,.09,0,0,0,0l.06,0s0,0,0,0,.16.09.13.16h0c.12.09.06,0,.2,0l-.08.18.06,0s0,0,0,.05,0,0,.08,0,.16.12.07.24c.07,0,0-.09.08-.07-.09.13.09,0,.09.13s-.09,0-.09.08c.13-.09.08.11.14.13s.13,0,.23.07.09.19.14.28l0,0c.1-.12.16-.05.24,0s-.08.11-.14.13l.06,0s.07-.05.11,0l-.07.1c.07,0,.22,0,.27.11.06-.12.08-.36.22-.39,0,.07-.08.18-.12.19s.06,0,.06,0l-.09.08c0,.07.07-.07.1,0s0,.08,0,.15,0-.06,0,0a.3.3,0,0,1,0,.2c0-.06.06-.13.09-.13s0,.13,0,.2.07,0,.13-.11c0,0,0,.09,0,.13s.2.07.21-.11v0h0c.19-.11.25.22.41.18l0,.06c.1,0,.2,0,.29-.1a.26.26,0,0,1,0,.2c.08,0,.1-.09.17,0-.09.09,0,.1-.09.06.07.08.07.19.2,0-.06.16,0,.24.07.19l0-.13s.08,0,.12,0l-.06.22c.14.32.39-.42.46.09.07-.16-.08-.14,0-.32.07,0,.12.41.15.42.1.16.14-.34.25-.24,0-.09,0-.33.08-.41s.08.39,0,.46,0,0,0-.06a.14.14,0,0,0,0,.17v-.09c0,.1.15.1.12.25a.14.14,0,0,0,0-.2c.1.14.16,0,.27.12s0-.16,0-.16.07-.18.18-.21c.06.15,0,.35.09.23a.44.44,0,0,1,0,.34c.1-.18.2.13.26.17l-.06.07a.1.1,0,0,1,.09,0l0-.2s.06,0,.07.12a2.17,2.17,0,0,1,0-.5c0,.1.11-.11.14.16-.13-.1,0,.26-.08.3s0,0,.08,0a.08.08,0,0,1,0,.07c.14.24,0-.3.17-.29s0,.28.07.25,0-.25,0-.37c.09.12.08-.08.13-.07l-.06-.06c0-.15,0-.13.1-.18,0,.12,0,.09,0,.14,0-.28.17.27.24.08.05.1,0,.29.07.36.08-.21.14.21.22,0a.45.45,0,0,1,0-.36l-.16.16.08-.32s-.09.14-.13.11a.44.44,0,0,0,0-.3c.11.31.11-.19.22,0l.06.53c.16.23.19-.28.36-.17l-.06-.09c0-.21.09,0,.12-.13a1.45,1.45,0,0,0,.11.35c0-.14.12,0,.07-.37l.11.23c.15.08,0-.54.18-.5,0,.21.08.33,0,.48s.09,0,.06-.1c0,.11.07-.26.14-.1,0-.08,0-.27,0-.26a.81.81,0,0,1,0,.09c0-.09,0-.14,0-.34.25.55.32-.11.54.36a.77.77,0,0,1,.23-.19c0,.05,0,.09,0,.07.15.15-.07-.54.09-.38s0,.18,0,.28c.18.61.12-.12.3.22v0c.12.19.09-.28.2-.26a.29.29,0,0,0,0,.09.83.83,0,0,1,.14-.58,1.24,1.24,0,0,0,.09.38c0-.05-.13-.39-.07-.49a2.31,2.31,0,0,1,.26.49l-.08,0c.15.33.1,0,.16,0l0,.15c.11-.09,0-.47.13-.48l0-.11c0-.39.13.19.11-.11l.15.37a2.28,2.28,0,0,1,.1-.52,2.33,2.33,0,0,1,0,.66c.05,0,.15-.08.12-.28,0,0,0,.14,0,.09,0-.31,0-.48.08-.5.23.73.3.09.57.63.07-.33.37,0,.55-.13-.29-.53,0,0-.19-.6,0-.06,0,0,.07,0l.27.28c.1.16,0,.15.06.27s.14.22.26.35c-.09-.2-.08-.31,0-.25l-.18-.23c0-.36.31.42.33.07l0,.19c0-.13.27-.11.15-.58,0,.06.12.2.1.25.2,0,.16-.64.41-.42l0,.13c0-.05,0-.27,0-.15s0,.13.07.13,0-.27,0-.21l0,.17c.24.09.08-.48.17-.63.18.38.36.44.44.47l0,0c.2,0,.16-.47.26-.7.29.34.42,0,.69.09a.74.74,0,0,1-.12-.33c.07.05,0-.3.14,0h0c.19.29.23.16.29.14l-.2-.42c.46.5.3-.46.66,0,0-.12,0-.15,0-.27l.11.21a.32.32,0,0,0,.3-.16l.05.17c.08,0-.22-.64-.16-.7l.18.29c.12-.09.39.08.36-.26,0,0,.07.12,0,.15s.33,0,.1-.34c.14.25.14-.06.15-.21l.08.18c-.07-.26-.1-.32,0-.44s.09.13,0,.1c.11.05,0-.19.08-.15l0,.13c.07,0,0-.09,0-.23s.14,0,.23.1c0-.1-.07-.24,0-.22a.31.31,0,0,1,.05.11c.16,0,0-.29.21-.18a.37.37,0,0,0,.06.08.51.51,0,0,1-.15.08c.08.14.16.12.22.35,0-.15,0-.44.05-.43l0,0v0s0,0,0-.05.06,0,.08,0,.11,0,.14,0,0-.15-.14-.24,0,0,0,0v0h0l-.08.07c0-.1,0-.18.06-.12l-.1-.26c.17.16.32.2.4.31.06-.16.2-.24.12-.52,0-.05.08,0,.11.07s0,.05,0,.09.15-.15.07-.32c.11,0,.05.17.13.07v.06c.33.06.1-.59.48-.48l0,0c.3-.09.45-.45.77-.52.07,0,0-.09.07-.16l0,.05,0-.12c.08-.11.24,0,.32-.21h0s.14-.12.14-.1,0,0,0,0h0l.09-.11c.09-.07,0,0,.13-.07l.1-.11-.05,0,0,0-.08,0-.08,0h0l.07,0a.23.23,0,0,0-.1,0h0l-.07.06s0,0,0,0,.06,0,0,0,0,0-.09,0,0,0,0,0-.12.05-.12.08-.14.08-.17,0a.35.35,0,0,1-.08.1c0-.11-.15.06-.2,0,0,.11-.17.12-.23.21s0,0,0,0a.36.36,0,0,1-.15,0c.06.09,0,.15,0,.23s0-.13-.11-.21-.07.12,0,.18c-.09,0-.06,0-.14-.09.08.14,0,.05,0,.15s-.11-.13-.16,0S95.74,152.19,95.74,152.19Zm-1.65,1.14h0l0,0Zm-.15.08.07,0c0,.05.06.11,0,.11S94,153.44,93.94,153.41Zm.92.85s0,0,0,0,0,0,0,0v0Z" fill="#af5341"/>
          <path d="M94.79,154v0l0,0,0,.05Z" fill="#af5341"/>
          <path d="M80,157.83h0v0Z" fill="#af5341"/>
          <polygon points="91.62 154.01 91.64 154.06 91.63 154.01 91.62 154.01" fill="#af5341"/>
          <path d="M79.31,157v0S79.31,157,79.31,157Z" fill="#af5341"/>
          <path d="M79,156.79l0-.06Z" fill="#af5341"/>
          <path d="M78.76,156.6l0,0h0Z" fill="#af5341"/>
          <path d="M83.21,157.05a0,0,0,0,0,0,0S83.23,157,83.21,157.05Z" fill="#af5341"/>
          <path d="M81.84,157.67l0-.1S81.85,157.55,81.84,157.67Z" fill="#af5341"/>
          <polygon points="84.65 156.43 84.65 156.44 84.66 156.43 84.65 156.43" fill="#af5341"/>
          <path d="M82,157.58c0-.05,0,0-.07,0S81.93,157.61,82,157.58Z" fill="#af5341"/>
          <polygon points="77.75 155.76 77.73 155.75 77.73 155.75 77.75 155.76" fill="#af5341"/>
          <path d="M77.73,155.75h0Z" fill="#af5341"/>
          <path d="M77.69,155.72l0,0Z" fill="#af5341"/>
          <path d="M78,156.06h0Z" fill="#af5341"/>
          <path d="M78.13,156.13s0-.07-.07-.09h0S78.08,156.13,78.13,156.13Z" fill="#af5341"/>
          <path d="M78.29,156.71l-.06-.1s0,.08,0,0C78.2,156.83,78.21,156.59,78.29,156.71Z" fill="#af5341"/>
          <path d="M78.49,157s0,0,0,.06S78.51,157,78.49,157Z" fill="#af5341"/>
          <path d="M80.64,158.22l0,.16C80.65,158.37,80.61,158.32,80.64,158.22Z" fill="#af5341"/>
          <polygon points="81.25 157.44 81.23 157.33 81.19 157.49 81.25 157.44" fill="#af5341"/>
          <polygon points="81.34 158.76 81.31 158.78 81.4 158.73 81.34 158.76" fill="#af5341"/>
          <path d="M85.59,158.63l-.08-.3C85.49,158.39,85.56,158.73,85.59,158.63Z" fill="#af5341"/>
          <path d="M87.23,157.87c.07.14.15.23.13.07C87.32,157.93,87.24,157.83,87.23,157.87Z" fill="#af5341"/>
          <polygon points="92.21 156.14 92.23 156.24 92.25 156.14 92.21 156.14" fill="#af5341"/>
        </g>
        <g>
          <path d="M71.47,162.91Z" fill="#af5341"/>
          <path d="M71.5,162.86a0,0,0,0,0,0,0l0,0h0v0a.05.05,0,0,0,0,0Z" fill="#af5341"/>
          <path d="M72.2,162.18h0Z" fill="#af5341"/>
          <path d="M72.69,161.79s0,0,0,0Z" fill="#af5341"/>
          <path d="M73,161.86h0Z" fill="#af5341"/>
          <path d="M72.2,162.18l.06,0C72.21,162.16,72.22,162.18,72.2,162.18Z" fill="#af5341"/>
          <path d="M71.46,162.69h0Z" fill="#af5341"/>
          <path d="M72.13,162.43h0l0,0Z" fill="#af5341"/>
          <path d="M72,162.57l-.11-.07s0,0,0,0Z" fill="#af5341"/>
          <path d="M71.63,162.73h0Z" fill="#af5341"/>
          <path d="M72.27,162.35l0,0Z" fill="#af5341"/>
          <path d="M74.51,157.28h0Z" fill="#af5341"/>
          <polygon points="74.81 157.19 74.81 157.19 74.81 157.19 74.81 157.19" fill="#af5341"/>
          <path d="M73.4,161.88h0S73.42,161.89,73.4,161.88Z" fill="#af5341"/>
          <path d="M74.25,160.44c-.22-.11-.26-.19-.51-.3A5.33,5.33,0,0,0,74.25,160.44Z" fill="#af5341"/>
          <path d="M71.47,162.68h0Z" fill="#af5341"/>
          <path d="M73.74,160.14Z" fill="#af5341"/>
          <path d="M73.58,161.5l-.1-.06Z" fill="#af5341"/>
          <path d="M73.06,161.56h0Z" fill="#af5341"/>
          <path d="M73.36,161.18s0,0,0,0h0S73.4,161.2,73.36,161.18Z" fill="#af5341"/>
          <path d="M73.46,161l0,0h0Z" fill="#af5341"/>
          <path d="M74,157.57l.1.05C74,157.58,74,157.55,74,157.57Z" fill="#af5341"/>
          <path d="M71.48,162.7v0h0Z" fill="#af5341"/>
          <path d="M71.55,160.12h0Z" fill="#af5341"/>
          <path d="M73,158.38l0,0Z" fill="#af5341"/>
          <path d="M71.59,160l.17.08-.06,0Z" fill="#af5341"/>
          <path d="M74.09,157.62Z" fill="#af5341"/>
          <path d="M74.06,157.4s.1.07.15.11-.09,0-.16-.07.1.09.08.1l0,0c.08.07-.06,0,0,.13l0,0,.2.11s.07.07,0,0l-.06-.05,0,0c-.14-.07,0,0-.13-.09s.12.12.06.11,0-.05-.15-.11h.08c-.24-.11,0,0-.22-.12-.08,0,0,.07,0,.06l.19.12c.11.12-.41-.19-.25-.05s.3.18.17.14l-.17-.11s.24.17.09.12,0-.06-.07-.06.09.07.08.08l-.17-.09s.08.13.08.18a.68.68,0,0,0-.17-.09c0,.08-.11.06-.28,0l.15.11-.11-.06c-.08,0,.11.06.17.11s-.11,0-.16-.08c.12.11.25.26,0,.17l0,0c-.1,0,.36.25.17.17l0,0c-.13,0,0,.15-.34,0,.29.17-.18,0,.23.21a2.92,2.92,0,0,0-.48-.2s.25.17.29.21l-.23-.13.22.16-.28-.15,0,0,.18.09c.08.08-.2,0-.32-.11l.16.15a1.11,1.11,0,0,1-.18-.12c.22.16-.25-.14,0,0l.19.11c-.16-.07-.18-.05-.14,0l-.16-.1c-.07,0,0,.11,0,.15a2,2,0,0,1,.4.23l-.26-.14c.15.1.1,0,.29.17a2,2,0,0,1-.38-.22l.07.07-.21-.13c.16.1-.29-.13,0,0l-.07,0s0,.11,0,.15a3,3,0,0,1,.35.23c-.09,0-.29-.1-.29-.06s.19.12.32.21a3.29,3.29,0,0,1-.35-.19s0,.07.15.21l.2.11s-.1,0-.2-.09l0,0c.29.24-.71-.26-.29,0h0l.21.18s-.15-.11-.3-.17c.34.25-.1,0,.12.21-.66-.35,0,.13-.45-.08l.15.09c.15.1-.09,0-.13-.05l.22.12c.14.2-.32,0-.51.06s.78.48.4.31l-.28-.18c.31.26-.08.13.18.36a.71.71,0,0,1-.15-.1c-.21-.1,0,.05.14.15,0,0-.15-.09-.24-.13s.24.19,0,.08a.32.32,0,0,1-.08-.06c.09.07,0,0,.19.16-.12,0,.08.11-.06,0,.25.16-.14,0,.22.18-.38-.22-.32-.13-.15,0-.11-.07-.13-.05-.28-.15,0,0,.06.08.25.19-.45-.22.33.27-.24,0a2.41,2.41,0,0,1,.35.4c-.35-.21,0-.08-.39-.29.13.13.42.34.32.33a.76.76,0,0,1-.2-.13c.12.13-.06.08.11.23a.35.35,0,0,1-.09-.07s-.06,0,.09.08l0,0c.22.12.44.3.56.37-.43-.27-.13,0-.66-.36l.19.13a.86.86,0,0,1-.2-.12c.07.08.23.16.22.19l-.18-.12c.14.1.27.19.2.18l-.09-.06c0,.05.33.28.19.24-.29-.18-.11,0-.36-.18l.07.06.13.07s.16.14.07.11l-.1-.08,0,.07.1,0c.12.09.31.18.23.17s0,0-.16-.06h0c.07,0,.15.11.08.09l-.31-.18c.19.12,0,.08.24.21l-.2-.12.16.1-.18-.09s.3.16.16.12l-.06,0c-.07,0,.07.12,0,.11s0-.06-.24-.16c0,.07.23.25.17.26h0c.29.17-.15-.05,0,0l-.12-.08c-.06,0,0,.11.11.2l-.06,0c-.07,0,0,0-.09,0a.65.65,0,0,0,.15.1c-.37-.15.13.21-.16.11,0,0,0,0,0,0l0,.07.13.06c.05,0,.08.07.08.08a.58.58,0,0,0-.19-.1l.08.05c-.16-.06.17.11.05.08l0,0s.07.07,0,.07,0,0-.11-.08.15.13.06.1a.31.31,0,0,0,0-.06c-.11,0-.08,0-.1,0h0c.2.14,0,.07.14.17-.11-.1-.07,0-.15-.09s0,0-.07,0,0,0,0,.08,0,0-.06,0,0,0,.07,0-.09,0,0,.13.08.09.09.14a.11.11,0,0,1,0,0s0,0,0,0h0s0,0,0,0l0,0a.41.41,0,0,1,0,.08l0,0s0,.06,0,.08h0s0,0,0,0v0s0-.05,0-.08l0,0,0,0s0,0,0,0,0,0,0,0h0v0s0,0,0,0,0-.07,0-.05h0s0,0-.11-.1l.17.07-.06,0s0,0,0,0,0,0-.07,0,0-.06.12,0c-.05,0-.05,0-.08-.05.13.07,0,0,.06,0s0,0,.1.06c-.12-.08,0,0,0,0s0,0,0-.1.1,0,.17,0l0,0c-.13-.08-.09-.09-.1-.12l.14.1h0l-.07-.07.11.07s-.09-.11,0-.09a2.53,2.53,0,0,1-.38-.23c.06,0,.17.09.18.12s0,0,0,0l.09.07c.06,0-.08-.06-.06-.06l.13.07s0,0,0,0l.16,0a.34.34,0,0,1-.12-.08s.11.06.17.07,0,0-.12-.09l.11.05s0-.05-.14-.13h0c-.12-.11.13,0,.1-.08l0,0c0-.06,0-.07-.11-.15l.18.09s-.09-.08,0-.05.09.05,0,.06.17.06,0-.05c.14.09.2.1.16.06l-.12,0s0,0,0,0l.2.12c.28.11-.36-.31.09-.1-.14-.09-.13,0-.29-.14a2.59,2.59,0,0,1,.37.15c.14.05-.29-.2-.19-.18a2,2,0,0,1-.34-.22,1.67,1.67,0,0,1,.39.21l0,0a.36.36,0,0,0,.14.09l-.07,0c.09,0,.1,0,.22.09a.44.44,0,0,0-.17-.1c.14,0,0,0,.14,0l-.15-.08c.14,0-.14-.11-.15-.15s.29.18.21.09a1.72,1.72,0,0,1,.28.17c-.14-.11.15,0,.19,0l.06,0s0,0,0,0l-.18-.09a.31.31,0,0,1,.12,0c-.11-.07-.29-.16-.43-.26.09,0-.07-.08.16.05-.1,0,.23.13.24.18s0,0,0,0l.05,0c.24.1-.24-.16-.21-.18s.25.13.23.11a1.35,1.35,0,0,1-.32-.19c.12,0-.06-.06,0-.06l-.06,0c-.12-.08-.1-.08-.13-.12s.06.06.11.08c-.23-.15.27.11.12,0l.33.17c-.16-.12.2.09.08,0a1.35,1.35,0,0,1-.31-.19l.09.11-.24-.18s.09.09.06.08a1.28,1.28,0,0,0-.25-.15c.28.14-.14-.13.06,0l.45.27c.23.1-.19-.18-.05-.15l-.09,0c-.18-.11,0,0-.07-.09a2.61,2.61,0,0,0,.32.17c-.12-.06,0,0-.28-.2l.22.1c.1,0-.43-.29-.36-.29s.29.16.4.25.05,0-.07-.06c.11,0-.19-.15,0-.07a2.31,2.31,0,0,1-.22-.15l.08,0a2.88,2.88,0,0,0-.28-.18c.52.27,0-.1.47.13a.34.34,0,0,1-.08-.14s.08.05.06.05c.18.06-.46-.3-.27-.23s.14.1.24.15c.55.32,0-.08.29.09l0,0c.2.09-.18-.16-.12-.17l.08,0a2,2,0,0,1-.41-.34,3.7,3.7,0,0,0,.33.21s-.35-.21-.4-.27c.12.07.24.11.47.25v0c.32.16,0,0,.07,0l.13.08s-.36-.25-.31-.27l-.11-.06c-.32-.21.2.1,0-.07l.35.2a3.81,3.81,0,0,1-.36-.3,5,5,0,0,1,.5.37s0-.06-.16-.16c0,0,.11.08,0,.05-.26-.17-.38-.27-.36-.29.66.39.21,0,.73.32-.22-.19.15,0,.14-.1-.52-.28,0,0-.53-.33,0,0,0,0,0,0l.33.14a1.85,1.85,0,0,1,.23.15s.22.12.37.18c-.19-.1-.26-.16-.18-.14l-.25-.12c-.26-.2.45.23.19,0l.16.11c-.08-.08,0-.07-.37-.33a1.7,1.7,0,0,1,.24.14c.08,0-.39-.37-.12-.25l.12.07s-.22-.15-.09-.09l.13.08s-.21-.15-.13-.12l.13.09c.19,0-.3-.27-.37-.36a1.54,1.54,0,0,0,.56.26l0,0c.06,0-.26-.26-.38-.4.39.2.2,0,.42.06a2.43,2.43,0,0,1-.29-.19c.07,0-.22-.17.09,0h0c.3.16.23.09.24.08l-.39-.24c.59.28-.16-.26.35,0l-.18-.15.2.12c.06,0,.09,0,0-.09l.14.09s-.56-.36-.56-.39l.29.17s.26.05,0-.14l.13.08s.19,0-.18-.18c.24.14,0,0-.06-.12l.17.11a1.78,1.78,0,0,1-.32-.25s.14.08.09.06-.15-.11-.06-.08l.11.07s0-.05-.16-.13.06,0,.2.07c-.09-.06-.2-.14-.15-.13l.1.07c.11,0-.17-.16,0-.1l.09,0s0,.05,0,0a2.62,2.62,0,0,1,.37.21c-.11-.09-.34-.26-.27-.25l0,0h0s0,0,0,0h0c.11.07.06,0,.07,0a2.36,2.36,0,0,0-.24-.14,0,0,0,0,1,0,0l0,0h0v0c-.08-.06-.13-.1,0-.07l-.23-.15.44.19a.77.77,0,0,0-.27-.28s.07,0,.1,0,0,0,.06,0,0-.07-.17-.17c.08,0,.14.1.12,0l0,0c.22,0-.34-.33,0-.25h0c.12,0,0-.23.12-.25s0,0,0-.08l.06,0-.06-.07s.13,0,.06-.09h0s0-.06,0,0,0,0,0,0h0a.13.13,0,0,1,0-.06s0,0,0,0a.18.18,0,0,1,0-.05v0h0l0,0h-.05a0,0,0,0,0,0,0s0,0,0,0,0,0,0,0,0,0,0,0,0,0,0,0,0,0,0,0,0,0-.1,0a.14.14,0,0,1,0,.06c-.06-.07-.05,0-.15,0,.07.06,0,0,0,.1s0,0,0,0-.07,0-.1,0,.08.08.13.12c-.11,0-.1-.07-.2-.12.08,0,0,.06.12.1l-.14-.05c.13.08,0,0,.08.07-.09,0-.14-.07-.12,0A.2.2,0,0,1,74.06,157.4Zm-.23.55Zm0,0h0l.1.06Zm1.08.51s0,0,0,0l0,0v0Z" fill="#af5341"/>
          <path d="M74.69,158.37h0l0,0,0,0Z" fill="#af5341"/>
          <path d="M72.17,162.17h0Z" fill="#af5341"/>
          <polygon points="72.92 158.28 72.97 158.31 72.93 158.28 72.92 158.28" fill="#af5341"/>
          <path d="M71.63,162.17h0Z" fill="#af5341"/>
          <path d="M71.58,162.28h0Z" fill="#af5341"/>
          <path d="M71.52,162.35l0,0h0Z" fill="#af5341"/>
          <path d="M71.66,160.74h0S71.63,160.72,71.66,160.74Z" fill="#af5341"/>
          <path d="M72,161.43l-.08-.06S71.87,161.37,72,161.43Z" fill="#af5341"/>
          <polygon points="71.55 160.12 71.55 160.12 71.55 160.12 71.55 160.12" fill="#af5341"/>
          <path d="M71.9,161.35s0,0,0,0S71.93,161.37,71.9,161.35Z" fill="#af5341"/>
          <polygon points="71.46 162.78 71.46 162.79 71.46 162.79 71.46 162.78" fill="#af5341"/>
          <path d="M71.46,162.79h0Z" fill="#af5341"/>
          <path d="M71.47,162.81h0Z" fill="#af5341"/>
          <path d="M71.48,162.65h0Z" fill="#af5341"/>
          <path d="M71.48,162.61s0,0,0,0h0S71.5,162.63,71.48,162.61Z" fill="#af5341"/>
          <path d="M71.79,162.61l0,0s.07,0,.06,0S71.75,162.64,71.79,162.61Z" fill="#af5341"/>
          <path d="M71.91,162.57s0,0,.06,0S72,162.58,71.91,162.57Z" fill="#af5341"/>
          <path d="M72.44,162.07l.14.09S72.52,162.13,72.44,162.07Z" fill="#af5341"/>
          <polygon points="71.74 161.51 71.64 161.47 71.78 161.56 71.74 161.51" fill="#af5341"/>
          <polygon points="72.89 162.1 72.91 162.11 72.87 162.06 72.89 162.1" fill="#af5341"/>
          <path d="M73.65,161.19l-.27-.15S73.72,161.25,73.65,161.19Z" fill="#af5341"/>
          <path d="M73.66,160.61c.13.08.23.12.1,0Z" fill="#af5341"/>
          <polygon points="74.72 159.49 74.8 159.55 74.74 159.49 74.72 159.49" fill="#af5341"/>
        </g>
        <g>
          <path d="M81.17,158.27h0Z" fill="#af5341"/>
          <path d="M81.15,158.33a0,0,0,0,0,0,0s0,0,0,0h0v0s0,0,0,0Z" fill="#af5341"/>
          <path d="M80.49,159.07h0Z" fill="#af5341"/>
          <path d="M80,159.5l0,0Z" fill="#af5341"/>
          <path d="M79.7,159.46h0S79.68,159.45,79.7,159.46Z" fill="#af5341"/>
          <path d="M80.49,159.07h-.07C80.48,159.09,80.47,159.07,80.49,159.07Z" fill="#af5341"/>
          <polygon points="81.19 158.5 81.18 158.48 81.19 158.5 81.19 158.5" fill="#af5341"/>
          <path d="M80.54,158.81h0l0,0Z" fill="#af5341"/>
          <path d="M80.69,158.65s.07,0,.11.07l0,0Z" fill="#af5341"/>
          <path d="M81,158.46Z" fill="#af5341"/>
          <path d="M80.41,158.9l0,0Z" fill="#af5341"/>
          <path d="M78.47,164.22h0Z" fill="#af5341"/>
          <polygon points="78.17 164.33 78.17 164.32 78.17 164.32 78.17 164.33" fill="#af5341"/>
          <path d="M79.3,159.47h0S79.28,159.46,79.3,159.47Z" fill="#af5341"/>
          <path d="M78.53,161c.24.09.28.17.54.27A4.51,4.51,0,0,0,78.53,161Z" fill="#af5341"/>
          <path d="M81.19,158.5h0Z" fill="#af5341"/>
          <path d="M79.07,161.26Z" fill="#af5341"/>
          <path d="M79.15,159.87l.1,0Z" fill="#af5341"/>
          <path d="M79.66,159.77h0Z" fill="#af5341"/>
          <path d="M79.38,160.17s0,0,0,0h0S79.34,160.16,79.38,160.17Z" fill="#af5341"/>
          <path d="M79.29,160.32l0,0h0Z" fill="#af5341"/>
          <path d="M79,163.88l-.1,0C79,163.88,79,163.9,79,163.88Z" fill="#af5341"/>
          <path d="M81.17,158.49h0Z" fill="#af5341"/>
          <path d="M81.26,161.11h0Z" fill="#af5341"/>
          <path d="M79.93,163l0,0S80,163,79.93,163Z" fill="#af5341"/>
          <path d="M81.23,161.21l-.17-.06.06,0Z" fill="#af5341"/>
          <path d="M78.87,163.84Z" fill="#af5341"/>
          <path d="M78.91,164.06s-.1-.06-.16-.1.1,0,.18.06-.11-.09-.1-.1l.06,0c-.08-.07.06,0-.06-.13l0,0-.2-.1s-.08-.06,0,0,0,0,0,0l0,0c.15.07,0,0,.14.09s-.12-.12-.07-.11,0,0,.16.1h-.08c.24.1,0,0,.22.11.08,0,0-.06.06-.06l-.21-.11c-.11-.12.43.16.25,0s-.3-.16-.17-.13l.18.1s-.26-.15-.1-.11,0,.05.07.06-.1-.07-.08-.08l.17.08s-.09-.14-.09-.19a.91.91,0,0,0,.17.09c0-.09.12-.07.29,0l-.16-.11.12.06c.08,0-.12-.06-.18-.1s.11,0,.16.07c-.12-.1-.27-.25,0-.17l0,0c.1,0-.37-.22-.17-.15l0,0c.13,0,0-.16.33,0-.29-.16.18,0-.24-.2a3,3,0,0,0,.49.16s-.26-.15-.3-.19l.24.12-.23-.14L80,163l0,0-.18-.08c-.09-.07.2,0,.33.09l-.17-.14a.82.82,0,0,1,.18.11c-.22-.15.26.12.06,0l-.2-.09c.16.06.18,0,.14,0l.16.09c.08,0,0-.11,0-.15a2.81,2.81,0,0,1-.42-.2l.27.12a2.78,2.78,0,0,1-.3-.15,2.32,2.32,0,0,1,.4.19l-.08-.06.22.11c-.16-.09.29.11,0-.05l.08,0s0-.1,0-.14c-.23-.12-.17-.1-.36-.21.09,0,.3.08.3,0a3.45,3.45,0,0,0-.34-.19c.22.11.22.07.37.16,0,0,0-.06-.17-.2l-.21-.09s.11,0,.21.08h0c-.31-.22.72.21.28-.06h0l-.22-.17s.16.1.31.16c-.35-.24.1-.05-.14-.21.7.3,0-.13.47,0l-.16-.08c-.15-.08.09,0,.13.05l-.23-.11c-.15-.19.33-.07.51-.1s-.81-.42-.41-.28l.28.16c-.32-.24.07-.14-.19-.35l.14.08c.22.09,0,0-.14-.13a1.92,1.92,0,0,1,.25.11c.13,0-.26-.17,0-.08l.08.05c-.1-.06,0,0-.21-.14.13,0-.08-.1.07,0-.27-.15.14,0-.23-.18.38.2.32.11.15,0,.11.07.12.05.28.14,0,0-.07-.08-.26-.17.46.19-.34-.26.24,0a2.49,2.49,0,0,1-.37-.37c.36.18,0,.07.4.26-.14-.12-.44-.31-.34-.31a.8.8,0,0,1,.22.12c-.14-.13,0-.09-.13-.22l.1,0s0,0-.11-.07l0,0c-.23-.1-.46-.27-.58-.33.44.23.13,0,.68.31l-.2-.11a1,1,0,0,1,.21.1c-.08-.07-.24-.14-.23-.17l.19.1c-.15-.08-.29-.17-.22-.16l.1,0s-.35-.25-.2-.23c.3.16.1,0,.36.16l-.07-.06-.13,0s-.17-.14-.08-.11l.1.07,0-.07-.1,0c-.12-.09-.32-.16-.24-.15s0,0,.16,0h0c-.07-.05-.15-.1-.09-.08l.33.16c-.2-.11,0-.08-.25-.2l.2.1-.16-.09.18.08s-.31-.14-.17-.11l.06,0c.08,0-.07-.12,0-.11s0,.06.25.14c0-.07-.25-.23-.18-.25h0c-.3-.16.16,0,0-.06l.13.07s-.06-.1-.13-.19l.07,0c.06,0,0,0,.08,0s0,0-.15-.09c.38.12-.15-.21.15-.12,0,0,0,0,0,0l0-.07L81,159c-.06,0-.09-.06-.09-.07a.56.56,0,0,0,.2.08L81,159c.17,0-.17-.09,0-.07l0,0s-.07-.06,0-.07,0,0,.11.08-.16-.12-.06-.1l0,.06c.11,0,.08,0,.1,0h0c-.21-.13,0-.07-.15-.16.11.09.07,0,.15.08a.12.12,0,0,1,.08,0c-.07-.05,0,0,0-.07s0,0,.06,0,0,0-.07,0,.09,0,0-.12-.08-.1-.09-.14,0,0,0,0,0,0,0-.05h0s0,0,0,0l0,0a.21.21,0,0,1,0-.07s0,0,0,0,0-.07,0-.08h0s0,0,0,0v0s0,.05,0,.08l0,0,0,0s-.06,0-.06,0,0,0,0,0h0v0s0,0,0,0,0,.07,0,0h0c0,.05.05,0,.11.1l-.17-.06.06,0h0l.07,0c-.07,0,0,.07-.12,0,.06,0,.06,0,.09.05-.14-.07,0,0-.07,0s0,0-.1-.06c.12.08-.05,0,0,0s0,0,0,.1-.1,0-.17,0h0c.13.07.09.08.11.11a.44.44,0,0,1-.15-.09h0l.07.06-.11-.05s.1.1,0,.08a2.35,2.35,0,0,1,.39.21l-.19-.1s0,0,0,0l-.09-.06c-.06,0,.08,0,.06,0l-.14-.06s0,0,0,0a.45.45,0,0,1-.16,0l.12.07s-.11,0-.17-.06,0,0,.12.09l-.11-.05c0,.05,0,.06.14.13h0c.13.11-.14,0-.1.1l-.05,0c.05,0,0,.07.11.14a.73.73,0,0,1-.17-.07s.09.07,0,0-.1,0-.06,0-.17-.05,0,0c-.15-.08-.21-.08-.17,0l.12,0s0,0,0,0l-.2-.11c-.29-.08.38.29-.08.11.14.08.12,0,.29.12,0,0-.37-.13-.38-.12s.31.18.2.17a1.55,1.55,0,0,1,.36.19,1.77,1.77,0,0,1-.41-.18s0,0,0,0a.45.45,0,0,0-.14-.08l.07,0c-.09,0-.1,0-.23-.07a.45.45,0,0,0,.18.08c-.14,0,0,0-.13,0s.15.06.14.07.15.09.17.14c-.14,0-.31-.16-.22-.08a1.3,1.3,0,0,1-.29-.15c.14.1-.15,0-.19,0l-.06,0s0,0,0,0l.18.08-.12,0c.11.06.3.14.45.23-.1,0,.07.08-.17,0,.11,0-.24-.11-.25-.15s0,0,0,0l-.06,0c-.24-.08.25.14.23.17l-.24-.11.33.17c-.12,0,.06.06,0,.07h.06c.13.07.11.07.14.11s-.06,0-.11-.07c.23.14-.28-.09-.13,0l-.33-.15c.16.11-.21-.07-.08,0a1.65,1.65,0,0,1,.32.18l-.1-.11.25.16s-.1-.08-.06-.07a1.05,1.05,0,0,0,.26.13c-.3-.12.14.12-.06,0l-.47-.23c-.24-.08.2.17.06.15l.09,0c.19.1,0,0,.08.08a2.44,2.44,0,0,0-.33-.14c.12.05,0,0,.29.18l-.22-.09c-.11,0,.45.27.37.27s-.3-.14-.42-.23,0,0,.08.06c-.11,0,.2.14,0,.07.07,0,.24.13.22.14l-.08,0a2.2,2.2,0,0,0,.29.15c-.54-.23,0,.11-.48-.09,0,0,.09.1.09.13s-.09,0-.07,0c-.17-.05.49.26.29.21s-.14-.09-.25-.14c-.57-.27.06.08-.29-.06l0,0c-.2-.08.2.15.14.16l-.09,0a1.68,1.68,0,0,1,.43.32,3.65,3.65,0,0,0-.34-.18s.37.18.42.23c-.13,0-.24-.09-.49-.21v0c-.33-.14,0,0-.07,0l-.14-.07c0,.06.38.23.34.25l.11.05c.33.19-.21-.08,0,.07l-.36-.17.38.27c-.26-.14-.38-.24-.53-.33s0,.06.18.15c0,0-.12-.07-.06,0,.27.15.4.24.38.27-.69-.35-.21,0-.75-.27.23.17-.15,0-.14.11.54.25,0,0,.56.3,0,0,0,0,0,0l-.34-.12a2.21,2.21,0,0,1-.24-.14,2.78,2.78,0,0,1-.39-.15c.2.09.28.15.2.13l.26.1c.27.18-.47-.19-.2,0l-.17-.1c.09.07,0,.07.39.31l-.25-.13c-.08,0,.42.34.14.25l-.13-.07s.24.14.11.08l-.14-.06s.22.13.14.11l-.15-.08c-.18,0,.33.24.4.33a1.81,1.81,0,0,0-.57-.22l-.06,0c-.06,0,.28.25.41.38-.41-.17-.2,0-.43,0l.31.17c-.08,0,.23.16-.09,0h0c-.32-.14-.24-.08-.26-.06l.42.21c-.61-.24.17.25-.36,0l.19.15-.21-.11c-.06,0-.08,0,0,.09l-.15-.08s.59.32.59.35l-.3-.14c0,.05-.26,0,0,.14a.49.49,0,0,1-.13-.08s-.2,0,.18.18c-.25-.13,0,0,.07.11l-.18-.09a1.24,1.24,0,0,1,.34.22s-.14-.06-.09-.05c-.1,0,.16.1.06.08l-.11-.07s0,0,.16.12,0,0-.2,0c.09,0,.21.12.16.12L78.3,163c-.11,0,.18.15,0,.1l-.1-.05s0,0,0,0a3.79,3.79,0,0,1-.38-.18c.12.08.35.23.28.22l-.05,0h0s0,0,0,0h0C78,163,78,163,78,163a1.77,1.77,0,0,0,.24.12l0,0h0s0,0,0,0,.14.09.06.06l.23.13c-.21-.08-.32-.1-.45-.16a.83.83,0,0,0,.29.27s-.07,0-.11,0l0,0c.06,0,0,.07.18.16-.08,0-.15-.09-.13,0l0,0c-.23,0,.36.31,0,.25h0c-.11,0,0,.23-.1.26s0,.05.06.08l-.06,0,.06.05c0,.06-.13,0-.06.1h0s0,.06,0,.05h0a.09.09,0,0,1,0,.05s0,0,0,0a.28.28,0,0,1,0,.06,0,0,0,0,1,0,0v0s0,0,0,0l0,0h0l0,0s0,0,0,0h0v0s0,0,0,0,0,0,0,0,0,0,0,0h0s0,0,0,0,0,0,.1,0,0,0,0-.05,0,0,.14,0c-.06-.06,0-.06,0-.11l0,0a.15.15,0,0,1,.09,0c-.09-.05-.08-.08-.14-.12.12,0,.11.07.21.11-.08,0,0-.06-.12-.09a.51.51,0,0,1,.14,0c-.14-.07,0,0-.08-.07.09,0,.14.06.12,0A.15.15,0,0,1,78.91,164.06Zm.2-.58Zm0,0h0c-.06,0-.11,0-.1-.06ZM78,163s0,0,0,0a0,0,0,0,0,0,0h0Z" fill="#af5341"/>
          <path d="M78.22,163.12h0l0,0Z" fill="#af5341"/>
          <path d="M80.51,159.08Z" fill="#af5341"/>
          <polygon points="80 163.07 79.95 163.05 79.99 163.08 80 163.07" fill="#af5341"/>
          <path d="M81.06,159h0Z" fill="#af5341"/>
          <path d="M81.1,158.92h0Z" fill="#af5341"/>
          <path d="M81.16,158.84l0,0h0Z" fill="#af5341"/>
          <path d="M81.12,160.48h0S81.15,160.51,81.12,160.48Z" fill="#af5341"/>
          <path d="M80.76,159.81l.09.06S80.87,159.86,80.76,159.81Z" fill="#af5341"/>
          <polygon points="81.26 161.11 81.26 161.1 81.26 161.11 81.26 161.11" fill="#af5341"/>
          <path d="M80.84,159.89s0,0,0,0S80.81,159.87,80.84,159.89Z" fill="#af5341"/>
          <polygon points="81.19 158.4 81.19 158.4 81.19 158.4 81.19 158.4" fill="#af5341"/>
          <path d="M81.19,158.4h0Z" fill="#af5341"/>
          <path d="M81.18,158.37v0Z" fill="#af5341"/>
          <path d="M81.18,158.54h0Z" fill="#af5341"/>
          <path d="M81.18,158.58s0,0,0,0h0S81.16,158.56,81.18,158.58Z" fill="#af5341"/>
          <path d="M80.86,158.6l0,0s-.06,0-.06,0S80.9,158.57,80.86,158.6Z" fill="#af5341"/>
          <path d="M80.75,158.65s0,0-.06,0A.07.07,0,0,0,80.75,158.65Z" fill="#af5341"/>
          <path d="M80.25,159.19l-.14-.07S80.16,159.15,80.25,159.19Z" fill="#af5341"/>
          <polygon points="80.99 159.71 81.09 159.75 80.94 159.67 80.99 159.71" fill="#af5341"/>
          <polygon points="79.8 159.21 79.78 159.19 79.82 159.24 79.8 159.21" fill="#af5341"/>
          <path d="M79.1,160.19l.27.13S79,160.13,79.1,160.19Z" fill="#af5341"/>
          <path d="M79.12,160.77c-.14-.06-.24-.1-.1,0S79.16,160.79,79.12,160.77Z" fill="#af5341"/>
          <polygon points="78.12 161.99 78.04 161.94 78.11 161.99 78.12 161.99" fill="#af5341"/>
        </g>
      </g>
    </g>
  </g>
</svg>
