<svg xmlns="http://www.w3.org/2000/svg" viewBox="0 0 217.48 410.35">
  <g id="Layer_2" data-name="Layer 2">
    <g id="Layer_6" data-name="Layer 6">
      <polygon points="55.48 21.12 91.48 102.12 143.47 0 217.48 340.12 136.48 410.36 0 385.61 12.48 95.12 55.48 21.12" fill="#fcbe79"/>
      <g>
        <g>
          <path d="M119.58,172.58c0-.09-.15-.24-.2-.15l.14.31Z" fill="#af5341"/>
          <path d="M118.72,172.48a.88.88,0,0,0,.32.69c-.11-.32,0-.23-.14-.6,0-.09.19,0,.25.09,0-.09.16,0,.08-.23-.25-.13-.38,0-.39.23C118.77,172.62,118.75,172.53,118.72,172.48Z" fill="#af5341"/>
          <path d="M112.83,179.92l.06,0A.1.1,0,0,0,112.83,179.92Z" fill="#af5341"/>
          <path d="M112.07,185.93a.08.08,0,0,0-.08-.06S112,185.94,112.07,185.93Z" fill="#af5341"/>
          <path d="M111.81,187V187S111.78,187,111.81,187Z" fill="#af5341"/>
          <path d="M112.83,179.92l-.15.13C112.78,180.09,112.78,180,112.83,179.92Z" fill="#af5341"/>
          <path d="M118.23,173.89a.24.24,0,0,0,0-.12l0,.08Z" fill="#af5341"/>
          <path d="M113.57,177.31l0-.05-.1-.1Z" fill="#af5341"/>
          <path d="M114.62,175.49s.19.2.28.29c-.08-.09-.11-.15-.1-.19A.5.5,0,0,0,114.62,175.49Z" fill="#af5341"/>
          <path d="M117.14,173.35l0-.07Z" fill="#af5341"/>
          <path d="M112.91,178.65h0Z" fill="#af5341"/>
          <path d="M121.22,173.55v-.05S121.21,173.54,121.22,173.55Z" fill="#af5341"/>
          <polygon points="119.2 171.96 119.23 171.95 119.23 171.79 119.2 171.96" fill="#af5341"/>
          <path d="M111.81,189h0S111.78,189,111.81,189Z" fill="#af5341"/>
          <path d="M124.23,197.66c-.3.06-.15-.43-.53-.29C123.82,197.39,124,197.8,124.23,197.66Z" fill="#af5341"/>
          <path d="M118.17,173.9l-.06.06A.11.11,0,0,0,118.17,173.9Z" fill="#af5341"/>
          <path d="M123.7,197.37h0l0,0Z" fill="#af5341"/>
          <path d="M113.41,193.21a.28.28,0,0,0,.09-.1A.48.48,0,0,0,113.41,193.21Z" fill="#af5341"/>
          <path d="M112.64,190v.09A.1.1,0,0,0,112.64,190Z" fill="#af5341"/>
          <path d="M114.55,194.56c0,.05,0,.08,0,.11s0,0,0,0S114.54,194.62,114.55,194.56Z" fill="#af5341"/>
          <polygon points="115.5 196.07 115.53 196.01 115.49 195.97 115.5 196.07" fill="#af5341"/>
          <path d="M125.08,175.51a1.64,1.64,0,0,1,.14-.22C125.09,175.44,124.89,175.34,125.08,175.51Z" fill="#af5341"/>
          <path d="M118.12,173.78c0,.06.06.09,0,.12l0-.05S118.15,173.79,118.12,173.78Z" fill="#af5341"/>
          <path d="M116.52,193.52l.08.24A.85.85,0,0,0,116.52,193.52Z" fill="#af5341"/>
          <path d="M126.2,186.16l0-.07A.05.05,0,0,0,126.2,186.16Z" fill="#af5341"/>
          <path d="M117,194.37a.4.4,0,0,0-.08.22H117Z" fill="#af5341"/>
          <path d="M125.22,175.29Z" fill="#af5341"/>
          <path d="M123.67,174.83c.16.13.29-.24.44-.39.28.07,0,.29-.1.5.19,0,.49-.17.58-.08s0,.08-.1.12c.33-.11.38.33.78.23a.22.22,0,0,1,0,.08,3.22,3.22,0,0,1,.35-.37c.08.08.32,0,.16.19,0-.06-.11,0-.19,0h.15c-.19.3-.19,0-.38.14.23.07.59.11.62.3-.25.23-.32-.24-.43.12l0-.28c-.31.49-.06-.14-.4.36.09.3.34.16.43.47.2,0,.22-.17.42-.22.53.24-.54.73,0,.8.23,0,.63-.18.53.14l-.38.09c.08.29.6-.07.47.35-.16,0-.21-.19-.23-.13-.21.31.25.06.31.22l-.31.15a2.17,2.17,0,0,0,.34.44,2.62,2.62,0,0,1,.3.51c-.1,0-.22,0-.3.07a1.77,1.77,0,0,1,0,1.49l.3.16s-.13.08-.18,0c-.11.19.18,0,.3.08s-.16.15-.25.08c.28.31.55.94.22,1.28l-.09-.07c-.13.26.59.34.31.58l0,0c-.2.58,0,1.28-.5,1.67.4.15-.29.55.28.7-.35.28-.43.17-.72.6-.06.12.32.26.34.44l-.3-.07.26.29-.38,0,0,.16a.25.25,0,0,1,.25-.06c.08.26-.35.51-.5.47,0,.21.08.41.11.61-.12,0-.13-.15-.19-.24.22.37-.33,0-.13.31.08,0,.17.07.23.09a.61.61,0,0,0-.3.62l-.19-.11c-.16.39-.15.87-.31,1.31.15-.13.49,0,.47.17l-.32,0c.16.15.16-.1.33.15-.09.16-.39,0-.45-.13l0,.23c-.09,0-.12-.08-.24-.13.17.15-.42.24-.13.47l-.1,0c-.15.44-.12.68-.25,1,.26.11.15.22.32.41-.19.23-.51.44-.61.77s.19.15.31.32c-.25-.08-.35.24-.45,0a3,3,0,0,0-.18,1c.12,0,.19,0,.26,0s-.19.15-.3.09v0c.11.69-1.21.93-.93,1.56l0,0,.05.55c-.14.18-.12-.2-.33-.12.16.65-.41.71-.34,1.22-.84,0-.44,1-1,.78l.14.12c.08.17-.12,0-.17,0s.14.08.18.18-.15.17-.25.22a.65.65,0,0,1-.35-.07,4.18,4.18,0,0,1-.73-.58c-.19-.16-.59.72-.69.16l.27-.22c-.72,0-1-.78-1.65-1,.08,0,.16-.09.2,0,.09-.26-.33-.39-.48-.27-.05-.09.12-.13.15-.24s-.45-.09-.31-.3c0,0,.08,0,.11,0-.14,0-.23-.36-.4-.13,0-.27-.39-.32-.36-.59-.34.06-.12-.44-.51-.25.38-.22.08-.57-.19-.61.15,0,.06-.19.25-.23-.09-.16-.25-.27-.44-.13.31-.54-.7-.42-.17-.9a5.8,5.8,0,0,1-1.11-1.25c.42-.14.26.5.69.3-.36-.35-.81-.49-.87-1,0-.13.21,0,.29,0-.35-.39-.24-.89-.6-1.23a.18.18,0,0,1,.14.06c0-.08,0-.21-.18-.15l.08.07c-.25.21-.7-.16-.86-.14.61,0,0-.46.82-.41a.29.29,0,0,0-.29,0c0-.09.1-.13.27-.09-.18-.26-.37-.11-.42-.38.09,0,.14,0,.26,0-.21-.1-.44-.2-.4-.44.06,0,.13,0,.14,0-.09-.38-.61-.59-.5-1.06.45.07.11-.17.49-.23l-.13-.22-.18.11c0-.2-.3-.36-.19-.55l.17.14-.11-.38-.12.23c-.21-.2-.47.06-.39-.23,0,.05,0-.21.2-.34h0c-.12-.1-.24-.21-.15-.37a4,4,0,0,1,.49,0c-.32-.1-.1-.49-.43-.62a.6.6,0,0,0,.31,0l-.25-.09c.08-.1.12-.11.27-.09.06-.29-.48.08-.26-.26,0,0,.06,0,.1.07.12-.34-.12-.68,0-1,.38-.06.08.29.4.21-.06-.45-.33-1-.19-1.41l-.06.07c-.51-.15.3-.28.12-.54,0,.06.27.13.22.1.15-.27,0-.62-.05-1.11l.12.09c.16-.14.21-.43.33-.59-.11-.1-.06-.19-.27-.19.89-.3,0-1.22.83-1.46,0,.06,0,.19.07.14s0-.31.08-.45c-.23-.07-.16,0-.36,0a.34.34,0,0,1-.07-.38c0,.26.33.17.48.16-.07,0-.12-.08-.19-.11.48,0-.39-.26,0-.41l.09.07c0-.13-.07-.31,0-.41.26.09,0,.18.23.3.08-.17-.26-.59.06-.59,0,.1,0,.21,0,.31.36,0,.3,0,.42-.13h0l.3-.17h-.12c-.44-.58.16-.44,0-1,.17.51.17.19.4.39.11,0,.25-.05.3,0-.11-.27.29-.07.14-.44.08,0,.11-.11.28.07.06-.19-.16-.08-.25-.17-.06-.43.75-.23.68-.85.12-.38-.06-.66.08-1,.2,0,.18.33.18.33a.4.4,0,0,0,.37-.34c0,.09.1.11.21.16.08-.11-.16-.33.06-.35a1.88,1.88,0,0,1,.16.39,3.77,3.77,0,0,1,.14-.58c.15.1.09.26.11.38.1-.18.29-.42.17-.67h-.16c.05-.05.17.16.16.23,0,.27-.24.07-.31,0l.06-.12c-.47-.37-.34.37-.53.52l-.2-.39,0,.43c-.11,0-.3-.18-.25-.32-.27,0,0,.22-.28.16,0,0,0,0,0-.06l0,.21c0-.08-.23-.19-.1-.22-.41,0-.16.58-.47.43v0c-.21.41.18.24.22.73l-.7-.35.2.24a.12.12,0,0,1-.19,0c0,.26.12.06.2.27-.36,0-.29.53-.7.26.13.2.27,0,.25.23-.46-.28-.11.26-.41.28-.18-.21,0-.28-.26-.26.29.37-.31.26-.34.46.29.21-.09.39-.16.69-.09-.09-.43.36-.68.53l0,0c.29.23.1.44.07.64-.2-.1-.26-.17-.29-.32l-.09.17a.37.37,0,0,1,.09.31l-.22-.17c-.09.25.08.61-.22.83.23.12.76.06.78.42-.13,0-.35-.12-.37-.22s.06.14,0,.17l-.16-.22c-.16.1.14.15.08.25-.18-.08-.17,0-.31,0s.12-.06.07-.14a.56.56,0,0,1-.42.21c.11,0,.24.1.24.2-.07.25-.25,0-.4.11.11.1-.07.21.2.31,0,.07-.16,0-.24,0,.08.17-.16.6.19.55l0,0v0h0c.14.48-.37.81-.36,1.25l-.09,0c0,.27,0,.57.14.78,0,.07-.2.15-.32.1,0,.2.16.23,0,.49-.15-.21-.17,0-.1-.21-.12.24-.29.28,0,.58-.25-.12-.33.16-.26.29L112,183a.8.8,0,0,1,0,.38l-.33-.09c-.44.52.62,1,0,1.35.23.14.16-.28.43-.16,0,.24-.51.5-.51.57-.18.35.48.3.38.64.11,0,.43-.11.56.13,0,.23-.47.33-.58.19s0-.09.06-.09-.11-.17-.23-.07l.12,0c-.11.13-.06.46-.27.4.13.17.21.06.25-.08-.14.32,0,.48,0,.81.06-.06.19-.12.2-.07-.08.48.25.17.35.47-.15.2-.43,0-.24.29-.09.21-.3.09-.41,0,.28.25-.07.57-.06.74l-.13-.13a.49.49,0,0,1,.11.23l.21-.13c0,.09,0,.17-.1.19.17.05.37-.15.62,0-.1.14.2.32-.1.43,0-.39-.3.11-.42-.19a.25.25,0,0,1,.05.23.08.08,0,0,1-.09,0c-.19.42.38.08.46.45-.18,0-.31.17-.25.21,0-.14.26-.14.43,0-.06.26.17.22.19.34l0-.15c.18,0,.19.11.29.25-.13.06-.13-.11-.17,0,.34.09-.2.49.07.68-.07.14-.31.11-.35.23.31.2-.12.38.16.61.19-.17.13-.16.42,0l-.32-.41.43.18c0-.14-.24-.24-.24-.34.24.08.18.08.34-.05-.27.31.33.31.18.61l-.55.2c-.14.44.51.48.55,1l0-.18c.24,0,.14.25.28.35-.18.07-.21.18-.3.29.13-.06.14.32.52.18l-.15.3c.08.39.69.13.8.47-.25,0-.29.22-.54.08.05.11.08.22.2.15-.08.13.39.16.28.35.11,0,.29-.09.34,0a.14.14,0,0,1-.08,0c.08,0,.22.12.35-.09-.36.64.58.82.31,1.38a5.52,5.52,0,0,1,.6.57s-.07.06-.08,0c0,.38.55-.19.63.22-.12.35-.26,0-.27.13-.46.46.36.28.25.72l-.07,0c0,.31.52.18.71.44a.21.21,0,0,0-.07.07,1.86,1.86,0,0,1,1.06.21c-.23.14-.19,0-.31.26.13,0,.23-.36.48-.25,0,.17.08.38,0,.62a1.09,1.09,0,0,1-.23-.14c-.1.38.31.19.39.32l-.1.12c.39.19.58-.15,1,.05v-.12c.37-.27.1.3.43.1l0,.39a9.35,9.35,0,0,0,1-.3,1,1,0,0,1-.39.34c-.15.06-.32.1-.46.16a2,2,0,0,0,.39.05.44.44,0,0,0,.36-.16c-.08,0-.19.13-.26.06a1.43,1.43,0,0,1,.85-.48c0,.39.29.38.59.32s.57-.28.88-.13a3.47,3.47,0,0,1,.7-.81l.36-.39a1.28,1.28,0,0,0,.27-.42c-.63-.07.06-.16-.51-.4,0-.14.06-.19.1-.18l.51-.22c.21,0,.07.18.2.23.17-.26.28,0,.52-.11-.22-.06-.24-.24-.09-.36l-.36.1c-.11-.52.62-.11.52-.64l.11.21c0-.25.37-.73,0-1.14.08,0,.26,0,.26.12.28-.45,0-1.28.43-1.54l.12.1c0-.11-.19-.27,0-.32s.12.09.15,0-.14-.34,0-.42l.11.16c.38-.4-.09-.89,0-1.32a.74.74,0,0,0,.83-.33l.06,0c.28-.54,0-1.09,0-1.68.56-.17.59-1,1-1.5-.1.06-.33-.11-.34-.22s-.19-.44.19-.3l0,0c.41,0,.38-.27.45-.47l-.5-.18c.91-.33.08-1.47.82-1.6-.09-.16-.05-.32-.15-.48l.27.07a2.39,2.39,0,0,0,.22-1l.19.13c.06-.26-.75-.46-.73-.7h.43c.06-.45.47-.88.14-1.37.06,0,.18,0,.19.12,0-.21.34-.84-.24-.79.38,0,.06-.48-.1-.72l.27,0c-.34-.22-.44-.22-.55-.51,0-.07.22-.06.15,0,.14-.24-.27-.17-.13-.46l.18.1c0-.24-.08-.22-.29-.33s0-.45.28-.51c-.15,0-.37-.13-.32-.27a.21.21,0,0,1,.19,0c.13-.42-.39-.54-.18-.85a.26.26,0,0,0,.16-.08,1.51,1.51,0,0,1,0,.56c.26,0,.27-.31.65-.15-.21-.19-.7-.47-.65-.74l.08-.06,0,0a.17.17,0,0,0-.08-.15.63.63,0,0,0,0-.23c.2-.08,0-.33,0-.46-.27.09-.28-.09-.45.13,0,0,0,0,.08.1s0,0,0,0h0a3.09,3.09,0,0,1,.09.31c-.16-.06-.29-.13-.19-.31l-.49,0c.32-.28.41-.68.62-.82-.29-.33-.5-.87-1.08-.84-.11-.06.07-.18.12-.26s.11.1.2.1c-.24-.14-.4-.57-.74-.41,0-.33.38-.06.1-.35l.13,0c0-.49-.39-.64-.78-.72s-.73-.17-.82-.74c0,.08,0,.11,0,.17a2.27,2.27,0,0,0-1.19-.87,3.31,3.31,0,0,1-1.26-.79c-.22-.2-.33,0-.53.14l0-.31-.36.25c-.43.15-.5-.89-1.1-.5l0,.21c-.17-.07-.57,0-.51-.19,0,0-.09.2-.14.09v-.16l-.46.23c-.33-.14.1-.63-.42-.68-.2.05-.57.46-.49.57a.24.24,0,0,1,.21.25l-.16.09c0,.46-.08.94.24,1.26a3.33,3.33,0,0,1,.25-.28l.07.23h-.2c.11.21.18,0,.27-.1a.49.49,0,0,0,.09.26l.27-.43c0,.19-.13.35,0,.47.14-.19-.07-.42.14-.53.1.22,0,.39.2.22a.25.25,0,0,1-.09.24c.14-.13.32,0,.43-.25.08.28.43,0,.32.45.06-.1.29-.3.41-.28-.33.46.4.13.19.66.28-.4.57,0,.9-.18,0,0-.08.09-.09.06s.11.24.16.36c.17-.35.42-.33.64-.49,0,.42-.31.36-.41.71.13-.29.42-.15.49-.4a.72.72,0,0,1,0,.47c.26-.41.15,0,.4-.2,0,.3-.2.41,0,.4C123.92,174.79,123.67,174.83,123.67,174.83Zm3.36,3.76h0l0-.11Zm.1.46a.71.71,0,0,0,0-.2c.09,0,.19,0,.2,0S127.21,179,127.13,179.05Zm1.67-1.49c.06.08,0,.12,0,.15l-.07-.15h.11Z" fill="#af5341"/>
          <path d="M128.4,177.51s0,0,0,0a.18.18,0,0,0-.05.07h.1Z" fill="#af5341"/>
          <path d="M112.9,179.86h0Z" fill="#af5341"/>
          <polygon points="126.19 185.6 126.26 185.61 126.21 185.56 126.19 185.6" fill="#af5341"/>
          <path d="M114.84,177.66h0Z" fill="#af5341"/>
          <path d="M115.48,176.69l.18-.08A1.12,1.12,0,0,0,115.48,176.69Z" fill="#af5341"/>
          <path d="M116.1,176.05,116,176h0Z" fill="#af5341"/>
          <path d="M114.43,189.39l0,0C114.53,189.48,114.5,189.43,114.43,189.39Z" fill="#af5341"/>
          <path d="M113.09,185.34a.58.58,0,0,1,.14.13C113.25,185.39,113.25,185.33,113.09,185.34Z" fill="#af5341"/>
          <polygon points="116.51 193.5 116.5 193.5 116.52 193.52 116.51 193.5" fill="#af5341"/>
          <path d="M113.24,185.66a.14.14,0,0,0,0-.19A.25.25,0,0,0,113.24,185.66Z" fill="#af5341"/>
          <path d="M118.85,173.41h0l0,0Z" fill="#af5341"/>
          <path d="M118.87,173.36v-.06S118.85,173.33,118.87,173.36Z" fill="#af5341"/>
          <path d="M118.92,173.19l0,.11S119,173.26,118.92,173.19Z" fill="#af5341"/>
          <path d="M117.88,174.08l.06.08Z" fill="#af5341"/>
          <path d="M117.64,174.34c.08,0,.31,0,.35-.11l0-.07C118,174.31,117.58,174.16,117.64,174.34Z" fill="#af5341"/>
          <path d="M115.67,174.62l.27-.19c-.12,0-.28-.07-.2-.2C115.22,174.33,116,174.32,115.67,174.62Z" fill="#af5341"/>
          <path d="M114.92,175.31c.06-.17-.13-.09-.17-.13C114.76,175.33,114.77,175.36,114.92,175.31Z" fill="#af5341"/>
          <path d="M112.19,182l-.25-.05C112,182.11,112,182,112.19,182Z" fill="#af5341"/>
          <polygon points="113.37 183.49 113.54 183.38 113.31 183.31 113.37 183.49" fill="#af5341"/>
          <polygon points="111.51 184.22 111.47 184.16 111.57 184.4 111.51 184.22" fill="#af5341"/>
          <path d="M115.12,196l.24-.22C115.26,195.69,115,195.87,115.12,196Z" fill="#af5341"/>
          <path d="M119.34,199.49c0,.17.12.33.27.23C119.49,199.64,119.41,199.48,119.34,199.49Z" fill="#af5341"/>
          <polygon points="128.32 187.51 128.39 187.64 128.36 187.43 128.32 187.51" fill="#af5341"/>
        </g>
        <g>
          <path d="M66.9,155.67c-.06.07-.16.24-.11.22l.2-.26Z" fill="#af5341"/>
          <path d="M66.79,156.31a2.31,2.31,0,0,0,.45-.6c-.21.25-.15.13-.39.43,0,0,0-.12.07-.22,0,.06,0-.09-.14.08s0,.28.13.13C66.88,156.19,66.82,156.26,66.79,156.31Z" fill="#af5341"/>
          <path d="M70,158.35v0S69.94,158.35,70,158.35Z" fill="#af5341"/>
          <path d="M72.18,159.14s0,0,0,.06A.07.07,0,0,0,72.18,159.14Z" fill="#af5341"/>
          <path d="M72.51,159.59l0,0S72.5,159.62,72.51,159.59Z" fill="#af5341"/>
          <path d="M70,158.35l0,.12C70,158.37,70,158.39,70,158.35Z" fill="#af5341"/>
          <path d="M67.63,155.86l-.07.06h0Z" fill="#af5341"/>
          <path d="M68.88,158.24h0l-.07.12Z" fill="#af5341"/>
          <path d="M68.11,158a2.38,2.38,0,0,0,.19-.34.51.51,0,0,1-.12.16Z" fill="#af5341"/>
          <path d="M67.22,156.93l0,0Z" fill="#af5341"/>
          <path d="M69.4,158.5l0,.09Z" fill="#af5341"/>
          <path d="M90,154l0,0S90,154,90,154Z" fill="#af5341"/>
          <polygon points="91.4 154.79 91.4 154.81 91.47 154.95 91.4 154.79" fill="#af5341"/>
          <path d="M73.2,160Z" fill="#af5341"/>
          <path d="M80.1,159.75c-.12-.24.07-.34-.08-.6C80.05,159.26,80,159.6,80.1,159.75Z" fill="#af5341"/>
          <path d="M67.63,155.9l0,0S67.64,155.9,67.63,155.9Z" fill="#af5341"/>
          <path d="M80,159.15h0l0,0Z" fill="#af5341"/>
          <path d="M75,160.06a.53.53,0,0,0,0-.13A.72.72,0,0,0,75,160.06Z" fill="#af5341"/>
          <path d="M73.72,159.53l0,0A.11.11,0,0,0,73.72,159.53Z" fill="#af5341"/>
          <path d="M75.65,159.67s0,.06,0,0v0S75.66,159.72,75.65,159.67Z" fill="#af5341"/>
          <path d="M76.33,159.68v-.06l0,0Z" fill="#af5341"/>
          <path d="M88.27,154.92a2.53,2.53,0,0,1,.13.22C88.31,155,88.37,154.86,88.27,154.92Z" fill="#af5341"/>
          <path d="M67.55,156c0-.06.06-.09.08-.1h0Z" fill="#af5341"/>
          <path d="M75.73,157.46l.1,0A.14.14,0,0,0,75.73,157.46Z" fill="#af5341"/>
          <path d="M84,156.54v0S84,156.51,84,156.54Z" fill="#af5341"/>
          <path d="M76.12,157.46c0,.1,0,.16,0,.2l0-.08Z" fill="#af5341"/>
          <path d="M88.41,155.15h0Z" fill="#af5341"/>
          <path d="M88.74,154.26c-.09,0,.11.35.18.55s-.16-.22-.27-.38c0,.12.06.45,0,.46a.46.46,0,0,1-.07-.14c0,.3-.2.1-.14.48l0-.08c.08.16.16.33.21.46s0,.24-.09,0c0,0,0-.1,0-.17v.11c-.18-.3,0-.13-.09-.37,0,.14,0,.45-.13.38-.14-.3.11-.17-.1-.41l.15.08c-.29-.46.08,0-.22-.49-.17,0-.08.22-.24.19,0,.18.12.25.16.43,0,.4-.47-.72-.43-.25.05.23.2.63,0,.46l-.11-.37c-.14,0,.13.54-.09.36,0-.15,0-.16,0-.2-.2-.24,0,.23,0,.26l-.14-.31c-.12.1-.18.38-.3.5a.62.62,0,0,0-.12-.29c-.12.23-.41.11-.66,0l0,.3s-.07-.11-.08-.17.06.18.07.3-.11-.14-.12-.23c0,.28-.17.63-.41.38V156c-.15-.08.08.6-.11.38v-.06c-.26,0-.43.29-.74-.07.1.41-.28-.11-.12.46-.21-.23-.21-.35-.45-.48,0,0,0,.38,0,.45l-.09-.29v.33l-.15-.34,0,.09a.4.4,0,0,1,.11.21c0,.15-.27-.15-.32-.3l-.14.31a.75.75,0,0,1,0-.26c0,.34-.11-.3-.13,0a2.1,2.1,0,0,1,.06.24c-.1-.16-.22-.13-.28,0l0-.21c-.17,0-.3.19-.48.23a.74.74,0,0,1,.13.49l-.11-.31c0,.2.09.1.08.36-.07,0-.13-.35-.12-.46l0,.13a1.64,1.64,0,0,1-.05-.27c0,.21-.22-.28-.18.07l0-.09c-.17,0-.22.16-.36.2.06.28,0,.23,0,.46-.12-.06-.29-.25-.41-.2s0,.24,0,.41c-.06-.25-.18-.2-.15-.39-.15.07-.19.09-.34.34a.65.65,0,0,1,.08.22s-.1-.09-.12-.21v0c-.14.44-.63-.63-.71-.08v0l-.13.3c-.09,0,0-.2-.07-.34-.12.45-.31,0-.43.29-.23-.73-.43.12-.66-.34l0,.18c0,.18-.06-.1-.1-.13,0,.14.06.15,0,.25-.34.28-.79-.19-1.16-.32-.14,0,0,.93-.22.51l0-.33c-.25.42-.56,0-.82.39,0-.08,0-.18,0-.18-.07-.23-.21,0-.21.18,0,0,0-.17,0-.27s-.14.3-.17.06a.11.11,0,0,1,0-.09c0,.11-.17,0-.13.24-.1-.13-.19.12-.28,0,0,.3-.17-.16-.19.28,0-.45-.17-.37-.24-.15,0-.14,0-.15,0-.33-.07,0-.14.08-.14.32-.11-.55-.29.43-.34-.27a1.72,1.72,0,0,1-.64.48c0-.45.22,0,.24-.5-.19.17-.33.54-.51.41s0-.19.07-.27c-.2.17-.35-.08-.54.15a.43.43,0,0,1,0-.12s-.07-.08-.09.13l0,0c0,.3-.2.6-.23.75.13-.57-.15-.16,0-.89a.53.53,0,0,0-.08.27s0-.13,0-.28c-.13.1-.12.32-.22.3a1.53,1.53,0,0,1,.07-.24c-.08.18-.17.37-.24.27s0-.13,0-.13c-.16,0-.35.49-.49.27.13-.41,0-.15,0-.52l-.11.09v.18c-.07,0-.19.23-.24.09l.09-.14-.16,0,.06.16c-.12.17-.09.46-.17.34s-.08,0-.08-.25h0c-.06.1-.13.22-.17.11s.1-.4.11-.48c-.11.3-.2,0-.33.36a1.18,1.18,0,0,0,.08-.31l-.09.24a.6.6,0,0,1,0-.28c-.1-.07-.07.47-.16.24,0,0,0-.05,0-.08s-.29.09-.38-.06c.06-.37.13-.06.17-.38-.19,0-.48.35-.62.23l0,.05c-.17.5-.06-.28-.21-.07,0,0,.12-.28.09-.22-.08-.12-.26,0-.48.13l.07-.12c0-.14-.15-.13-.2-.21-.07.12-.1.08-.14.28,0-.81-.57.23-.53-.45,0,0,.1-.09.08-.09l-.21.05a1.1,1.1,0,0,0-.06.32c-.07.12-.16.2-.2.18.13-.11.14-.34.16-.47a1.76,1.76,0,0,0-.09.2c.07-.41-.2.42-.21.12l0-.11c-.06.05-.17.18-.2.13.08-.26.09-.1.18-.3-.07,0-.33.41-.29.15.06-.06.1-.05.16-.1.06-.31,0-.24,0-.31h0a1,1,0,0,1-.05-.18v.1c-.37.59-.21,0-.51.38.29-.33.12-.22.26-.49a.55.55,0,0,1,.06-.26c-.16.19,0-.22-.22.06,0-.09-.05,0,.07-.25-.1,0-.06.16-.12.27-.25.24,0-.49-.4-.16-.21.1-.39.38-.59.46a.7.7,0,0,1,.21-.3c0-.16,0-.16-.17-.09a.73.73,0,0,0,.12-.25c-.06,0-.21.3-.2.14a3.33,3.33,0,0,1,.24-.32c-.1.05-.25.18-.35.22a1,1,0,0,1,.24-.28.59.59,0,0,0-.4.26v.1s.11-.2.15-.24,0,.13,0,.21l-.08,0c-.25.51.22,0,.28.08l-.24.34.26-.25c0,.1-.14.31-.21.34,0,.22.13-.1.07.13l0,.06.12-.07c-.06.07-.13.26-.14.19,0,.27.32-.18.21.12l0,0c.22,0,.16-.26.44-.52l-.27.71.15-.26s0,0,0,.16c.16-.16,0-.13.18-.28-.06.28.26,0,.06.44.13-.2,0-.2.16-.3-.21.48.13,0,.09.22s-.14.06-.18.32c.24-.39.1.16.19.12.16-.33.19-.07.35-.14-.06.11.11.25.16.41l0,.06c.16-.34.24-.23.34-.28a1,1,0,0,1-.21.36l.07,0c.06-.1.1-.15.16-.17l-.12.24c.1,0,.31-.23.36,0,.1-.24.17-.7.35-.81a1.6,1.6,0,0,1-.18.39s.08-.09.08,0l-.13.2c0,.11.09-.17.13-.14-.07.19,0,.15-.08.29s0-.09-.05,0a.54.54,0,0,1,0,.33c0-.11.09-.25.13-.26s0,.23,0,.35c.07-.12.08,0,.18-.24,0,0,0,.14,0,.22.09-.11.24.05.29-.27v0h0c.25-.22.27.28.46.21l0,.1c.13-.07.23,0,.36-.19,0,0,0,.19,0,.3.09-.06.13-.16.19,0-.12.15,0,.15-.11.1.07.11.06.27.23,0-.1.24,0,.33,0,.26l0-.19a.14.14,0,0,1,.14,0l-.1.32c.1.44.51-.59.51.11.1-.22-.07-.19,0-.44.07.06.06.55.09.56.09.21.22-.45.33-.29a.86.86,0,0,1,.17-.53c.08.07,0,.52-.06.6s0,0,0-.08a.22.22,0,0,0-.08.21l0-.11c0,.13.15.15.08.33a.19.19,0,0,0,0-.25c.08.19.18,0,.28.18,0-.06,0-.21,0-.2.15.18.11-.2.24-.24,0,.19-.1.42,0,.29a.5.5,0,0,1-.08.4c.15-.21.19.18.25.23l-.08.08a.12.12,0,0,1,.11,0v-.24s.06,0,0,.15a4.73,4.73,0,0,1,.13-.6c0,.13.16-.11.13.21-.13-.13,0,.31-.16.35,0,0,.06,0,.09,0s0,.07,0,.08c.11.3.12-.34.26-.32,0,.18,0,.34,0,.3s0-.29.08-.42c.07.15.11-.09.16-.07l0-.07c0-.17.08-.15.15-.19,0,.13-.07.08,0,.15.1-.31.12.34.24.14,0,.12,0,.33,0,.42.13-.22.1.25.23.08a.54.54,0,0,1,.08-.41l-.21.15.16-.34c-.06,0-.14.14-.17.1a.43.43,0,0,0,.06-.33c0,.36.17-.19.24.06l0,.59c.12.27.27-.28.43-.11l-.05-.11c0-.23.12,0,.18-.12a1.09,1.09,0,0,0,0,.39c0-.14.13,0,.17-.37l.07.26c.14.11.18-.56.32-.49-.05.21,0,.35-.09.5s.09,0,.09-.09c0,.12.14-.27.17-.08,0-.09,0-.29.09-.28v.1c0-.1.08-.13,0-.35.13.62.39,0,.51.49a1.19,1.19,0,0,1,.31-.14c0,.06,0,.1,0,.08.13.19.07-.56.21-.36s-.07.17,0,.3c0,.64.17-.09.28.28l0,0c.08.22.17-.26.29-.22v.1a.94.94,0,0,1,.32-.56.86.86,0,0,0,0,.39s0-.41,0-.49a1.67,1.67,0,0,1,.16.53l-.1,0c.07.35.12,0,.18,0v.15c.15-.06.12-.45.28-.43l0-.12c0-.39.09.21.15-.08l.06.39a2.23,2.23,0,0,1,.26-.48,2.34,2.34,0,0,1-.19.64.24.24,0,0,0,.2-.24s0,.13-.07.07c0-.31.12-.47.23-.47.06.77.32.17.47.74.16-.31.41.06.64,0-.16-.58.07,0,0-.63,0-.05.07,0,.08,0l.22.34c.06.17,0,.14,0,.27s.09.25.2.4c-.05-.22,0-.32.07-.25l-.14-.26c.12-.35.23.49.35.14l0,.2c.07-.13.33-.05.33-.54,0,.07.07.23,0,.28.23,0,.36-.61.58-.34v.15s0-.29.09-.15,0,.14,0,.15,0-.28.11-.2v.17c.24.15.22-.47.37-.6a.73.73,0,0,0,.37.58v.06c.25,0,.32-.44.49-.65.24.43.49.07.77.27a.78.78,0,0,1-.06-.39c.07.08.06-.33.16.06h0c.14.37.21.24.29.23l-.13-.51c.42.68.46-.42.77.21,0-.15.08-.16.09-.3l.08.27a.39.39,0,0,0,.38-.09l0,.21c.1,0-.13-.82,0-.86l.16.39c.16-.06.45.23.49-.18,0,.06.05.17,0,.2s.4.17.18-.37c.13.36.18,0,.22-.21l.08.27c0-.36-.08-.45,0-.59,0,0,.1.21,0,.15.13.11,0-.27.12-.17l0,.18c.09,0,0-.1,0-.31s.18,0,.29.24c0-.15-.07-.36,0-.31a.85.85,0,0,1,.05.18c.2.12.09-.38.28-.16l.08.15c-.12,0-.21,0-.21,0,.09.24.2.25.25.61,0-.21,0-.65.11-.57l0,.08v0s0,0,0-.06.07,0,.1,0c.08.19.14.07.19.06-.11-.26,0-.24-.17-.44,0,0,0,0,0,.06s0,0,0,0v0l-.1.06c0-.14,0-.27.08-.14l-.1-.45c.2.34.4.49.51.71.07-.2.28-.23.16-.75,0-.08.1.12.15.19s0,.06,0,.13c0-.15.21-.14.08-.49.16.11.08.34.19.23l0,.11c.49.42,0-1,.63-.48a.29.29,0,0,1-.09-.1c.47.15.54-.59,1.08-.27.14.05,0-.16,0-.35l.15.26-.06-.36c0-.29.57.55.51,0l-.11-.17c.08,0,.13-.2.23,0,0,0-.08-.2,0-.12l.07.14,0-.31c.17,0,.28.56.47.49a1.19,1.19,0,0,0-.12-.58s-.12,0-.2-.19l0-.1a3.5,3.5,0,0,0-.71-1.06l.06.3-.14-.18.07-.06c-.14-.16-.08,0-.05.15a1,1,0,0,0-.16-.2l.13.44c-.1-.16-.14-.34-.24-.4,0,.21.23.34.23.5-.15-.17-.21-.33-.18-.14a.52.52,0,0,1-.09-.23c0,.15-.09.11,0,.35-.17-.21-.13.13-.32-.26a1,1,0,0,1,0,.39c-.16-.51-.18.05-.41-.47.16.46-.11.29-.1.58,0,0,0-.11,0-.09s-.15-.13-.23-.2a2.56,2.56,0,0,1,.17.73c-.24-.31-.16-.44-.34-.76.14.29,0,.35.15.57a1.52,1.52,0,0,1-.26-.36c.2.45,0,.1.07.39-.18-.18-.21-.4-.24-.23A.53.53,0,0,1,88.74,154.26ZM87,155.93h0l0,0Zm-.18.07.08,0c0,.09.07.18.05.19S86.86,156.06,86.8,156Zm1.1,1.66c0,.05-.05,0-.07,0l0-.05v0Z" fill="#af5341"/>
          <path d="M87.82,157.3v0l0-.05,0,.08Z" fill="#af5341"/>
          <path d="M69.94,158.3h0v0Z" fill="#af5341"/>
          <polygon points="84.13 156.35 84.15 156.42 84.14 156.35 84.13 156.35" fill="#af5341"/>
          <path d="M69.27,157s0-.05,0-.07S69.27,157,69.27,157Z" fill="#af5341"/>
          <path d="M68.87,156.8l0-.11A.23.23,0,0,0,68.87,156.8Z" fill="#af5341"/>
          <path d="M68.62,156.52l-.06.1h0Z" fill="#af5341"/>
          <path d="M73.91,157.66h0C74,157.6,73.94,157.62,73.91,157.66Z" fill="#af5341"/>
          <path d="M72.19,158.05l.08-.12S72.22,157.89,72.19,158.05Z" fill="#af5341"/>
          <polygon points="75.72 157.45 75.72 157.46 75.73 157.46 75.72 157.45" fill="#af5341"/>
          <path d="M72.34,158c0-.06,0,0-.07,0S72.31,158,72.34,158Z" fill="#af5341"/>
          <path d="M67.38,155.7v0l0,0Z" fill="#af5341"/>
          <path d="M67.34,155.72l0,0S67.33,155.74,67.34,155.72Z" fill="#af5341"/>
          <path d="M67.24,155.78l.07,0S67.29,155.71,67.24,155.78Z" fill="#af5341"/>
          <path d="M67.71,156l.06-.08Z" fill="#af5341"/>
          <path d="M67.85,156.06s0-.22,0-.19l0,.07C67.86,155.82,67.73,156.2,67.85,156.06Z" fill="#af5341"/>
          <path d="M67.78,157.47l-.07-.14c0,.11-.07.25-.13.25C67.57,158,67.66,157.35,67.78,157.47Z" fill="#af5341"/>
          <path d="M68.06,157.79c-.08,0-.07.15-.1.2S68.06,157.9,68.06,157.79Z" fill="#af5341"/>
          <path d="M70.7,158.79l-.08.24C70.68,159,70.65,158.94,70.7,158.79Z" fill="#af5341"/>
          <polygon points="71.55 157.63 71.54 157.47 71.46 157.69 71.55 157.63" fill="#af5341"/>
          <polygon points="71.42 159.47 71.39 159.5 71.5 159.43 71.42 159.47" fill="#af5341"/>
          <path d="M76.21,159.93l0-.32C76.16,159.67,76.15,160,76.21,159.93Z" fill="#af5341"/>
          <path d="M78.24,159.52c0,.16.1.26.12.1S78.26,159.48,78.24,159.52Z" fill="#af5341"/>
          <polygon points="84.33 158.91 84.32 159.03 84.37 158.92 84.33 158.91" fill="#af5341"/>
        </g>
        <g>
          <path d="M63.65,169.56l.23.07-.31-.11Z" fill="#af5341"/>
          <path d="M64.25,169.7a6.08,6.08,0,0,0-.7-.26l.53.21s-.11,0-.22-.06c.07,0-.08,0,.12.06s.26.06.06,0Z" fill="#af5341"/>
          <path d="M65.06,168.93h0Z" fill="#af5341"/>
          <path d="M65.43,168.41l.07,0Z" fill="#af5341"/>
          <path d="M65.81,168.43h0Z" fill="#af5341"/>
          <path d="M65.06,168.93l.1,0C65.06,168.91,65.09,168.93,65.06,168.93Z" fill="#af5341"/>
          <path d="M63.54,169.31l.08,0,0,0Z" fill="#af5341"/>
          <path d="M65.23,169.27h0l.12,0Z" fill="#af5341"/>
          <path d="M65.21,169.48l-.37-.13.18.07Z" fill="#af5341"/>
          <path d="M64.63,169.63l0,0Z" fill="#af5341"/>
          <path d="M65.33,169.15l.1,0Z" fill="#af5341"/>
          <path d="M65.21,163l.05,0Z" fill="#af5341"/>
          <path d="M66.61,163.2h0l.15,0Z" fill="#af5341"/>
          <path d="M66.21,168.36Z" fill="#af5341"/>
          <path d="M66.58,166.63c-.24-.06-.29-.13-.56-.2A4,4,0,0,0,66.58,166.63Z" fill="#af5341"/>
          <path d="M63.58,169.32h0S63.57,169.31,63.58,169.32Z" fill="#af5341"/>
          <path d="M66,166.43h0Z" fill="#af5341"/>
          <path d="M66.2,167.89l-.12,0Z" fill="#af5341"/>
          <path d="M65.71,168.07h0Z" fill="#af5341"/>
          <path d="M65.87,167.6s.06,0,0,0h0S65.92,167.61,65.87,167.6Z" fill="#af5341"/>
          <path d="M65.93,167.43h0Z" fill="#af5341"/>
          <path d="M65.16,163.54l.25.07C65.22,163.55,65.16,163.5,65.16,163.54Z" fill="#af5341"/>
          <path d="M63.69,169.36l-.11,0h0Z" fill="#af5341"/>
          <path d="M63.78,166.87h0Z" fill="#af5341"/>
          <path d="M64.79,164.75h0Z" fill="#af5341"/>
          <path d="M63.82,166.77l.18,0-.06,0Z" fill="#af5341"/>
          <path d="M65.41,163.61Z" fill="#af5341"/>
          <path d="M64.84,163.22a3.17,3.17,0,0,0,.53.2c.09.07-.26-.07-.44-.12.08,0,.4.17.38.18l-.15,0c.27.12,0,.06.34.21l-.09,0,.48.16s.21.1,0,0l-.15-.06.09,0c-.33-.1-.1-.05-.35-.13.1.06.36.18.27.16-.33-.1-.1-.08-.39-.15h.13c-.51-.15,0,0-.51-.17-.1,0,.15.1.05.1l.44.16c.3.16-.82-.23-.41-.05.21.08.62.23.39.18l-.36-.13s.52.19.26.15-.11-.07-.16-.08c-.29-.07.2.09.2.11l-.32-.11c0,.05.25.17.3.24a1.76,1.76,0,0,0-.3-.1c.14.1-.08.09-.28.08l.27.11a.62.62,0,0,1-.18-.05c-.12,0,.17.06.28.1s-.17,0-.25-.07c.23.11.48.27.17.21l-.08,0c-.13,0,.55.23.29.16l0,0c-.14,0,.09.18-.35.08.4.15-.2,0,.36.2a3.84,3.84,0,0,0-.59-.12s.34.14.4.18l-.3-.1.3.12-.35-.1.07,0,.22.06c.12.07-.22,0-.37-.06l.22.14c-.11,0-.15-.07-.22-.1.28.13-.31-.1,0,0l.23.08c-.18,0-.19,0-.12,0l-.2-.08c-.07,0,.06.13,0,.17a2.62,2.62,0,0,1,.48.17l-.31-.1c.18.07.12,0,.35.12a3.44,3.44,0,0,1-.46-.15l.1,0-.25-.09c.19.08-.32-.07,0,.06l-.09,0c0,.05.08.1.08.15a3,3,0,0,1,.42.17c-.1,0-.32,0-.31,0s.23.08.38.15a2.85,2.85,0,0,1-.4-.12c0,.06,0,.07.21.19l.23.07s-.11,0-.23-.06h0c.34.19-.75-.1-.26.12l0,0,.25.14a2.91,2.91,0,0,1-.34-.11c.39.19-.08.06.17.2-.72-.21,0,.13-.46,0l.17.06c.16.06-.1,0-.14,0l.24.08c.17.17-.31.12-.5.17s.87.31.45.22l-.31-.12c.35.21-.06.15.23.33-.07,0-.17-.06-.16-.07-.23-.06,0,.06.15.12l-.26-.08c-.14,0,.27.14,0,.07l-.09,0c.1.05-.05,0,.22.12-.14,0,.1.09-.07.06.29.11-.15,0,.26.14-.43-.15-.36-.07-.17,0-.12,0-.14,0-.31-.1,0,0,.07.06.29.14-.52-.14.39.21-.27,0a2.31,2.31,0,0,1,.43.33c-.43-.15,0-.08-.48-.23.16.11.52.27.4.28a1.63,1.63,0,0,1-.25-.1c.15.11-.08.08.14.21l-.11-.05s-.07,0,.12.06l0,0c.29.08.58.23.73.28-.55-.2-.16,0-.85-.26l.25.1-.26-.09c.1.07.31.13.29.15l-.24-.09c.18.08.36.16.27.15s-.13,0-.12-.05.46.24.27.22c-.41-.15-.14,0-.5-.15l.1.06.18,0s.23.13.11.11l-.14-.07.06.07.14,0c.17.08.44.15.34.14a.64.64,0,0,1-.23,0h0c.11,0,.23.1.13.09l-.46-.16c.29.11.06.08.37.2l-.29-.11.23.09a.87.87,0,0,1-.26-.08c-.06,0,.45.15.24.12l-.09,0c-.11,0,.13.12,0,.11-.35-.11-.07-.06-.38-.15,0,.07.4.24.3.26h0c.5.18-.26-.05,0,.06l-.22-.09c-.09,0,.1.11.24.21l-.12-.05c-.13,0-.09,0-.15,0,.12,0,.1.05.29.11-.76-.19.35.25-.28.09a.37.37,0,0,0-.11-.05l.11.09.3.09c.13,0,.23.09.22.11a3.27,3.27,0,0,0-.47-.16l.21.07c-.4-.1.43.16.16.1l-.11,0s.2.1.16.1a2.63,2.63,0,0,1-.32-.13s.47.2.21.13l-.13-.07c-.31-.08-.23-.06-.28-.06h-.14l.08,0c.65.25.11.09.53.26a3.63,3.63,0,0,0-.52-.18L63.6,169c.23.09-.19,0,.14.1a1.9,1.9,0,0,1-.24-.07,1.54,1.54,0,0,0,.28.09c.3.14-.41-.06,0,.13.16.1.47.21.61.3a2.11,2.11,0,0,1-.33-.13c-.14,0-.12,0,0,.05l-.25-.08s.33.12.19.1l-.37-.14.32.16a3.6,3.6,0,0,1-.34-.13,1.51,1.51,0,0,0,.38.19l.1,0-.27-.09c-.19-.09.1,0,.19,0l.06,0c.54.18-.07-.07,0-.09l.39.15-.32-.14.38.13c.2,0-.14-.06.09,0l.06,0-.11,0c.08,0,.28.09.22.08.24.05-.28-.15,0-.06h0a6.13,6.13,0,0,0-.62-.25l.72.22-.29-.1a.48.48,0,0,1,.16,0c-.2-.09-.13,0-.31-.12.27.07-.11-.1.36.06a2.77,2.77,0,0,1-.33-.12c.5.17-.07-.05.16,0a2.08,2.08,0,0,0,.35.12c-.43-.16.11,0,0-.05-.34-.12-.13-.08-.24-.15a1.87,1.87,0,0,0,.34,0l.06,0c-.35-.12-.27-.13-.34-.17l.38.14v0a.9.9,0,0,1-.21-.09l.26.09s-.29-.15-.1-.12a8,8,0,0,1-.84-.29l.41.14s-.11-.05,0,0l.22.09c.1,0-.18-.07-.16-.08l.28.09s-.08,0,0,0l.29.07-.27-.1s.23.06.33.08a1.23,1.23,0,0,0-.27-.11.77.77,0,0,1,.21.06c-.12-.06,0-.07-.32-.16h0c-.26-.14.19,0,.08-.11l.1,0c-.1-.06,0-.07-.24-.16l.28.08c-.06,0-.16-.08,0-.05s.15,0,.11.06.24.05,0-.07c.23.09.3.09.24.05l-.18,0s0,0,0,0l.31.11c.4.08-.62-.31,0-.13-.21-.09-.16,0-.42-.12.06,0,.51.12.52.11.18,0-.45-.18-.32-.17a3.86,3.86,0,0,1-.51-.2,3,3,0,0,1,.56.18H65.5l.2.08-.11-.05a1.22,1.22,0,0,1,.3.07.6.6,0,0,0-.24-.08c.17,0,0,0,.14,0a.68.68,0,0,1-.2-.06c.16,0-.2-.09-.24-.14.17.05.4.15.27.07a2,2,0,0,1,.39.14c-.21-.1.16,0,.2,0l.09.05,0,0-.22-.07.14,0c-.15-.06-.38-.12-.58-.21.12,0-.11-.07.19,0-.11,0,.3.09.34.14s0,0,0,0l.08,0c.28.06-.33-.13-.31-.16a.91.91,0,0,0,.29.08,2.82,2.82,0,0,1-.41-.14c.14,0-.09-.06-.07-.07h-.07c-.16-.06-.14-.06-.18-.1.13,0,.08,0,.14.06-.29-.12.32.07.13,0,.12,0,.32.1.4.12-.21-.1.24,0,.07,0a1.66,1.66,0,0,1-.39-.15L66,168l-.32-.15s.13.08.09.08a1.66,1.66,0,0,0-.31-.12c.35.1-.18-.1,0,0l.56.2c.26.05-.27-.16-.11-.16l-.1,0c-.22-.08,0,0-.11-.08a2.69,2.69,0,0,0,.38.11c-.14,0,0,0-.35-.16l.25.07c.11,0-.52-.22-.44-.23a2.44,2.44,0,0,1,.47.18s0,0-.08-.06c.12,0-.24-.11-.06-.06l-.26-.11.09,0a3,3,0,0,0-.33-.12c.6.16,0-.12.51,0-.06,0-.11-.1-.11-.13l.07,0c.18,0-.53-.2-.33-.17s.16.08.28.1c.62.21-.07-.07.3,0l0,0c.22,0-.22-.12-.16-.14l.09,0a1.36,1.36,0,0,1-.47-.26,3.18,3.18,0,0,0,.37.14s-.4-.13-.46-.18L66,167v0c.35.11,0,0,.07,0l.14.06c0-.06-.4-.18-.36-.21l-.12,0c-.36-.15.22,0,0-.06l.38.12a3.14,3.14,0,0,1-.41-.22c.27.11.4.18.56.26s0-.06-.19-.13c0,0,.12.06.06,0-.28-.11-.42-.19-.4-.21.72.25.2,0,.77.16-.25-.14.15-.06.13-.13-.57-.18,0,0-.59-.22,0,0,0,0,0,0l.36.08c.18.05.13.06.26.1a2.9,2.9,0,0,1,.41.11c-.21-.07-.3-.12-.21-.11l-.28-.06c-.29-.15.5.13.21,0l.18.08c-.1-.06,0-.08-.43-.26l.27.09c.09,0-.46-.28-.16-.22l.14.05s-.26-.11-.11-.07l.15.05s-.24-.11-.15-.1l.15.07c.2,0-.36-.21-.44-.29a2.19,2.19,0,0,0,.64.16l.06,0c.07,0-.32-.22-.46-.33.46.12.23-.05.5,0a1.8,1.8,0,0,1-.36-.14c.08,0-.28-.13.1,0h0c.38.12.29.06.31,0l-.5-.17c.74.2-.22-.23.44,0-.12-.05-.12-.07-.24-.12l.27.09c.08,0,.12,0,.07-.08l.19.07s-.76-.29-.77-.32l.4.13s.38,0,0-.14a.9.9,0,0,1,.19.08s.29,0-.26-.17c.36.12.05,0-.1-.11l.27.1a3.08,3.08,0,0,1-.51-.23s.21.07.14.05c.15,0-.24-.1-.09-.08l.16.07s-.06-.05-.25-.13.08,0,.32.06c-.15,0-.34-.13-.26-.12l.17.07c.19,0-.29-.16,0-.1l.16,0s0,.05-.06,0c.24.08.29.07.62.2-.17-.08-.56-.25-.44-.23l.09,0h0s0,0,0,0h.08c.2.07.12,0,.13,0l-.44-.16,0,0h0s0,0,0,0-.24-.1-.09-.07l-.43-.16.82.22a1.31,1.31,0,0,0-.56-.31c-.06,0,.15,0,.23.06a.58.58,0,0,0,.11.05,1.14,1.14,0,0,0-.38-.2c.17,0,.32.13.27.07l.11,0c.58.12-.85-.42-.11-.25l-.13,0c.35,0-.23-.29.3-.2.11,0-.11-.07-.28-.15l.29.1-.32-.14c-.23-.12.72.17.28,0l-.19-.06s-.1-.09.12,0c0,0-.2-.08-.09-.05l.15.05-.25-.13c.12,0,.6.21.64.18a3.66,3.66,0,0,0-.52-.23.91.91,0,0,1-.25-.07l-.07,0a10.68,10.68,0,0,0-1.21-.38l.26.12-.22-.07v0c-.21,0,0,0,.09.07l-.24-.07.41.17a2.65,2.65,0,0,0-.44-.14c.19.07.39.12.51.18-.2-.06-.36-.12-.2,0l-.23-.09c.13.06,0,.06.28.14-.26-.07,0,.07-.37-.07a2.22,2.22,0,0,1,.33.15c-.49-.19,0,0-.58-.15.44.17.18.13.42.24l-.08,0a2.32,2.32,0,0,1-.27-.06,6.55,6.55,0,0,1,.67.28c-.37-.11-.43-.16-.78-.28.3.11.29.14.54.22a3.77,3.77,0,0,1-.42-.12c.46.16.07,0,.35.15-.23-.05-.43-.14-.3-.07A1.27,1.27,0,0,1,64.84,163.22Zm.59.87h0Zm0,0,0,0c.09,0,.19.06.18.07A1,1,0,0,0,65.42,164.14Zm1.88.52s0,0-.07,0l0,0,0,0Z" fill="#af5341"/>
          <path d="M67,164.53h0l-.06,0,.08,0Z" fill="#af5341"/>
          <path d="M65,168.92h0Z" fill="#af5341"/>
          <polygon points="64.68 164.65 64.74 164.68 64.69 164.65 64.68 164.65" fill="#af5341"/>
          <path d="M64,168.88l-.07,0Z" fill="#af5341"/>
          <path d="M63.91,169h0Z" fill="#af5341"/>
          <path d="M63.74,169l.12,0h0Z" fill="#af5341"/>
          <path d="M63.93,167.47h0C63.87,167.43,63.89,167.45,63.93,167.47Z" fill="#af5341"/>
          <path d="M64.4,168.11l-.12-.05S64.25,168.06,64.4,168.11Z" fill="#af5341"/>
          <polygon points="63.77 166.88 63.78 166.88 63.78 166.88 63.77 166.88" fill="#af5341"/>
          <path d="M64.29,168c-.05,0,0,0,0,0S64.33,168.06,64.29,168Z" fill="#af5341"/>
          <path d="M63.49,169.38h0l0,0Z" fill="#af5341"/>
          <path d="M63.52,169.4h0Z" fill="#af5341"/>
          <path d="M63.61,169.45l-.06,0S63.54,169.42,63.61,169.45Z" fill="#af5341"/>
          <path d="M63.65,169.3l-.09,0Z" fill="#af5341"/>
          <path d="M63.64,169.26s-.22,0-.16,0l.08,0C63.41,169.21,63.8,169.32,63.64,169.26Z" fill="#af5341"/>
          <path d="M64.88,169.51h-.09a1.35,1.35,0,0,1,.27.09C65.38,169.67,64.83,169.54,64.88,169.51Z" fill="#af5341"/>
          <path d="M65.06,169.47a1.29,1.29,0,0,0,.21.07A.74.74,0,0,0,65.06,169.47Z" fill="#af5341"/>
          <path d="M65.3,168.78l.24.08A2,2,0,0,0,65.3,168.78Z" fill="#af5341"/>
          <polygon points="64.09 168.22 63.94 168.18 64.16 168.26 64.09 168.22" fill="#af5341"/>
          <polygon points="65.84 168.73 65.88 168.75 65.8 168.69 65.84 168.73" fill="#af5341"/>
          <path d="M66.16,167.54l-.3-.1S66.24,167.59,66.16,167.54Z" fill="#af5341"/>
          <path d="M66,166.94c.15,0,.25.06.11,0S66,166.92,66,166.94Z" fill="#af5341"/>
          <polygon points="67.02 165.6 67.12 165.65 67.04 165.6 67.02 165.6" fill="#af5341"/>
        </g>
        <g>
          <path d="M73.23,169.57a1.05,1.05,0,0,0,.23.07l-.31-.11Z" fill="#af5341"/>
          <path d="M73.83,169.71a7.1,7.1,0,0,0-.71-.24l.53.19-.22-.06c.08,0-.07,0,.12.06s.27.06.07,0Z" fill="#af5341"/>
          <path d="M74.56,169.12h0Z" fill="#af5341"/>
          <path d="M74.88,168.72l.07,0Z" fill="#af5341"/>
          <path d="M75.26,168.75h0Z" fill="#af5341"/>
          <path d="M74.56,169.12l.1,0Z" fill="#af5341"/>
          <path d="M73.1,169.36l.08,0h0Z" fill="#af5341"/>
          <path d="M74.75,169.41h0l.13.05Z" fill="#af5341"/>
          <path d="M74.75,169.58l-.37-.13.18.07Z" fill="#af5341"/>
          <path d="M74.2,169.68h0Z" fill="#af5341"/>
          <path d="M74.84,169.32l.1,0Z" fill="#af5341"/>
          <path d="M74.25,164.29h0Z" fill="#af5341"/>
          <path d="M75.63,164.53h0l.15.05Z" fill="#af5341"/>
          <path d="M75.64,168.71Z" fill="#af5341"/>
          <path d="M75.88,167.32c-.25-.06-.3-.12-.57-.18C75.41,167.17,75.72,167.29,75.88,167.32Z" fill="#af5341"/>
          <path d="M73.14,169.37h0S73.13,169.36,73.14,169.37Z" fill="#af5341"/>
          <path d="M75.31,167.14h0Z" fill="#af5341"/>
          <path d="M75.59,168.33l-.12,0Z" fill="#af5341"/>
          <path d="M75.13,168.45h0Z" fill="#af5341"/>
          <path d="M75.26,168.08h0S75.3,168.09,75.26,168.08Z" fill="#af5341"/>
          <path d="M75.3,167.94h0Z" fill="#af5341"/>
          <path d="M74.25,164.74l.24.07C74.3,164.75,74.24,164.71,74.25,164.74Z" fill="#af5341"/>
          <path d="M73.25,169.41l-.11,0h0Z" fill="#af5341"/>
          <path d="M73.15,167.39h0Z" fill="#af5341"/>
          <path d="M74,165.71l0,0Z" fill="#af5341"/>
          <path d="M73.18,167.31l.18,0-.06,0Z" fill="#af5341"/>
          <path d="M74.49,164.81Z" fill="#af5341"/>
          <path d="M73.9,164.46a4.47,4.47,0,0,0,.54.19c.1.06-.26-.07-.44-.12.09.05.41.16.39.17l-.15,0c.27.11,0,0,.34.18l-.09,0L75,165s.21.09,0,0l-.15-.06.09,0a3.57,3.57,0,0,1-.35-.13c.1.06.37.17.27.15-.33-.1-.1-.07-.39-.14h.13c-.52-.14,0,0-.51-.16-.11,0,.15.09,0,.09l.44.14c.31.15-.82-.23-.4-.06.21.08.62.22.4.17l-.37-.13s.52.19.27.14-.12-.06-.16-.07c-.29-.08.2.08.2.09l-.33-.1s.27.16.32.21l-.3-.1c.15.1-.07.08-.27.06l.27.1a.71.71,0,0,1-.18,0c-.11,0,.18.06.28.1l-.24-.07c.23.1.48.24.17.17l-.08,0c-.12,0,.57.21.3.15l0,0c-.14,0,.1.14-.33.05.4.13-.2,0,.36.17a5,5,0,0,0-.58-.12s.34.13.4.16l-.3-.1.31.12-.36-.1.07,0,.22.06c.13.07-.22,0-.37-.06l.24.12-.23-.09c.29.12-.31-.09,0,0l.24.08c-.18,0-.19,0-.12,0l-.21-.07c-.06,0,.08.1.06.14a2.75,2.75,0,0,1,.48.15l-.31-.09c.19.07.12,0,.35.11a2.23,2.23,0,0,1-.45-.14l.1.05-.26-.09c.19.07-.32-.07,0,0l-.09,0s.08.09.09.13c.27.08.2.08.42.15-.1,0-.31,0-.3,0s.23.08.38.14c-.24-.08-.23,0-.4-.11,0,0,0,.05.22.16l.23.07-.23-.06h0c.35.17-.75-.12-.25.08h0l.25.12s-.18-.07-.34-.1c.4.17-.08,0,.18.17-.72-.21,0,.11-.45,0l.17.06c.17.06-.1,0-.14,0l.25.07c.18.15-.3.09-.48.12s.87.3.45.2l-.31-.11c.36.18,0,.12.25.28l-.16-.07c-.23-.06,0,0,.16.11l-.27-.08c-.13,0,.29.12.06.06l-.09,0c.1.05,0,0,.22.11-.13,0,.11.08-.06,0,.3.11-.15,0,.27.13-.43-.14-.36-.07-.17,0-.12-.05-.13,0-.31-.1,0,0,.07.06.3.13-.53-.14.39.19-.27,0,.21.13.35.22.44.29-.43-.14,0-.06-.48-.2.17.1.53.24.41.24a1,1,0,0,1-.25-.09c.16.1-.07.06.15.18l-.11-.05s-.07,0,.13.06l0,0c.28.09.58.22.73.27-.56-.19-.15,0-.85-.25l.25.09-.26-.08c.1.05.31.11.3.13l-.24-.08c.18.07.36.14.27.13l-.13,0s.48.21.29.19c-.41-.14-.14,0-.5-.14l.1.05.18,0s.24.11.12.09l-.15-.06.06.05.14,0c.18.07.45.14.35.13a.64.64,0,0,1-.23,0h0c.11,0,.23.09.14.07l-.47-.15c.29.11.07.07.38.18l-.3-.1.24.09-.26-.08s.45.14.25.1l-.09,0c-.11,0,.13.1,0,.09-.36-.11-.09,0-.39-.14,0,.06.4.21.31.22h0c.5.17-.26-.06,0,0l-.22-.08c-.09,0,.11.09.26.18l-.13,0c-.12,0-.08,0-.15,0a1.73,1.73,0,0,0,.3.1c-.76-.19.36.22-.26.07l-.12-.05.11.08a2,2,0,0,0,.31.08c.13,0,.23.09.22.1a3.48,3.48,0,0,0-.47-.14l.21.06c-.4-.1.44.15.17.09l-.12,0c.06,0,.21.09.17.09a3.27,3.27,0,0,1-.32-.12s.47.19.21.12l-.14-.07c-.3-.08-.22,0-.27-.06h0l-.14,0,.08,0c.66.24.11.08.54.25a3.65,3.65,0,0,0-.53-.18l-.25-.07c.23.09-.19,0,.14.09a1.9,1.9,0,0,1-.24-.07,1.86,1.86,0,0,0,.28.09c.31.12-.41-.07,0,.1.17.09.48.2.63.28a2.47,2.47,0,0,1-.34-.12c-.14,0-.12,0,0,0l-.25-.08s.33.12.19.09l-.37-.14c.08.05.25.11.33.16l-.35-.13a1.55,1.55,0,0,0,.39.17l.1,0-.27-.08c-.2-.08.1,0,.19,0l.06,0c.54.17-.08-.06,0-.07l.39.13-.32-.12a3.49,3.49,0,0,1,.38.12c.2,0-.13-.05.09,0l.07,0-.12-.06c.09,0,.28.09.22.08.24.05-.28-.13,0,0h0c-.13-.07-.29-.09-.63-.23l.73.22-.29-.1.15,0-.31-.11c.27.07-.11-.09.35.06a2.8,2.8,0,0,1-.32-.11c.5.16-.08-.05.15,0a2.44,2.44,0,0,0,.35.12c-.43-.15.11,0,0,0-.35-.11-.14-.07-.25-.13a1.86,1.86,0,0,0,.34,0l.06,0c-.35-.12-.28-.12-.35-.16l.39.14v0l-.21-.08.26.09s-.29-.14-.11-.11c-.24-.08-.68-.2-.84-.28a3.75,3.75,0,0,1,.41.14s-.11,0-.05,0l.22.08c.1,0-.18-.07-.16-.07l.29.09s-.09,0,0,0a1.19,1.19,0,0,1,.29.07l-.27-.1s.23.06.33.08c-.13,0,0,0-.27-.1l.21.06c-.12,0,0-.06-.33-.15h0c-.27-.12.18,0,.07-.08l.1,0c-.1-.06-.05-.07-.25-.15l.29.09c-.07,0-.17-.08,0-.05s.15,0,.11.06.24.05,0-.06c.24.09.31.09.24.05l-.18,0s0,0,0,0l.32.1c.39.09-.64-.28,0-.1-.22-.08-.17,0-.42-.12a4.3,4.3,0,0,1,.51.12c.18,0-.45-.18-.33-.16a4.45,4.45,0,0,1-.51-.19,5.13,5.13,0,0,1,.57.18l-.07,0,.21.08-.11,0a1.86,1.86,0,0,1,.29.06,1.16,1.16,0,0,0-.24-.07c.17,0,0,0,.13,0l-.19-.06c.15,0-.21-.09-.25-.13.17,0,.41.14.27.07a2,2,0,0,1,.39.13c-.21-.09.16,0,.2,0l.09,0,0,0-.23-.06a.31.31,0,0,1,.14,0c-.14-.06-.38-.12-.57-.2.11,0-.12-.07.18,0-.11,0,.31.09.35.13s0,0,0,0l.07,0c.28.06-.33-.12-.31-.14a1.61,1.61,0,0,0,.28.08l-.41-.14c.14,0-.09,0-.07-.06h-.06a.61.61,0,0,1-.2-.09l.15,0c-.29-.11.32.07.12,0,.12,0,.32.11.4.12-.21-.09.24.06.07,0a1.63,1.63,0,0,1-.39-.13l.14.09-.32-.13s.14.07.1.06l-.32-.11c.35.1-.19-.09.05,0l.56.18c.26.05-.27-.14-.12-.13l-.1,0c-.22-.08,0,0-.11-.07.18.06.26.07.37.1a3.26,3.26,0,0,0-.35-.14l.25.06c.11,0-.52-.2-.45-.21s.34.11.48.17,0,0-.09,0c.12,0-.24-.1-.06-.05L75,168l.09,0a3,3,0,0,0-.33-.12c.59.16,0-.09.49.05,0,0-.11-.08-.11-.11l.07,0c.18,0-.54-.19-.33-.15a2.05,2.05,0,0,1,.28.09c.62.2-.08-.06.29,0l0,0c.22.05-.22-.12-.17-.12l.1,0a2.32,2.32,0,0,1-.49-.24l.37.13s-.39-.13-.45-.17l.51.14v0c.34.1,0,0,.06,0l.15.05c0-.05-.41-.17-.38-.19l-.11,0c-.36-.13.21.06-.06,0l.38.12c-.09,0-.35-.16-.41-.2.27.1.41.17.57.24,0,0,0-.05-.2-.12,0,0,.12.06.06,0-.29-.11-.43-.17-.41-.19.72.24.2,0,.77.16-.26-.12.14,0,.11-.1-.57-.16,0,0-.59-.2,0,0,0,0,0,0l.36.08a1.91,1.91,0,0,1,.26.09s.25.07.41.1c-.21-.06-.3-.1-.22-.09l-.27-.07c-.3-.13.5.13.2,0l.18.07c-.1,0,0-.06-.44-.23l.27.09c.09,0-.47-.25-.17-.19l.14,0s-.26-.1-.11-.07l.15.05s-.25-.1-.16-.08l.16.06c.2,0-.37-.19-.46-.25a3.22,3.22,0,0,0,.64.15l.06,0c.06,0-.32-.19-.47-.29.46.12.22,0,.48,0a2.53,2.53,0,0,1-.36-.12c.09,0-.28-.13.1,0h0c.38.12.29.06.3,0l-.5-.17c.75.2-.23-.19.43,0l-.24-.12.27.09c.08,0,.12,0,.06-.06l.19.06s-.76-.27-.77-.29l.4.12s.37,0,0-.11l.18.07s.3,0-.26-.15c.36.12,0,0-.1-.09l.26.09a4.18,4.18,0,0,1-.51-.21s.21.06.14,0c.15,0-.24-.1-.1-.07l.17.06s-.07,0-.26-.11.08,0,.32.06c-.15,0-.34-.12-.27-.11l.18.06c.19,0-.3-.14,0-.08l.16.05s0,0,0,0c.24.08.29.07.62.2-.18-.08-.57-.23-.45-.22l.09,0h0s0,0,0,0h.08c.2.07.11,0,.13,0l-.45-.14,0,0h0a0,0,0,0,1,0,0c-.13,0-.24-.09-.09-.06l-.43-.15.82.22a1.73,1.73,0,0,0-.57-.28c-.06,0,.14,0,.22.06l.12.05a1.13,1.13,0,0,0-.39-.18c.17,0,.32.11.27.07l.11,0c.58.13-.87-.38-.13-.21l-.12,0c.34,0-.25-.24.27-.15.11,0-.11-.06-.28-.13l.29.09-.33-.13c-.23-.1.73.18.28,0l-.2,0s-.1-.08.13,0l-.1,0,.15.05-.25-.12c.12,0,.6.2.64.17l-.53-.21a.7.7,0,0,1-.25-.06l-.07,0c-.44-.15-.9-.3-1.21-.37l.26.11-.22-.06v0c-.2-.05,0,0,.1.06l-.24-.07.41.16c-.17-.05-.34-.12-.44-.14.2.08.39.12.52.18-.21-.06-.37-.11-.2,0l-.24-.08a1.53,1.53,0,0,0,.28.13c-.25-.07.06.06-.36-.08l.34.14c-.5-.18,0,0-.58-.15.44.16.18.11.43.22l-.09,0-.27-.06c.38.12.46.17.68.25-.36-.1-.43-.15-.78-.25.3.09.29.12.55.2l-.43-.12c.47.15.08,0,.36.14-.23-.06-.44-.14-.3-.07A2.54,2.54,0,0,1,73.9,164.46Zm.66.74h0v0Zm0,0s0,0,0,0,.19.06.18.07Zm1.88.51s0,0-.07,0l0,0h0Z" fill="#af5341"/>
          <path d="M76.08,165.63h0l-.06,0,.08,0Z" fill="#af5341"/>
          <path d="M74.51,169.11h0Z" fill="#af5341"/>
          <polygon points="73.86 165.62 73.92 165.65 73.87 165.62 73.86 165.62" fill="#af5341"/>
          <path d="M73.53,169l-.07,0Z" fill="#af5341"/>
          <path d="M73.44,169.11l-.1,0Z" fill="#af5341"/>
          <path d="M73.28,169.14l.11,0h0Z" fill="#af5341"/>
          <path d="M73.34,167.88h0S73.3,167.86,73.34,167.88Z" fill="#af5341"/>
          <path d="M73.85,168.43l-.12-.05S73.7,168.38,73.85,168.43Z" fill="#af5341"/>
          <polygon points="73.14 167.39 73.15 167.39 73.15 167.39 73.14 167.39" fill="#af5341"/>
          <path d="M73.74,168.36c-.06,0,0,0,0,0S73.78,168.38,73.74,168.36Z" fill="#af5341"/>
          <path d="M73.06,169.42h0Z" fill="#af5341"/>
          <path d="M73.09,169.43l0,0Z" fill="#af5341"/>
          <path d="M73.18,169.48l-.06,0Z" fill="#af5341"/>
          <path d="M73.21,169.36l-.1,0Z" fill="#af5341"/>
          <path d="M73.19,169.32s-.21,0-.15,0l.07,0C73,169.28,73.35,169.38,73.19,169.32Z" fill="#af5341"/>
          <path d="M74.43,169.59h-.09a1.35,1.35,0,0,1,.27.09C74.93,169.74,74.38,169.61,74.43,169.59Z" fill="#af5341"/>
          <path d="M74.6,169.56a1.29,1.29,0,0,0,.21.07A.74.74,0,0,0,74.6,169.56Z" fill="#af5341"/>
          <path d="M74.78,169l.25.08A2.52,2.52,0,0,0,74.78,169Z" fill="#af5341"/>
          <polygon points="73.56 168.5 73.41 168.46 73.63 168.54 73.56 168.5" fill="#af5341"/>
          <polygon points="75.31 169 75.35 169.01 75.26 168.97 75.31 169" fill="#af5341"/>
          <path d="M75.53,168l-.3-.09S75.61,168.08,75.53,168Z" fill="#af5341"/>
          <path d="M75.35,167.55c.15,0,.25.06.11,0S75.31,167.53,75.35,167.55Z" fill="#af5341"/>
          <polygon points="76.23 166.51 76.32 166.55 76.25 166.5 76.23 166.51" fill="#af5341"/>
        </g>
        <g>
          <path d="M156.17,155.19c-.06-.07-.2-.2-.21-.15l.22.25Z" fill="#af5341"/>
          <path d="M155.52,154.94a2,2,0,0,0,.48.57c-.19-.26-.09-.17-.32-.47,0,0,.13,0,.21.12,0-.07.1,0,0-.15s-.28-.11-.18.08C155.62,155.05,155.57,155,155.52,154.94Z" fill="#af5341"/>
          <path d="M152.2,156.57l0,0Z" fill="#af5341"/>
          <path d="M150.05,157.27a.08.08,0,0,0,0-.07S150,157.25,150.05,157.27Z" fill="#af5341"/>
          <path d="M149.56,157.06h0S149.56,157,149.56,157.06Z" fill="#af5341"/>
          <path d="M152.2,156.57l-.1-.07C152.14,156.6,152.16,156.56,152.2,156.57Z" fill="#af5341"/>
          <path d="M155.66,155.87a.23.23,0,0,0,0-.09v.05Z" fill="#af5341"/>
          <path d="M152.94,155.88h0l-.06-.13Z" fill="#af5341"/>
          <path d="M153.54,155.44a2.78,2.78,0,0,0,.19.35.75.75,0,0,1-.07-.18Z" fill="#af5341"/>
          <path d="M154.78,155.13v0Z" fill="#af5341"/>
          <path d="M152.45,156.09l0-.09Z" fill="#af5341"/>
          <path d="M131.43,162.05V162S131.42,162.05,131.43,162.05Z" fill="#af5341"/>
          <polygon points="130.49 160.68 130.5 160.66 130.5 160.5 130.49 160.68" fill="#af5341"/>
          <path d="M148.8,157h0S148.8,156.92,148.8,157Z" fill="#af5341"/>
          <path d="M142.55,158.58c.11.24-.07.34.08.6C142.61,159.07,142.67,158.73,142.55,158.58Z" fill="#af5341"/>
          <path d="M155.62,155.86l0,0S155.62,155.87,155.62,155.86Z" fill="#af5341"/>
          <path d="M142.63,159.18h0v0Z" fill="#af5341"/>
          <path d="M147.3,157.55a.43.43,0,0,0,0,.12A.78.78,0,0,0,147.3,157.55Z" fill="#af5341"/>
          <path d="M148.57,157.6l0,0Z" fill="#af5341"/>
          <path d="M146.79,158.09s0-.05,0,0v0S146.76,158.05,146.79,158.09Z" fill="#af5341"/>
          <path d="M146.15,158.24l0,.06,0,0Z" fill="#af5341"/>
          <path d="M133.49,161.85c0-.08,0-.17,0-.26C133.47,161.79,133.37,161.87,133.49,161.85Z" fill="#af5341"/>
          <path d="M155.56,155.76c0,.05.06.08.06.1v0A.23.23,0,0,0,155.56,155.76Z" fill="#af5341"/>
          <path d="M147.3,160.25h-.12A.16.16,0,0,0,147.3,160.25Z" fill="#af5341"/>
          <path d="M138.36,161.45l0,0S138.36,161.48,138.36,161.45Z" fill="#af5341"/>
          <path d="M146.87,160.35a.82.82,0,0,0-.11-.18v.08Z" fill="#af5341"/>
          <path d="M133.45,161.59Z" fill="#af5341"/>
          <path d="M132.77,162.29c.1,0,0-.36,0-.58s.07.27.12.46c.07-.1.12-.44.18-.43a.76.76,0,0,1,0,.16c.06-.3.24,0,.31-.4a.29.29,0,0,1,0,.09c0-.18,0-.37,0-.5s.08-.24.11,0c0,0,0,.09,0,.17l0-.11c.06.35-.06.12-.05.38.09-.12.19-.41.27-.31,0,.33-.17.12-.06.42l-.11-.13c.11.53-.07,0,0,.54.15.09.16-.19.31-.1,0-.19,0-.27,0-.46.19-.35.21.84.34.38,0-.23,0-.66.14-.44l0,.39c.15,0,0-.56.21-.31,0,.15-.1.13-.08.18.12.3.06-.22.13-.23l0,.34c.15-.06.3-.32.46-.39a.81.81,0,0,0,0,.31c.2-.18.46,0,.68.2l0-.3s.05.13,0,.19,0-.19,0-.31.07.17,0,.26c.12-.26.36-.57.53-.26l0,.09c.12.11.08-.61.21-.35l0,0c.26.11.51-.18.74.24,0-.42.27.17.23-.42.17.28.14.39.36.56.05,0,0-.37.1-.44l0,.31.06-.33.08.36.06-.09s-.07-.13-.07-.22.25.19.27.35l.21-.28a.79.79,0,0,1-.05.25c.09-.33.05.32.14,0a1,1,0,0,1,0-.24c.08.18.2.17.29.08v.21c.17,0,.34-.14.54-.16a.7.7,0,0,1-.06-.5l.06.32c0-.21-.07-.12,0-.37.08,0,.09.36.07.47l.07-.12a2.26,2.26,0,0,1,0,.27c0-.2.19.31.2-.05l0,.1c.19,0,.26-.14.41-.18,0-.28,0-.22.06-.45.12.07.28.28.41.23s0-.23,0-.41c0,.26.18.22.13.41.16-.06.2-.08.38-.32a.71.71,0,0,1-.06-.23s.1.09.11.22v0c.18-.41.65.66.76.11v0l.15-.3c.1,0,0,.2.07.35.14-.46.34,0,.47-.3.25.73.46-.12.72.32l0-.18c0-.18.07.09.11.13,0-.14-.07-.15-.06-.25.35-.29.85.1,1.29.18.16,0-.09-.91.17-.53v.33c.22-.44.62-.1.84-.5,0,.08,0,.17,0,.18.11.22.23,0,.18-.23.05,0,.05.17.1.26s.09-.34.18-.11a.16.16,0,0,1,0,.1c0-.12.19,0,.09-.28.14.11.18-.16.3,0,0-.31.23.11.14-.32.1.44.28.31.29.09,0,.13.1.12.12.31.07,0,.13-.12.06-.35.27.5.18-.48.43.16a2.62,2.62,0,0,1,.52-.68c.11.43-.22.11-.08.56.15-.24.15-.64.38-.59.06,0,0,.2,0,.27.14-.23.39-.07.49-.35a.29.29,0,0,1,0,.13s.1,0,0-.16l0,.06c-.14-.27,0-.63-.09-.78.12.58.22.09.35.83a.53.53,0,0,0,0-.28s.08.1.09.26c.09-.14,0-.33.09-.36s0,.14.05.25c0-.2,0-.4.11-.36s.05.13,0,.14c.15-.09.11-.59.34-.47.09.42.1.11.24.46l.05-.14-.09-.16c.08,0,.06-.3.17-.21v.16l.13-.12-.13-.1c0-.21-.17-.44,0-.38s.08,0,.2.16h0c0-.13,0-.26.09-.2s.13.39.17.46c-.07-.3.16-.15.09-.48a1.31,1.31,0,0,0,.1.3L151,158a.48.48,0,0,1,.14.25c.13,0-.21-.43,0-.29a.28.28,0,0,1,0,.1c.17.05.2-.24.37-.18.18.33-.07.14.09.41.15-.15.19-.58.39-.58l-.05,0c-.19-.49.23.19.21-.08a1.07,1.07,0,0,0,.08.22c.15,0,.18-.23.28-.46l0,.13c.12.08.21,0,.31,0,0-.13,0-.13-.1-.29.59.58.23-.57.73-.12,0,0,0,.13,0,.12l.1-.21a1.05,1.05,0,0,0-.21-.24c0-.13-.06-.25,0-.28,0,.18.19.32.28.42a1.86,1.86,0,0,1-.1-.2c.29.31-.23-.4,0-.24l.05.11c0-.08,0-.24,0-.24.16.22,0,.14.13.33.06-.06-.14-.51.06-.32,0,.08,0,.1,0,.18.23.23.19.16.27.17h0l.19,0-.08,0c-.3-.63.1-.21,0-.66.14.43.13.22.29.48a.53.53,0,0,1,.21.18c-.09-.24.2.1.07-.24.06.08.06,0,.19.18,0-.11-.11-.13-.18-.23-.09-.33.48.14.34-.34,0-.25-.18-.53-.18-.74a.69.69,0,0,1,.2.3c.15.06.17,0,.16-.14a.57.57,0,0,0,.19.19c0-.06-.21-.29-.05-.24a3.7,3.7,0,0,1,.21.33c0-.11-.07-.29-.08-.4a.88.88,0,0,1,.2.32.51.51,0,0,0-.11-.47l-.11,0s.17.15.19.2-.14,0-.21-.07v-.08c-.43-.38-.09.2-.19.25l-.25-.34.15.32c-.08-.06-.25-.23-.25-.31-.19-.11.05.16-.15,0l0-.06,0,.14c-.05-.07-.2-.21-.13-.2-.24-.1,0,.37-.18.16v0c0,.22.18.25.31.62l-.53-.55.18.26s-.06,0-.13-.1c.08.21.09.1.18.28-.23-.16-.12.24-.42-.14.11.2.17.1.19.28-.32-.42,0,.13-.24,0s0-.15-.19-.31c.22.4-.18,0-.18.1.2.3,0,.19-.06.35-.06-.1-.28-.06-.43-.12l0-.06c.18.33.05.32,0,.43a1.14,1.14,0,0,1-.16-.38l0,0a.44.44,0,0,1,0,.23l-.12-.25c-.07.06,0,.38-.19.29.11.23.42.57.39.79a1.43,1.43,0,0,1-.18-.39s0,.12,0,.07l-.06-.22c-.1-.07.06.18,0,.18-.09-.17-.09-.11-.16-.25s.07.06.05,0a.55.55,0,0,1-.26-.21c.06.09.13.23.11.27s-.14-.2-.24-.26c0,.13-.07,0,.06.29,0,0-.09-.11-.14-.18,0,.14-.18.13,0,.39h0v0h0c0,.33-.37,0-.46.17l0-.09c0,.14-.16.15-.14.37,0,0-.13-.14-.16-.25,0,.1,0,.2-.16.1,0-.19-.08-.13,0-.15-.12,0-.2-.18-.19.11-.06-.24-.18-.26-.19-.17l.13.14a.11.11,0,0,1-.13,0l-.11-.31c-.32-.31-.06.75-.45.17,0,.24.16.12.22.39-.1,0-.36-.43-.39-.42s.07.49-.09.42c0,.1.18.4.13.53s-.27-.43-.26-.54,0,0,.06.06A.23.23,0,0,0,150,157l0,.11c-.08-.09-.19,0-.23-.23a.21.21,0,0,0,.11.23c-.17-.12-.17,0-.32,0a.7.7,0,0,1,.09.19c-.21-.08,0,.24-.09.33-.12-.15-.12-.42-.18-.24a.64.64,0,0,1-.12-.39c0,.25-.23-.08-.3-.1l0-.11c0,.07,0,.08-.07.08l.1.22s-.06,0-.09-.11a4.31,4.31,0,0,1,.14.59c-.08-.11-.09.16-.2-.14.17.06-.11-.3,0-.38s0,.05-.08,0a.08.08,0,0,1,0-.08c-.21-.24,0,.35-.09.38,0-.17-.13-.31-.14-.27s.12.28.11.42c-.13-.11-.06.13-.11.12l.07.05c0,.18,0,.17-.06.24,0-.13,0-.11,0-.16,0,.32-.24-.27-.27,0-.08-.11-.1-.32-.16-.39,0,.25-.18-.2-.23,0a.54.54,0,0,1,.08.41l.12-.21v.36c.05,0,.07-.17.11-.14a.45.45,0,0,0,.07.32c-.17-.32-.09.25-.24,0l-.16-.57c-.19-.22-.14.36-.34.26l.08.08c0,.24-.09.06-.12.17a1.62,1.62,0,0,0-.15-.36c0,.14-.13,0,0,.4l-.14-.23c-.16-.06,0,.59-.16.55,0-.21-.11-.34-.06-.5,0,0-.09,0-.06.11,0-.11,0,.29-.14.11,0,.09.05.29,0,.29a.43.43,0,0,1,0-.1c0,.1,0,.15.05.35-.28-.56-.36.13-.6-.35a.91.91,0,0,1-.26.2c0-.05,0-.09,0-.08-.16-.15.05.57-.13.41s0-.19,0-.3c-.16-.63-.14.13-.31-.22v-.05c-.11-.2-.12.28-.24.27s0-.06,0-.1a.8.8,0,0,1-.23.59c0-.26,0-.14,0-.39,0,0,.1.4,0,.49a1.72,1.72,0,0,1-.22-.5l.09,0c-.12-.35-.12,0-.18,0l0-.16c-.13.08-.06.47-.21.47l0,.11c0,.4-.11-.2-.14.1l-.1-.39a1.62,1.62,0,0,1-.21.51,3.35,3.35,0,0,1,.13-.65c-.05,0-.18.06-.17.26,0,0,0-.15.06-.09,0,.32-.07.48-.18.5-.12-.76-.32-.14-.51-.71-.14.31-.4,0-.61,0,.17.58-.07,0,.05.63-.05,0-.07,0-.08,0l-.22-.34c-.07-.17,0-.14,0-.27s-.09-.25-.19-.4c.05.21,0,.32-.07.24l.14.27c-.11.34-.22-.49-.33-.15l0-.19c-.07.12-.31,0-.32.54,0-.07-.07-.23,0-.28-.2,0-.36.58-.56.31v-.16c0,.05,0,.29-.09.15s0-.15,0-.16-.07.28-.13.2l0-.17c-.22-.17-.24.44-.39.56a.78.78,0,0,0-.32-.62v-.06c-.23,0-.34.41-.53.6-.19-.45-.47-.14-.71-.38a.65.65,0,0,1,0,.39c-.06-.08-.1.32-.14-.09h0c-.08-.39-.17-.27-.25-.28l0,.53c-.28-.75-.51.33-.69-.34,0,.13-.1.14-.14.27l0-.28a.39.39,0,0,0-.39,0l0-.21c-.1,0-.05.83-.14.85l-.06-.41c-.17,0-.37-.34-.51.06a.62.62,0,0,1,0-.21c-.08,0-.33-.26-.25.32,0-.38-.18,0-.26.15v-.28c0,.36,0,.46-.14.56s0-.22,0-.15c-.1-.14-.05.27-.16.13l0-.18c-.09,0-.07.08-.11.29s-.17-.06-.2-.31c0,.16,0,.36-.09.3a.34.34,0,0,1,0-.19c-.16-.18-.2.34-.32.08a.75.75,0,0,0,0-.17c.12,0,.21,0,.21,0,0-.26-.12-.3-.07-.66-.06.2-.16.63-.26.52l0-.09v0s0,0-.06,0,0-.07-.08-.07c0-.21-.11-.11-.16-.11,0,.28,0,.23,0,.46,0,0,0,0,0-.05l0,0v0l.12,0c0,.15-.06.27-.12.12l0,.45c-.09-.38-.22-.59-.26-.83-.13.17-.33.13-.39.66,0,.07,0-.15-.07-.23s.05,0,.05-.13c-.07.14-.24.07-.24.44-.11-.16,0-.34-.09-.27v-.12c-.31-.57-.41,1-.75.22a.5.5,0,0,1,0,.13c-.37-.32-.72.34-1.08-.18-.1-.1-.11.13-.16.31l0-.3-.1.35c-.14.26-.27-.73-.44-.24l0,.2c-.07,0-.21.12-.21-.11,0,0,0,.21,0,.11v-.16l-.16.27c-.12-.11,0-.63-.17-.65a1.3,1.3,0,0,0-.16.56s.07.1.07.26l-.06.08a3,3,0,0,0,.1,1.27l.11-.29,0,.23h-.09c.05.22.09,0,.12-.1a.89.89,0,0,0,.05.25l.1-.45c0,.18,0,.36,0,.46,0-.21-.05-.41,0-.54.06.21,0,.38.1.2a.59.59,0,0,1,0,.25c.05-.15.14-.07.17-.31.06.26.18-.08.19.36,0-.1.08-.34.13-.36-.07.53.19,0,.18.59.06-.48.25-.22.36-.49,0,0,0,.12,0,.09s.09.18.14.27a2.24,2.24,0,0,1,.15-.72c.09.37,0,.46,0,.82,0-.32.14-.32.1-.59a1.3,1.3,0,0,1,.1.44c0-.49.06-.09.1-.39.1.24,0,.46.14.3A.53.53,0,0,1,132.77,162.29Zm2.36-1h0Zm.2,0a.14.14,0,0,0-.09,0c0-.1,0-.2,0-.2S135.29,161.22,135.33,161.3Zm-.55-1.92s0,0,.05.07l-.05,0v-.11Z" fill="#af5341"/>
          <path d="M134.75,159.75a0,0,0,0,0,0,0l0,.06v-.09Z" fill="#af5341"/>
          <path d="M152.24,156.6h0s0,0,0,0Z" fill="#af5341"/>
          <polygon points="138.15 161.61 138.14 161.54 138.13 161.6 138.15 161.61" fill="#af5341"/>
          <path d="M153.67,156.93l.05,0Z" fill="#af5341"/>
          <path d="M154.13,156.72l.11,0A.24.24,0,0,0,154.13,156.72Z" fill="#af5341"/>
          <path d="M154.53,156.63l-.06-.1h0Z" fill="#af5341"/>
          <path d="M149.14,159.4h0C149.11,159.47,149.13,159.45,149.14,159.4Z" fill="#af5341"/>
          <path d="M150.61,158.21a.61.61,0,0,1,0,.14S150.67,158.36,150.61,158.21Z" fill="#af5341"/>
          <polygon points="147.31 160.25 147.31 160.25 147.29 160.25 147.31 160.25" fill="#af5341"/>
          <path d="M150.52,158.37s.07,0,.08,0S150.53,158.32,150.52,158.37Z" fill="#af5341"/>
          <path d="M156,155.66h0l0,0Z" fill="#af5341"/>
          <path d="M155.94,155.62v0S155.92,155.59,155.94,155.62Z" fill="#af5341"/>
          <path d="M155.92,155.5l0,.08S156,155.56,155.92,155.5Z" fill="#af5341"/>
          <path d="M155.47,155.91l.06.08Z" fill="#af5341"/>
          <path d="M155.36,156s.22.1.22,0l-.05-.07C155.61,156.12,155.28,155.88,155.36,156Z" fill="#af5341"/>
          <path d="M154.12,155.44h.14c-.08-.08-.18-.18-.16-.23C153.79,155,154.27,155.39,154.12,155.44Z" fill="#af5341"/>
          <path d="M153.72,155.5c0-.07-.09-.13-.12-.18C153.62,155.42,153.62,155.45,153.72,155.5Z" fill="#af5341"/>
          <path d="M151.39,156.75l-.1-.24C151.27,156.57,151.33,156.6,151.39,156.75Z" fill="#af5341"/>
          <polygon points="151.42 158.18 151.53 158.31 151.47 158.09 151.42 158.18" fill="#af5341"/>
          <polygon points="150.46 156.6 150.47 156.56 150.42 156.67 150.46 156.6" fill="#af5341"/>
          <path d="M146.2,158l.09.3C146.31,158.22,146.23,157.87,146.2,158Z" fill="#af5341"/>
          <path d="M144.35,158.7c0-.15-.12-.24-.13-.08C144.27,158.63,144.33,158.74,144.35,158.7Z" fill="#af5341"/>
          <polygon points="138.43 159.04 138.45 158.93 138.39 159.03 138.43 159.04" fill="#af5341"/>
        </g>
        <g>
          <path d="M166.33,165.08c0-.07.15-.24.12-.22l-.18.28Z" fill="#af5341"/>
          <path d="M166.57,164.5a5.83,5.83,0,0,0-.42.62c.19-.26.12-.15.34-.46,0,0,0,.11-.1.21,0-.07,0,.07.09-.1s.11-.25,0-.08Z" fill="#af5341"/>
          <path d="M165.56,163.27v0Z" fill="#af5341"/>
          <path d="M164.86,162.62s0,0,0-.06Z" fill="#af5341"/>
          <path d="M164.92,162.22v0S164.94,162.2,164.92,162.22Z" fill="#af5341"/>
          <path d="M165.56,163.27l0-.11C165.54,163.26,165.56,163.24,165.56,163.27Z" fill="#af5341"/>
          <path d="M166,165.07,166,165l0,0Z" fill="#af5341"/>
          <path d="M166.05,163.26h0l.08-.11Z" fill="#af5341"/>
          <path d="M166.35,163.38l-.22.33.12-.16A1.81,1.81,0,0,1,166.35,163.38Z" fill="#af5341"/>
          <path d="M166.51,164.06l0,0Z" fill="#af5341"/>
          <path d="M165.89,163.08l.05-.08A.56.56,0,0,1,165.89,163.08Z" fill="#af5341"/>
          <path d="M157.27,160.21l0,0Z" fill="#af5341"/>
          <path d="M157.69,158.84h0l.08-.14Z" fill="#af5341"/>
          <path d="M164.86,161.76h0S164.88,161.75,164.86,161.76Z" fill="#af5341"/>
          <path d="M162.48,160.53c-.11.23-.21.24-.32.51A5.14,5.14,0,0,0,162.48,160.53Z" fill="#af5341"/>
          <path d="M166,165h0Z" fill="#af5341"/>
          <path d="M162.16,161h0v0Z" fill="#af5341"/>
          <path d="M164.2,161.55a.54.54,0,0,1-.06.11A.27.27,0,0,0,164.2,161.55Z" fill="#af5341"/>
          <path d="M164.42,162.16v0A.08.08,0,0,0,164.42,162.16Z" fill="#af5341"/>
          <path d="M163.77,161.75s0-.05,0,0l0,0S163.79,161.71,163.77,161.75Z" fill="#af5341"/>
          <path d="M163.54,161.61l0,0h0Z" fill="#af5341"/>
          <path d="M158,160.53l.12-.22C158.06,160.48,158,160.52,158,160.53Z" fill="#af5341"/>
          <path d="M166.05,164.93c0,.06-.05.09-.07.1h0Z" fill="#af5341"/>
          <path d="M162.59,163.63v-.06A.06.06,0,0,0,162.59,163.63Z" fill="#af5341"/>
          <path d="M159.71,161.52l0,0Z" fill="#af5341"/>
          <path d="M162.45,163.54a1.73,1.73,0,0,0,.08-.18l0,.06Z" fill="#af5341"/>
          <path d="M158.17,160.31h0Z" fill="#af5341"/>
          <path d="M157.57,160.73s.21-.3.33-.48-.13.25-.21.42c.08-.07.28-.35.29-.32a.77.77,0,0,1-.09.13c.19-.23.09,0,.32-.25l0,.08.26-.44s.15-.18,0,0c0,0-.06.07-.1.13l.07-.07c-.17.3-.09.08-.22.3.09-.07.28-.3.25-.2-.17.3-.12.06-.24.34l0-.13c-.26.47,0-.05-.28.46,0,.11.14-.12.14,0,.11-.16.14-.24.26-.39s-.4.75-.11.4c.13-.18.37-.54.28-.33l-.21.32c0,.06.32-.45.23-.2s-.1.09-.12.13c-.13.28.14-.17.16-.16l-.17.3c.08,0,.26-.19.35-.21a2.4,2.4,0,0,0-.16.27c.16-.1.13.13.09.34l.18-.23a.45.45,0,0,1-.09.16c0,.11.1-.16.17-.25s-.07.16-.12.23c.18-.18.42-.37.3-.07l-.06.06c0,.13.37-.48.26-.22l0,0c0,.16.26,0,.09.4.23-.35,0,.21.3-.28a2.4,2.4,0,0,0-.21.57s.22-.3.27-.34l-.16.26.2-.25-.18.32.07,0a.88.88,0,0,1,.1-.21c.11-.09,0,.24-.12.37l.22-.17a1.12,1.12,0,0,1-.16.19c.21-.24-.16.28,0,.06,0-.06.1-.15.13-.21-.08.17,0,.2,0,.15l-.12.18c0,.08.18,0,.24,0a1.79,1.79,0,0,1,.27-.42l-.17.28c.12-.16,0-.12.2-.31a1.42,1.42,0,0,1-.25.4l.09-.07L160,162c.12-.16-.12.31.08,0l-.05.08c.07,0,.16,0,.22,0a2.87,2.87,0,0,1,.27-.35c0,.1-.08.31,0,.32a3.58,3.58,0,0,0,.24-.33c-.14.22-.08.23-.2.37.08,0,.1,0,.28-.13a2,2,0,0,1,.11-.21s0,.11-.09.21l0,0c.28-.27-.21.75.14.34l0,0,.21-.2c0,.06-.12.16-.18.3.3-.31.08.13.29-.08-.35.67.19.06,0,.5l.09-.15c.11-.14,0,.1,0,.14a1.27,1.27,0,0,1,.13-.22c.25-.1.14.39.19.61s.51-.76.35-.36l-.19.27c.31-.28.2.14.48-.09-.05.06-.1.15-.11.14-.11.22.07.06.17-.11,0,0-.09.16-.13.25s.21-.23.1,0l-.06.07c.07-.09,0,.07.18-.17,0,.13.14-.06.08.09.18-.25,0,.17.22-.2-.24.38-.13.35,0,.18a3.08,3.08,0,0,1-.16.29s.1,0,.21-.24c-.23.49.33-.31,0,.3a2.09,2.09,0,0,1,.5-.3c-.24.38-.1,0-.35.39.17-.11.41-.42.42-.28s-.11.16-.16.22c.17-.12.11.12.3-.06a.39.39,0,0,1-.08.1s0,.07.1-.1l0,0a5.83,5.83,0,0,1,.46-.63c-.33.48,0,.16-.44.77a1.12,1.12,0,0,0,.16-.22,1,1,0,0,1-.14.24c.1-.07.2-.27.24-.24s-.09.11-.15.21c.12-.15.24-.3.23-.21a.43.43,0,0,1-.08.11c.07,0,.37-.38.33-.18-.24.35,0,.13-.25.45l.1-.08.08-.16s.19-.19.15-.07l-.1.12.09,0,.05-.14c.13-.14.24-.4.23-.29s0,0-.08.22h0c.08-.09.16-.19.13-.1s-.22.35-.26.42c.18-.26.11,0,.31-.3-.05.06-.15.23-.17.26l.14-.21a.85.85,0,0,1-.13.25c0,.06.24-.41.18-.21l-.06.08c0,.12.17-.08.15.05-.18.33-.08.06-.24.33.1,0,.37-.3.39-.18v-.05c.29-.44-.09.26.07.06a1.12,1.12,0,0,0-.13.2c0,.1.15-.06.3-.16l-.08.11c0,.12,0,.1,0,.17a1.39,1.39,0,0,0,.18-.26c-.33.71.37-.25.11.34,0,0-.09.09-.08.1l.13-.07c.12-.2.06-.13.15-.29s.15-.19.17-.18a2,2,0,0,0-.26.43l.12-.18c-.18.37.25-.39.15-.13l-.07.1s.15-.17.15-.13c-.13.23-.08.1-.2.28,0,0,.32-.4.2-.16,0,.06-.06.05-.11.11-.14.28-.1.22-.11.27h0l0,.15,0-.08c.4-.57.13-.07.41-.43a2.27,2.27,0,0,0-.3.46,1.08,1.08,0,0,1-.12.24c.15-.19-.06.19.15-.1-.05.08,0,0-.11.23.06,0,.08-.15.15-.25.21-.26-.12.4.18.05.15-.13.33-.4.46-.51a1.24,1.24,0,0,1-.2.29c0,.14,0,.13.07.05a1.57,1.57,0,0,0-.13.23s.2-.3.14-.16a3.62,3.62,0,0,1-.22.32l.26-.26a2.35,2.35,0,0,1-.22.3.94.94,0,0,0,.3-.31l0-.1a.88.88,0,0,1-.15.24c-.13.17,0-.1.07-.18l.05-.05c.28-.49-.12,0-.13,0l.23-.34-.21.27a1.68,1.68,0,0,1,.21-.34c.09-.19-.1.11,0-.1l0-.06-.09.09c.05-.07.15-.25.14-.19.08-.23-.24.23-.08-.05v0c-.13.08-.16.25-.4.53l.37-.66-.17.26s0,0,.07-.14a2.11,2.11,0,0,0-.18.27c.11-.25-.15.06.1-.36-.13.2-.07.17-.19.29.27-.45-.08.06,0-.16s.1-.09.2-.31c-.25.37,0-.12-.06-.06-.2.31-.13.1-.23.18.06-.1,0-.22.06-.35l0,0c-.2.31-.2.23-.27.27l.23-.33h0a.68.68,0,0,1-.15.17l.15-.23s-.23.23-.18.05a4.89,4.89,0,0,1-.48.75c.08-.12.2-.33.24-.37s-.07.09,0,0l.14-.19c0-.1-.11.16-.12.13a2.71,2.71,0,0,0,.15-.26s0,.08,0,0a1,1,0,0,1,.11-.29,1.56,1.56,0,0,1-.16.24s.11-.2.14-.3c-.08.11,0,0-.18.23a.87.87,0,0,1,.1-.2c-.08.1-.1,0-.24.26v0h0c-.21.22,0-.21-.15-.14l.05-.08c-.09.07-.11,0-.24.17a1.14,1.14,0,0,1,.14-.26c-.07.05-.13.14-.08,0s.07-.14.09-.09.09-.24-.09,0c.15-.21.15-.28.09-.23l-.07.17s0,0,0,0l.18-.28c.15-.38-.49.51-.18-.09-.14.18,0,.16-.21.38a3.27,3.27,0,0,1,.21-.49c.05-.18-.3.39-.28.25a2.47,2.47,0,0,1-.31.46,1.87,1.87,0,0,1,.3-.52s0,0,0,.06a.53.53,0,0,0,.13-.18l-.07.1c.05-.11,0-.13.11-.29a.4.4,0,0,0-.12.23c0-.18-.06,0,0-.17l-.1.18c0-.17-.15.17-.22.19.08-.17.24-.36.12-.26a1.5,1.5,0,0,1,.22-.35c-.16.18,0-.17,0-.22l.07-.06s-.05,0-.06,0l-.11.21a.26.26,0,0,1,.05-.13c-.09.12-.2.34-.33.51,0-.12-.12.08,0-.19,0,.12.16-.28.23-.29s0,0,0,0l.05-.07c.11-.26-.21.29-.25.26s.17-.29.14-.27a1.27,1.27,0,0,1-.24.36c0-.13-.09.07-.09,0l0,.06c-.1.15-.1.12-.15.16.07-.12.07-.07.09-.13-.19.25.12-.31,0-.15.05-.11.18-.28.21-.36-.16.17.09-.23-.05-.09a1.56,1.56,0,0,1-.23.34l.15-.11-.23.27s.12-.1.11-.06a1.21,1.21,0,0,0-.18.28c.16-.32-.16.15-.07-.08l.32-.5c.09-.25-.24.21-.23,0l0,.1c-.13.2-.06,0-.12.08a3,3,0,0,0,.18-.35c-.07.13,0,0-.25.29l.11-.23c0-.12-.35.44-.36.35a4.55,4.55,0,0,1,.29-.41s0,0-.08.06c.06-.11-.18.2-.1,0-.05.07-.16.25-.17.22l0-.08a2,2,0,0,0-.19.29c.27-.55-.16,0,.08-.52a.34.34,0,0,1-.19.06l0-.06c.06-.19-.32.46-.26.26s.11-.13.16-.24c.34-.56-.1,0,.07-.31l0,0c.09-.2-.19.18-.2.11l.05-.08a1.35,1.35,0,0,1-.4.38,3.78,3.78,0,0,0,.22-.33s-.22.36-.29.39a5.16,5.16,0,0,1,.24-.48h0c.18-.31-.05,0,0-.08l.08-.13c-.07,0-.28.35-.32.29l-.06.1c-.23.32.09-.2-.09,0l.2-.34a3.33,3.33,0,0,1-.34.32,4.55,4.55,0,0,1,.41-.47s-.08,0-.19.14c0,0,.08-.1.06,0q-.28.38-.33.33c.41-.65,0-.23.28-.75-.21.2-.07-.19-.17-.2-.29.52,0,0-.35.52,0,0,0,0,0,0l.13-.35c.08-.16.09-.1.16-.22s.12-.23.18-.38c-.11.19-.18.25-.16.17l-.11.26c-.23.24.22-.47,0-.23l.12-.15c-.09.08-.1-.07-.39.33a.9.9,0,0,1,.15-.24c0-.11-.43.34-.33.05l.09-.12s-.18.23-.11.09l.08-.14s-.17.2-.14.12l.1-.14c0-.2-.32.29-.43.34a1.41,1.41,0,0,0,.26-.61l0,0c0-.09-.33.23-.5.33.21-.44,0-.27,0-.54a1.63,1.63,0,0,1-.22.32c0-.09-.21.23,0-.11h0c.2-.35.11-.28.09-.31l-.29.45c.34-.7-.34.12,0-.49-.09.1-.11.09-.2.19l.15-.24c0-.09,0-.14-.11-.12l.12-.16s-.47.67-.51.66l.21-.36c-.06,0,.08-.39-.18-.1l.11-.16s.05-.31-.25.19c.2-.32,0-.07-.16,0l.15-.23c-.21.28-.26.37-.35.43s.11-.2.08-.13c.05-.14-.16.21-.12.06l.11-.14s-.07,0-.19.21,0-.09.1-.31c-.08.13-.21.29-.19.22a1,1,0,0,1,.11-.15c0-.2-.25.22-.14,0l.08-.14s.06.06,0,.08a6,6,0,0,1,.34-.57c-.13.15-.4.48-.36.36a.59.59,0,0,1,0-.08l0,0s0,0,0,0,0-.07,0-.08c.11-.18,0-.12,0-.14a3.83,3.83,0,0,0-.24.4,0,0,0,0,1,0,0l0,0,0,0h0c-.09.11-.16.2-.1.06l-.26.37c.18-.35.25-.55.37-.76-.13.1-.17,0-.48.44,0,.05.07-.14.1-.21s.05,0,.09-.09c-.1.1-.11,0-.31.3.05-.16.2-.27.12-.25l.06-.09c.22-.56-.65.7-.36,0,0,0,0,.06-.05.12.05-.36-.42.11-.26-.42,0-.11-.11.09-.22.23l.15-.26-.22.27c-.18.19.3-.68,0-.31l-.1.18c0-.05-.14.05,0-.14,0,0-.12.17-.07.08l.08-.14-.2.2c0-.13.34-.53.29-.6a2.45,2.45,0,0,0-.36.45s0,.1-.11.23l-.06.06a7.4,7.4,0,0,0-.64,1.09l.19-.22-.11.2h0c-.09.19,0,0,.1-.07l-.12.22.27-.35a3.16,3.16,0,0,0-.23.4,4.64,4.64,0,0,1,.3-.46c-.1.19-.19.34-.08.2a1.07,1.07,0,0,1-.14.2c.1-.11.08,0,.22-.22-.12.23.1,0-.13.35a1.51,1.51,0,0,1,.24-.28c-.31.43.05.07-.26.54.27-.39.19-.12.37-.32l-.05.07a2.51,2.51,0,0,1-.1.26,4,4,0,0,1,.44-.58,6.83,6.83,0,0,1-.45.69c.17-.27.22-.24.35-.47a2.92,2.92,0,0,1-.2.39c.26-.41.06-.06.24-.3-.1.22-.24.39-.12.29A1.37,1.37,0,0,1,157.57,160.73Zm1.26-.22h0Zm.07,0s0,0,0,0a.9.9,0,0,1,.11-.16A1.72,1.72,0,0,0,158.9,160.55Zm.89-1.74s0,0,0,.07h0l0,0Z" fill="#af5341"/>
          <path d="M159.57,159.11h0l0,.06.05-.07Z" fill="#af5341"/>
          <path d="M165.55,163.31h0l0,0Z" fill="#af5341"/>
          <polygon points="159.56 161.59 159.6 161.53 159.56 161.58 159.56 161.59" fill="#af5341"/>
          <path d="M165.41,164.36l0,.07Z" fill="#af5341"/>
          <path d="M165.54,164.52l0,.1A.43.43,0,0,0,165.54,164.52Z" fill="#af5341"/>
          <path d="M165.59,164.72l.07-.11h0Z" fill="#af5341"/>
          <path d="M163.43,163.76h0Z" fill="#af5341"/>
          <path d="M164.37,163.57a.45.45,0,0,1-.09.1S164.29,163.71,164.37,163.57Z" fill="#af5341"/>
          <polygon points="162.59 163.64 162.6 163.63 162.59 163.63 162.59 163.64" fill="#af5341"/>
          <path d="M164.26,163.65s0,0,0,0S164.29,163.62,164.26,163.65Z" fill="#af5341"/>
          <path d="M166.07,165.16h0l0,0Z" fill="#af5341"/>
          <path d="M166.09,165.14l0,0Z" fill="#af5341"/>
          <path d="M166.17,165.06l0,.05S166.12,165.13,166.17,165.06Z" fill="#af5341"/>
          <path d="M166,165l-.05.08Z" fill="#af5341"/>
          <path d="M165.91,164.94s-.09.2,0,.16l0-.07C165.83,165.16,166,164.8,165.91,164.94Z" fill="#af5341"/>
          <path d="M166.36,163.74v.1a.83.83,0,0,1,.15-.24C166.63,163.29,166.39,163.81,166.36,163.74Z" fill="#af5341"/>
          <path d="M166.31,163.53c.05,0,.09-.14.12-.19A.41.41,0,0,0,166.31,163.53Z" fill="#af5341"/>
          <path d="M165.37,162.94l.14-.22S165.46,162.81,165.37,162.94Z" fill="#af5341"/>
          <polygon points="164.49 163.95 164.43 164.09 164.56 163.9 164.49 163.95" fill="#af5341"/>
          <polygon points="165.35 162.33 165.37 162.31 165.3 162.37 165.35 162.33" fill="#af5341"/>
          <path d="M163.71,161.43l-.16.27S163.78,161.36,163.71,161.43Z" fill="#af5341"/>
          <path d="M162.86,161.27c.08-.14.11-.23,0-.11S162.83,161.3,162.86,161.27Z" fill="#af5341"/>
          <polygon points="161.08 159.56 161.15 159.48 161.07 159.54 161.08 159.56" fill="#af5341"/>
        </g>
        <g>
          <path d="M157.19,170.25c.06-.06.2-.2.16-.18l-.23.23Z" fill="#af5341"/>
          <path d="M157.57,169.76c-.12.11-.33.3-.54.52.23-.22.14-.12.42-.38,0,0-.06.09-.15.18.06-.06,0,.06.11-.08s.16-.22,0-.08Z" fill="#af5341"/>
          <path d="M157.17,168.65l0,0Z" fill="#af5341"/>
          <path d="M156.83,168.06l0-.05A.08.08,0,0,0,156.83,168.06Z" fill="#af5341"/>
          <path d="M157,167.72v0S157,167.7,157,167.72Z" fill="#af5341"/>
          <path d="M157.17,168.65l.06-.09C157.15,168.64,157.18,168.63,157.17,168.65Z" fill="#af5341"/>
          <path d="M156.9,170.23l.07-.06,0,0Z" fill="#af5341"/>
          <path d="M157.56,168.66h0l.1-.09Z" fill="#af5341"/>
          <path d="M157.76,168.78l-.28.27.14-.13Z" fill="#af5341"/>
          <path d="M157.67,169.38l0,0Z" fill="#af5341"/>
          <path d="M157.49,168.51l.07-.08Z" fill="#af5341"/>
          <path d="M151.56,165.63l0,0Z" fill="#af5341"/>
          <path d="M152.35,164.46h0l.11-.11Z" fill="#af5341"/>
          <path d="M157.11,167.32h0S157.12,167.3,157.11,167.32Z" fill="#af5341"/>
          <path d="M155.61,166.14c-.16.19-.25.2-.42.42C155.26,166.48,155.51,166.27,155.61,166.14Z" fill="#af5341"/>
          <path d="M156.92,170.2h0S156.92,170.21,156.92,170.2Z" fill="#af5341"/>
          <path d="M155.19,166.56h0v0Z" fill="#af5341"/>
          <path d="M156.65,167.1l-.08.09Z" fill="#af5341"/>
          <path d="M156.62,167.64l0,0Z" fill="#af5341"/>
          <path d="M156.24,167.26s0,0,0,0l0,0S156.27,167.22,156.24,167.26Z" fill="#af5341"/>
          <path d="M156.1,167.12l0,0h0Z" fill="#af5341"/>
          <path d="M152.07,165.94l.17-.18C152.1,165.9,152,165.93,152.07,165.94Z" fill="#af5341"/>
          <path d="M157,170.12l-.09.08h0Z" fill="#af5341"/>
          <path d="M154.68,168.83v-.05S154.67,168.83,154.68,168.83Z" fill="#af5341"/>
          <path d="M153.07,166.88l0,0Z" fill="#af5341"/>
          <path d="M154.59,168.75l.13-.15-.06.05Z" fill="#af5341"/>
          <path d="M152.24,165.76Z" fill="#af5341"/>
          <path d="M151.63,166.09s.26-.25.41-.39-.18.2-.3.35a3.18,3.18,0,0,1,.34-.27l-.12.12c.23-.2.06,0,.34-.21l-.06.07c.12-.14.26-.27.35-.37s.18-.15,0,0c0,0-.07.06-.13.11l.08-.07c-.23.26-.09.07-.27.26.09-.06.32-.25.26-.16-.23.24-.11.05-.3.28l.07-.12c-.36.4,0,0-.38.39,0,.1.16-.09.12,0l.33-.33c.28-.2-.57.64-.22.35.17-.16.47-.46.34-.28l-.28.27c0,.06.4-.38.25-.16s-.11.07-.14.1c-.19.24.17-.14.18-.13l-.23.25c.07,0,.27-.15.35-.16a2.28,2.28,0,0,0-.22.22c.16-.08.06.12,0,.3l.22-.19a.72.72,0,0,1-.13.14c-.06.09.13-.13.22-.21s-.1.13-.17.19c.2-.15.45-.3.26,0l-.06.06c-.06.11.45-.41.27-.19l0,0c0,.14.21,0-.06.36.3-.29-.09.18.33-.23a2.69,2.69,0,0,0-.35.48s.27-.25.33-.28l-.22.22.25-.21-.25.27.06,0,.15-.17c.12-.08-.1.2-.21.31l.23-.14a1.79,1.79,0,0,1-.19.16c.25-.2-.22.24,0,.05l.18-.17c-.12.14-.1.17,0,.13l-.15.15c0,.07.14,0,.17,0a2,2,0,0,1,.36-.36l-.23.24a3.49,3.49,0,0,1,.27-.26,2.7,2.7,0,0,1-.34.34l.1-.07-.19.19c.14-.13-.2.27.05,0l-.06.07s.13,0,.17,0a3.56,3.56,0,0,1,.34-.29c0,.08-.17.27-.13.28a3.71,3.71,0,0,0,.3-.28c-.18.19-.13.2-.28.31.07,0,.08,0,.27-.1l.16-.18s-.06.1-.15.19h0c.32-.23-.41.64,0,.3h0l.23-.16s-.14.13-.24.26c.34-.27,0,.11.26-.06-.5.56.13.05-.17.43L154,168c.13-.11-.06.09-.08.12a1.51,1.51,0,0,1,.18-.18c.22-.08,0,.34,0,.54s.66-.64.4-.3l-.24.22c.33-.22.11.13.4,0l-.13.12c-.15.18,0,0,.18-.09,0,0-.13.13-.19.21s.25-.19.09,0l-.08.07c.09-.08,0,.06.21-.15-.07.12.12,0,0,.09.23-.21-.07.14.24-.17-.32.32-.22.3-.05.16-.1.1-.09.12-.23.25,0,0,.1,0,.26-.21-.35.42.36-.25-.11.26a2.15,2.15,0,0,1,.49-.23c-.31.32-.07,0-.4.32.17-.09.46-.34.42-.23a.91.91,0,0,1-.2.19c.17-.1.05.1.26,0l-.09.08s0,.07.11-.08l0,0c.2-.22.47-.41.58-.52-.42.4-.07.14-.61.65a2.53,2.53,0,0,0,.2-.19.74.74,0,0,1-.19.2c.11,0,.25-.22.27-.19l-.19.17c.15-.13.3-.25.26-.17l-.1.09s.42-.31.32-.14a3.82,3.82,0,0,0-.35.38l.1-.06.12-.14s.22-.16.15,0l-.12.09.08,0,.08-.12c.15-.12.33-.33.28-.24a1,1,0,0,1-.13.19h0c.09-.08.19-.16.13-.08l-.34.35c.23-.21.1,0,.34-.25l-.22.22.19-.17a1.47,1.47,0,0,1-.19.21c0,.05.32-.35.21-.18l-.07.07c0,.1.16-.06.1.05-.25.28-.08,0-.3.28.09,0,.4-.25.37-.15l0,0c.38-.38-.15.21,0,0,0,0-.21.21-.17.16s.14,0,.3-.12l-.1.09c-.07.1,0,.09,0,.15.1-.09.09-.07.23-.21-.5.6.38-.21,0,.3l-.09.07.13,0c.16-.17.09-.1.21-.24s.18-.16.19-.15a2.81,2.81,0,0,0-.34.36l.16-.15c-.27.31.32-.33.16-.11l-.09.09c.05,0,.18-.14.16-.11-.18.2-.1.08-.25.24,0,0,.38-.33.21-.13a.91.91,0,0,1-.13.08c-.2.24-.14.19-.17.23h0l-.08.12.06-.06c.5-.48.12-.06.47-.36a5.16,5.16,0,0,0-.4.39.82.82,0,0,1-.17.2c.19-.16-.11.16.16-.08a2.29,2.29,0,0,1-.17.19c.07,0,.11-.12.2-.21.26-.21-.23.35.13.05.16-.1.4-.33.54-.42a2.26,2.26,0,0,1-.26.25c-.08.11,0,.11,0,0l-.18.19s.25-.24.17-.12l-.29.26.29-.21c-.11.12-.19.17-.27.25a1.19,1.19,0,0,0,.34-.26l.06-.08s-.16.17-.2.2.05-.08.12-.16l.05,0c.39-.42-.1,0-.1,0l.3-.29-.26.23a2.45,2.45,0,0,1,.28-.28c.13-.16-.11.09,0-.09l.06-.05-.11.08c.07-.06.21-.21.17-.16.15-.2-.25.18,0-.05l0,0a5.06,5.06,0,0,0-.5.44l.51-.55-.21.21s0,0,.1-.12c-.16.14-.1.1-.24.23.18-.21-.14.05.2-.3-.17.16-.11.14-.24.24.36-.38-.09,0,.06-.14a2.27,2.27,0,0,0,.27-.26c-.33.31,0-.1,0-.06-.25.26-.13.08-.24.15a1.24,1.24,0,0,0,.17-.3l0,0c-.26.26-.23.19-.3.22.15-.15.22-.21.29-.27v0l-.17.15.19-.2s-.26.2-.16,0a6,6,0,0,1-.63.62,3.91,3.91,0,0,1,.31-.3s-.09.07-.05,0l.17-.16c.06-.08-.14.14-.13.11s.09-.11.2-.22-.05.07,0,0a.93.93,0,0,1,.18-.24,1.17,1.17,0,0,1-.21.2s.16-.18.22-.26a1.23,1.23,0,0,0-.22.19l.14-.17c-.1.08-.07,0-.28.22h0c-.24.18,0-.19-.07-.13l.07-.07c-.1.06-.09,0-.26.14l.2-.22c-.07,0-.15.12-.05,0s.1-.11.1-.08.15-.19-.06,0c.18-.17.21-.24.14-.2l-.11.15s0,0,0,0l.23-.23c.25-.33-.55.42-.11-.09-.17.15-.09.14-.29.32,0-.05.33-.41.33-.42s-.37.33-.31.21a3.48,3.48,0,0,1-.39.38,2.24,2.24,0,0,1,.4-.43l0,0a.48.48,0,0,0,.16-.15l-.08.08c.07-.09,0-.11.18-.24a.55.55,0,0,0-.17.18c.09-.14,0,0,0-.14l-.14.15c.07-.14-.17.14-.23.16.11-.15.3-.31.17-.22a1.59,1.59,0,0,1,.29-.29c-.18.14.07-.15.09-.19l.07-.06s-.05,0-.05,0l-.16.17a.33.33,0,0,1,.08-.11c-.11.11-.27.29-.43.43.08-.1-.12.06.1-.17-.05.11.22-.22.28-.24s0,0,0,0l.07-.05c.17-.23-.27.24-.29.2.13-.12.23-.24.2-.22a1.78,1.78,0,0,1-.31.3c.08-.11-.09.06-.09,0l0,.05a.41.41,0,0,1-.18.13c.1-.1.08-.06.12-.11-.23.21.19-.26,0-.13.07-.09.23-.24.28-.3-.18.14.15-.2,0-.09a1.64,1.64,0,0,1-.3.29l.16-.08-.27.22s.13-.08.11-.05a1.36,1.36,0,0,0-.24.24c.23-.27-.18.11,0-.08l.42-.42c.15-.21-.26.17-.19,0l-.07.09c-.16.16,0,0-.12,0,.14-.14.18-.19.27-.29-.11.11,0,0-.3.25l.17-.2c0-.11-.43.37-.41.29s.24-.26.37-.35,0,0-.09.06c.08-.1-.21.16-.09,0-.06.06-.21.2-.21.18l.07-.07a2.29,2.29,0,0,0-.25.24c.4-.46-.11,0,.23-.44a.41.41,0,0,1-.16,0s.07-.07.06-.05c.1-.16-.41.39-.3.21s.14-.11.21-.2c.45-.47-.09,0,.15-.26l0,0c.14-.17-.2.15-.2.09a.43.43,0,0,0,.07-.07,1.58,1.58,0,0,1-.44.31l.28-.27s-.29.29-.36.33a5.31,5.31,0,0,1,.35-.41h0c.24-.27,0,0,0-.07l.11-.11c-.06,0-.34.28-.35.23l-.08.09c-.29.26.14-.17-.08,0l.27-.29-.38.27c.22-.2.35-.28.48-.39s-.06,0-.2.11c0,0,.11-.08.07,0-.23.2-.36.29-.38.27.54-.55.08-.2.48-.64-.24.16,0-.17-.08-.18-.4.44,0,0-.45.44,0,0,0,0,0,0l.23-.29c.11-.13.1-.08.2-.18s.17-.2.27-.33c-.15.16-.23.22-.19.14l-.18.22c-.26.2.34-.39.08-.19l.14-.13c-.1.06-.06-.07-.42.27a1.25,1.25,0,0,1,.2-.2c0-.1-.46.28-.28,0l.11-.1s-.21.18-.12.07l.11-.12s-.2.17-.15.1l.12-.11c.1-.18-.34.23-.45.27a1.87,1.87,0,0,0,.41-.52l.05,0c0-.08-.34.18-.51.26.31-.37,0-.23.2-.46a2.16,2.16,0,0,1-.28.26c.05-.07-.25.19,0-.09h0c.27-.29.17-.24.16-.26l-.37.37c.5-.59-.31.09.15-.42-.1.08-.12.07-.22.15l.2-.2c0-.08,0-.12-.05-.11l.15-.13s-.6.55-.63.55l.29-.31s.19-.33-.11-.09l.14-.13s.14-.27-.26.15c.26-.27,0-.06-.15,0l.2-.2a2.69,2.69,0,0,1-.42.36s.15-.17.11-.11c.08-.12-.2.18-.12,0L154,165s-.07,0-.22.18,0-.09.19-.27c-.11.11-.27.24-.23.18l.14-.13c.1-.16-.28.19-.1,0l.11-.13s0,.06,0,.07a6.36,6.36,0,0,1,.46-.47c-.15.13-.48.4-.41.29s0,0,.06-.06l0,0s0,0,0,0l0-.07c.15-.16.06-.11.06-.12a3.4,3.4,0,0,0-.33.33s0,0,0,0l0,0,0,0h0c-.11.09-.2.17-.1.05l-.33.31c.26-.29.38-.47.55-.65a1.49,1.49,0,0,0-.53.37c-.06,0,.09-.12.15-.18s0,0,.1-.08c-.11.08-.09,0-.35.25.09-.14.25-.23.18-.21l.08-.08c.36-.48-.75.58-.29,0a.58.58,0,0,1-.08.1c.16-.31-.37.08-.07-.37.06-.1-.11.07-.25.18l.21-.22-.27.23c-.21.15.47-.58.09-.27l-.13.15s-.13,0,0-.12c0,0-.16.14-.09.06l.11-.11-.22.16c.05-.11.44-.44.43-.5a2.83,2.83,0,0,0-.43.37,1.15,1.15,0,0,1-.17.19l-.07,0a11.46,11.46,0,0,0-.87.92l.22-.18-.15.17h0c-.14.16,0,0,.1,0a1.42,1.42,0,0,0-.16.19l.33-.3a4.27,4.27,0,0,0-.32.34c.15-.14.28-.3.39-.38-.14.16-.26.28-.12.16l-.18.17c.11-.09.07,0,.25-.18-.18.19.08,0-.23.3a1.87,1.87,0,0,1,.29-.23c-.39.36,0,.06-.39.45.35-.32.2-.1.41-.26l-.07.06s-.11.14-.17.22c.28-.28.36-.32.54-.48-.24.28-.33.31-.58.58.22-.23.25-.2.43-.39-.15.18-.07.09-.29.33.35-.35.07,0,.29-.26-.15.19-.31.34-.19.25A1.22,1.22,0,0,1,151.63,166.09Zm1.07-.13h0Zm.05,0a0,0,0,0,0,0,0,.59.59,0,0,1,.14-.13A1.12,1.12,0,0,0,152.75,166Zm1.28-1.48s0,0,0,.07h0l0,0Z" fill="#af5341"/>
          <path d="M153.76,164.78h0l0,.05.06-.06Z" fill="#af5341"/>
          <path d="M157.14,168.69h0l0,0Z" fill="#af5341"/>
          <polygon points="152.93 166.93 152.98 166.88 152.93 166.92 152.93 166.93" fill="#af5341"/>
          <path d="M156.69,169.59l-.05.06S156.67,169.62,156.69,169.59Z" fill="#af5341"/>
          <path d="M156.74,169.73l-.05.09Z" fill="#af5341"/>
          <path d="M156.72,169.91l.08-.09h0Z" fill="#af5341"/>
          <path d="M155.31,169h0C155.25,169,155.27,169,155.31,169Z" fill="#af5341"/>
          <path d="M156.12,168.86l-.11.08S156,169,156.12,168.86Z" fill="#af5341"/>
          <polygon points="154.68 168.84 154.68 168.84 154.68 168.83 154.68 168.84" fill="#af5341"/>
          <path d="M156,168.92c0,.05,0,.05,0,0S156,168.9,156,168.92Z" fill="#af5341"/>
          <path d="M157,170.31v0l0,0Z" fill="#af5341"/>
          <path d="M157,170.29l0,0Z" fill="#af5341"/>
          <path d="M157.06,170.23l-.05,0S157,170.29,157.06,170.23Z" fill="#af5341"/>
          <path d="M156.94,170.12l-.07.08Z" fill="#af5341"/>
          <path d="M156.89,170.12s-.13.17-.08.13l.06-.05C156.76,170.3,157,170,156.89,170.12Z" fill="#af5341"/>
          <path d="M157.65,169.09l0,.09a1.21,1.21,0,0,1,.2-.2C158,168.72,157.65,169.16,157.65,169.09Z" fill="#af5341"/>
          <path d="M157.68,168.91a1.21,1.21,0,0,0,.16-.16A.61.61,0,0,0,157.68,168.91Z" fill="#af5341"/>
          <path d="M157.12,168.35l.19-.18A2,2,0,0,0,157.12,168.35Z" fill="#af5341"/>
          <polygon points="156.09 169.19 155.99 169.32 156.16 169.15 156.09 169.19" fill="#af5341"/>
          <polygon points="157.31 167.83 157.34 167.81 157.25 167.86 157.31 167.83" fill="#af5341"/>
          <path d="M156.3,167l-.22.23S156.38,166.91,156.3,167Z" fill="#af5341"/>
          <path d="M155.67,166.8c.1-.12.16-.2.05-.1S155.64,166.82,155.67,166.8Z" fill="#af5341"/>
          <polygon points="154.81 165.24 154.89 165.17 154.81 165.22 154.81 165.24" fill="#af5341"/>
        </g>
      </g>
    </g>
  </g>
</svg>
