<?xml version="1.0" encoding="UTF-8"?><svg xmlns="http://www.w3.org/2000/svg" viewBox="0 0 12.75 9.85"><g id="a"/><g id="b"><g id="c"><path d="M11.79,1.58c.52,0,.95,.41,.95,.95,0,.5-.43,.94-.95,.94H7.71l.11,.23h1.85c.52,0,.95,.43,.95,.94,0,.54-.43,.95-.95,.95h-1.58v.22h.76c.54,0,.95,.43,.95,.95s-.41,.94-.95,.94h-1.03l-.11,.23h.74c.5,0,.94,.43,.94,.94,0,.54-.43,.97-.94,.97H3.37c-2.14,0-3.37-1.42-3.37-4.14C0,3.37,1.01,2.27,2.5,1.6L5.83,.11c.16-.07,.34-.11,.5-.11,.54,0,.97,.43,.97,.94v.65h4.48Z"/></g></g></svg>