<?xml version="1.0" encoding="UTF-8"?><svg xmlns="http://www.w3.org/2000/svg" viewBox="0 0 13.86 13.2"><g id="a"/><g id="b"><g id="c"><path d="M10.37,4.93h1.42c.52,0,.95,.41,.95,.95,0,.5-.43,.94-.95,.94H7.71l.11,.23h.85c.52,0,.95,.43,.95,.94,0,.54-.43,.95-.95,.95h-.58v.22h.58c.54,0,.95,.43,.95,.95s-.41,.94-.95,.94h-.85l-.11,.23h.97c.5,0,.94,.43,.94,.94,0,.54-.43,.97-.94,.97H3.37c-2.14,0-3.37-1.42-3.37-4.14,0-2.34,1.01-3.44,2.5-4.11l3.33-1.49c.16-.07,.34-.11,.5-.11,.54,0,.97,.43,.97,.94v.65h2.45v-.99c-.83-.13-1.31-.68-1.31-1.66v-.23l-1.51,.76c-.07,.04-.14,.05-.22,.05-.2,0-.32-.13-.34-.27l-.09-1.78c0-.14,.11-.32,.32-.32,.07,0,.14,.02,.2,.04l1.89,.74c.29-.43,.77-.67,1.4-.67,.45,0,.83,.11,1.12,.34,0-.61,.38-.94,.94-.94,.43,0,.72,.2,.85,.5l.76,.32c.09,.04,.11,.11,.11,.14,0,.05-.02,.13-.11,.16l-.76,.31c-.13,.32-.41,.49-.85,.49-.16,0-.29-.04-.43-.09,.04,.14,.04,.31,.04,.45,0,.99-.5,1.58-1.39,1.66v.99ZM12.28,.45c-.14,0-.25,.09-.25,.25s.11,.25,.25,.25,.25-.09,.25-.25-.11-.25-.25-.25Z"/></g></g></svg>