<svg xmlns="http://www.w3.org/2000/svg" viewBox="0 0 83.48 87.49">
  <g id="Layer_2" data-name="Layer 2">
    <g id="Layer_7" data-name="Layer 7">
      <polygon points="8.5 10 0 13.5 8.5 25.61 8.5 57.11 66.5 66 83.48 38 35.49 33.48 32 0.5 12.61 0 8.5 10" fill="#65c6c8"/>
      <g>
        <path d="M22.48,9.9a1.61,1.61,0,0,0,0-.24V9.9Z" fill="#af5341"/>
        <path d="M22.43,9.29c0,.16,0,.44,0,.74,0-.32,0-.18,0-.56,0,0,0,.1,0,.23,0-.09,0,.07,0-.14s0-.27,0-.05Z" fill="#af5341"/>
        <path d="M21.74,8.76v0Z" fill="#af5341"/>
        <path d="M21.34,8.55a.56.56,0,0,0,0-.07S21.34,8.52,21.34,8.55Z" fill="#af5341"/>
        <path d="M21.31,8.18v0Z" fill="#af5341"/>
        <path d="M21.74,8.76V8.65A.29.29,0,0,0,21.74,8.76Z" fill="#af5341"/>
        <path d="M22.33,10.08v0Z" fill="#af5341"/>
        <path d="M21.94,8.49h0v0Z" fill="#af5341"/>
        <path d="M22.08,8.45s0,.27,0,.39V8.45Z" fill="#af5341"/>
        <path d="M22.3,8.94v0Z" fill="#af5341"/>
        <path d="M21.84,8.43v0Z" fill="#af5341"/>
        <path d="M17.68,10.3v0Z" fill="#af5341"/>
        <polygon points="17.48 8.91 17.48 8.9 17.48 8.74 17.48 8.91" fill="#af5341"/>
        <path d="M21.23,7.81h0S21.23,7.79,21.23,7.81Z" fill="#af5341"/>
        <path d="M19.93,7.81c0,.25-.05.32-.06.6A4.86,4.86,0,0,0,19.93,7.81Z" fill="#af5341"/>
        <path d="M22.33,10.05h0Z" fill="#af5341"/>
        <path d="M19.87,8.41h0v0Z" fill="#af5341"/>
        <path d="M20.94,7.94v0Z" fill="#af5341"/>
        <path d="M21.09,8.36v0Z" fill="#af5341"/>
        <path d="M20.77,8.31s0-.06,0,0v0S20.78,8.27,20.77,8.31Z" fill="#af5341"/>
        <path d="M20.66,8.29v0Z" fill="#af5341"/>
        <path d="M18.09,10.15l0-.25C18.08,10.1,18.07,10.17,18.09,10.15Z" fill="#af5341"/>
        <path d="M22.33,9.93v0Z" fill="#af5341"/>
        <path d="M20.39,10.49l0,0S20.38,10.49,20.39,10.49Z" fill="#af5341"/>
        <path d="M19,10.08v0Z" fill="#af5341"/>
        <path d="M20.29,10.48l0-.2,0,.08Z" fill="#af5341"/>
        <path d="M18.07,9.9Z" fill="#af5341"/>
        <path d="M18,10.57s0-.36,0-.57,0,.27,0,.46c0-.1,0-.44,0-.43v.16c0-.29,0,0,.05-.38V9.9l0-.51s0-.23,0,0v.06a2.65,2.65,0,0,1,0,.38c0-.12,0-.4,0-.31a2.93,2.93,0,0,0,0,.42l0-.13c0,.54,0,0,0,.54,0,.09,0-.18.05-.08V9.81c0-.34.06.85.08.4,0-.23,0-.65,0-.43v.39s0-.56,0-.3,0,.13,0,.17c0,.31,0-.21,0-.21v.33c0-.05.05-.3.08-.36,0,.1,0,.21,0,.31,0-.17.09,0,.13.24v-.29s0,.13,0,.18,0-.18,0-.3a1.11,1.11,0,0,1,0,.26c0-.25.05-.54.09-.23v.09c0,.12,0-.6,0-.33v0c.05.13.09-.14.14.3,0-.42,0,.19,0-.4a5.34,5.34,0,0,0,.07.59s0-.37,0-.43v0l0,.37v-.08a1.06,1.06,0,0,1,0-.23c0-.14.05.21.05.37l0-.26c0,.12,0,.17,0,.25,0-.32,0,.32,0,0V10c0,.18,0,.18.05.11v.21c0,.05.06-.1.09-.1a3.86,3.86,0,0,1,0-.5v.32c0-.2,0-.12,0-.37a2.54,2.54,0,0,1,0,.48l0-.11v.27c0-.2,0,.33,0,0v.09s.05-.11.07-.12c0-.28,0-.22,0-.45,0,.09,0,.31.06.29s0-.24,0-.4c0,.25,0,.23,0,.41a.9.9,0,0,0,.08-.25V9.66s0,.11,0,.23v0c.06-.39,0,.75.1.22v0l0-.27s0,.19,0,.35c.07-.43,0,.06.1-.22-.06.75.07,0,0,.44l0-.18c0-.17,0,.1,0,.14l0-.25c.09-.21.08.27.09.44s.18-.91.12-.48l-.07.32c.11-.38.08,0,.22-.29a.72.72,0,0,1-.05.17c0,.24.05,0,.09-.17,0,0,0,.18-.05.27s.09-.29.06,0a.94.94,0,0,1,0,.09c0-.11,0,0,.08-.24,0,.14.07-.11.06,0,.06-.3,0,.16.09-.27-.08.44,0,.37,0,.16,0,.13,0,.14-.05.33,0,0,.05-.09.08-.32-.06.54.14-.42,0,.27a3.6,3.6,0,0,1,.22-.49c-.07.45-.06,0-.12.51.07-.18.15-.56.17-.44a1.57,1.57,0,0,1-.05.27c.07-.18.08,0,.15-.19l0,.12s0,.07,0-.14v.06c0-.3.1-.62.12-.77-.08.58,0,.15-.09.88A1.41,1.41,0,0,0,21,10a.88.88,0,0,1,0,.28c0-.11.06-.33.08-.32l0,.25c0-.19.06-.38.07-.29S21,10,21,10s.12-.51.13-.32c0,.43,0,.15,0,.52l0-.11V10s.06-.26.06-.14l0,.15,0-.07V9.75c0-.19,0-.47.05-.36s0,0,0,.22h0c0-.11,0-.24,0-.14s0,.41,0,.49c0-.31,0-.09.09-.42l0,.32,0-.26c0,.08,0,.12,0,.28s0-.47,0-.27l0,.1c0,.11.07-.16.09,0,0,.37,0,.09,0,.41,0-.07.11-.45.14-.36v0c0-.53,0,.26,0,0l0,.24c0,.09.06-.13.11-.29v.13c0,.12,0,.07.05.14,0-.14,0-.12,0-.31,0,.77.1-.42.12.23V10l0-.12V9.52a1.05,1.05,0,0,1,0-.25,4.29,4.29,0,0,0,0,.5V9.55c0,.41,0-.46,0-.18v.12c0-.07,0-.23,0-.19a3,3,0,0,1,0,.34s0-.5.05-.24l0,.15c0,.32,0,.24,0,.29h0L22,10V9.89c0-.7,0-.13.07-.58a3.54,3.54,0,0,0,0,.55c0,.08,0,.18,0,.26,0-.24,0,.2,0-.16a1.11,1.11,0,0,1,0,.25,1.38,1.38,0,0,0,0-.29c0-.33.05.41.09-.05,0-.19,0-.52.07-.68,0,.15,0,.35,0,.35,0,.15,0,.12,0,0v.27s0-.36,0-.22V10l0-.36a3.57,3.57,0,0,1,0,.37,1.76,1.76,0,0,0,.05-.43v.19c0,.21,0-.1,0-.19V9.51c0-.57,0,.09-.06.06V9.16l0,.34c0-.11,0-.34,0-.4s0,.15,0-.08v.05c0-.09,0-.3,0-.24,0-.24,0,.32-.05,0v0c0,.14,0,.3,0,.66V9s0,0,0-.16c0,.21,0,.14,0,.33,0-.27-.05.13,0-.35a3.13,3.13,0,0,1,0,.34c0-.53,0,.09,0-.15a2.38,2.38,0,0,0,0-.37c0,.46,0-.1,0,0,0,.36,0,.15,0,.27,0-.12,0-.2-.05-.34V8.52c0,.37,0,.3-.05.38,0-.22,0-.31,0-.41h0c0,.12,0,.18,0,.23V8.44s0,.32-.06.14c0,.25,0,.71,0,.88,0-.14,0-.37,0-.43s0,.12,0,.06l0-.24c0-.1,0,.2,0,.18v-.3s0,.08,0,0a2,2,0,0,1,0-.3,1.65,1.65,0,0,1,0,.29,1.82,1.82,0,0,1,0-.34,1.57,1.57,0,0,0,0,.29V8.45a1.17,1.17,0,0,0,0,.35v0h0c-.05.3-.06-.16-.09,0v-.1a1.78,1.78,0,0,0-.07.28s0-.18,0-.3c0,.07,0,.18,0,0s0-.15,0-.13,0-.24,0,0c0-.25,0-.32,0-.25v.19s0,0,0,0l0-.33c0-.41-.11.68-.08,0,0,.23,0,.16,0,.44,0-.05,0-.53,0-.53,0-.18-.06.48-.07.36a5,5,0,0,1-.06.54,3.13,3.13,0,0,1,0-.59s0,0,0,.07a1.64,1.64,0,0,0,0-.22l0,.11c0-.12,0-.11,0-.3a.79.79,0,0,0,0,.25c0-.17,0,0,0-.12a1.8,1.8,0,0,1,0,.2c0-.15,0,.23-.06.27,0-.18.05-.42,0-.28a2.3,2.3,0,0,1,.05-.4c0,.22,0-.16,0-.2l0-.09,0,0,0,.23a1,1,0,0,1,0-.14l-.08.61c0-.12,0,.12,0-.19,0,.11,0-.32.06-.36s0,0,0,0V7.81c0-.29-.05.35-.07.34a1.37,1.37,0,0,0,0-.3,3.75,3.75,0,0,1-.05.43c0-.14,0,.1,0,.08v.07a.41.41,0,0,1-.05.2c0-.13,0-.09,0-.15-.05.31,0-.32,0-.12,0-.12,0-.33.05-.41-.05.23,0-.24,0-.06A2.7,2.7,0,0,1,21,8.3l.06-.16L21,8.48s0-.15,0-.11c0,.2,0,.14-.05.33,0-.35,0,.21,0,0L21,8.08c0-.26-.08.29-.09.14v.11c0,.23,0,0-.05.12l.06-.39a1.81,1.81,0,0,0-.09.37l0-.26c0-.11-.12.55-.13.48a4,4,0,0,1,.1-.5s0,0,0,.1c0-.12-.06.26,0,.07a1.65,1.65,0,0,1-.06.27l0-.09a2.26,2.26,0,0,0-.07.34c.09-.61-.08,0,0-.49a.42.42,0,0,1-.08.13c0-.06,0-.1,0-.08,0-.18-.13.56-.11.35s.05-.17.06-.29c.13-.63-.05.09,0-.29l0,0c0-.22-.08.24-.09.19l0-.1a2.26,2.26,0,0,1-.18.51,2.57,2.57,0,0,0,.08-.38s-.08.4-.11.47c0-.14,0-.26.08-.53h0c.06-.35,0,0,0-.06l0-.15s-.11.43-.14.4l0,.11c-.08.38,0-.22,0,.07l.06-.39c0,.09-.11.37-.14.44.06-.29.11-.44.15-.6,0,0-.05,0-.08.21,0,0,0-.13,0-.07-.06.3-.1.45-.12.44.11-.76,0-.2,0-.79C20,8.17,20,7.76,20,7.8c0,.59,0,0-.07.62,0,0,0,0,0,0V8c0-.18,0-.13,0-.27a2.07,2.07,0,0,1,0-.42c0,.22,0,.31-.05.23v.28c-.07.32,0-.51-.06-.2l0-.19c0,.11-.08,0-.13.48a2.16,2.16,0,0,1,0-.28c0-.08-.13.52-.15.21V7.73s0,.28,0,.13,0-.15,0-.15,0,.26-.05.17l0-.17c0-.2-.08.41-.12.51a3.35,3.35,0,0,0,0-.66V7.5c-.05,0-.1.36-.14.54,0-.48-.09-.2-.14-.47a2.28,2.28,0,0,1,0,.38c0-.08,0,.31,0-.09h0c0-.39,0-.29,0-.3v.53c-.05-.77-.11.29-.14-.4l0,.26V7.67c0-.07,0-.11-.08,0v-.2s0,.81,0,.83V7.84s-.09-.36-.11,0v-.2s-.07-.28,0,.29c0-.37,0,0-.05.14V7.81c0,.35,0,.45,0,.55s0-.22,0-.15c0-.15,0,.26,0,.12V8.15s0,.07,0,.28,0-.07,0-.32c0,.15,0,.36,0,.29V8.21c0-.19,0,.33-.06.06V8.1s0,0,0,0c0-.26,0-.3,0-.66,0,.2,0,.62,0,.5V7.86s0,0,0,0l0-.07c0-.21,0-.12,0-.13,0,.28,0,.24,0,.47,0,0,0,0,0,0v0l0,0c0,.14,0,.27,0,.11,0,.18,0,.37,0,.45,0-.39-.05-.6-.08-.84a1.93,1.93,0,0,0-.05.64c0,.06,0-.16,0-.24a.47.47,0,0,0,0-.12,1.37,1.37,0,0,0,0,.42c0-.16,0-.34,0-.28V8.13c-.07-.59-.05.95-.13.19v.13c-.08-.33-.13.32-.21-.21,0-.1,0,.13,0,.31v0c0,.25-.06-.74-.09-.26v.2s0,.12,0-.11c0,0,0,.21,0,.11V8.38l0,.27c0-.12,0-.63,0-.66s0,.46,0,.57a.72.72,0,0,1,0,.25l0,.09a12.15,12.15,0,0,0,0,1.26l0-.28v.22l0,0c0,.21,0,0,0-.11v.25l0-.44c0,.18,0,.36,0,.46,0-.21,0-.41,0-.54,0,.21,0,.38,0,.2a1,1,0,0,1,0,.25,1.56,1.56,0,0,0,0-.31c0,.26,0-.07.05.37a2.8,2.8,0,0,1,0-.36c0,.52,0,0,.05.59,0-.47,0-.21.06-.47v.09s0,.18,0,.27c0-.39,0-.48,0-.73,0,.38,0,.46,0,.83,0-.32,0-.32,0-.59,0,.24,0,.12,0,.44a2.77,2.77,0,0,1,0-.38c0,.24,0,.46,0,.31A2,2,0,0,1,18,10.57Zm.43-.86h0v0Zm0,0h0c0-.1,0-.2,0-.19S18.42,9.62,18.42,9.7Zm-.16-1.94s0,0,0,.07,0,0,0,0v-.1Z" fill="#af5341"/>
        <path d="M18.27,8.13v0Z" fill="#af5341"/>
        <path d="M21.75,8.8h0v0Z" fill="#af5341"/>
        <polygon points="18.94 10.22 18.94 10.15 18.94 10.21 18.94 10.22" fill="#af5341"/>
        <path d="M21.92,9.77v0Z" fill="#af5341"/>
        <path d="M22,9.84v0Z" fill="#af5341"/>
        <path d="M22.08,10V9.86h0Z" fill="#af5341"/>
        <path d="M20.86,10.23h0S20.85,10.27,20.86,10.23Z" fill="#af5341"/>
        <path d="M21.28,9.61l0,.14S21.27,9.77,21.28,9.61Z" fill="#af5341"/>
        <polygon points="20.39 10.5 20.39 10.49 20.39 10.49 20.39 10.5" fill="#af5341"/>
        <path d="M21.25,9.74c0,.06,0,0,0,0S21.25,9.7,21.25,9.74Z" fill="#af5341"/>
        <path d="M22.39,10.11h0v0Z" fill="#af5341"/>
        <path d="M22.4,10.08v0Z" fill="#af5341"/>
        <path d="M22.41,10V10S22.41,10.05,22.41,10Z" fill="#af5341"/>
        <path d="M22.3,10v0Z" fill="#af5341"/>
        <path d="M22.27,10s0,.22,0,.15v-.08C22.29,10.23,22.28,9.84,22.27,10Z" fill="#af5341"/>
        <path d="M22.17,8.75l0,.08a2.46,2.46,0,0,1,0-.28C22.17,8.22,22.2,8.79,22.17,8.75Z" fill="#af5341"/>
        <path d="M22.1,8.59a1.61,1.61,0,0,0,0-.22A.81.81,0,0,0,22.1,8.59Z" fill="#af5341"/>
        <path d="M21.6,8.57l0-.26A2.17,2.17,0,0,0,21.6,8.57Z" fill="#af5341"/>
        <polygon points="21.41 9.88 21.41 10.04 21.43 9.81 21.41 9.88" fill="#af5341"/>
        <polygon points="21.49 8.06 21.5 8.02 21.48 8.12 21.49 8.06" fill="#af5341"/>
        <path d="M20.72,8.05l0,.31S20.75,8,20.72,8.05Z" fill="#af5341"/>
        <path d="M20.28,8.29c0-.15,0-.26,0-.11S20.27,8.33,20.28,8.29Z" fill="#af5341"/>
        <polygon points="19 7.69 19.01 7.59 19 7.68 19 7.69" fill="#af5341"/>
      </g>
      <g>
        <g>
          <path d="M51,87.48v0l0,0Z" fill="#af5341"/>
          <path d="M51,87.15c0-.06-.06-.12-.09-.09s0,.08.07.14,0,.08,0,.08,0,.07,0,.1a.91.91,0,0,0,0-.23S51,87.15,51,87.15Z" fill="#af5341"/>
          <path d="M51.46,82.33l0,0S51.46,82.34,51.46,82.33Z" fill="#af5341"/>
          <path d="M51.65,79.35s0,0,.07,0S51.67,79.34,51.65,79.35Z" fill="#af5341"/>
          <path d="M52,78.84l0,0S52,78.84,52,78.84Z" fill="#af5341"/>
          <path d="M51.46,82.33l.11-.08C51.46,82.25,51.49,82.29,51.46,82.33Z" fill="#af5341"/>
          <path d="M50.77,86.49s0,0,0,0l0,0Z" fill="#af5341"/>
          <path d="M51.66,83.65v0l.12,0Z" fill="#af5341"/>
          <path d="M51.53,84.66s-.18,0-.26,0a.2.2,0,0,1,.13,0Z" fill="#af5341"/>
          <path d="M51.09,86.26v0Z" fill="#af5341"/>
          <path d="M51.81,82.93h0Z" fill="#af5341"/>
          <path d="M50.58,54.67h0S50.58,54.66,50.58,54.67Z" fill="#af5341"/>
          <polygon points="51 53.5 51 53.52 51 53.52 51 53.5" fill="#af5341"/>
          <path d="M52.37,77.9h0S52.39,77.92,52.37,77.9Z" fill="#af5341"/>
          <path d="M52.16,69.34c-.25.1-.32-.16-.6,0C51.67,69.31,52,69.46,52.16,69.34Z" fill="#af5341"/>
          <path d="M50.78,86.46v0S50.77,86.45,50.78,86.46Z" fill="#af5341"/>
          <path d="M51.56,69.33Z" fill="#af5341"/>
          <path d="M52.2,75.75l-.12,0Z" fill="#af5341"/>
          <path d="M51.8,77.36l0,0S51.8,77.34,51.8,77.36Z" fill="#af5341"/>
          <path d="M51.8,74.92s.06,0,0-.06h0S51.85,74.9,51.8,74.92Z" fill="#af5341"/>
          <path d="M51.8,74.06h0v0Z" fill="#af5341"/>
          <path d="M49.92,57.3l.24,0C50,57.27,49.94,57.15,49.92,57.3Z" fill="#af5341"/>
          <path d="M50.82,86.49l0,0v0Z" fill="#af5341"/>
          <path d="M49.59,74.89l0-.14A.23.23,0,0,0,49.59,74.89Z" fill="#af5341"/>
          <path d="M49.86,63.51l0,0S49.82,63.5,49.86,63.51Z" fill="#af5341"/>
          <path d="M49.59,74.34a.43.43,0,0,0,.19-.08h-.07Z" fill="#af5341"/>
          <path d="M50.16,57.26Z" fill="#af5341"/>
          <path d="M49.89,56.36c-.06.13.23.06.37.08s-.21.08-.37.13c0,.1.29.17.26.25s-.07,0-.13,0c.21.1-.08.31.23.43h-.09a3.94,3.94,0,0,1,.46,0c0,.06.21.11,0,.13,0,0-.08,0-.15,0l.09.06c-.33,0-.1-.08-.33-.08.07.12.34.26.23.35-.34,0-.08-.22-.39-.1l.15-.14c-.53.11.06-.08-.51,0-.15.18.1.21,0,.39.19,0,.29,0,.47,0,.34.27-.87.21-.39.4.23.06.67.07.44.21l-.38,0c0,.18.55.1.29.29-.15,0-.13-.14-.17-.12-.31.13.22.09.22.19l-.34,0c.05.19.29.4.36.62a.47.47,0,0,0-.31,0c.17.27-.05.57-.25.83l.3.1a.28.28,0,0,1-.19,0c-.12.1.18,0,.3.05s-.17.08-.26,0c.25.18.54.51.22.7l-.08,0c-.12.15.6.17.32.31l-.05,0c-.13.32.14.67-.3.91.42,0-.19.32.4.34-.29.18-.4.13-.59.39,0,.06.36.1.43.18h-.31l.32.12-.37.06.08.08a.33.33,0,0,1,.23-.06c.14.12-.22.3-.37.3l.26.29a.44.44,0,0,1-.25-.09c.32.16-.32,0,0,.17a.63.63,0,0,1,.24,0,.22.22,0,0,0-.11.35l-.21,0c0,.21.1.46.1.7a.55.55,0,0,1,.5,0l-.33,0c.21,0,.13-.07.37,0,0,.09-.37.06-.47,0l.11.11c-.1,0-.15,0-.27,0,.2,0-.33.19,0,.25h-.09c0,.24.1.35.12.55.28,0,.22.08.45.14-.09.15-.31.31-.29.49s.24,0,.41.09c-.26,0-.24.18-.42.09a.94.94,0,0,0,.26.54.55.55,0,0,1,.24,0s-.11.11-.23.11h0c.38.29-.75.69-.21.93l0,0,.28.25c0,.11-.19-.07-.35,0,.42.26-.06.42.22.64-.76.17.05.6-.43.83h.18c.17.06-.1.07-.14.11.13,0,.16-.06.25,0,.22.5-.26,1-.42,1.55-.05.19.92.11.5.35l-.33-.07c.39.38,0,.78.32,1.15-.08,0-.18,0-.17-.06-.24.08,0,.29.18.29,0,.06-.18,0-.28,0s.31.2.07.24a.12.12,0,0,1-.1,0c.12.06,0,.24.25.19-.13.14.13.27,0,.38.31.08-.15.24.29.27-.45,0-.36.24-.15.33-.14,0-.14.08-.33,0,0,.1.09.2.32.18-.54.18.44.37-.26.48a3.43,3.43,0,0,1,.52.84c-.46,0-.05-.29-.52-.28.18.25.57.4.46.65-.06.07-.19,0-.27-.06.18.26,0,.5.2.73a.26.26,0,0,1-.12,0s-.07.1.14.1l-.06,0c.3-.07.63.18.78.19-.59-.08-.15.22-.89.1a.44.44,0,0,0,.28.06s-.12.06-.28,0c.11.16.33.1.32.24s-.13,0-.25,0c.19.07.39.15.3.27s-.13,0-.13,0c0,.21.51.36.33.59-.44-.07-.15.08-.52.09l.11.13.18,0c0,.11.27.2.15.3l-.16-.08.07.2.14-.12c.2.11.48,0,.37.14,0,0,0,.11-.22.16h0c.12.06.24.11.15.19s-.41,0-.49,0c.31,0,.08.26.42.32a1.18,1.18,0,0,0-.32,0l.25,0a.36.36,0,0,1-.27,0c0,.15.47,0,.27.13,0,0-.06,0-.1,0-.11.18.16.35,0,.51-.38,0-.1-.14-.41-.09.07.24.45.5.36.73l0,0c.53,0-.26.17,0,.29a.65.65,0,0,0-.24,0c-.08.16.13.33.3.57l-.14,0c-.12.09-.07.24-.13.35.14,0,.12.08.31,0-.79.31.4.59-.19.87,0,0-.13-.08-.12,0l.15.23c.21,0,.12,0,.28-.08s.23.1.23.16c-.14-.11-.33,0-.44.05a1.21,1.21,0,0,1,.19,0c-.34.12.41,0,.18.19h-.11c.06.06.19.12.16.19-.21,0-.1-.07-.28-.07,0,.09.41.19.21.27s-.06-.1-.12-.14c-.24.1-.17.11-.2.18h0l-.07.16.05,0c.5.12.12.24.42.4-.28-.15-.16,0-.35,0s-.09.1-.15.08c.16.08-.08.13.14.24-.05,0,0,.08-.12.06.06.1.08,0,.15,0s-.13.35.11.57.23.23.28.4-.12,0-.12,0a.3.3,0,0,0,0,.26s0,0-.07,0,.1.05.07.14l-.1-.07c0,.09.09.17.12.26s-.06-.06-.09-.09A2,2,0,0,0,51,87v-.06s0,0,0,0,0-.12,0-.13v.06c.1-.06,0-.25,0-.37l.11,0a1.13,1.13,0,0,0-.1-.13s.1-.05.12,0c.06-.1,0-.09,0-.16s0,0,0,0l0-.09s.1,0,.07,0c.11-.16-.09-.25,0-.31h0c0-.22-.12,0-.27-.19l.34-.11-.14,0s0-.07.08-.06c-.1-.08-.07,0-.16,0,.14-.11-.07-.31.2-.33-.13,0-.1.1-.19,0,.3,0-.05-.14.1-.24s.06.13.22,0c-.28-.06.09-.2,0-.28-.25,0-.09-.18-.17-.33.09,0,.18-.26.31-.39h.05c-.3,0-.24-.16-.29-.26a.51.51,0,0,1,.35.08v-.1a.26.26,0,0,1-.19-.11l.25,0c0-.12-.27-.24-.07-.4-.26,0-.72.12-.89,0a1,1,0,0,1,.44,0s-.12,0-.06-.08l.24.06c.1-.07-.2,0-.18-.09.2,0,.15,0,.31,0s-.09,0,0,.08a.44.44,0,0,1,.31-.17c-.11,0-.27,0-.3-.05s.24,0,.34-.12c-.14,0,0-.11-.3-.11,0,0,.14,0,.22-.05-.13-.07,0-.3-.35-.23l0,0,0,0h0c-.29-.21.17-.43,0-.64h.09c-.11-.12-.06-.28-.28-.36,0,0,.19-.09.3-.08-.07-.09-.18-.1,0-.24.17.1.15,0,.13.1.08-.12.24-.15,0-.28.25,0,.32-.1.24-.16l-.18.09a.23.23,0,0,1,0-.18l.33,0c.41-.25-.69-.45,0-.65-.23-.06-.16.14-.44.08,0-.12.53-.24.53-.27.18-.16-.49-.15-.36-.32-.12,0-.44,0-.55-.08s.5-.14.59-.07,0,0-.06,0a.17.17,0,0,0,.22,0h-.12c.12-.06.11-.22.3-.18a.16.16,0,0,0-.25,0c.17-.15,0-.23.12-.38-.07,0-.21,0-.21,0,.15-.23-.22-.1-.27-.25.18-.09.43,0,.28-.13.12-.09.31,0,.41,0-.23-.14.15-.26.19-.34l.1.07a.11.11,0,0,1-.06-.11l-.24,0c.05,0,.05-.08.15-.08-.16,0-.4,0-.61,0,.12-.06-.13-.18.18-.2-.1.18.32,0,.37.13,0,0,0-.06,0-.1a.11.11,0,0,1,.08,0c.28-.17-.36-.08-.35-.26.18,0,.34,0,.3-.07s-.3,0-.43,0c.14-.11-.1-.12-.09-.18l-.06.06c-.18,0-.16-.08-.21-.16.13,0,.09.08.15,0-.31-.09.33-.2.11-.33.13-.06.34,0,.42-.06-.23-.13.24-.15,0-.29-.24,0-.18.05-.41-.06l.17.24-.35-.15c0,.07.15.15.11.2s-.13-.07-.33,0c.36-.1-.21-.2,0-.32h.59c.26-.18-.3-.31-.15-.54l-.11.08c-.23,0,0-.14-.12-.21a1.24,1.24,0,0,0,.39-.07c-.15,0,0-.17-.38-.19l.26-.1c.1-.18-.57-.21-.5-.38.22,0,.36,0,.51.09,0-.06,0-.11-.1-.11.12,0-.26-.16-.08-.22-.08,0-.29,0-.27-.1h.09c-.09,0-.13-.11-.35,0,.62-.18,0-.5.49-.66a1.36,1.36,0,0,1-.15-.39c.06,0,.1,0,.08,0,.18-.16-.57-.1-.36-.28s.17.1.29,0c.65,0-.09-.22.29-.34l0,0c.22-.09-.25-.23-.2-.38a.31.31,0,0,0,.1,0,.85.85,0,0,1-.53-.45c.25.05.13.07.39,0,0-.06-.42,0-.49-.11a1.55,1.55,0,0,1,.54-.15v.12c.36-.06,0-.16.05-.22H52c0-.19-.44-.2-.42-.4l-.11,0c-.39-.11.21-.09-.08-.2l.4,0A2,2,0,0,1,51.3,71a1.87,1.87,0,0,1,.62.32A.29.29,0,0,0,51.7,71s.13.07.07.1c-.31-.09-.46-.21-.46-.35.77,0,.2-.38.79-.48-.28-.26.12-.51.08-.81-.6.1,0-.09-.63-.07,0-.07,0-.1,0-.1l.36-.21c.18-.05.14.06.28.06,0-.16.26-.07.42-.17-.22,0-.32-.05-.23-.14l-.28.12c-.33-.21.51-.18.19-.4l.19.07c-.11-.11,0-.4-.49-.51.07,0,.24-.05.28,0,.08-.26-.52-.58-.22-.79l.15,0s-.28-.08-.13-.15.15,0,.16,0S52,67.1,52.07,67l.16,0c.2-.25-.41-.39-.51-.61a.71.71,0,0,0,.66-.3h.06c.05-.29-.37-.5-.54-.78.48-.17.2-.58.47-.86a.63.63,0,0,1-.39-.05c.09-.07-.3-.18.1-.17v0c.4,0,.29-.18.3-.29h-.52c.76-.28-.29-.72.4-.86-.13-.07-.13-.15-.26-.22h.28a.61.61,0,0,0,0-.5l.21.05c0-.13-.82-.16-.84-.28l.42,0c0-.22.37-.44,0-.66.06,0,.18,0,.2.05,0-.11.28-.41-.3-.37.38,0,0-.23-.13-.35l.28,0c-.35-.1-.45-.1-.55-.24s.22,0,.15,0c.15-.11-.26-.08-.11-.22l.17.05c0-.11-.07-.1-.28-.17s.07-.21.33-.23c-.16,0-.36-.08-.29-.15a.36.36,0,0,1,.18,0c.19-.19-.32-.28-.05-.42a.54.54,0,0,0,.17,0c0,.15,0,.28,0,.27.25,0,.3-.13.65,0-.19-.1-.61-.27-.49-.39h.12s0-.05-.05-.08.08-.06.08-.09c.21,0,.12-.15.13-.21-.28,0-.24-.07-.47,0,0,0,0,0,0,.06l0,0h0s0,.09,0,.15c-.15,0-.27-.1-.11-.17L51.3,59c.39-.09.6-.25.84-.27-.16-.19-.09-.44-.62-.56-.07,0,.16-.06.24-.08s0,.07.12.08c-.12-.1-.05-.31-.43-.34.16-.13.36.08.28-.1l.11,0c.27-.18,0-.33-.23-.48s-.37-.31-.1-.51a.16.16,0,0,1-.09,0,1.06,1.06,0,0,0-.06-.7,1.05,1.05,0,0,1,0-.7c0-.12-.08-.14-.16-.22l.12,0L51.15,55c-.09-.19.21-.33,0-.57l-.05,0c0-.08-.06-.27,0-.26a0,0,0,0,1,0-.06h0a1.72,1.72,0,0,1-.07-.21c0-.17.08,0,0-.22A2,2,0,0,1,51,53.5s0,.1,0,.1v-.08s0-.08,0,.12c0,0,0,.09,0,.14l0,0,0-.11a.23.23,0,0,0,0,.15s0,0,0,.06a.68.68,0,0,0,0,.14s0-.06-.08,0,.08-.06.08,0-.08,0-.07.13,0,0,0,0,0,.19,0,.22c-.09.07,0,.24-.17.23a.3.3,0,0,1,.07.19c-.16-.12-.06.24-.28.21.17.08,0,.31.08.46,0,0,0,0,0,0s-.13.12-.19.17c.2,0,.22.15.36.22-.25.1-.26-.07-.48,0,.19,0,.14.18.31.15a.63.63,0,0,1-.3.11c.31,0,0,.07.21.14-.19.12-.32,0-.25.16A.17.17,0,0,1,49.89,56.36Zm.36,3.06h0l0-.07Zm0,.25a.37.37,0,0,0,0-.11c.09,0,.19,0,.19,0S50.34,59.63,50.26,59.67Zm1.94-.54s0,0-.07.06a.13.13,0,0,0,0-.07h0Z" fill="#af5341"/>
          <path d="M51.83,59.06s0,0,0,0l-.06,0,.09,0Z" fill="#af5341"/>
          <path d="M51.42,82.37h0Z" fill="#af5341"/>
          <polygon points="49.72 63.22 49.79 63.22 49.73 63.2 49.72 63.22" fill="#af5341"/>
          <path d="M50.52,83.79h0Z" fill="#af5341"/>
          <path d="M50.55,84.4l-.06.08A.33.33,0,0,0,50.55,84.4Z" fill="#af5341"/>
          <path d="M50.53,84.87h0Z" fill="#af5341"/>
          <path d="M49.92,77.39s0,0,0,0S49.87,77.36,49.92,77.39Z" fill="#af5341"/>
          <path d="M50.58,79.61l-.14-.07S50.42,79.61,50.58,79.61Z" fill="#af5341"/>
          <polygon points="49.58 74.9 49.59 74.9 49.59 74.89 49.58 74.9" fill="#af5341"/>
          <path d="M50.45,79.44c-.06,0,0,.07,0,.1S50.49,79.47,50.45,79.44Z" fill="#af5341"/>
          <polygon points="50.87 86.91 50.87 86.93 50.88 86.93 50.87 86.91" fill="#af5341"/>
          <path d="M50.88,86.93v0A0,0,0,0,1,50.88,86.93Z" fill="#af5341"/>
          <path d="M50.91,87l0-.05S50.89,87,50.91,87Z" fill="#af5341"/>
          <path d="M50.77,86.28h0Z" fill="#af5341"/>
          <path d="M50.72,86.09s0,.12,0,.18h0C50.67,86.25,50.79,86.14,50.72,86.09Z" fill="#af5341"/>
          <path d="M51.26,85.3l-.06.16c.06,0,.14-.06.14,0C51.54,85.27,51.21,85.51,51.26,85.3Z" fill="#af5341"/>
          <path d="M51.41,84.81c0,.09.1,0,.14,0S51.48,84.75,51.41,84.81Z" fill="#af5341"/>
          <path d="M51.64,81.26h.26C51.86,81.2,51.8,81.27,51.64,81.26Z" fill="#af5341"/>
          <polygon points="50.32 80.58 50.16 80.64 50.4 80.67 50.32 80.58" fill="#af5341"/>
          <polygon points="52.14 80.18 52.18 80.21 52.09 80.1 52.14 80.18" fill="#af5341"/>
          <path d="M52.05,74.21l-.31,0S52.15,74.28,52.05,74.21Z" fill="#af5341"/>
          <path d="M51.73,71.63c.16,0,.26-.1.1-.14S51.69,71.6,51.73,71.63Z" fill="#af5341"/>
          <polygon points="52.24 63.91 52.35 63.96 52.26 63.86 52.24 63.91" fill="#af5341"/>
        </g>
        <g>
          <path d="M58.23,82.5h0Z" fill="#af5341"/>
          <path d="M58.1,82.41s-.09,0-.09,0l.1,0s0,0,0,0l0,0a.19.19,0,0,0-.1-.06S58.09,82.41,58.1,82.41Z" fill="#af5341"/>
          <path d="M56.43,80.61v0A.11.11,0,0,0,56.43,80.61Z" fill="#af5341"/>
          <path d="M55.34,79.59l0,0S55.35,79.57,55.34,79.59Z" fill="#af5341"/>
          <path d="M55.34,79.15v0S55.36,79.13,55.34,79.15Z" fill="#af5341"/>
          <path d="M56.43,80.61l0-.1C56.39,80.59,56.43,80.58,56.43,80.61Z" fill="#af5341"/>
          <path d="M57.7,82.39h0Z" fill="#af5341"/>
          <path d="M57.08,80.84h0l.07-.09Z" fill="#af5341"/>
          <path d="M57.41,81.24a1.56,1.56,0,0,0-.17.2.66.66,0,0,1,.09-.09Z" fill="#af5341"/>
          <path d="M57.79,82.07h0Z" fill="#af5341"/>
          <path d="M56.87,80.51l.06-.09Z" fill="#af5341"/>
          <path d="M45.71,82.43h0A0,0,0,0,1,45.71,82.43Z" fill="#af5341"/>
          <polygon points="45 82.5 45.01 82.49 45.01 82.49 45 82.5" fill="#af5341"/>
          <path d="M55.18,78.58h0S55.2,78.57,55.18,78.58Z" fill="#af5341"/>
          <path d="M50.82,75.66c.08.29-.06.56,0,.85A3.53,3.53,0,0,0,50.82,75.66Z" fill="#af5341"/>
          <path d="M57.69,82.38h0Z" fill="#af5341"/>
          <path d="M50.87,76.51h0v0Z" fill="#af5341"/>
          <path d="M54.22,78.09l-.07.1Z" fill="#af5341"/>
          <path d="M54.63,78.88v0S54.62,78.88,54.63,78.88Z" fill="#af5341"/>
          <path d="M53.65,78.17s0-.06,0,0l0,0S53.66,78.12,53.65,78.17Z" fill="#af5341"/>
          <path d="M53.3,77.91l0,0h0Z" fill="#af5341"/>
          <path d="M47.14,82.06,47,81.9C47.09,82,47.06,82.09,47.14,82.06Z" fill="#af5341"/>
          <path d="M57.72,82.36l0,0h0A0,0,0,0,0,57.72,82.36Z" fill="#af5341"/>
          <path d="M52.33,80l0-.08A.1.1,0,0,0,52.33,80Z" fill="#af5341"/>
          <path d="M49.5,80.07v0S49.52,80.1,49.5,80.07Z" fill="#af5341"/>
          <path d="M52.11,79.79a.76.76,0,0,0,.08-.18l0,0Z" fill="#af5341"/>
          <path d="M47,81.89h0Z" fill="#af5341"/>
          <path d="M46.8,82.4c.09,0-.13-.2-.21-.32s.17.14.29.24c0-.06-.12-.27-.08-.27a.43.43,0,0,1,.09.1c-.1-.2.16-.05,0-.31l.06,0-.31-.33s-.09-.2.06,0c0,0,0,.07.08.13l0-.09c.24.23,0,.1.19.28,0-.1-.12-.34,0-.29.23.25,0,.13.23.32L47,81.81c.39.37-.07,0,.34.38.17,0,0-.14.17-.1-.11-.16-.19-.21-.3-.37-.12-.34.65.59.41.16-.13-.19-.41-.52-.21-.4l.23.31c.1,0-.32-.45-.08-.32s0,.14.07.17c.25.19-.11-.19-.07-.22l.23.24c0-.1-.05-.35,0-.47a.91.91,0,0,0,.21.23c0-.21.24-.15.47-.09l-.16-.25s.11.08.14.13-.13-.14-.18-.24.14.1.18.18c-.1-.25-.16-.57.12-.4l0,.08c.13,0-.33-.5-.1-.34l0,0c.2,0,.16-.32.54-.07-.26-.33.24,0-.14-.41a2.11,2.11,0,0,0,.54.32s-.21-.31-.21-.39l.2.23-.17-.28.27.26,0-.08L49.34,80c-.05-.15.25.06.36.18l-.06-.3a.7.7,0,0,1,.12.22c-.14-.29.23.23.09,0-.05,0-.11-.14-.15-.19.15.12.21.06.2,0L50,80c.12,0,.11-.22.2-.3a1.12,1.12,0,0,1-.33-.38l.23.23c-.12-.16-.11-.06-.24-.28.06,0,.27.26.32.36l0-.13a2.11,2.11,0,0,1,.17.22c-.11-.17.29.18.08-.11l.07.08c.09-.08.06-.2.13-.28-.19-.21-.12-.19-.25-.38.12,0,.32.13.37,0s-.14-.19-.23-.33c.17.19.22.11.31.28,0-.1.1-.13,0-.35l-.14-.17s.08,0,.14.15l0,0c-.1-.19,0-.09.1,0s.09.2,0,0v0a2.33,2.33,0,0,1,0-.28s0,.19.09.32c-.06-.43,0,0,0-.28.05.78.07,0,.06.47l0-.18c0-.17,0,.11,0,.15,0-.14,0-.16,0-.25s.09,0,0,.15a4.54,4.54,0,0,1-.19.43c0,.1.58-.71.43-.3l-.22.25c.38-.21.3.24.65.08-.06,0-.11.13-.13.12-.11.22.11.09.23-.06,0,0-.1.14-.14.24s.26-.19.13,0l-.07.07c.09-.08.08.09.22-.15,0,.15.18,0,.13.15.21-.23,0,.19.28-.16-.27.36-.12.37,0,.22-.09.1,0,.14-.18.28.05,0,.13,0,.26-.21-.24.5.41-.24,0,.35a1.7,1.7,0,0,1,.64-.16c-.27.36-.15-.06-.42.33.21-.07.5-.34.54-.18s-.13.15-.19.2c.21-.07.18.18.41,0a.34.34,0,0,1-.09.08s0,.09.12-.08l0,0a3.38,3.38,0,0,1,.54-.57c-.38.45,0,.18-.49.75a.82.82,0,0,0,.19-.21.51.51,0,0,1-.16.23c.13,0,.24-.24.29-.19s-.09.1-.17.19c.15-.13.29-.27.29-.16s-.08.11-.09.1.45-.31.43-.09c-.28.32,0,.13-.26.44l.11,0,.09-.17s.24-.15.2,0l-.12.1h.12l0-.15c.16-.12.27-.38.27-.26s0,0-.07.23h0c.1-.08.19-.16.17-.06s-.25.33-.29.39c.2-.23.15,0,.38-.24a1.81,1.81,0,0,0-.2.25l.17-.19a.93.93,0,0,1-.14.24c0,.08.26-.4.21-.18L55,80.8c0,.14.23,0,.23.13-.2.31-.12,0-.28.3.14,0,.47-.22.51-.08v0c.33-.42-.08.26.11.09,0,0-.18.23-.15.18,0,.12.21,0,.41-.07l-.1.1c0,.13.06.13.07.21a.87.87,0,0,0,.2-.24c-.34.74.47-.14.24.42,0,0-.11.07-.09.08l.18,0a1.25,1.25,0,0,0,.13-.26c.09-.09.18-.15.2-.13a.82.82,0,0,0-.24.36l.12-.15c-.16.31.24-.32.17-.09l-.06.08c.06,0,.16-.11.17-.07s-.09.06-.19.21c0,0,.31-.28.23-.09s-.08,0-.13.06c-.1.22-.06.17-.05.21h0l0,.11,0,0c.34-.37.17,0,.41-.23-.23.18-.1.13-.22.28a.24.24,0,0,1-.05.14c.12-.1,0,.11.17,0,0,0,0,0,0,.12.08,0,0-.08.09-.13s.06.21.3.08.22-.12.32-.11-.09.08-.09.08.06.07.12.06,0,0,0,.07.07-.07.1,0l-.1.07a.58.58,0,0,1,.18,0s-.06,0-.09,0a.56.56,0,0,0,.19,0l0,0s0,0,0,0-.05,0,0-.05h0c0-.1-.12,0-.18-.07l.09-.08-.11,0s0-.09.07-.08,0,0,0-.08a0,0,0,0,1,0,0h0s0-.09.06,0c0-.13-.16,0-.11-.12h0c-.11,0-.08.09-.24.17l.16-.31-.09.1s0,0,0-.08,0,.06-.11.12c0-.15-.16,0,0-.26-.09.1,0,.12-.12.15.17-.25-.08,0,0-.14s.08,0,.14-.18c-.19.21,0-.12-.09-.12-.14.2-.12,0-.22,0s0-.22,0-.36l0,0c-.19.24-.21.14-.28.16a.88.88,0,0,1,.24-.26l0,0a.34.34,0,0,1-.16.12l.16-.2s-.26.15-.21-.06c-.16.21-.37.62-.54.71a2.35,2.35,0,0,1,.27-.34s-.09.07-.07,0l.17-.17c0-.11-.13.14-.14.11s.07-.13.16-.26,0,.09,0,0a.85.85,0,0,1,.11-.3,1,1,0,0,1-.19.23c-.06,0,.12-.21.15-.31-.09.1,0,0-.22.21a1.1,1.1,0,0,1,.11-.2c-.11.09-.15,0-.3.22v0h0c-.26.18-.08-.26-.23-.22l0-.08c-.11,0-.15,0-.31.12a.73.73,0,0,1,.15-.26c-.08,0-.15.11-.11-.06s.08-.13.11-.07c0-.11.08-.24-.13-.06.17-.19.15-.29.08-.24l-.07.17s-.06,0-.07-.06l.21-.26c.14-.4-.59.42-.27-.18-.16.17,0,.17-.22.37a3.05,3.05,0,0,1,.2-.5c0-.19-.35.35-.34.2a1.44,1.44,0,0,1-.36.42,1.25,1.25,0,0,1,.32-.5s0,0,0,.06a.33.33,0,0,0,.15-.16l-.08.09c0-.12,0-.15.11-.3a.31.31,0,0,0-.14.22c0-.19-.09-.08-.09-.22a1,1,0,0,1-.11.18c0-.19-.17.15-.26.15.07-.18.27-.34.11-.27a.92.92,0,0,1,.25-.32c-.19.14,0-.2,0-.26l.09-.06c-.06,0-.07,0-.08,0l-.13.21a.26.26,0,0,1,.05-.14,5.59,5.59,0,0,1-.38.48c0-.12-.14,0,0-.21,0,.14.17-.26.27-.26s-.05,0-.05,0a.33.33,0,0,1,.06-.06c.1-.28-.24.27-.31.21.11-.14.18-.29.15-.26s-.16.25-.27.34c0-.15-.11,0-.12,0l0,.07c-.11.14-.12.11-.18.13s.08-.06.11-.12c-.22.23.1-.32-.07-.18.05-.12.19-.27.22-.35-.19.14.08-.25-.09-.13a.71.71,0,0,1-.26.31l.2-.06-.27.23s.15-.07.14,0a.89.89,0,0,0-.21.26c.17-.32-.2.11-.1-.12l.35-.47c.08-.27-.31.15-.31,0l0,.1c-.15.18-.08,0-.16,0a1.93,1.93,0,0,0,.2-.34c-.08.12-.06,0-.3.26l.12-.24c0-.14-.42.39-.45.29.15-.16.2-.3.34-.39,0,0,0-.06-.11,0,.06-.11-.22.17-.13,0-.06.06-.19.23-.2.2a.37.37,0,0,1,.06-.08c-.06.08-.12.07-.23.27.29-.55-.23-.11,0-.59A.39.39,0,0,1,53,78s0-.08,0,0c.05-.2-.37.43-.32.21s.14-.11.18-.23c.38-.53-.14,0,0-.33l0,0c.1-.21-.23.13-.27,0l.06-.08a1.1,1.1,0,0,1-.49.3,1.83,1.83,0,0,0,.24-.31s-.23.34-.33.36a3.58,3.58,0,0,1,.26-.48l.06,0c.18-.31-.08,0-.07-.11l.1-.12c-.11,0-.32.31-.42.2l-.06.11c-.27.29.07-.22-.14,0l.18-.36c-.1,0-.33.24-.42.27a1.31,1.31,0,0,1,.45-.44s-.18-.09-.28.08c0,0,.1-.1.09,0-.18.25-.29.36-.36.3.25-.76-.15-.37-.1-1.12-.11.07-.19,0-.28-.21s-.19-.44-.3-.44c.1.81-.06.08,0,1,0,.09,0,.09-.06,0a2.09,2.09,0,0,0-.17-.37c-.06-.2,0-.22,0-.4-.11,0-.08-.3-.19-.41.06.26,0,.44-.06.41a2,2,0,0,1,.14.25c-.06.55-.24-.47-.32.09v-.28c-.05.22-.33.39-.2.9,0,0-.13-.2-.11-.27-.25.12-.13.81-.43.67L49.45,77c0,.07.12.27,0,.19s-.09-.12-.11-.12.13.24,0,.2l-.09-.14c-.22-.07.13.43.11.58a1,1,0,0,0-.54-.39l0,0c-.15.06.05.44.06.66-.38-.3-.35,0-.63-.07a1.3,1.3,0,0,1,.24.31c-.09,0,.13.29-.13,0h0c-.28-.28-.26-.16-.3-.13l.34.4c-.61-.49-.08.45-.59,0,.06.12,0,.15.09.27l-.18-.22c-.12,0-.18,0-.22.14l-.11-.17c-.06,0,.47.66.44.72l-.29-.31c-.08.08-.41-.13-.24.23a.76.76,0,0,1-.11-.16s-.34-.09.06.34c-.25-.29-.11,0-.05.21L47,79.21c.2.3.26.38.28.5s-.16-.16-.1-.12c-.14-.07.14.23,0,.16l-.1-.15c-.06,0,0,.09.12.26s-.13,0-.3-.16c.09.12.21.29.13.26l-.11-.14c-.19-.08.11.33-.12.17a1.25,1.25,0,0,0-.12-.12c.06,0,.12-.07.13-.05-.17-.2-.25-.19-.44-.49.09.18.3.55.18.5l-.07-.06v0s0,0,0,.06-.07,0-.09,0c-.15-.15-.13,0-.16,0,.19.21.13.2.31.35,0,0,0,0,0,0a0,0,0,0,0,0,0v0l0-.07c.08.13.14.23,0,.14l.26.37c-.29-.27-.49-.38-.65-.55a.78.78,0,0,0,.2.65c0,.07-.13-.1-.19-.16s0,0-.05-.11c0,.13-.08.14.16.43-.16-.07-.21-.29-.22-.17L46,80.48c-.24-.14-.11.12,0,.33s.13.38-.12.24a.33.33,0,0,1,.08.06c-.16,0-.18.15-.22.27s-.12.23-.26.23,0,.11,0,.2l-.09-.08.06.16c0,.13-.27,0-.23.18l0,0s-.07.13-.09.09,0,0,0,0l0,0,0,.12c-.06.06,0-.07-.1,0a.64.64,0,0,1,0,.12l0,0,0,0s0,0,.07,0l.07,0h0c.05,0,.07,0,.08,0h.06a.16.16,0,0,0,0-.06s0,0,.07,0-.08,0,0-.07.08,0,.1,0,0,0,0,0,.1,0,.08-.08.11,0,.19.06,0-.1,0-.12c.07.16.14,0,.27.14-.08-.15.12-.09.12-.21s0,0,0,0,.12,0,.19.08c-.14-.15-.1-.21-.16-.34.2.15.15.22.3.37-.12-.14,0-.16-.15-.28a1.18,1.18,0,0,1,.25.19c-.2-.24,0-.05-.09-.21.17.11.22.24.23.14A.29.29,0,0,1,46.8,82.4Zm.91-1.28h0v0ZM47.8,81s0,0,0,0-.13-.15-.11-.15S47.73,81,47.8,81Zm-1.49-1.28s0,0,.07,0v0l0,0Z" fill="#af5341"/>
          <path d="M46.53,80.05v0l.05,0L46.53,80Z" fill="#af5341"/>
          <path d="M56.42,80.66h0l0,0Z" fill="#af5341"/>
          <polygon points="49.49 80.27 49.44 80.22 49.47 80.27 49.49 80.27" fill="#af5341"/>
          <path d="M56.46,81.8l0,.06Z" fill="#af5341"/>
          <path d="M56.72,82V82S56.73,82,56.72,82Z" fill="#af5341"/>
          <path d="M56.9,82.12l.05-.06h0Z" fill="#af5341"/>
          <path d="M53.53,80.41a0,0,0,0,0,0,0C53.47,80.45,53.49,80.44,53.53,80.41Z" fill="#af5341"/>
          <path d="M54.81,80.53l-.1.09S54.72,80.66,54.81,80.53Z" fill="#af5341"/>
          <polygon points="52.33 79.96 52.33 79.95 52.33 79.95 52.33 79.96" fill="#af5341"/>
          <path d="M54.67,80.59s0,0,0,0S54.71,80.56,54.67,80.59Z" fill="#af5341"/>
          <polygon points="57.92 82.44 57.93 82.44 57.94 82.44 57.92 82.44" fill="#af5341"/>
          <path d="M57.94,82.44h0Z" fill="#af5341"/>
          <path d="M58,82.44h0Z" fill="#af5341"/>
          <path d="M57.61,82.34l0,0Z" fill="#af5341"/>
          <path d="M57.51,82.32s0,.07.06.06l0,0C57.54,82.4,57.57,82.28,57.51,82.32Z" fill="#af5341"/>
          <path d="M57.51,81.65l0,.1c0-.06.05-.13.08-.11C57.66,81.42,57.56,81.75,57.51,81.65Z" fill="#af5341"/>
          <path d="M57.4,81.38c.05,0,.06-.08.08-.11S57.42,81.31,57.4,81.38Z" fill="#af5341"/>
          <path d="M56.1,80.16l.16-.21S56.2,80,56.1,80.16Z" fill="#af5341"/>
          <polygon points="55.05 81.03 54.98 81.17 55.13 80.99 55.05 81.03" fill="#af5341"/>
          <polygon points="55.96 79.43 56 79.41 55.9 79.46 55.96 79.43" fill="#af5341"/>
          <path d="M53.51,77.76l-.18.26C53.38,78,53.59,77.7,53.51,77.76Z" fill="#af5341"/>
          <path d="M52.26,77.25c.07-.15.07-.27,0-.16S52.22,77.27,52.26,77.25Z" fill="#af5341"/>
          <polygon points="48.08 78.14 48.03 78.05 48.05 78.15 48.08 78.14" fill="#af5341"/>
        </g>
        <g>
          <path d="M14.73,82.5s0,0,0,0v0Z" fill="#af5341"/>
          <path d="M14.83,82.23s0-.12-.05-.1,0,.07,0,.13,0,.07,0,.06,0,.07,0,.09a.71.71,0,0,0,.06-.19S14.83,82.22,14.83,82.23Z" fill="#af5341"/>
          <path d="M16.8,78.5h0Z" fill="#af5341"/>
          <path d="M17.91,76.15s0,0,.06,0S17.94,76.16,17.91,76.15Z" fill="#af5341"/>
          <path d="M18.41,75.87l0,0S18.43,75.89,18.41,75.87Z" fill="#af5341"/>
          <path d="M16.8,78.5l.12,0C16.82,78.43,16.83,78.48,16.8,78.5Z" fill="#af5341"/>
          <path d="M14.84,81.61s0,0,0,0v0Z" fill="#af5341"/>
          <path d="M16.57,79.64l0,0,.11.06Z" fill="#af5341"/>
          <path d="M16.12,80.41s-.15-.09-.23-.13c.07,0,.1.07.1.09Z" fill="#af5341"/>
          <path d="M15.21,81.54v0Z" fill="#af5341"/>
          <path d="M16.93,79.11l.1,0A.19.19,0,0,0,16.93,79.11Z" fill="#af5341"/>
          <path d="M24.74,55.8h0Z" fill="#af5341"/>
          <polygon points="25.5 55 25.5 55.01 25.5 55.02 25.5 55" fill="#af5341"/>
          <path d="M19,75.25h0S19.06,75.27,19,75.25Z" fill="#af5341"/>
          <path d="M21.56,68.24c-.26,0-.25-.24-.55-.23C21.11,68,21.37,68.28,21.56,68.24Z" fill="#af5341"/>
          <path d="M14.85,81.59v0Z" fill="#af5341"/>
          <path d="M21,68Z" fill="#af5341"/>
          <path d="M19.57,73.45l-.12,0Z" fill="#af5341"/>
          <path d="M18.69,74.6l0,0S18.69,74.59,18.69,74.6Z" fill="#af5341"/>
          <path d="M19.46,72.63s.07,0,0,0h0S19.51,72.63,19.46,72.63Z" fill="#af5341"/>
          <path d="M19.73,71.93h-.05v0Z" fill="#af5341"/>
          <path d="M23.29,57.68a1.55,1.55,0,0,1,.23.06C23.35,57.68,23.36,57.57,23.29,57.68Z" fill="#af5341"/>
          <path d="M14.88,81.63s0,0,0,0v0Z" fill="#af5341"/>
          <path d="M17.41,71.79l.08-.09A.14.14,0,0,0,17.41,71.79Z" fill="#af5341"/>
          <path d="M21.26,62.68l0,0S21.24,62.67,21.26,62.68Z" fill="#af5341"/>
          <path d="M17.58,71.35a.52.52,0,0,0,.21,0l-.07,0Z" fill="#af5341"/>
          <path d="M23.53,57.74h0Z" fill="#af5341"/>
          <path d="M23.56,56.9c-.09.09.2.14.32.21s-.22,0-.39,0c0,.09.21.24.17.29a.25.25,0,0,1-.12,0c.16.16-.17.22.07.43l-.08,0a2.66,2.66,0,0,1,.43.15s.16.16-.06.1c0,0-.06-.06-.12-.1l.07.08c-.33-.07-.07-.1-.29-.19,0,.13.23.34.1.37-.32-.11,0-.2-.33-.22l.19-.06c-.53-.1.08,0-.48-.17-.2.1,0,.21-.16.31.16.1.27.09.44.19.23.34-.88-.14-.5.19.2.12.6.3.34.33l-.34-.18c-.09.13.48.28.18.34-.13-.08-.07-.16-.12-.15-.32,0,.17.15.14.22l-.32-.1c0,.17.15.43.14.63a.52.52,0,0,0-.29-.11c.07.28-.22.45-.49.58l.24.19s-.14,0-.18,0,.17.07.26.15-.18,0-.25-.06c.18.23.34.61,0,.64l-.07-.06c-.16.08.5.36.21.37l0,0c-.22.21-.08.59-.57.63.37.19-.28.18.26.41-.33,0-.41,0-.67.1,0,.05.31.22.34.31l-.29-.11.27.21-.37-.09,0,.1a.34.34,0,0,1,.23,0c.09.15-.29.16-.44.11l.15.33A.56.56,0,0,1,21,63c.24.24-.31-.1-.09.12a1.6,1.6,0,0,1,.23.1c-.2,0-.25.12-.22.25l-.19-.1c-.12.16-.05.41-.13.61a.62.62,0,0,1,.47.18L20.73,64c.18.11.14,0,.34.15-.06.06-.36-.09-.44-.17l.07.13a1.87,1.87,0,0,1-.25-.12c.17.11-.36,0-.06.22l-.09,0c-.08.2,0,.33-.06.49.26.11.18.15.37.28-.13.08-.38.14-.42.29s.21.11.35.22c-.24-.09-.27.06-.42-.08a.76.76,0,0,0,.07.53.78.78,0,0,1,.24,0c0,.06-.14.05-.25,0l0,0c.26.38-.91.29-.49.68l0,0,.18.3c-.08.07-.16-.13-.33-.12.31.37-.19.32,0,.6-.76-.13-.14.51-.66.52L19,68c.14.11-.12,0-.17,0,.13,0,.17,0,.25.07,0,.48-.58.74-.89,1.1-.1.14.82.43.35.46l-.28-.17c.25.45-.26.62-.07,1.05-.06-.05-.15-.09-.14-.11-.25,0-.1.23.08.3,0,0-.17,0-.27-.06s.22.27,0,.22c0,0-.06,0-.08-.07s-.1.19.17.25c-.16.06,0,.26-.15.29.26.17-.22.14.18.32-.42-.18-.42.06-.25.21-.11-.07-.15,0-.32-.09,0,.09,0,.19.25.26-.57,0,.28.47-.39.3a3,3,0,0,1,.21.87c-.42-.17.05-.26-.4-.42.1.27.41.53.23.7s-.17-.1-.24-.15c.09.28-.19.39,0,.66a.34.34,0,0,1-.09-.08s-.1.06.09.13L17,74c.3,0,.52.37.66.44-.52-.28-.21.12-.86-.24a.59.59,0,0,0,.24.14c-.06,0-.13,0-.27-.09.06.17.28.21.23.32a1,1,0,0,1-.22-.13c.15.13.31.27.19.33s-.13,0-.12-.07c0,.18.37.48.12.6-.38-.21-.15,0-.51-.12l.07.15.18,0c0,.09.19.26,0,.3l-.12-.13v.2l.16,0c.15.16.45.17.3.25s0,.08-.26,0h0c.1.08.19.18.08.21s-.38-.17-.45-.19c.27.16,0,.24.28.42a1.14,1.14,0,0,0-.28-.13l.22.13a.48.48,0,0,1-.28-.06c-.09.11.46.13.21.2,0,0-.05,0-.07-.06-.16.11,0,.34-.13.43-.37-.1,0-.15-.36-.22,0,.22.26.57.11.72l.05,0c.48.22-.3,0-.1.23a.68.68,0,0,0-.21-.11c-.13.1,0,.31.1.57L15.88,78c-.14,0-.15.18-.24.24.12.07.08.11.28.15-.84,0,.18.63-.46.64,0,0-.09-.11-.1-.09l.07.25c.2.06.12,0,.29,0s.18.16.16.2c-.1-.13-.31-.12-.42-.12l.18.08c-.36,0,.37.16.1.21l-.1,0c0,.07.14.16.09.21-.2-.06-.07-.09-.23-.16,0,.09.31.3.1.3,0-.06,0-.11-.07-.16-.25,0-.19,0-.24.07h0l-.13.11.07,0c.42.28,0,.24.26.48-.21-.22-.14-.08-.31-.15s-.12,0-.17,0c.13.12-.12.07.06.24-.05,0,0,.07-.14,0,0,.1.09,0,.15,0,.12.19-.24.24-.08.51s.14.26.14.42-.1-.08-.1-.08a.25.25,0,0,0-.07.22s0,0-.07,0,.08.08,0,.15l-.08-.1a.72.72,0,0,1,0,.25s0-.06-.05-.1,0,.24,0,.27l0,0s0,0,0,0,0-.1.05-.09v0c.11,0,0-.21.08-.32l.08.08a1.21,1.21,0,0,0-.05-.14s.11,0,.11.06,0-.08.08-.12h0v-.08s.1,0,.06.06c.14-.09,0-.24.13-.25v0c0-.2-.1-.06-.2-.25l.36,0L15.42,81a.1.1,0,0,1,.1,0c-.07-.1-.07,0-.14-.08.17,0,0-.27.29-.19-.11-.08-.13.05-.17-.08.29.08,0-.13.16-.16s0,.13.2.11c-.24-.15.14-.13.13-.21-.23-.1,0-.18-.05-.32.08,0,.25-.16.42-.22l0,0c-.27-.14-.17-.22-.19-.32a.59.59,0,0,1,.3.19l0-.07c-.08-.06-.12-.1-.13-.16l.22.11c.05-.1-.17-.3.06-.36-.24-.1-.7-.16-.82-.36a1.24,1.24,0,0,1,.4.19s-.09-.09,0-.09l.19.14c.13,0-.17-.1-.13-.14.19.08.15,0,.3.09s-.1,0,0,0a.46.46,0,0,1,.34,0c-.11,0-.25-.1-.26-.15s.23.05.35,0c-.12-.08,0-.09-.24-.2,0,0,.14,0,.22,0-.1-.1.06-.26-.26-.32h0c-.21-.28.29-.3.24-.51L17,78c-.06-.15,0-.25-.14-.4,0,0,.19,0,.3,0,0-.1-.14-.15.05-.2.14.14.16,0,.09.12.12-.07.28,0,.07-.24.22.13.32,0,.27,0h-.2c0-.07,0-.1.07-.14l.3.14c.46,0-.5-.62.19-.52-.19-.14-.19.05-.43-.1.08-.08.56,0,.58,0,.22-.06-.41-.3-.24-.39-.12,0-.42-.12-.48-.26s.51.06.57.16,0,0-.07,0a.19.19,0,0,0,.19.12l-.1-.06c.13,0,.17-.13.33,0a.17.17,0,0,0-.24-.07c.2-.06.08-.19.23-.27-.07,0-.2,0-.19-.06.2-.13-.18-.16-.18-.3.19,0,.39.18.3,0,.14,0,.3.1.37.16-.16-.19.23-.15.29-.2l.07.09a.1.1,0,0,1,0-.11l-.23,0c.05,0,.06,0,.16,0-.13-.09-.38-.11-.55-.26.13,0-.07-.19.23-.09-.15.1.3.1.3.24,0,0,0-.07,0-.09a.1.1,0,0,1,.07,0c.32,0-.3-.2-.24-.34.16.08.33.09.3,0s-.28-.08-.39-.18c.16,0-.06-.14,0-.18l-.08,0c-.16-.09-.12-.12-.15-.21.13,0,.07.09.13.09-.26-.18.37,0,.21-.22.13,0,.31.12.4.11-.17-.2.28,0,.15-.22s-.19,0-.37-.2l.08.26L18.79,74c0,.05.09.18,0,.2-.16-.14-.11-.11-.3-.15.36,0-.14-.24.13-.24l.54.22c.3,0-.18-.36,0-.49l-.12,0c-.21-.11,0-.12-.05-.22a1.12,1.12,0,0,0,.39.09c-.14,0,.06-.13-.3-.29h.27c.16-.1-.45-.37-.34-.48.19.12.34.1.45.25,0,0,.07-.07-.06-.12.13,0-.2-.23,0-.21-.08,0-.27-.13-.23-.18l.09,0c-.09,0-.09-.13-.31-.16.63.07.11-.43.66-.36a.93.93,0,0,1,0-.37s.09,0,.06,0c.22-.06-.49-.28-.25-.35s.13.14.27.13c.61.22,0-.2.37-.17l0,0c.24,0-.16-.27-.07-.38l.1,0a.85.85,0,0,1-.36-.56c.22.13.11.11.35.18,0-.07-.39-.14-.41-.27a1.78,1.78,0,0,1,.54.07l0,.11c.35.08,0-.13.12-.16l.14.06c0-.17-.35-.32-.26-.47l-.12,0c-.33-.23.23,0,0-.19l.38.12a1.84,1.84,0,0,1-.3-.48,2.09,2.09,0,0,1,.47.48.25.25,0,0,0-.12-.31s.1.1,0,.11c-.26-.19-.37-.34-.32-.46.71.3.3-.23.89-.1-.18-.31.27-.37.33-.63-.59-.13,0-.07-.57-.28C21,68,21,68,21,68l.4,0c.18,0,.11.11.24.15s.26,0,.44,0c-.21-.06-.27-.16-.17-.2h-.3c-.23-.29.54,0,.3-.25l.16.12c-.07-.13.13-.32-.29-.59.07,0,.24,0,.26.1.16-.18-.3-.66.05-.71l.13.07c0-.06-.23-.18-.07-.17s.13.07.14,0-.2-.2-.1-.22l.14.11c.27-.14-.25-.47-.28-.68a.7.7,0,0,0,.7,0l.06,0c.15-.22-.18-.55-.25-.83.5,0,.37-.4.71-.53a.65.65,0,0,1-.35-.18c.11,0-.22-.26.15-.1h0c.39.11.33,0,.38-.12L23,63.83c.8.06,0-.67.65-.54-.1-.11-.08-.17-.18-.27l.27.1a.47.47,0,0,0,.19-.38l.17.11c.06-.1-.71-.43-.68-.53l.4.13c.07-.19.48-.23.19-.55.06,0,.17.08.18.11s.39-.22-.16-.4c.35.14.11-.17,0-.33l.25.12c-.3-.21-.39-.25-.43-.4s.21.06.13.07c.17,0-.22-.17,0-.23L24,61c.06-.08,0-.11-.2-.24s.13-.15.37-.07c-.14-.07-.31-.19-.22-.22a.31.31,0,0,1,.16.09c.24-.09-.21-.35.09-.36a.5.5,0,0,0,.16,0c-.06.12-.11.22-.13.2.24.1.32,0,.62.22-.14-.15-.48-.44-.33-.49l.09,0,0,0s0,0,0-.08a.16.16,0,0,0,.11,0c.2.07.15-.07.18-.12-.27-.1-.2-.14-.44-.17t0,.06s0,0,0,0h0a.39.39,0,0,1,0,.13c-.11-.09-.21-.18,0-.17l-.4-.24c.39.08.64,0,.87.09-.09-.21.05-.39-.4-.68-.05-.06.17,0,.25,0s0,.07.09.11c-.09-.13,0-.27-.3-.43.19,0,.31.19.29,0l.1.06c.31,0,.09-.27-.06-.47s-.25-.39.07-.45c0,0-.06,0-.1,0,.16-.14.14-.37.16-.59a.78.78,0,0,1,.22-.56c.07-.09,0-.14-.09-.24l.13,0-.11-.17c0-.19.3-.19.2-.46H25.3c0-.07,0-.24.07-.21s0,0,0-.06h0a1.27,1.27,0,0,1,0-.2c0-.14.07.05.09-.17a.72.72,0,0,1,0-.2s0,.08,0,.08l0-.07s0,0-.09.09l-.06.1-.05,0,.07-.09a.21.21,0,0,0-.08.12l-.06,0,0,.11s0-.06-.08,0,.09,0,.06.06-.1,0-.11.08,0,0,0,0-.1.13-.06.18-.11.18-.24.12a.27.27,0,0,1,0,.18c-.12-.15-.14.17-.33.07.13.13-.11.25-.07.4,0,0,0,0,0,0s-.15,0-.22.06c.18.09.16.2.26.31-.26,0-.22-.14-.43-.2.17.07.06.2.24.24a.75.75,0,0,1-.32,0c.28.13,0,.08.15.2-.21,0-.31-.09-.28,0A.18.18,0,0,1,23.56,56.9Zm-.63,2.61h0v0Zm-.08.21a.56.56,0,0,0,0-.08c.09,0,.18.07.17.09S22.94,59.72,22.85,59.72Zm2,.27s0,0-.09,0a.2.2,0,0,0,0-.07l0,0Z" fill="#af5341"/>
          <path d="M24.52,59.8l0,0h-.06l.07,0Z" fill="#af5341"/>
          <path d="M16.74,78.51h0Z" fill="#af5341"/>
          <polygon points="21.22 62.4 21.29 62.43 21.24 62.39 21.22 62.4" fill="#af5341"/>
          <path d="M15.46,79.33s0,0-.06,0Z" fill="#af5341"/>
          <path d="M15.29,79.84l-.08,0Z" fill="#af5341"/>
          <path d="M15.12,80.21l.07,0h0Z" fill="#af5341"/>
          <path d="M16.93,73.94v0C16.88,73.86,16.89,73.89,16.93,73.94Z" fill="#af5341"/>
          <path d="M16.83,76l-.1-.11S16.68,75.92,16.83,76Z" fill="#af5341"/>
          <polygon points="17.4 71.8 17.4 71.8 17.41 71.79 17.4 71.8" fill="#af5341"/>
          <path d="M16.77,75.79c-.07,0-.07,0,0,.08S16.8,75.83,16.77,75.79Z" fill="#af5341"/>
          <polygon points="14.79 81.98 14.79 82 14.79 82.01 14.79 81.98" fill="#af5341"/>
          <path d="M14.79,82v0S14.8,82,14.79,82Z" fill="#af5341"/>
          <path d="M14.8,82.08v0A.07.07,0,0,0,14.8,82.08Z" fill="#af5341"/>
          <path d="M14.89,81.44h0Z" fill="#af5341"/>
          <path d="M14.91,81.28s-.08.07-.07.13l0,0C14.82,81.38,15,81.33,14.91,81.28Z" fill="#af5341"/>
          <path d="M15.66,80.83l-.1.11c.06,0,.15,0,.13.06C15.93,80.91,15.55,81,15.66,80.83Z" fill="#af5341"/>
          <path d="M16,80.49c0,.08.1,0,.13.05S16.05,80.46,16,80.49Z" fill="#af5341"/>
          <path d="M17.3,77.7l.24.1C17.52,77.73,17.45,77.76,17.3,77.7Z" fill="#af5341"/>
          <polygon points="16.29 76.67 16.12 76.66 16.33 76.77 16.29 76.67" fill="#af5341"/>
          <polygon points="18.11 77.01 18.14 77.04 18.08 76.92 18.11 77.01" fill="#af5341"/>
          <path d="M19.92,72.14l-.3-.1C19.66,72.1,20,72.24,19.92,72.14Z" fill="#af5341"/>
          <path d="M20.43,69.94c.16,0,.28,0,.15-.08S20.41,69.9,20.43,69.94Z" fill="#af5341"/>
          <polygon points="23.36 63.88 23.44 63.96 23.39 63.84 23.36 63.88" fill="#af5341"/>
        </g>
        <g>
          <path d="M23.48,79.87s0,0,0,0h0Z" fill="#af5341"/>
          <path d="M23.37,79.76s-.08,0-.09,0a.33.33,0,0,1,.1,0s0,0,0,0l0,0a.14.14,0,0,0-.08-.07Z" fill="#af5341"/>
          <path d="M22.2,77.8l0,0S22.19,77.8,22.2,77.8Z" fill="#af5341"/>
          <path d="M21.38,76.65s0,0,.07,0A.09.09,0,0,0,21.38,76.65Z" fill="#af5341"/>
          <path d="M21.49,76.23v0S21.51,76.22,21.49,76.23Z" fill="#af5341"/>
          <path d="M22.2,77.8l.05-.1C22.17,77.77,22.2,77.77,22.2,77.8Z" fill="#af5341"/>
          <path d="M23,79.68h0Z" fill="#af5341"/>
          <path d="M22.76,78.11h0l.1-.07Z" fill="#af5341"/>
          <path d="M23,78.54a1.48,1.48,0,0,0-.2.17l.1-.07Z" fill="#af5341"/>
          <path d="M23.16,79.39h0Z" fill="#af5341"/>
          <path d="M22.64,77.76l.07-.07Z" fill="#af5341"/>
          <path d="M11.13,76.27v0Z" fill="#af5341"/>
          <polygon points="10.5 76 10.51 76 10.51 76 10.5 76" fill="#af5341"/>
          <path d="M21.46,75.67Z" fill="#af5341"/>
          <path d="M17.65,72.91c.07.24-.12.38,0,.63C17.61,73.44,17.74,73,17.65,72.91Z" fill="#af5341"/>
          <path d="M23,79.67h0S23,79.67,23,79.67Z" fill="#af5341"/>
          <path d="M17.63,73.54h0v0Z" fill="#af5341"/>
          <path d="M20.66,75.05l-.09.09Z" fill="#af5341"/>
          <path d="M20.87,75.87l0,0S20.87,75.86,20.87,75.87Z" fill="#af5341"/>
          <path d="M20.1,75s0-.05,0,0l0,0S20.13,75,20.1,75Z" fill="#af5341"/>
          <path d="M19.83,74.74l0,.05h0Z" fill="#af5341"/>
          <path d="M12.48,76.6c0-.08-.05-.15-.07-.23C12.46,76.55,12.41,76.59,12.48,76.6Z" fill="#af5341"/>
          <path d="M23,79.65l0,0h0Z" fill="#af5341"/>
          <path d="M18.47,76.53l0-.07S18.45,76.52,18.47,76.53Z" fill="#af5341"/>
          <path d="M15.29,75.92v0S15.3,76,15.29,75.92Z" fill="#af5341"/>
          <path d="M18.29,76.35a1.24,1.24,0,0,0,.12-.16l-.06,0Z" fill="#af5341"/>
          <path d="M12.4,76.37h0Z" fill="#af5341"/>
          <path d="M12.07,76.74c.07,0,0-.24-.06-.38s.09.2.15.35c0,0,0-.3.05-.28s0,.07,0,.13c0-.22.16,0,.14-.27l0,.08c-.05-.17-.09-.33-.12-.45s0-.21.06,0c0,0,0,.08,0,.15V76c.11.32,0,.11.05.34,0-.09,0-.36.1-.27.09.33-.08.1.06.39l-.11-.13c.19.5-.05,0,.14.49.12.12.07-.12.18,0,0-.19-.08-.28-.1-.47,0-.35.31.82.28.34,0-.24-.14-.66,0-.46l.08.38c.09,0-.1-.54.05-.32s0,.14,0,.18c.13.28,0-.22,0-.23l.1.33c.07-.08.1-.34.18-.42a1.11,1.11,0,0,0,.08.3c.08-.2.27,0,.44.13l0-.29a.6.6,0,0,1,.06.18c.07.09-.05-.18-.06-.3s.08.15.09.24c0-.26.09-.57.26-.29v.09c.1.09-.08-.61,0-.36v.06c.18.08.27-.22.49.18-.08-.41.19.15.05-.43.16.26.16.37.33.53s-.05-.37,0-.44l.08.3,0-.32.12.34,0-.08a.61.61,0,0,1-.09-.21c0-.15.19.17.23.32l.07-.29a1.24,1.24,0,0,1,0,.25c0-.32.09.31.08,0,0-.07,0-.18,0-.24.08.17.15.15.18.06l0,.21c.11,0,.18-.15.29-.18a1.08,1.08,0,0,1-.13-.48l.1.31c0-.2-.07-.11-.09-.36a1,1,0,0,1,.13.46l0-.12c0,.09,0,.14.06.26,0-.2.17.3.11,0l0,.09c.11,0,.14-.15.22-.19a1.91,1.91,0,0,1-.05-.44c.09.07.22.26.29.22a1.56,1.56,0,0,0-.06-.41c.07.25.14.21.15.39.08-.06.11-.08.17-.31a1.52,1.52,0,0,1-.08-.22s.08.09.11.21v0c0-.4.5.64.47.1v0c0-.1,0-.21,0-.31a3,3,0,0,1,.06.33c0-.45,0,0,0-.32,0,.34,0,.33,0,.28s.06-.13,0,.11l.05-.18c.05-.17,0,.1,0,.14a1.64,1.64,0,0,1,.07-.25c.11-.16,0,.29-.19.48-.07.06.6-.64.31-.29l-.24.21c.33-.17.22.27.56.16-.06,0-.13.11-.14.1-.15.19.08.1.22,0,0,0-.12.13-.18.21s.28-.14.12,0a.12.12,0,0,1-.08,0c.1-.06.05.11.24-.1-.05.14.18,0,.09.16.25-.19,0,.18.3-.11-.34.31-.19.33,0,.22-.11.08-.08.12-.23.24,0,0,.13,0,.29-.16-.33.43.44-.17,0,.34a1.72,1.72,0,0,1,.64-.06c-.33.3-.13-.07-.47.25.22,0,.55-.25.55-.09s-.16.12-.22.17c.21,0,.12.19.38.1l-.11.07s0,.08.13-.06l-.05,0a3.45,3.45,0,0,1,.63-.46c-.46.37,0,.17-.62.64a.91.91,0,0,0,.22-.17.59.59,0,0,1-.2.19c.13,0,.27-.19.32-.13l-.2.15c.16-.1.33-.21.3-.11s-.09.1-.11.08.5-.23.43,0c-.34.27-.08.12-.35.38l.12,0,.12-.14s.26-.11.2,0l-.14.08.12,0,.07-.13c.17-.1.34-.33.31-.21s0,0-.11.21h0c.1-.06.21-.13.17,0s-.31.28-.37.34c.25-.2.15,0,.41-.18l-.23.21.2-.16c0,.08-.07.1-.19.21s.33-.34.24-.14c0,0,0,0-.08.05s.23,0,.19.15c-.26.28-.12,0-.33.25.13,0,.49-.13.5,0v0c.4-.35-.14.24.09.11,0,0-.23.19-.19.15,0,.11.2,0,.4,0l-.11.08c-.06.12,0,.13,0,.21a1.09,1.09,0,0,0,.25-.19c-.49.64.48-.07.13.43,0,0-.12.06-.1.06l.18,0a1,1,0,0,0,.18-.22c.11-.08.2-.12.22-.1a.84.84,0,0,0-.31.31l.15-.13c-.22.28.3-.27.18,0l-.08.07c.06,0,.18-.09.18,0-.15.15-.1,0-.23.17.05,0,.36-.21.24,0s-.08,0-.13,0c-.15.19-.09.15-.09.19h0v.1l0,0c.4-.3.16,0,.44-.15-.26.14-.13.1-.27.23a.35.35,0,0,1-.08.13c.14-.08,0,.1.17,0,0,0,0,0-.07.11.07,0,.05-.06.11-.11s0,.21.26.12.24-.08.33,0-.1.06-.1.06,0,.07.09.08a.09.09,0,0,0,0,.06s.09,0,.1,0l-.1,0h.17s-.06,0-.09,0a.59.59,0,0,0,.17,0v0s0,0,0,0-.05,0,0-.06h0c.05-.09-.1-.06-.15-.1l.1,0-.12,0s.06-.08.09-.07-.05,0,0-.08a0,0,0,0,1,0,0h-.05s.07-.07.07,0c0-.12-.15,0-.08-.12h0c-.1,0-.09.08-.26.13l.22-.27-.11.08s0,0,0-.07c-.1,0-.05,0-.13.1.07-.14-.15-.06,0-.25-.1.07,0,.1-.14.12.21-.21-.08,0,0-.14s.08,0,.17-.15c-.22.17,0-.12-.06-.12-.18.16-.12,0-.22,0,.07-.06.05-.21.1-.35l0,0c-.23.2-.22.11-.3.11a1.19,1.19,0,0,1,.28-.21l0,0a.34.34,0,0,1-.17.09l.19-.16s-.28.09-.18-.09c-.2.17-.49.53-.67.59a3.22,3.22,0,0,1,.33-.29s-.1.06-.06,0l.19-.13c.06-.1-.16.12-.16.08s.09-.11.21-.22,0,.08,0,0a.67.67,0,0,1,.18-.27c-.09.08-.2.19-.24.19s.16-.18.21-.27c-.11.09,0,0-.25.16,0,0,.09-.1.14-.16-.11.06-.12-.08-.33.16v0h0c-.28.13,0-.26-.17-.24l.07-.07c-.12,0-.14,0-.32.06a.66.66,0,0,1,.2-.22c-.09,0-.17.09-.1-.07s.1-.11.13,0c0-.1.13-.22-.11-.08.2-.16.2-.25.13-.22l-.11.15c-.05,0-.05,0-.05-.06l.25-.22c.22-.36-.65.32-.21-.21-.19.13-.08.16-.29.32,0-.07.3-.43.29-.45.09-.18-.4.28-.36.14a1.41,1.41,0,0,1-.43.34,1.36,1.36,0,0,1,.41-.42s0,0,0,.06a.42.42,0,0,0,.17-.14l-.09.08c.07-.11,0-.15.17-.27a.29.29,0,0,0-.18.18c.08-.17-.07-.08,0-.21,0,0-.13.15-.14.14,0-.17-.19.12-.28.11.1-.16.33-.29.17-.24a1,1,0,0,1,.3-.27c-.21.11,0-.19,0-.25l.09,0c-.06,0-.07,0-.08,0l-.16.18a.24.24,0,0,1,.08-.13c-.13.09-.28.28-.46.4.07-.1-.15,0,.07-.2,0,.14.23-.22.31-.2s0,0,0,0l.07,0c.15-.25-.29.21-.34.15.14-.11.24-.25.2-.23s-.21.21-.33.28c.07-.13-.11,0-.12,0l0,.07c-.13.11-.13.07-.2.08.1-.09.09,0,.13-.09-.26.19.17-.28,0-.18.07-.11.24-.23.28-.31-.21.11.13-.21-.05-.13a.9.9,0,0,1-.32.26l.2,0-.31.18s.16,0,.15,0a.78.78,0,0,0-.26.22c.23-.28-.21.07-.07-.13l.43-.4c.14-.24-.32.1-.28-.08l-.05.1c-.18.15-.07,0-.16,0a1.55,1.55,0,0,0,.26-.29c-.1.1,0-.06-.33.2l.16-.21c0-.14-.48.31-.49.2.18-.12.25-.25.4-.31,0,0,0-.06-.11,0,.08-.1-.24.12-.12,0-.07,0-.23.19-.23.15l.07-.06a.92.92,0,0,0-.27.22c.39-.48-.2-.14.14-.55a.5.5,0,0,1-.23,0c.05,0,.07-.07.07,0,.08-.18-.45.35-.36.15s.16-.09.23-.19c.47-.45-.13,0,.11-.31l0,0c.14-.18-.25.09-.26,0l.07-.07a1,1,0,0,1-.53.21,1.81,1.81,0,0,0,.3-.25s-.3.28-.4.29c.09-.11.15-.22.34-.43l.06.05c.25-.26-.08-.07-.06-.15l.11-.1c-.14-.08-.39.22-.46.11l-.07.1c-.28.27.1-.22-.12,0l.21-.35c-.1,0-.32.2-.4.22a1.15,1.15,0,0,1,.46-.4s-.14-.14-.25,0c0,0,.09-.09.08,0-.2.23-.32.34-.37.27.36-.83-.06-.42.11-1.22-.29.44-.38,0-.67.22,0,.6-.07,0-.1.69,0,.06-.06.06-.06,0a2.07,2.07,0,0,0-.15-.34c-.05-.17.05-.15,0-.29s-.07-.25-.17-.4c0,.22,0,.33-.11.27s.09.17.13.26c-.12.37-.21-.48-.35-.11l0-.2c0,.07-.15.1-.19.16s-.06.15,0,.4a.83.83,0,0,1-.07-.27c-.14,0-.13.57-.3.3l0-.15s0,.29,0,.15a1.27,1.27,0,0,0,0-.15s0,.26-.05.19V73.2c-.17-.16-.08.44-.15.57a1.08,1.08,0,0,0-.3-.6v-.06c-.15,0-.14.41-.22.61-.2-.44-.31-.12-.51-.35a1.13,1.13,0,0,1,.08.38c0-.08,0,.32-.1-.07h0c-.12-.38-.16-.26-.21-.26l.13.52c-.32-.72-.25.35-.49-.29,0,.13,0,.14,0,.27l-.07-.27c-.1-.05-.15-.07-.23,0l0-.2c-.06,0,.13.81.08.84l-.12-.41c-.1,0-.29-.3-.29.1a.56.56,0,0,1,0-.2c-.05,0-.26-.23-.09.33-.1-.37-.11,0-.13.16L13.53,74c.05.36.07.45,0,.56s-.07-.21,0-.14c-.09-.13,0,.26-.07.13l0-.17c-.06,0,0,.08,0,.29s-.11,0-.18-.29c0,.15.05.36,0,.3a1.05,1.05,0,0,1,0-.18c-.13-.16-.05.34-.17.09a.62.62,0,0,0-.06-.15c.07,0,.13,0,.13,0a3.7,3.7,0,0,1-.18-.64c0,.2,0,.63,0,.53l0-.09v0s0,0,0,.05-.05-.06-.06-.06c-.06-.2-.1-.09-.13-.1a3.37,3.37,0,0,0,.12.46,0,0,0,0,1,0,0v0l.07,0c0,.15,0,.27,0,.13,0,.17.06.36.08.44-.14-.36-.27-.55-.34-.78a.84.84,0,0,0-.09.67c0,.07-.07-.15-.1-.23s0,0,0-.12c0,.13-.13.08,0,.45-.1-.14-.05-.35-.11-.25l0-.12c-.15-.23-.15.06-.16.28s0,.4-.2.16a.19.19,0,0,1,0,.09c-.13-.07-.21.05-.3.14s-.18.15-.31.08,0,.1,0,.19l-.05-.12,0,.17c-.06.12-.2-.16-.26.06l0,0s-.11.09-.12,0,0,0,0,0v0l-.07.09c-.08,0,0-.08-.11,0a.39.39,0,0,1-.08.09l0,0,0,0s0,0,.06,0h.07l0,0-.06,0,.08,0,0,0a.09.09,0,0,0,0,0s0,0,0,.07-.05-.07,0-.08,0,.08.07,0,0,0,0,.05.09,0,.09,0,.12,0,.15.14a.13.13,0,0,1,.06-.1c0,.17.13,0,.17.26,0-.18.14,0,.19-.14s0,0,0,0a.52.52,0,0,1,.12.16c-.05-.2,0-.23,0-.37.11.22,0,.26.11.46,0-.17,0-.15,0-.31a.92.92,0,0,1,.13.28c-.07-.31,0,0,0-.23.1.17.1.31.14.23A.29.29,0,0,1,12.07,76.74ZM13.35,76h0l0,0Zm.11,0h-.05a.53.53,0,0,1,0-.19A.82.82,0,0,0,13.46,76Zm-.74-1.82s0,0,0,.06a.06.06,0,0,0,0,0v0Z" fill="#af5341"/>
          <path d="M12.79,74.54v0l0,.06,0-.09Z" fill="#af5341"/>
          <path d="M22.17,77.84h0l0,0Z" fill="#af5341"/>
          <polygon points="15.2 76.09 15.18 76.02 15.19 76.08 15.2 76.09" fill="#af5341"/>
          <path d="M22,78.93l0,0Z" fill="#af5341"/>
          <path d="M22.18,79.12l0,.07Z" fill="#af5341"/>
          <path d="M22.31,79.3l.06,0h0Z" fill="#af5341"/>
          <path d="M19.5,77.16h0C19.43,77.18,19.46,77.18,19.5,77.16Z" fill="#af5341"/>
          <path d="M20.69,77.47l-.12.07S20.57,77.58,20.69,77.47Z" fill="#af5341"/>
          <polygon points="18.47 76.54 18.47 76.54 18.47 76.53 18.47 76.54" fill="#af5341"/>
          <path d="M20.54,77.5s0,0,0,0S20.58,77.48,20.54,77.5Z" fill="#af5341"/>
          <polygon points="23.2 79.76 23.21 79.77 23.22 79.76 23.2 79.76" fill="#af5341"/>
          <path d="M23.22,79.76h0Z" fill="#af5341"/>
          <path d="M23.26,79.77h0Z" fill="#af5341"/>
          <path d="M22.93,79.62l0,0Z" fill="#af5341"/>
          <path d="M22.84,79.58s0,.08,0,.07h0S22.9,79.55,22.84,79.58Z" fill="#af5341"/>
          <path d="M23,79V79c0-.05.08-.11.11-.09C23.18,78.75,23,79.05,23,79Z" fill="#af5341"/>
          <path d="M22.94,78.67s.08-.06.11-.09A.14.14,0,0,0,22.94,78.67Z" fill="#af5341"/>
          <path d="M22,77.31l.19-.17C22.13,77.14,22.1,77.2,22,77.31Z" fill="#af5341"/>
          <polygon points="20.8 77.97 20.71 78.11 20.89 77.96 20.8 77.97" fill="#af5341"/>
          <polygon points="22.01 76.6 22.05 76.58 21.95 76.61 22.01 76.6" fill="#af5341"/>
          <path d="M20.06,74.63l-.23.22C19.89,74.82,20.15,74.59,20.06,74.63Z" fill="#af5341"/>
          <path d="M18.93,73.88c.08-.14.1-.27,0-.17S18.89,73.89,18.93,73.88Z" fill="#af5341"/>
          <polygon points="14.86 73.57 14.86 73.46 14.84 73.56 14.86 73.57" fill="#af5341"/>
        </g>
      </g>
    </g>
  </g>
</svg>
