<svg xmlns="http://www.w3.org/2000/svg" viewBox="0 0 83.48 85.65">
  <g id="Layer_2" data-name="Layer 2">
    <g id="Layer_7" data-name="Layer 7">
      <polygon points="8.5 10 0 13.5 8.5 25.61 8.5 57.11 66.5 66 83.48 38 35.49 33.48 32 0.5 12.61 0 8.5 10" fill="#65c6c8"/>
      <g>
        <path d="M22.48,9.9a1.61,1.61,0,0,0,0-.24V9.9Z" fill="#af5341"/>
        <path d="M22.43,9.29c0,.16,0,.44,0,.74,0-.32,0-.18,0-.56,0,0,0,.1,0,.23,0-.09,0,.07,0-.14s0-.27,0-.05Z" fill="#af5341"/>
        <path d="M21.74,8.76v0Z" fill="#af5341"/>
        <path d="M21.34,8.55a.56.56,0,0,0,0-.07S21.34,8.52,21.34,8.55Z" fill="#af5341"/>
        <path d="M21.31,8.18v0Z" fill="#af5341"/>
        <path d="M21.74,8.76V8.65A.29.29,0,0,0,21.74,8.76Z" fill="#af5341"/>
        <path d="M22.33,10.08v0Z" fill="#af5341"/>
        <path d="M21.94,8.49h0v0Z" fill="#af5341"/>
        <path d="M22.08,8.45s0,.27,0,.39V8.45Z" fill="#af5341"/>
        <path d="M22.3,8.94v0Z" fill="#af5341"/>
        <path d="M21.84,8.43v0Z" fill="#af5341"/>
        <path d="M17.68,10.3v0Z" fill="#af5341"/>
        <polygon points="17.48 8.91 17.48 8.9 17.48 8.74 17.48 8.91" fill="#af5341"/>
        <path d="M21.23,7.81h0S21.23,7.79,21.23,7.81Z" fill="#af5341"/>
        <path d="M19.93,7.81c0,.25-.05.32-.06.6A4.86,4.86,0,0,0,19.93,7.81Z" fill="#af5341"/>
        <path d="M22.33,10.05h0Z" fill="#af5341"/>
        <path d="M19.87,8.41h0v0Z" fill="#af5341"/>
        <path d="M20.94,7.94v0Z" fill="#af5341"/>
        <path d="M21.09,8.36v0Z" fill="#af5341"/>
        <path d="M20.77,8.31s0-.06,0,0v0S20.78,8.27,20.77,8.31Z" fill="#af5341"/>
        <path d="M20.66,8.29v0Z" fill="#af5341"/>
        <path d="M18.09,10.15l0-.25C18.08,10.1,18.07,10.17,18.09,10.15Z" fill="#af5341"/>
        <path d="M22.33,9.93v0Z" fill="#af5341"/>
        <path d="M20.39,10.49l0,0S20.38,10.49,20.39,10.49Z" fill="#af5341"/>
        <path d="M19,10.08v0Z" fill="#af5341"/>
        <path d="M20.29,10.48l0-.2,0,.08Z" fill="#af5341"/>
        <path d="M18.07,9.9Z" fill="#af5341"/>
        <path d="M18,10.57s0-.36,0-.57,0,.27,0,.46c0-.1,0-.44,0-.43v.16c0-.29,0,0,.05-.38V9.9l0-.51s0-.23,0,0v.06a2.65,2.65,0,0,1,0,.38c0-.12,0-.4,0-.31a2.93,2.93,0,0,0,0,.42l0-.13c0,.54,0,0,0,.54,0,.09,0-.18.05-.08V9.81c0-.34.06.85.08.4,0-.23,0-.65,0-.43v.39s0-.56,0-.3,0,.13,0,.17c0,.31,0-.21,0-.21v.33c0-.05.05-.3.08-.36,0,.1,0,.21,0,.31,0-.17.09,0,.13.24v-.29s0,.13,0,.18,0-.18,0-.3a1.11,1.11,0,0,1,0,.26c0-.25.05-.54.09-.23v.09c0,.12,0-.6,0-.33v0c.05.13.09-.14.14.3,0-.42,0,.19,0-.4a5.34,5.34,0,0,0,.07.59s0-.37,0-.43v0l0,.37v-.08a1.06,1.06,0,0,1,0-.23c0-.14.05.21.05.37l0-.26c0,.12,0,.17,0,.25,0-.32,0,.32,0,0V10c0,.18,0,.18.05.11v.21c0,.05.06-.1.09-.1a3.86,3.86,0,0,1,0-.5v.32c0-.2,0-.12,0-.37a2.54,2.54,0,0,1,0,.48l0-.11v.27c0-.2,0,.33,0,0v.09s.05-.11.07-.12c0-.28,0-.22,0-.45,0,.09,0,.31.06.29s0-.24,0-.4c0,.25,0,.23,0,.41a.9.9,0,0,0,.08-.25V9.66s0,.11,0,.23v0c.06-.39,0,.75.1.22v0l0-.27s0,.19,0,.35c.07-.43,0,.06.1-.22-.06.75.07,0,0,.44l0-.18c0-.17,0,.1,0,.14l0-.25c.09-.21.08.27.09.44s.18-.91.12-.48l-.07.32c.11-.38.08,0,.22-.29a.72.72,0,0,1-.05.17c0,.24.05,0,.09-.17,0,0,0,.18-.05.27s.09-.29.06,0a.94.94,0,0,1,0,.09c0-.11,0,0,.08-.24,0,.14.07-.11.06,0,.06-.3,0,.16.09-.27-.08.44,0,.37,0,.16,0,.13,0,.14-.05.33,0,0,.05-.09.08-.32-.06.54.14-.42,0,.27a3.6,3.6,0,0,1,.22-.49c-.07.45-.06,0-.12.51.07-.18.15-.56.17-.44a1.57,1.57,0,0,1-.05.27c.07-.18.08,0,.15-.19l0,.12s0,.07,0-.14v.06c0-.3.1-.62.12-.77-.08.58,0,.15-.09.88A1.41,1.41,0,0,0,21,10a.88.88,0,0,1,0,.28c0-.11.06-.33.08-.32l0,.25c0-.19.06-.38.07-.29S21,10,21,10s.12-.51.13-.32c0,.43,0,.15,0,.52l0-.11V10s.06-.26.06-.14l0,.15,0-.07V9.75c0-.19,0-.47.05-.36s0,0,0,.22h0c0-.11,0-.24,0-.14s0,.41,0,.49c0-.31,0-.09.09-.42l0,.32,0-.26c0,.08,0,.12,0,.28s0-.47,0-.27l0,.1c0,.11.07-.16.09,0,0,.37,0,.09,0,.41,0-.07.11-.45.14-.36v0c0-.53,0,.26,0,0l0,.24c0,.09.06-.13.11-.29v.13c0,.12,0,.07.05.14,0-.14,0-.12,0-.31,0,.77.1-.42.12.23V10l0-.12V9.52a1.05,1.05,0,0,1,0-.25,4.29,4.29,0,0,0,0,.5V9.55c0,.41,0-.46,0-.18v.12c0-.07,0-.23,0-.19a3,3,0,0,1,0,.34s0-.5.05-.24l0,.15c0,.32,0,.24,0,.29h0L22,10V9.89c0-.7,0-.13.07-.58a3.54,3.54,0,0,0,0,.55c0,.08,0,.18,0,.26,0-.24,0,.2,0-.16a1.11,1.11,0,0,1,0,.25,1.38,1.38,0,0,0,0-.29c0-.33.05.41.09-.05,0-.19,0-.52.07-.68,0,.15,0,.35,0,.35,0,.15,0,.12,0,0v.27s0-.36,0-.22V10l0-.36a3.57,3.57,0,0,1,0,.37,1.76,1.76,0,0,0,.05-.43v.19c0,.21,0-.1,0-.19V9.51c0-.57,0,.09-.06.06V9.16l0,.34c0-.11,0-.34,0-.4s0,.15,0-.08v.05c0-.09,0-.3,0-.24,0-.24,0,.32-.05,0v0c0,.14,0,.3,0,.66V9s0,0,0-.16c0,.21,0,.14,0,.33,0-.27-.05.13,0-.35a3.13,3.13,0,0,1,0,.34c0-.53,0,.09,0-.15a2.38,2.38,0,0,0,0-.37c0,.46,0-.1,0,0,0,.36,0,.15,0,.27,0-.12,0-.2-.05-.34V8.52c0,.37,0,.3-.05.38,0-.22,0-.31,0-.41h0c0,.12,0,.18,0,.23V8.44s0,.32-.06.14c0,.25,0,.71,0,.88,0-.14,0-.37,0-.43s0,.12,0,.06l0-.24c0-.1,0,.2,0,.18v-.3s0,.08,0,0a2,2,0,0,1,0-.3,1.65,1.65,0,0,1,0,.29,1.82,1.82,0,0,1,0-.34,1.57,1.57,0,0,0,0,.29V8.45a1.17,1.17,0,0,0,0,.35v0h0c-.05.3-.06-.16-.09,0v-.1a1.78,1.78,0,0,0-.07.28s0-.18,0-.3c0,.07,0,.18,0,0s0-.15,0-.13,0-.24,0,0c0-.25,0-.32,0-.25v.19s0,0,0,0l0-.33c0-.41-.11.68-.08,0,0,.23,0,.16,0,.44,0-.05,0-.53,0-.53,0-.18-.06.48-.07.36a5,5,0,0,1-.06.54,3.13,3.13,0,0,1,0-.59s0,0,0,.07a1.64,1.64,0,0,0,0-.22l0,.11c0-.12,0-.11,0-.3a.79.79,0,0,0,0,.25c0-.17,0,0,0-.12a1.8,1.8,0,0,1,0,.2c0-.15,0,.23-.06.27,0-.18.05-.42,0-.28a2.3,2.3,0,0,1,.05-.4c0,.22,0-.16,0-.2l0-.09,0,0,0,.23a1,1,0,0,1,0-.14l-.08.61c0-.12,0,.12,0-.19,0,.11,0-.32.06-.36s0,0,0,0V7.81c0-.29-.05.35-.07.34a1.37,1.37,0,0,0,0-.3,3.75,3.75,0,0,1-.05.43c0-.14,0,.1,0,.08v.07a.41.41,0,0,1-.05.2c0-.13,0-.09,0-.15-.05.31,0-.32,0-.12,0-.12,0-.33.05-.41-.05.23,0-.24,0-.06A2.7,2.7,0,0,1,21,8.3l.06-.16L21,8.48s0-.15,0-.11c0,.2,0,.14-.05.33,0-.35,0,.21,0,0L21,8.08c0-.26-.08.29-.09.14v.11c0,.23,0,0-.05.12l.06-.39a1.81,1.81,0,0,0-.09.37l0-.26c0-.11-.12.55-.13.48a4,4,0,0,1,.1-.5s0,0,0,.1c0-.12-.06.26,0,.07a1.65,1.65,0,0,1-.06.27l0-.09a2.26,2.26,0,0,0-.07.34c.09-.61-.08,0,0-.49a.42.42,0,0,1-.08.13c0-.06,0-.1,0-.08,0-.18-.13.56-.11.35s.05-.17.06-.29c.13-.63-.05.09,0-.29l0,0c0-.22-.08.24-.09.19l0-.1a2.26,2.26,0,0,1-.18.51,2.57,2.57,0,0,0,.08-.38s-.08.4-.11.47c0-.14,0-.26.08-.53h0c.06-.35,0,0,0-.06l0-.15s-.11.43-.14.4l0,.11c-.08.38,0-.22,0,.07l.06-.39c0,.09-.11.37-.14.44.06-.29.11-.44.15-.6,0,0-.05,0-.08.21,0,0,0-.13,0-.07-.06.3-.1.45-.12.44.11-.76,0-.2,0-.79C20,8.17,20,7.76,20,7.8c0,.59,0,0-.07.62,0,0,0,0,0,0V8c0-.18,0-.13,0-.27a2.07,2.07,0,0,1,0-.42c0,.22,0,.31-.05.23v.28c-.07.32,0-.51-.06-.2l0-.19c0,.11-.08,0-.13.48a2.16,2.16,0,0,1,0-.28c0-.08-.13.52-.15.21V7.73s0,.28,0,.13,0-.15,0-.15,0,.26-.05.17l0-.17c0-.2-.08.41-.12.51a3.35,3.35,0,0,0,0-.66V7.5c-.05,0-.1.36-.14.54,0-.48-.09-.2-.14-.47a2.28,2.28,0,0,1,0,.38c0-.08,0,.31,0-.09h0c0-.39,0-.29,0-.3v.53c-.05-.77-.11.29-.14-.4l0,.26V7.67c0-.07,0-.11-.08,0v-.2s0,.81,0,.83V7.84s-.09-.36-.11,0v-.2s-.07-.28,0,.29c0-.37,0,0-.05.14V7.81c0,.35,0,.45,0,.55s0-.22,0-.15c0-.15,0,.26,0,.12V8.15s0,.07,0,.28,0-.07,0-.32c0,.15,0,.36,0,.29V8.21c0-.19,0,.33-.06.06V8.1s0,0,0,0c0-.26,0-.3,0-.66,0,.2,0,.62,0,.5V7.86s0,0,0,0l0-.07c0-.21,0-.12,0-.13,0,.28,0,.24,0,.47,0,0,0,0,0,0v0l0,0c0,.14,0,.27,0,.11,0,.18,0,.37,0,.45,0-.39-.05-.6-.08-.84a1.93,1.93,0,0,0-.05.64c0,.06,0-.16,0-.24a.47.47,0,0,0,0-.12,1.37,1.37,0,0,0,0,.42c0-.16,0-.34,0-.28V8.13c-.07-.59-.05.95-.13.19v.13c-.08-.33-.13.32-.21-.21,0-.1,0,.13,0,.31v0c0,.25-.06-.74-.09-.26v.2s0,.12,0-.11c0,0,0,.21,0,.11V8.38l0,.27c0-.12,0-.63,0-.66s0,.46,0,.57a.72.72,0,0,1,0,.25l0,.09a12.15,12.15,0,0,0,0,1.26l0-.28v.22l0,0c0,.21,0,0,0-.11v.25l0-.44c0,.18,0,.36,0,.46,0-.21,0-.41,0-.54,0,.21,0,.38,0,.2a1,1,0,0,1,0,.25,1.56,1.56,0,0,0,0-.31c0,.26,0-.07.05.37a2.8,2.8,0,0,1,0-.36c0,.52,0,0,.05.59,0-.47,0-.21.06-.47v.09s0,.18,0,.27c0-.39,0-.48,0-.73,0,.38,0,.46,0,.83,0-.32,0-.32,0-.59,0,.24,0,.12,0,.44a2.77,2.77,0,0,1,0-.38c0,.24,0,.46,0,.31A2,2,0,0,1,18,10.57Zm.43-.86h0v0Zm0,0h0c0-.1,0-.2,0-.19S18.42,9.62,18.42,9.7Zm-.16-1.94s0,0,0,.07,0,0,0,0v-.1Z" fill="#af5341"/>
        <path d="M18.27,8.13v0Z" fill="#af5341"/>
        <path d="M21.75,8.8h0v0Z" fill="#af5341"/>
        <polygon points="18.94 10.22 18.94 10.15 18.94 10.21 18.94 10.22" fill="#af5341"/>
        <path d="M21.92,9.77v0Z" fill="#af5341"/>
        <path d="M22,9.84v0Z" fill="#af5341"/>
        <path d="M22.08,10V9.86h0Z" fill="#af5341"/>
        <path d="M20.86,10.23h0S20.85,10.27,20.86,10.23Z" fill="#af5341"/>
        <path d="M21.28,9.61l0,.14S21.27,9.77,21.28,9.61Z" fill="#af5341"/>
        <polygon points="20.39 10.5 20.39 10.49 20.39 10.49 20.39 10.5" fill="#af5341"/>
        <path d="M21.25,9.74c0,.06,0,0,0,0S21.25,9.7,21.25,9.74Z" fill="#af5341"/>
        <path d="M22.39,10.11h0v0Z" fill="#af5341"/>
        <path d="M22.4,10.08v0Z" fill="#af5341"/>
        <path d="M22.41,10V10S22.41,10.05,22.41,10Z" fill="#af5341"/>
        <path d="M22.3,10v0Z" fill="#af5341"/>
        <path d="M22.27,10s0,.22,0,.15v-.08C22.29,10.23,22.28,9.84,22.27,10Z" fill="#af5341"/>
        <path d="M22.17,8.75l0,.08a2.46,2.46,0,0,1,0-.28C22.17,8.22,22.2,8.79,22.17,8.75Z" fill="#af5341"/>
        <path d="M22.1,8.59a1.61,1.61,0,0,0,0-.22A.81.81,0,0,0,22.1,8.59Z" fill="#af5341"/>
        <path d="M21.6,8.57l0-.26A2.17,2.17,0,0,0,21.6,8.57Z" fill="#af5341"/>
        <polygon points="21.41 9.88 21.41 10.04 21.43 9.81 21.41 9.88" fill="#af5341"/>
        <polygon points="21.49 8.06 21.5 8.02 21.48 8.12 21.49 8.06" fill="#af5341"/>
        <path d="M20.72,8.05l0,.31S20.75,8,20.72,8.05Z" fill="#af5341"/>
        <path d="M20.28,8.29c0-.15,0-.26,0-.11S20.27,8.33,20.28,8.29Z" fill="#af5341"/>
        <polygon points="19 7.69 19.01 7.59 19 7.68 19 7.69" fill="#af5341"/>
      </g>
      <g>
        <g>
          <path d="M38.54,85.65l0,0v0Z" fill="#af5341"/>
          <path d="M38.68,85.34s0-.13,0-.11,0,.08,0,.15,0,.08,0,.07a.29.29,0,0,0,0,.1.63.63,0,0,0,.08-.22S38.68,85.34,38.68,85.34Z" fill="#af5341"/>
          <path d="M41.13,81.17h0Z" fill="#af5341"/>
          <path d="M42.54,78.53s0,0,.05.06S42.57,78.54,42.54,78.53Z" fill="#af5341"/>
          <path d="M43.09,78.22l0,0S43.11,78.24,43.09,78.22Z" fill="#af5341"/>
          <path d="M41.13,81.17l.12,0C41.16,81.09,41.16,81.14,41.13,81.17Z" fill="#af5341"/>
          <path d="M38.76,84.65a.09.09,0,0,0,0,0v0Z" fill="#af5341"/>
          <path d="M40.75,82.44v0l.1.07Z" fill="#af5341"/>
          <path d="M40.21,83.31s-.15-.11-.22-.15.09.07.09.1Z" fill="#af5341"/>
          <path d="M39.14,84.58v0Z" fill="#af5341"/>
          <path d="M41.19,81.85l.1,0Z" fill="#af5341"/>
          <path d="M51.93,55.69h0Z" fill="#af5341"/>
          <polygon points="52.8 54.8 52.8 54.81 52.8 54.82 52.8 54.8" fill="#af5341"/>
          <path d="M43.81,77.53h0S43.82,77.55,43.81,77.53Z" fill="#af5341"/>
          <path d="M47.21,69.66c-.27,0-.22-.27-.54-.26C46.78,69.43,47,69.71,47.21,69.66Z" fill="#af5341"/>
          <path d="M38.77,84.63v0A.09.09,0,0,0,38.77,84.63Z" fill="#af5341"/>
          <path d="M46.67,69.4Z" fill="#af5341"/>
          <path d="M44.55,75.5l-.12,0Z" fill="#af5341"/>
          <path d="M43.52,76.79l0,0A.06.06,0,0,0,43.52,76.79Z" fill="#af5341"/>
          <path d="M44.54,74.58s.07,0,.05,0h0S44.59,74.58,44.54,74.58Z" fill="#af5341"/>
          <path d="M44.91,73.8h-.06v0Z" fill="#af5341"/>
          <path d="M50.23,57.8l.23.06C50.29,57.79,50.31,57.67,50.23,57.8Z" fill="#af5341"/>
          <path d="M38.79,84.66s0,0,0,0v0S38.79,84.67,38.79,84.66Z" fill="#af5341"/>
          <path d="M42.55,73.62l.09-.11A.31.31,0,0,0,42.55,73.62Z" fill="#af5341"/>
          <path d="M47.56,63.41v0S47.54,63.39,47.56,63.41Z" fill="#af5341"/>
          <path d="M42.77,73.12a1,1,0,0,0,.21,0s0,0-.06,0Z" fill="#af5341"/>
          <path d="M50.46,57.86Z" fill="#af5341"/>
          <path d="M50.59,56.92c-.1.1.19.16.31.24s-.23,0-.39,0c0,.11.18.28.13.33a.18.18,0,0,1-.12-.05c.15.18-.2.25,0,.48l-.09,0a3.11,3.11,0,0,1,.43.18c0,.05.14.18-.08.11,0,0-.05-.07-.11-.11l.06.09c-.32-.09-.06-.12-.27-.22,0,.14.2.38.06.42-.31-.13,0-.23-.31-.25l.19-.06c-.52-.13.09-.06-.46-.2-.22.1,0,.23-.2.34.15.12.27.11.42.23.2.38-.88-.18-.53.2.19.14.58.34.32.37l-.33-.2c-.11.15.45.32.14.39-.12-.1,0-.19-.11-.18-.32,0,.16.17.12.26l-.31-.13c0,.2.1.49.06.72a.41.41,0,0,0-.28-.13c0,.31-.28.5-.57.65l.22.22s-.13,0-.17-.07.16.09.25.18-.19,0-.25-.07c.15.26.27.68-.1.72l-.06-.07c-.17.09.48.41.17.41l0,0c-.25.23-.16.67-.66.7.36.22-.3.21.22.47-.34.05-.41,0-.7.11-.05.05.29.24.31.34l-.28-.12.25.24-.36-.1,0,.1a.36.36,0,0,1,.23,0c.07.17-.32.19-.47.12l.12.38c-.11-.06-.13-.12-.19-.19.22.27-.3-.11-.1.14a.72.72,0,0,1,.21.12c-.19,0-.26.13-.24.27l-.19-.11c-.14.18-.1.46-.2.68.12,0,.45.13.45.21l-.31-.11c.17.13.15,0,.33.18-.07.06-.36-.1-.44-.19l.06.14c-.09,0-.13-.08-.24-.13.17.12-.37,0-.08.24l-.09,0c-.11.22,0,.37-.12.56.25.12.16.16.35.31-.15.1-.42.15-.47.32s.2.14.33.26c-.23-.1-.29.07-.41-.09a.9.9,0,0,0,0,.59c.11,0,.17,0,.24.06s-.14.06-.25,0l0,0c.22.43-1,.31-.59.75v0l.15.34c-.09.08-.15-.14-.33-.13.28.42-.23.35-.07.67-.75-.16-.2.57-.74.58l.17.06c.13.13-.12,0-.18.05.13,0,.17,0,.25.08,0,.55-.67.83-1,1.23-.12.16.79.49.31.52L43.7,71c.2.51-.34.7-.19,1.18-.06-.06-.15-.1-.14-.13-.25,0-.13.26.05.34-.05,0-.17-.06-.27-.07s.19.31,0,.25c0,0-.06-.06-.08-.08s-.12.21.15.28c-.18.07,0,.29-.2.33.25.19-.23.15.16.36-.41-.2-.44.06-.28.23-.11-.08-.16,0-.32-.1,0,.1,0,.22.22.3-.57-.06.24.52-.44.32a3,3,0,0,1,.11,1c-.4-.2.09-.29-.35-.48.07.31.35.61.15.79s-.16-.11-.22-.17c.06.31-.25.44-.12.74A.16.16,0,0,1,41.8,76s-.1.07.08.15l0-.07c.3.06.49.43.63.5-.5-.32-.23.14-.85-.28a.42.42,0,0,0,.22.17c-.05,0-.13,0-.25-.1,0,.19.25.23.19.36a2.17,2.17,0,0,1-.22-.15c.15.15.29.3.17.37s-.13,0-.12-.08c-.06.2.32.54.05.67-.36-.24-.16,0-.5-.13l0,.16.18,0c0,.1.16.3,0,.33l-.11-.14,0,.22.18-.05c.13.19.43.19.28.28s-.05.1-.28.06h0c.09.09.18.2.06.23s-.37-.19-.45-.21c.26.18,0,.27.25.47a1.3,1.3,0,0,0-.28-.15l.21.15a.4.4,0,0,1-.27-.07c-.11.12.45.16.19.23,0,0-.05,0-.07-.07-.18.12,0,.38-.19.48-.36-.11,0-.17-.33-.25,0,.25.2.64,0,.81l.06,0c.46.25-.31,0-.14.26,0,0-.25-.16-.2-.12-.14.1,0,.35,0,.63l-.11-.08c-.15,0-.16.19-.26.26.11.09.06.13.26.18-.85,0,.11.71-.55.71,0,0-.08-.13-.08-.1l0,.28c.19.07.12,0,.29,0s.16.19.14.24c-.09-.15-.31-.14-.42-.14l.17.08c-.36,0,.36.19.08.25l-.09,0c0,.08.12.18.07.23-.21-.06-.07-.1-.23-.18,0,.1.29.34.07.34,0-.06,0-.12,0-.18-.25,0-.2,0-.25.08h0l-.14.12.06,0c.41.32,0,.27.22.54-.19-.25-.14-.09-.3-.18s-.13.06-.17,0c.11.14-.14.08,0,.27-.05,0,0,.08-.14,0,0,.12.09,0,.15.06.1.21-.27.27-.14.57s.11.3.09.48c-.07,0-.09-.1-.09-.1a.33.33,0,0,0-.1.24s0,0-.07,0,.07.09,0,.16,0-.06-.06-.11a2.62,2.62,0,0,1,0,.28s0-.07-.05-.11a1.76,1.76,0,0,0,0,.31l0-.05s0,0,0,0,0-.11.07-.11l0,.07c.12,0,.09-.24.12-.37l.08.1,0-.16s.11,0,.1.06,0-.09.09-.13a0,0,0,0,1,0,0v-.1s.1,0,.06.07c.16-.1,0-.28.16-.28v0c0-.22-.1-.07-.17-.29l.36,0L39.43,84a.06.06,0,0,1,.09,0c-.05-.12-.06,0-.13-.1.18,0,.07-.3.33-.21-.11-.09-.14,0-.17-.09.28.09,0-.15.18-.17s0,.14.2.11c-.23-.17.15-.14.15-.23-.22-.11,0-.2,0-.36.08,0,.27-.17.45-.24l0,0c-.26-.15-.14-.25-.16-.36a.55.55,0,0,1,.29.21l.05-.08c-.08-.06-.12-.11-.12-.17l.22.12c.06-.11-.15-.34.1-.4-.23-.12-.7-.19-.79-.41a1.09,1.09,0,0,1,.38.21s-.08-.09,0-.1l.18.16c.13,0-.16-.11-.12-.16.19.09.15,0,.29.1s-.09,0,0,.06a.48.48,0,0,1,.35,0c-.11,0-.25-.11-.25-.17s.23.06.35,0c-.11-.09.05-.1-.22-.23,0,0,.14,0,.22,0-.09-.11.09-.28-.22-.35h0v0h0c-.18-.31.33-.32.3-.57l.09.05c0-.16.06-.28-.1-.45,0,0,.2,0,.3.06,0-.12-.12-.18.08-.23.12.16.16,0,.08.14.13-.08.28,0,.09-.27.21.15.33,0,.29,0H42a.19.19,0,0,1,.08-.17l.29.17c.47-.06-.44-.7.26-.59-.18-.16-.21.06-.43-.11.09-.09.57,0,.59,0,.23-.07-.38-.34-.19-.44-.12,0-.42-.14-.47-.3s.52.08.57.18,0,0-.08,0a.2.2,0,0,0,.19.13l-.1-.06c.13,0,.19-.15.35,0-.07-.13-.16-.11-.25-.08.22-.06.11-.21.27-.3-.06,0-.2,0-.19-.07.23-.14-.16-.18-.15-.34.21,0,.38.21.31,0,.15,0,.29.11.37.18-.15-.22.24-.17.31-.22l.06.1a.12.12,0,0,1,0-.13l-.23-.06s.07,0,.16,0c-.12-.11-.37-.13-.53-.3.13,0,0-.22.25-.1-.17.12.3.11.28.27,0,0,0-.07.05-.1s0,0,.07.06c.32,0-.29-.23-.21-.39.15.1.32.11.3.06s-.28-.09-.38-.21c.17,0,0-.15,0-.2l-.09,0c-.15-.09-.1-.13-.12-.23s0,.11.12.11c-.24-.22.38,0,.24-.25.13,0,.31.13.4.12-.15-.22.29,0,.17-.25-.23-.06-.18,0-.35-.22l0,.29-.25-.29c0,.07.08.21,0,.23-.15-.15-.09-.12-.29-.17.37.06-.11-.27.16-.27l.54.25c.31,0-.15-.4.08-.55l-.12,0c-.2-.13,0-.14,0-.25a1,1,0,0,0,.38.1c-.13-.06.09-.14-.26-.33l.27,0c.18-.12-.42-.42-.29-.55.18.14.34.12.43.29,0-.05.08-.08,0-.14.13,0-.17-.26,0-.23-.06-.06-.25-.15-.21-.2l.09,0c-.09,0-.08-.15-.3-.19.64.1.17-.47.72-.39a1.38,1.38,0,0,1,0-.42s.09,0,.06,0c.24-.07-.47-.33-.21-.4s.12.15.25.15c.6.25,0-.23.41-.18l0,0c.24,0-.13-.31,0-.43l.09,0a.86.86,0,0,1-.3-.63c.21.15.1.12.34.2,0-.07-.38-.15-.39-.3a1.46,1.46,0,0,1,.55.09l0,.11c.35.1,0-.15.14-.18l.14.07c0-.19-.33-.36-.22-.53l-.11,0c-.31-.26.24,0,0-.21l.37.13a2.23,2.23,0,0,1-.25-.54,2.13,2.13,0,0,1,.43.55.28.28,0,0,0-.09-.35s.1.11,0,.11q-.36-.31-.27-.51c.69.35.34-.26.92-.1-.15-.36.32-.42.41-.71-.59-.15,0-.08-.54-.32,0-.08,0-.1.05-.09l.42,0c.18,0,.09.12.22.17.11-.12.26,0,.45,0-.21-.08-.26-.18-.15-.23h-.3c-.21-.33.54,0,.34-.28l.14.14c-.06-.15.18-.37-.22-.67.07,0,.23.06.25.12.18-.21-.23-.75.13-.81l.13.08c0-.06-.22-.2-.06-.19s.13.08.15.06-.19-.22-.08-.25l.13.12c.28-.15-.21-.52-.21-.76a.71.71,0,0,0,.72,0l.06,0c.17-.25-.12-.62-.16-.94.5,0,.42-.45.78-.58a.56.56,0,0,1-.33-.22c.11,0-.2-.29.16-.11v0c.38.12.34,0,.39-.13l-.47-.24c.81.07,0-.77.73-.61-.09-.12-.06-.19-.15-.31l.25.13a.6.6,0,0,0,.25-.44l.16.13c.07-.11-.67-.49-.64-.6l.4.14c.09-.2.52-.25.26-.61.06,0,.17.09.17.13s.43-.25-.12-.46c.35.16.13-.19,0-.37l.25.14c-.28-.24-.37-.29-.4-.46,0,0,.21.07.13.08.18,0-.2-.19,0-.25l.14.12c.07-.09,0-.12-.19-.27s.16-.17.39-.08c-.13-.07-.29-.22-.19-.25a.34.34,0,0,1,.15.1c.25-.09-.17-.39.13-.39l.16,0c-.07.13-.14.24-.15.22.23.1.33,0,.61.25-.14-.17-.45-.5-.29-.56l.09,0,0,0s0-.05,0-.09.1,0,.12-.06c.19.08.16-.08.19-.13-.25-.11-.18-.16-.42-.19,0,0,0,0,0,.06a.06.06,0,0,0,0,0l0,0s0,.09,0,.15c-.11-.1-.2-.2,0-.2l-.38-.26c.39.08.65,0,.88.11-.07-.24.1-.44-.33-.77,0-.08.17,0,.26,0s0,.08.07.12c-.07-.14.09-.3-.25-.48.2-.06.29.21.3,0l.09.07c.32-.05.12-.3,0-.53s-.22-.44.12-.5H51.8c.19-.17.19-.42.24-.66a1,1,0,0,1,.29-.63c.08-.11,0-.17-.06-.27l.12,0-.09-.18c0-.22.34-.21.26-.51H52.5c0-.08.06-.27.1-.24s0,0,0-.06h0a1.8,1.8,0,0,1,0-.22c.07-.15.07.06.11-.18s.05-.26,0-.23a.85.85,0,0,1,0,.09l0-.08s.05-.05-.1.1a1,1,0,0,0-.08.11l0,0,.08-.09a.29.29,0,0,0-.1.13l-.07,0a.65.65,0,0,0,0,.13s0-.07-.08,0,.09,0,.05.07-.1,0-.12.08,0,0,0,0-.12.15-.08.21c-.12,0-.13.2-.25.13a.38.38,0,0,1,0,.21c-.1-.18-.16.19-.35.07.12.15-.14.28-.12.45,0,0,0,0,0-.05s-.15.05-.24.08c.19.09.15.22.24.34-.27,0-.21-.16-.42-.22.17.07,0,.22.22.26a.65.65,0,0,1-.33,0c.28.15,0,.08.14.22-.22,0-.31-.11-.3,0A.18.18,0,0,1,50.59,56.92Zm-1,2.93h0l0-.06Zm-.1.24a.23.23,0,0,0,.05-.1c.09,0,.18.09.17.11S49.63,60.09,49.54,60.09Zm2,.32c0,.06,0,.05-.09,0a.21.21,0,0,0,0-.08l0,0Z" fill="#af5341"/>
          <path d="M51.23,60.19v0h-.07l.07.05Z" fill="#af5341"/>
          <path d="M41.07,81.18h0Z" fill="#af5341"/>
          <polygon points="47.56 63.09 47.62 63.12 47.58 63.07 47.56 63.09" fill="#af5341"/>
          <path d="M39.66,82.09h0Z" fill="#af5341"/>
          <path d="M39.43,82.66l-.09,0Z" fill="#af5341"/>
          <path d="M39.21,83.07l.07,0h0Z" fill="#af5341"/>
          <path d="M41.8,76v0C41.76,76,41.77,76,41.8,76Z" fill="#af5341"/>
          <path d="M41.46,78.33l-.09-.12S41.32,78.26,41.46,78.33Z" fill="#af5341"/>
          <polygon points="42.53 73.63 42.54 73.63 42.55 73.62 42.53 73.63" fill="#af5341"/>
          <path d="M41.42,78.11c-.07,0-.07,0-.05.1S41.44,78.16,41.42,78.11Z" fill="#af5341"/>
          <polygon points="38.66 85.07 38.66 85.09 38.66 85.09 38.66 85.07" fill="#af5341"/>
          <path d="M38.66,85.09v0S38.67,85.1,38.66,85.09Z" fill="#af5341"/>
          <path d="M38.66,85.18v-.06S38.65,85.16,38.66,85.18Z" fill="#af5341"/>
          <path d="M38.83,84.46l0,0S38.82,84.45,38.83,84.46Z" fill="#af5341"/>
          <path d="M38.87,84.27s-.09.08-.09.15l0,0S38.92,84.34,38.87,84.27Z" fill="#af5341"/>
          <path d="M39.69,83.78l-.12.12c.07,0,.15,0,.13.06C40,83.86,39.56,84,39.69,83.78Z" fill="#af5341"/>
          <path d="M40,83.4c0,.08.09,0,.13.06S40.13,83.37,40,83.4Z" fill="#af5341"/>
          <path d="M41.74,80.27l.23.11C42,80.31,41.88,80.34,41.74,80.27Z" fill="#af5341"/>
          <polygon points="40.82 79.09 40.65 79.09 40.85 79.21 40.82 79.09" fill="#af5341"/>
          <polygon points="42.65 79.5 42.67 79.54 42.63 79.4 42.65 79.5" fill="#af5341"/>
          <path d="M45.07,74l-.3-.11C44.8,74,45.12,74.15,45.07,74Z" fill="#af5341"/>
          <path d="M45.86,71.57c.15,0,.27,0,.15-.09S45.83,71.52,45.86,71.57Z" fill="#af5341"/>
          <polygon points="49.56 64.77 49.64 64.86 49.6 64.73 49.56 64.77" fill="#af5341"/>
        </g>
        <g>
          <path d="M47.2,84.16s0,0,0,0h0Z" fill="#af5341"/>
          <path d="M47.11,84S47,84,47,84a.24.24,0,0,1,.09,0,.06.06,0,0,1,0,0s0,0,0,0a.3.3,0,0,0-.07-.1Z" fill="#af5341"/>
          <path d="M46.35,81.69l0,0S46.35,81.7,46.35,81.69Z" fill="#af5341"/>
          <path d="M45.79,80.3s0,0,.07,0Z" fill="#af5341"/>
          <path d="M46,79.9v0S46,79.89,46,79.9Z" fill="#af5341"/>
          <path d="M46.35,81.69l.08-.08C46.33,81.66,46.37,81.66,46.35,81.69Z" fill="#af5341"/>
          <path d="M46.76,83.83h0Z" fill="#af5341"/>
          <path d="M46.85,82.17h0l.11-.05Z" fill="#af5341"/>
          <path d="M47,82.67s-.16.07-.24.11l.12,0Z" fill="#af5341"/>
          <path d="M47,83.58h0Z" fill="#af5341"/>
          <path d="M46.8,81.78l.09,0Z" fill="#af5341"/>
          <path d="M35.87,78.84h0Z" fill="#af5341"/>
          <polygon points="35.19 78.61 35.2 78.6 35.2 78.6 35.19 78.61" fill="#af5341"/>
          <path d="M46.07,79.32h0S46.09,79.32,46.07,79.32Z" fill="#af5341"/>
          <path d="M43.34,74.84c-.05.3-.29.48-.31.8C43.06,75.5,43.36,75,43.34,74.84Z" fill="#af5341"/>
          <path d="M46.76,83.82h0Z" fill="#af5341"/>
          <path d="M43,75.64h0v0Z" fill="#af5341"/>
          <path d="M45.4,78.47l-.1.07Z" fill="#af5341"/>
          <path d="M45.44,79.36l0,0S45.44,79.35,45.44,79.36Z" fill="#af5341"/>
          <path d="M44.86,78.3s0,0,0,0l0,0S44.89,78.27,44.86,78.3Z" fill="#af5341"/>
          <path d="M44.64,77.92l0,0h0Z" fill="#af5341"/>
          <path d="M37.31,79.11l-.09-.23C37.28,79.06,37.23,79.1,37.31,79.11Z" fill="#af5341"/>
          <path d="M46.8,83.81h0Z" fill="#af5341"/>
          <path d="M42.91,79.36v-.08A.11.11,0,0,0,42.91,79.36Z" fill="#af5341"/>
          <path d="M40.29,78.29v0S40.3,78.32,40.29,78.29Z" fill="#af5341"/>
          <path d="M42.78,79.13l.15-.13-.07,0Z" fill="#af5341"/>
          <path d="M37.22,78.88Z" fill="#af5341"/>
          <path d="M36.87,79.27c.08,0,0-.23-.07-.38s.1.2.17.35c0-.06,0-.3,0-.29a.5.5,0,0,1,0,.13c0-.22.17,0,.14-.28l0,.08c-.06-.16-.1-.32-.14-.44s0-.21.07,0c0,0,0,.08,0,.15V78.5c.12.31,0,.1.06.33,0-.09,0-.36.1-.27.1.32-.08.1.07.39l-.12-.13c.21.49-.05,0,.15.48.14.12.08-.12.2,0,0-.19-.09-.27-.12-.46,0-.36.35.81.31.32,0-.23-.16-.65,0-.45l.09.38c.09,0-.11-.55,0-.33s0,.14,0,.18c.14.28,0-.22,0-.23l.11.32c.08-.08.11-.34.19-.43a1.71,1.71,0,0,0,.09.3c.08-.2.29,0,.47.11l0-.29s.06.12.07.18-.05-.18-.06-.3.08.15.09.24c0-.26.09-.59.27-.31v.09c.1.09-.1-.6.05-.36v.05c.19.08.28-.23.52.16-.1-.41.21.14.05-.43.17.26.17.37.35.52s0-.37,0-.44l.09.29,0-.32.13.34,0-.08a.72.72,0,0,1-.09-.21c0-.15.2.16.25.31l.06-.29a1.38,1.38,0,0,1,0,.25c0-.33.1.31.09,0a1.2,1.2,0,0,1-.06-.24c.08.17.16.15.2.06l0,.2c.12,0,.19-.16.3-.19a1.11,1.11,0,0,1-.14-.48l.11.31c0-.2-.07-.11-.1-.36.06,0,.14.35.14.45l0-.12c0,.09,0,.15.07.27,0-.21.18.28.11-.06l0,.09c.11,0,.13-.16.22-.2a2.8,2.8,0,0,1-.06-.45c.1.07.24.26.32.21s-.05-.24-.07-.4c.07.24.15.19.16.38.08-.07.14-.08.11-.33,0-.09,0-.13-.06-.22s0,.08.07.2v0c0-.21.07-.06.08.06s0,.22,0,0v0a2.76,2.76,0,0,1,.08-.27,1.94,1.94,0,0,1-.06.33c.13-.42,0,0,.15-.24-.28.72.08,0-.14.45l.09-.16c.1-.14,0,.1-.07.13l.14-.21c.07-.06.07,0,0,.15a4.6,4.6,0,0,1-.35.31c0,.11.83-.4.51-.09l-.3.13c.44,0,.18.35.56.35-.07,0-.16.07-.17,0-.19.16.06.14.24,0,0,0-.16.09-.23.16s.31-.06.11.07a.19.19,0,0,1-.09,0c.11,0,0,.12.26,0-.08.13.17.06.06.19.29-.12-.07.17.31,0-.39.22-.25.29-.05.22-.12,0-.1.1-.28.18,0,0,.13,0,.33-.08-.43.34.47-.05-.11.33a2.36,2.36,0,0,1,.65.12c-.39.22-.11-.11-.52.13.22,0,.6-.1.57.06s-.18.08-.26.11c.23,0,.09.23.36.21l-.12,0s0,.08.14,0h-.06a3.87,3.87,0,0,1,.73-.29c-.53.25-.08.16-.75.47a.64.64,0,0,0,.25-.1s-.09.08-.24.14c.14,0,.31-.12.35,0s-.13,0-.24.1c.19-.06.38-.12.33,0s-.12.07-.12,0,.53-.09.43.1c-.4.18-.11.11-.43.29h.13l.14-.11s.28,0,.2.06l-.15,0,.11.06.09-.12c.2,0,.41-.24.36-.12s0,0-.16.18h0c.12,0,.24-.07.18,0s-.37.19-.43.24c.28-.13.14.07.44-.07l-.28.15.24-.11a.56.56,0,0,1-.23.16c0,.09.4-.25.26-.07l-.09,0c0,.13.23.07.16.21-.32.2-.12,0-.38.16.12.07.51,0,.49.14l0,0c.47-.25-.19.2.06.13l-.21.1c0,.11.19.08.39.1l-.12.06c-.09.1,0,.14,0,.21a.7.7,0,0,0,.29-.13c-.62.53.49.07,0,.48,0,0-.13,0-.12,0l.19,0c.18-.1.1-.07.23-.17s.22-.07.23,0a.87.87,0,0,0-.37.23l.17-.09c-.27.22.36-.19.2,0l-.09,0c.06,0,.19,0,.18,0-.17.11-.1,0-.26.1.05,0,.4-.11.25,0s-.08,0-.14,0-.12.13-.13.17h0l0,.11,0,0c.46-.19.16,0,.46,0-.28.07-.14.07-.31.16a.29.29,0,0,1-.11.11c.16,0,0,.09.18,0,0,0,0,0-.1.09.08,0,.07,0,.14-.08s0,.22.23.2.26,0,.35,0-.12,0-.12,0,0,.08.08.1,0,0-.06.05.1,0,.1,0l-.11,0,.16,0s-.06,0-.09,0A1,1,0,0,0,47,84v0s0,0,0,0,0,0,0-.06l0,0c.07-.08-.09-.1-.13-.15l.1,0h-.11s.07-.07.1,0,0,0,0-.08h0l0,0s.08-.06.08,0c.05-.12-.15-.06-.06-.15h0c-.09-.08-.11,0-.29,0l.27-.21-.12.06s0,0,.05-.07c-.1,0-.05,0-.15.06.1-.11-.13-.09.1-.24-.12,0-.06.1-.17.09.26-.16-.07,0,0-.15s.09,0,.2-.1c-.26.11,0-.12,0-.14s-.12,0-.22-.06c.08,0,.09-.2.17-.32l0,0c-.27.14-.25,0-.32,0a.94.94,0,0,1,.32-.13v0a.32.32,0,0,1-.19,0l.23-.11c0-.06-.3,0-.17-.14a3.15,3.15,0,0,1-.79.41,2.42,2.42,0,0,1,.39-.2s-.11,0-.07,0l.23-.09c.07-.08-.18.08-.18,0,.18-.09.12-.09.26-.16s-.06.06,0,0a.8.8,0,0,1,.23-.23,1.21,1.21,0,0,1-.27.13c-.05,0,.2-.14.27-.22-.13.06,0,0-.29.1,0,0,.11-.09.18-.13-.13,0-.11-.12-.37.07v0h0c-.31,0,0-.27-.12-.3l.08,0c-.13,0-.12-.09-.33,0,0,0,.14-.13.24-.18-.09,0-.19,0-.08-.09s.13-.09.14,0c0-.1.17-.19-.09-.11.23-.11.25-.2.17-.19l-.14.13s0,0,0-.08l.29-.15c.3-.31-.71.13-.16-.28-.22.08-.11.14-.36.25,0-.08.39-.36.39-.38s-.46.17-.39,0a1.34,1.34,0,0,1-.5.23,1.31,1.31,0,0,1,.5-.32s0,0,0,0a.3.3,0,0,0,.2-.09l-.1,0c.09-.08,0-.14.22-.22a.3.3,0,0,0-.22.13c.11-.14-.05-.1,0-.22L45.8,80c.07-.17-.22.06-.3,0,.13-.12.38-.2.21-.19a.87.87,0,0,1,.37-.19c-.24,0,.06-.19.08-.24l.1,0c-.06,0-.07,0-.07,0l-.2.13s0,0,.1-.1a3.86,3.86,0,0,1-.54.27c.09-.08-.16,0,.11-.17,0,.13.28-.17.36-.13s-.05,0,0-.05,0,0,.07,0c.21-.21-.33.14-.37.06.17-.08.29-.18.25-.18s-.25.16-.39.2c.1-.12-.12,0-.12,0l0,.06c-.16.08-.15,0-.22,0,.12-.07.1,0,.15,0-.3.11.23-.25,0-.2.09-.08.29-.16.35-.23-.24.06.17-.18,0-.15a.91.91,0,0,1-.37.18l.2,0-.34.1s.17,0,.14,0a.8.8,0,0,0-.29.15c.28-.22-.23,0,0-.15l.51-.29c.19-.2-.33,0-.26-.15l-.07.08c-.21.1-.06-.05-.16,0a2.13,2.13,0,0,0,.32-.22c-.13.07,0-.08-.38.1l.21-.17c0-.13-.54.19-.53.08.2-.08.3-.19.47-.21,0,0,0-.07-.12,0,.1-.08-.27.06-.12-.06-.08,0-.26.13-.26.1a.28.28,0,0,1,.08,0c-.08,0-.14,0-.32.15.5-.38-.16-.2.27-.52a.5.5,0,0,1-.22-.1s.08,0,.07,0c.12-.16-.52.23-.38,0s.17,0,.26-.12c.56-.33-.13-.06.17-.29h0c.17-.15-.27,0-.26-.07l.08,0a1,1,0,0,1-.57.06,1.62,1.62,0,0,0,.35-.17s-.36.21-.45.19a2.4,2.4,0,0,1,.43-.33l0,.05c.3-.21,0-.07,0-.13l.14-.07c-.09-.07-.42.15-.47,0l-.09.07c-.37.15.15-.17-.13-.07l.32-.25c-.11,0-.4.07-.49.06a1.15,1.15,0,0,1,.59-.2c0-.06-.12-.17-.28,0,0,0,.13,0,.09,0-.27.15-.42.2-.46.12.55-.58,0-.4.39-1.06-.14,0-.16-.11-.17-.31s0-.48-.09-.52c-.25.78-.09,0-.41.86-.07.08-.08.07-.06,0a2.67,2.67,0,0,0,0-.4c0-.21.11-.2.17-.37-.13,0,0-.3,0-.45-.06.26-.17.41-.23.35a2.64,2.64,0,0,1,0,.29c-.29.47,0-.54-.33-.06l.12-.25c-.14.17-.46.21-.56.73a.61.61,0,0,1,0-.3c-.27,0-.46.69-.67.43l0-.15c0,.06,0,.3-.1.17s0-.15,0-.15,0,.27,0,.19l0-.17c-.18-.15-.07.45-.14.58a1.16,1.16,0,0,0-.33-.59l0-.06c-.16,0-.14.43-.22.63-.22-.43-.34-.11-.55-.33a1,1,0,0,1,.09.38c-.06-.07,0,.32-.11-.07h0c-.13-.38-.17-.26-.22-.25l.14.51c-.35-.7-.26.37-.52-.27,0,.13,0,.14,0,.28l-.08-.27c-.11,0-.16-.07-.25,0l0-.2c-.07,0,.15.8.1.84l-.14-.4c-.1,0-.31-.29-.31.11,0-.06,0-.18,0-.2s-.28-.22-.1.33c-.1-.36-.11,0-.12.18l-.07-.27c.05.35.07.45,0,.56s-.07-.21,0-.15c-.1-.12,0,.27-.07.14l0-.17c-.06,0,0,.08,0,.29s-.12,0-.2-.28c0,.15.06.36,0,.3a.65.65,0,0,1,0-.18c-.15-.15,0,.35-.19.11a1,1,0,0,0-.05-.16c.07,0,.13,0,.13,0a2.7,2.7,0,0,1-.19-.62c0,.2,0,.63-.05.53l0-.09v0s0,0,0,0,0-.06-.07-.06c-.06-.2-.1-.09-.13-.09a2,2,0,0,0,.13.45s0,0,0,0v0l.07,0c0,.15,0,.27,0,.13,0,.18.07.36.09.45-.15-.37-.29-.55-.37-.78,0,.19-.18.16-.09.68,0,.07-.07-.14-.1-.22s0,0,0-.13c0,.14-.13.09,0,.46-.11-.13-.06-.35-.13-.24l0-.12c-.16-.23-.15.06-.16.29s-.05.4-.22.17a.28.28,0,0,1,0,.08c-.14-.06-.22.07-.32.16A.28.28,0,0,1,36,78c-.07,0,0,.1-.06.19l0-.11,0,.17c-.07.12-.22-.16-.28.06l0,0s-.11.09-.12,0,0,0,0,0v0l-.08.1c-.08,0,0-.09-.11,0s-.1.1-.09.08,0,0,0,0h0s-.05,0,.07,0h.07l0,0-.07,0c.05,0,.07,0,.09,0a.08.08,0,0,0,0,0l.06,0s0,0,0,.07-.05-.07,0-.08,0,.08.08,0,0,0,0,0,.1,0,.1,0,.13,0,.16.13c0,0,0-.1.07-.1,0,.17.13,0,.18.24,0-.17.15,0,.2-.15s0,.06,0,0,.09.11.13.16c0-.2,0-.24,0-.37.12.22,0,.25.12.46-.06-.18,0-.16,0-.32a1.2,1.2,0,0,1,.14.28c-.08-.3,0,0,0-.23.11.17.1.31.14.22A.27.27,0,0,1,36.87,79.27Zm1.36-.78h0l0,0Zm.12,0s0,0-.06,0a.54.54,0,0,1,0-.18C38.26,78.33,38.31,78.37,38.35,78.45Zm-.81-1.79s0,0,.05.06l0,0v0Z" fill="#af5341"/>
          <path d="M37.61,77v0l0,.06,0-.09Z" fill="#af5341"/>
          <path d="M46.32,81.73h0l0,0Z" fill="#af5341"/>
          <polygon points="40.2 78.46 40.18 78.39 40.18 78.46 40.2 78.46" fill="#af5341"/>
          <path d="M45.88,82.78l0,0Z" fill="#af5341"/>
          <path d="M46.06,83l0,.07A.36.36,0,0,0,46.06,83Z" fill="#af5341"/>
          <path d="M46.15,83.25l.07,0h0Z" fill="#af5341"/>
          <path d="M43.81,80.29h0Z" fill="#af5341"/>
          <path d="M44.92,80.94l-.13,0S44.78,81,44.92,80.94Z" fill="#af5341"/>
          <polygon points="42.91 79.37 42.91 79.37 42.91 79.36 42.91 79.37" fill="#af5341"/>
          <path d="M44.77,80.92s0,.06,0,0S44.81,80.92,44.77,80.92Z" fill="#af5341"/>
          <polygon points="46.94 83.97 46.95 83.98 46.96 83.98 46.94 83.97" fill="#af5341"/>
          <path d="M47,84h0Z" fill="#af5341"/>
          <path d="M47,84l0,0Z" fill="#af5341"/>
          <path d="M46.7,83.75h0Z" fill="#af5341"/>
          <path d="M46.62,83.69s0,.07,0,.08h0C46.61,83.78,46.69,83.68,46.62,83.69Z" fill="#af5341"/>
          <path d="M46.9,83.08l0,.1s.11-.09.13-.06C47.13,82.93,46.91,83.2,46.9,83.08Z" fill="#af5341"/>
          <path d="M46.91,82.79s.09-.05.13-.06A.13.13,0,0,0,46.91,82.79Z" fill="#af5341"/>
          <path d="M46.25,81.14l.23-.12S46.39,81.06,46.25,81.14Z" fill="#af5341"/>
          <polygon points="44.93 81.48 44.81 81.59 45.02 81.49 44.93 81.48" fill="#af5341"/>
          <polygon points="46.42 80.42 46.46 80.42 46.36 80.42 46.42 80.42" fill="#af5341"/>
          <path d="M44.9,77.87l-.27.16C44.69,78,45,77.86,44.9,77.87Z" fill="#af5341"/>
          <path d="M44,76.88c.13-.1.18-.21,0-.15C44,76.78,43.94,76.88,44,76.88Z" fill="#af5341"/>
          <polygon points="39.81 75.94 39.8 75.83 39.78 75.93 39.81 75.94" fill="#af5341"/>
        </g>
        <g>
          <path d="M26.28,80.08s0,0,0,0v0Z" fill="#af5341"/>
          <path d="M26.22,79.8s-.07-.1-.1-.06.05.05.1.1,0,.07,0,.07,0,.06,0,.08a.58.58,0,0,0-.06-.19S26.22,79.8,26.22,79.8Z" fill="#af5341"/>
          <path d="M25.86,75.6l0,0S25.86,75.61,25.86,75.6Z" fill="#af5341"/>
          <path d="M25.53,73a.08.08,0,0,0,.08,0A.11.11,0,0,0,25.53,73Z" fill="#af5341"/>
          <path d="M25.81,72.51l0,0S25.83,72.51,25.81,72.51Z" fill="#af5341"/>
          <path d="M25.86,75.6l.09-.09C25.84,75.53,25.88,75.56,25.86,75.6Z" fill="#af5341"/>
          <path d="M25.89,79.27s0,0,0,0l0,0Z" fill="#af5341"/>
          <path d="M26.28,76.68v0h.12Z" fill="#af5341"/>
          <path d="M26.33,77.57s-.19,0-.27,0c.08,0,.12,0,.13,0Z" fill="#af5341"/>
          <path d="M26.17,79v0Z" fill="#af5341"/>
          <path d="M26.3,76l.1,0Z" fill="#af5341"/>
          <path d="M20.3,52.2h0S20.3,52.19,20.3,52.2Z" fill="#af5341"/>
          <polygon points="20.51 51.12 20.52 51.13 20.52 51.13 20.51 51.12" fill="#af5341"/>
          <path d="M26,71.65Z" fill="#af5341"/>
          <path d="M24.34,64.39c-.23.13-.34-.07-.59.11C23.86,64.46,24.2,64.52,24.34,64.39Z" fill="#af5341"/>
          <path d="M25.89,79.25v0S25.89,79.24,25.89,79.25Z" fill="#af5341"/>
          <path d="M23.75,64.5Z" fill="#af5341"/>
          <path d="M25.47,69.85l-.12,0Z" fill="#af5341"/>
          <path d="M25.35,71.29l0,0S25.35,71.28,25.35,71.29Z" fill="#af5341"/>
          <path d="M24.94,69.22s0,0,0-.06l0,0S25,69.19,24.94,69.22Z" fill="#af5341"/>
          <path d="M24.79,68.48l-.05,0,0,0Z" fill="#af5341"/>
          <path d="M20.1,54.57l.22-.08C20.15,54.53,20.1,54.43,20.1,54.57Z" fill="#af5341"/>
          <path d="M25.93,79.27a.05.05,0,0,1,0,0l0,0Z" fill="#af5341"/>
          <path d="M22.76,69.62l0-.12A.16.16,0,0,0,22.76,69.62Z" fill="#af5341"/>
          <path d="M21.09,59.87l0,0S21.06,59.87,21.09,59.87Z" fill="#af5341"/>
          <path d="M22.67,69.16a.55.55,0,0,0,.17-.11h-.07Z" fill="#af5341"/>
          <path d="M20.33,54.49h0Z" fill="#af5341"/>
          <path d="M19.9,53.77c0,.12.25,0,.39,0s-.2.1-.34.18c.05.08.3.09.29.16a.5.5,0,0,1-.13,0c.23,0,0,.27.3.32l-.08,0a3.63,3.63,0,0,1,.45-.11s.22,0,0,.12c0,0-.09,0-.16,0l.1,0c-.31.11-.11,0-.34,0,.1.08.37.15.29.25-.33.08-.11-.17-.4,0l.12-.15c-.5.19,0-.09-.49.11-.12.19.13.16,0,.34.19,0,.28-.07.47-.07.38.16-.82.35-.32.42.24,0,.67-.07.47.1l-.38,0c0,.16.56,0,.34.19-.16,0-.15-.09-.19-.06-.28.16.22,0,.24.11l-.33.09c.09.15.36.28.46.45a.59.59,0,0,0-.31.07c.22.19.06.49-.09.75l.3,0s-.12.06-.18,0,.18,0,.3,0-.15.1-.24.09c.27.1.61.32.34.55l-.1,0c-.09.15.62,0,.38.2L21,58c-.07.3.25.55-.14.84.42,0-.13.31.45.21-.26.21-.37.19-.52.44,0,.07.38,0,.46.08l-.31.06.34,0L21,59.8l.09.05s.13-.08.21-.1-.16.3-.31.34l.31.2a.62.62,0,0,1-.26,0c.33.08-.32.09,0,.16a1.09,1.09,0,0,1,.25,0c-.18.1-.15.24,0,.32l-.21,0c0,.19.17.37.21.58a.64.64,0,0,1,.5-.1l-.32.09c.21,0,.11-.09.37-.06,0,.09-.36.13-.47.1l.13.08c-.09,0-.15,0-.27,0,.2,0-.29.22.07.21l-.1,0c0,.2.17.28.22.44.28,0,.23,0,.46,0-.06.14-.25.32-.2.46s.24,0,.41,0c-.25.06-.19.21-.39.16a.79.79,0,0,0,.35.41c.1,0,.13-.08.22-.08s-.08.11-.21.13h0c.42.18-.62.74-.05.84h0l.31.16c0,.11-.2,0-.34.08.47.15,0,.37.33.5-.71.3.15.51-.28.8l.17,0c.18,0-.09.08-.12.13.14,0,.15-.09.25-.07.29.38-.08.93-.15,1.4,0,.17.92-.09.54.2h-.33c.45.24.12.66.51.91-.08,0-.17,0-.18,0-.22.11,0,.25.23.21,0,.06-.17,0-.26.1s.33.11.1.19a.16.16,0,0,1-.1,0c.13,0,0,.21.28.11-.11.15.16.2,0,.33.32,0-.1.23.33.17-.44.08-.32.28-.09.31-.14,0-.13.1-.32.1,0,.09.12.15.35.09-.5.26.49.23-.17.46a2.93,2.93,0,0,1,.64.62c-.44.08-.09-.25-.55-.14.22.18.63.23.56.47-.05.06-.2,0-.28,0,.23.18.05.43.33.57a.29.29,0,0,1-.13,0s-.05.1.15,0l-.06,0c.28-.12.64,0,.8,0-.59,0-.11.22-.86.27a.54.54,0,0,0,.28,0s-.11.08-.27.07c.14.11.34,0,.36.15a2.09,2.09,0,0,1-.26,0c.21,0,.41.05.35.17s-.14,0-.14,0c.06.18.57.21.42.44-.43,0-.12.1-.49.18l.13.08.17-.07c0,.09.3.12.19.22l-.16,0,.1.16.12-.12c.21.06.46-.1.39,0-.05,0,0,.09-.2.19h0c.13,0,.26,0,.18.13s-.41.06-.48.09c.31,0,.13.2.47.19a2,2,0,0,0-.32,0h.26a.45.45,0,0,1-.26.1c0,.14.45-.14.28.06l-.1,0c-.07.18.22.27.13.44-.36.11-.12-.11-.42,0,.11.19.53.34.48.55l0,0c.53-.08-.23.2,0,.25a.63.63,0,0,0-.24,0c0,.15.19.25.39.42h-.14c-.1.11,0,.23-.07.33.14,0,.13,0,.32,0-.73.42.49.43,0,.78,0,0-.13,0-.13,0l.19.17c.2-.05.12-.05.27-.12s.24,0,.25.09c-.16-.07-.33.06-.42.12a1.08,1.08,0,0,1,.19,0c-.32.17.39-.06.2.13h-.11c.07,0,.21.06.19.13-.2.06-.11,0-.28,0,0,.08.43.08.24.2-.06,0-.07-.08-.14-.1-.21.13-.15.12-.16.19h0l-.05.15.05,0c.51,0,.16.18.48.26-.3-.08-.16,0-.35,0,0,0-.07.1-.13.1.17,0-.06.12.18.17-.06,0,0,.07-.12.08.08.07.08,0,.15,0s-.07.33.21.47.26.14.34.28S26,79,26,79a.21.21,0,0,0,.06.22s-.05,0-.07,0,.11,0,.1.11l-.12,0a1,1,0,0,1,.16.19s-.06,0-.1,0,.12.2.16.22v-.06s0,0,0,0,0-.1,0-.11l0,0c.09-.07-.07-.21-.11-.31l.12,0L26,79.17s.09-.06.12,0-.06-.06,0-.14h0L26.12,79s.09,0,.08,0c.07-.15-.14-.2,0-.27h0c-.08-.18-.12,0-.3-.11l.32-.16h-.14s0-.06.07-.07c-.11,0-.07,0-.17,0,.13-.12-.12-.24.15-.32-.14,0-.09.11-.19,0,.29-.09-.07-.1,0-.22s.09.1.23,0c-.29,0,.05-.18,0-.25-.24.05-.11-.14-.21-.24.09,0,.13-.26.23-.4h.05c-.3,0-.26-.09-.33-.16a.53.53,0,0,1,.36,0V76.7a.27.27,0,0,1-.2,0l.25,0c0-.11-.31-.16-.14-.34-.26,0-.68.25-.88.14a1.56,1.56,0,0,1,.43-.06s-.12,0-.07,0h.25c.09-.09-.2,0-.19,0,.2,0,.13-.07.29-.09s-.07.06,0,.06a.51.51,0,0,1,.27-.2c-.11,0-.26,0-.3,0s.23-.08.31-.16c-.14,0,0-.09-.31,0,0,0,.13-.06.21-.09-.14,0-.09-.24-.39-.12v0h0c-.32-.12.09-.4-.07-.56h.1c-.13-.09-.11-.23-.34-.26,0,0,.17-.11.28-.12-.08-.07-.19,0-.06-.2.19,0,.15-.06.14.06.06-.13.21-.18-.07-.24.25,0,.29-.14.21-.18l-.16.11a.14.14,0,0,1,0-.15l.33,0c.36-.3-.75-.26-.12-.55-.24,0-.13.15-.41.15,0-.11.47-.31.47-.34.15-.17-.51,0-.41-.2-.11,0-.42.13-.55,0s.46-.22.57-.17,0,0-.06,0a.18.18,0,0,0,.22,0l-.11,0c.1-.08.06-.21.26-.22a.18.18,0,0,0-.24.08c.14-.16,0-.2.05-.36-.06,0-.19.08-.2.06.11-.22-.24,0-.31-.16.16-.11.43-.06.25-.16a.51.51,0,0,1,.41-.06c-.25-.08.1-.25.13-.33l.11,0c-.07,0-.07-.05-.08-.09l-.22.09c0-.05,0-.08.12-.1-.16,0-.38.11-.6.07.11-.07-.16-.12.15-.2-.08.18.3-.08.38,0s-.05,0,0-.09a.11.11,0,0,1,.08,0c.25-.21-.36,0-.39-.16.18,0,.33-.1.28-.11s-.28.08-.42.05c.11-.12-.13-.08-.12-.14l-.05.07c-.18,0-.17,0-.24-.09.14,0,.11,0,.16,0-.32,0,.29-.23.06-.3.11-.07.33-.07.4-.13-.25-.07.21-.17,0-.26a.51.51,0,0,1-.42,0l.21.17-.37-.07c0,.07.18.11.14.15a.42.42,0,0,0-.33,0c.34-.16-.24-.13,0-.27l.58-.12c.23-.19-.35-.2-.24-.42l-.09.08c-.23,0-.05-.11-.16-.15a1.37,1.37,0,0,0,.37-.14c-.14,0,0-.14-.4-.08l.24-.14c.07-.17-.59-.06-.56-.23.22,0,.35-.09.52,0,0,0,0-.1-.12-.07.12-.06-.29-.09-.11-.17-.09,0-.29,0-.29,0a.27.27,0,0,1,.1,0c-.1,0-.15-.06-.36,0,.58-.27-.13-.42.37-.66a.91.91,0,0,1-.21-.3c.06,0,.1,0,.08,0,.15-.17-.57,0-.4-.17s.18,0,.29,0c.63-.15-.12-.17.23-.35l0,0c.2-.12-.28-.15-.26-.29h.1a.84.84,0,0,1-.6-.28c.26,0,.14,0,.39,0,0,0-.4.1-.5,0a2.18,2.18,0,0,1,.5-.23l0,.1c.34-.12,0-.13,0-.2l.15,0c-.08-.15-.46-.08-.47-.26l-.11,0c-.4,0,.2-.13-.11-.16l.39-.11a2.21,2.21,0,0,1-.52-.24,2.31,2.31,0,0,1,.66.15.25.25,0,0,0-.27-.2s.15,0,.09.07c-.32,0-.49-.09-.5-.21.75-.13.12-.36.69-.57-.33-.16,0-.45-.07-.7-.56.21,0-.07-.63.07-.05-.06,0-.08,0-.09l.32-.25c.17-.08.14,0,.28,0s.24-.1.38-.22c-.21.06-.31,0-.25-.07l-.25.16c-.36-.12.47-.26.12-.38l.2,0c-.13-.07-.07-.35-.57-.34.07,0,.23-.09.28-.06,0-.24-.61-.39-.35-.63h.15s-.29,0-.15-.1.15,0,.15,0-.28-.06-.2-.13H24c.15-.26-.47-.26-.61-.42a.76.76,0,0,0,.6-.39h.06c0-.27-.45-.37-.66-.57.44-.24.09-.53.31-.82a.67.67,0,0,1-.39,0c.08-.08-.33-.1.07-.17v0c.38-.12.26-.22.25-.31l-.52.09c.71-.38-.4-.55.25-.81-.14,0-.15-.1-.29-.13l.28-.05a.47.47,0,0,0-.05-.44h.21c0-.11-.83,0-.87-.07l.41-.11c0-.19.29-.45-.13-.56.06,0,.18,0,.21,0s.21-.4-.35-.26c.37-.07,0-.2-.19-.27l.28,0c-.37,0-.47,0-.59-.1s.22-.07.16,0c.12-.13-.28,0-.16-.17h.19c0-.1-.09-.08-.31-.09s0-.2.28-.26c-.15,0-.37,0-.31-.07a.31.31,0,0,1,.19,0c.15-.2-.37-.18-.12-.35l.16,0c0,.13,0,.24,0,.23.25,0,.28-.16.64-.15-.21,0-.65-.1-.55-.23l.09,0h0s0,0-.06,0,.06-.07.06-.1c.21-.06.09-.14.09-.2-.28.06-.24,0-.46.09,0,0,0,0,.05,0l0,0h0a.73.73,0,0,1,0,.12c-.15,0-.28,0-.14-.12l-.46,0c.37-.15.55-.33.79-.4-.19-.12-.17-.35-.71-.35-.07,0,.15-.08.23-.12s.05,0,.13,0c-.14-.06-.1-.26-.48-.2.13-.15.36,0,.25-.15h.12c.22-.21-.08-.28-.31-.37s-.42-.19-.19-.41a.17.17,0,0,1-.08.06c.06-.22-.08-.4-.18-.59a.77.77,0,0,1-.12-.59c0-.11-.11-.1-.2-.15l.12,0-.18-.08c-.13-.15.15-.33-.09-.49l0,0c0-.07-.1-.22-.05-.22s0,0,0,0h0a.75.75,0,0,1-.1-.17c0-.14.08,0,0-.18s-.11-.21-.1-.18,0,.08,0,.08v-.07s0-.07,0,.11v.13l0,0V51.3a.27.27,0,0,0,0,.15l0,0a.56.56,0,0,0,0,.12s0,0-.07,0,.07-.07.08,0-.07.06,0,.12,0,0-.05,0,0,.16,0,.18,0,.21-.12.23.1.09.1.15c-.18-.07,0,.21-.24.23.18,0,.05.27.16.38s-.05,0,0,0-.1.11-.16.18c.21,0,.25.07.39.11-.22.14-.26,0-.47.07.18,0,.16.13.33.06a.83.83,0,0,1-.28.16c.31,0,0,.06.23.08-.17.13-.31.09-.22.18A.19.19,0,0,1,19.9,53.77Zm.88,2.53h0l0-.05Zm0,.22a.14.14,0,0,0,0-.09c.1,0,.19,0,.19,0S20.9,56.47,20.83,56.52Zm1.82-.84s0,0-.06.06l-.05-.05h.11Z" fill="#af5341"/>
          <path d="M22.27,55.69h0l-.06,0h.09Z" fill="#af5341"/>
          <path d="M25.82,75.64h0a.05.05,0,0,1,0,0Z" fill="#af5341"/>
          <polygon points="20.91 59.66 20.98 59.64 20.91 59.63 20.91 59.66" fill="#af5341"/>
          <path d="M25.19,77l-.06,0Z" fill="#af5341"/>
          <path d="M25.32,77.54l-.05.08Z" fill="#af5341"/>
          <path d="M25.37,77.94h0Z" fill="#af5341"/>
          <path d="M23.51,71.69l0,0C23.43,71.65,23.46,71.67,23.51,71.69Z" fill="#af5341"/>
          <path d="M24.53,73.46a.47.47,0,0,1-.14,0S24.38,73.49,24.53,73.46Z" fill="#af5341"/>
          <polygon points="22.76 69.63 22.76 69.63 22.76 69.62 22.76 69.63" fill="#af5341"/>
          <path d="M24.38,73.33c-.05,0,0,.07,0,.09S24.42,73.35,24.38,73.33Z" fill="#af5341"/>
          <polygon points="26.05 79.61 26.06 79.63 26.07 79.63 26.05 79.61" fill="#af5341"/>
          <path d="M26.07,79.63v0S26.07,79.64,26.07,79.63Z" fill="#af5341"/>
          <path d="M26.11,79.69l0,0S26.1,79.69,26.11,79.69Z" fill="#af5341"/>
          <path d="M25.85,79.1h0S25.83,79.11,25.85,79.1Z" fill="#af5341"/>
          <path d="M25.78,79s0,.11,0,.15h0C25.75,79.09,25.85,79,25.78,79Z" fill="#af5341"/>
          <path d="M26.17,78.17l0,.15c.05,0,.12-.08.13,0C26.43,78.09,26.16,78.36,26.17,78.17Z" fill="#af5341"/>
          <path d="M26.24,77.72c0,.07.09,0,.13,0S26.29,77.66,26.24,77.72Z" fill="#af5341"/>
          <path d="M25.86,74.65l.25,0C26.06,74.56,26,74.63,25.86,74.65Z" fill="#af5341"/>
          <polygon points="24.44 74.33 24.3 74.42 24.53 74.39 24.44 74.33" fill="#af5341"/>
          <polygon points="26.16 73.63 26.2 73.65 26.09 73.57 26.16 73.63" fill="#af5341"/>
          <path d="M25.06,68.56l-.31.08C24.82,68.67,25.17,68.61,25.06,68.56Z" fill="#af5341"/>
          <path d="M24.31,66.43c.15-.06.23-.14.08-.14S24.26,66.41,24.31,66.43Z" fill="#af5341"/>
          <polygon points="23.5 59.74 23.61 59.77 23.51 59.7 23.5 59.74" fill="#af5341"/>
        </g>
        <g>
          <path d="M32.23,73.14h0Z" fill="#af5341"/>
          <path d="M32.08,73.11s-.07,0-.06.07,0,0,.08-.05h.08a.13.13,0,0,0-.11,0Z" fill="#af5341"/>
          <path d="M30,72.09v0Z" fill="#af5341"/>
          <path d="M28.73,71.57a.24.24,0,0,0,0-.07A.15.15,0,0,0,28.73,71.57Z" fill="#af5341"/>
          <path d="M28.59,71.16v0S28.6,71.13,28.59,71.16Z" fill="#af5341"/>
          <path d="M30,72.09V72C30,72.09,30,72.06,30,72.09Z" fill="#af5341"/>
          <path d="M31.72,73.24l0,0h0Z" fill="#af5341"/>
          <path d="M30.67,72.05h0l0-.11Z" fill="#af5341"/>
          <path d="M31.09,72.3a1,1,0,0,0-.08.25.27.27,0,0,1,0-.12Z" fill="#af5341"/>
          <path d="M31.7,72.91h0Z" fill="#af5341"/>
          <path d="M30.38,71.83l0-.1Z" fill="#af5341"/>
          <path d="M19.89,76.77h0Z" fill="#af5341"/>
          <polygon points="19.21 76.89 19.22 76.89 19.22 76.88 19.21 76.89" fill="#af5341"/>
          <path d="M28.26,70.7h0S28.27,70.68,28.26,70.7Z" fill="#af5341"/>
          <path d="M23.57,70.43c.18.17.1.38.32.55C23.82,70.9,23.72,70.49,23.57,70.43Z" fill="#af5341"/>
          <path d="M31.71,73.24h0Z" fill="#af5341"/>
          <polygon points="23.89 70.98 23.89 70.98 23.91 71 23.89 70.98" fill="#af5341"/>
          <path d="M27.25,70.61l0,.12A.29.29,0,0,0,27.25,70.61Z" fill="#af5341"/>
          <path d="M27.87,71.19v0A.13.13,0,0,1,27.87,71.19Z" fill="#af5341"/>
          <path d="M26.78,70.9s0-.06,0,0v0S26.78,70.85,26.78,70.9Z" fill="#af5341"/>
          <path d="M26.39,70.8v.06l0,0Z" fill="#af5341"/>
          <path d="M21.2,76.32,21,76.17C21.16,76.29,21.14,76.36,21.2,76.32Z" fill="#af5341"/>
          <path d="M31.73,73.2a.05.05,0,0,1,0,0h0S31.74,73.21,31.73,73.2Z" fill="#af5341"/>
          <path d="M26.21,73,26.16,73S26.19,73,26.21,73Z" fill="#af5341"/>
          <path d="M23.2,74.24l0,0S23.23,74.27,23.2,74.24Z" fill="#af5341"/>
          <path d="M26,73a.92.92,0,0,0,0-.2l0,.07Z" fill="#af5341"/>
          <path d="M21,76.17h0Z" fill="#af5341"/>
          <path d="M20.93,76.67c.08,0-.15-.18-.25-.29s.18.12.31.21c0-.06-.15-.25-.11-.26l.1.09c-.13-.18.15-.06,0-.3l.06,0-.34-.3s-.12-.18.06,0c0,0,0,.06.09.11l-.05-.08c.26.21.05.1.22.26,0-.09-.17-.32-.06-.28.26.23,0,.13.26.3L21,76.09c.43.32-.07,0,.38.34.17,0,0-.13.15-.11-.13-.14-.22-.19-.34-.33-.17-.32.71.52.42.13-.16-.18-.47-.48-.26-.37l.27.27c.08,0-.38-.41-.13-.3s.05.14.09.16c.26.16-.13-.18-.1-.21l.26.22c0-.1-.1-.34-.08-.45a2.29,2.29,0,0,0,.23.21c0-.21.22-.17.45-.12l-.19-.24a.7.7,0,0,1,.15.13c.11,0-.14-.13-.21-.23s.15.09.2.16c-.12-.23-.23-.53.06-.38l.05.07c.14,0-.39-.47-.14-.33l0,.05c.19,0,.1-.33.51-.11-.3-.3.23,0-.19-.39.27.14.33.23.55.27,0,0-.23-.28-.25-.35l.22.2-.2-.25.29.22,0-.08a.78.78,0,0,1-.19-.13c-.06-.14.26,0,.37.15L23.3,74a.74.74,0,0,1,.15.2c-.18-.27.25.21.09,0a1.49,1.49,0,0,1-.18-.17c.16.1.21,0,.19-.05l.15.15c.11,0,.07-.23.15-.31a1,1,0,0,1-.37-.34l.25.21c-.14-.15-.12,0-.27-.25.06,0,.3.23.36.32l-.05-.12c.07.06.1.11.19.19-.13-.15.3.16.06-.1l.08.06c.08-.08,0-.19.08-.27-.21-.19-.14-.18-.29-.35.12,0,.33.1.37,0s-.17-.18-.27-.31c.19.17.23.1.33.25,0-.1.05-.13,0-.36a1.56,1.56,0,0,1-.19-.14c0-.05.12,0,.21.12v0c-.19-.36.77.27.45-.17l0,0c-.06-.09-.14-.16-.19-.25s.13.15.23.25c-.27-.37,0,0-.14-.3.19.29.18.28.17.23s0-.14.06.09l-.06-.17c-.05-.17,0,.09.05.13l-.08-.25c0-.19.2.23.11.51,0,.08.16-.86.1-.41l-.08.3c.18-.32.32.11.55-.17,0,.07-.05.17-.07.16,0,.24.13,0,.18-.14,0,0,0,.17-.05.27s.17-.27.13,0a.29.29,0,0,1,0,.08c0-.1.1.06.15-.21,0,.14.15-.09.16.08.11-.29.07.17.19-.25-.12.44,0,.38.11.19-.05.13,0,.14-.07.32.05,0,.11-.06.16-.29-.05.55.28-.38.15.31a2.11,2.11,0,0,1,.51-.4c-.11.43-.14,0-.25.47.16-.15.32-.51.41-.38s-.07.19-.1.26c.16-.15.21.1.38-.11a.37.37,0,0,1,0,.11s0,.08.08-.12l0,0a4.16,4.16,0,0,1,.28-.74c-.18.56.07.17-.18.88a.77.77,0,0,0,.1-.26.52.52,0,0,1-.06.27c.1-.09.13-.31.19-.29s-.05.13-.08.24c.08-.17.16-.35.19-.26s0,.14,0,.13.29-.46.34-.25c-.13.41,0,.15-.08.51l.08-.09,0-.18c.05,0,.16-.24.17-.11l-.07.14.11,0,0-.15c.1-.18.12-.46.15-.34s.05,0,0,.23h0c.06-.1.11-.22.13-.12s-.12.4-.13.48c.1-.3.14-.06.25-.37a1.5,1.5,0,0,0-.08.3l.08-.24a.91.91,0,0,1,0,.27c.06.07.1-.46.13-.24l0,.09c.05.12.2-.12.24,0-.07.37-.09.07-.14.39.12,0,.33-.38.42-.27v0c.14-.51,0,.27.12,0a1.45,1.45,0,0,0-.07.23c.05.1.18-.09.33-.22l-.05.12c0,.13.1.1.13.17,0-.13.07-.1.1-.29-.06.8.37-.32.34.29a.27.27,0,0,0-.05.11l.14-.12a1.1,1.1,0,0,0,0-.28c0-.13.1-.21.12-.2a.83.83,0,0,0-.08.42L30.5,73c0,.35.11-.39.12-.15l0,.1c.05,0,.11-.17.13-.13,0,.21-.06.09-.1.26.05,0,.18-.37.17-.16,0,0-.06,0-.09.1,0,.24,0,.17,0,.21h0l.05.1v-.06c.18-.47.14-.09.29-.36-.14.25,0,.15-.1.33a.43.43,0,0,1,0,.16c.07-.15,0,.09.14-.11,0,0,0,0,0,.13.06-.05,0-.09,0-.15s.13.17.29,0,.15-.2.25-.23-.06.11-.06.11.07,0,.12,0a.11.11,0,0,0,0,.08s.05-.09.08-.06a.27.27,0,0,1-.06.1l.15-.09s0,.05-.06.08a1.19,1.19,0,0,0,.16-.08l0,0s0,0,0,0-.06,0-.06,0h0c0-.1-.12,0-.18,0l.05-.1-.08.08s0-.1,0-.11-.05,0-.06,0a0,0,0,0,1,0,0l-.05,0s0-.09,0-.06c-.05-.12-.14.06-.13-.07h0c-.11,0,0,.12-.15.25l0-.35-.05.14s0,0,0-.09c-.07.09,0,.07-.06.15,0-.15-.15,0-.1-.23,0,.12,0,.11,0,.18.06-.3-.07,0-.08-.12s.07,0,.07-.21c-.1.26-.07-.11-.12-.08-.06.24-.1.06-.18.12,0-.09-.08-.2-.11-.34l0,0c-.09.29-.13.21-.19.25a1.23,1.23,0,0,1,.12-.33l0,0a.29.29,0,0,1-.1.17l.08-.24c-.06,0-.18.23-.2,0a3.52,3.52,0,0,1-.25.86,1.75,1.75,0,0,1,.13-.42s-.06.11-.05,0l.09-.22c0-.11-.07.19-.09.16.05-.19,0-.14.06-.3s0,.09,0,0a.81.81,0,0,1,0-.32,1,1,0,0,1-.09.28c-.07,0,0-.24,0-.34-.05.13-.05,0-.13.28a1.49,1.49,0,0,1,0-.22c-.06.12-.14,0-.19.31v0h0c-.17.26-.16-.21-.28-.11l0-.1c-.08.1-.14,0-.23.23a.6.6,0,0,1,0-.29c-.06.06-.09.16-.11,0s0-.15.07-.11,0-.26-.13,0c.08-.24,0-.32,0-.25v.18s-.06,0-.08,0l.1-.31c0-.43-.38.61-.29-.07-.09.22,0,.18-.08.43a4.68,4.68,0,0,1,0-.54c0-.19-.19.46-.23.32a1.47,1.47,0,0,1-.18.52,1.33,1.33,0,0,1,.12-.59s0,0,0,.07a.3.3,0,0,0,.08-.21l0,.12c0-.13-.07-.13,0-.32a.33.33,0,0,0-.06.25c0-.18-.1,0-.14-.16a.81.81,0,0,1,0,.2c-.07-.17-.1.21-.18.24,0-.19.12-.41,0-.29a.94.94,0,0,1,.11-.39c-.12.2-.08-.18-.1-.23l.05-.08c0,.05-.05,0-.06,0l0,.23a.16.16,0,0,1,0-.14c-.06.14-.09.38-.18.58,0-.13-.11.1,0-.2.05.12.07-.31.15-.34s0,0-.05,0a.22.22,0,0,1,0-.08c0-.29-.12.33-.2.31.05-.17.06-.33,0-.3a1.05,1.05,0,0,1-.12.41c0-.14-.08.09-.11.07l0,.07c-.06.17-.08.14-.13.18,0-.13.06-.08.06-.14-.12.29,0-.34-.12-.15,0-.12.08-.33.08-.41-.12.21,0-.25-.12-.09a.82.82,0,0,1-.13.4l.15-.14-.15.32s.1-.13.11-.08a.7.7,0,0,0-.09.32c0-.36-.14.18-.14-.07l.15-.57c0-.28-.21.25-.27.08V71c-.07.23-.07,0-.13.1a1.8,1.8,0,0,0,.07-.39c0,.15-.07,0-.18.35l0-.26c-.05-.13-.23.52-.29.43a1.79,1.79,0,0,1,.17-.48s0,0-.08.08c0-.12-.14.24-.12.05,0,.09-.08.28-.11.26l0-.09a.92.92,0,0,0-.11.33c.07-.62-.24,0-.18-.54a.46.46,0,0,1-.21.09c0-.06,0-.1,0-.07,0-.2-.19.53-.22.31s.09-.15.09-.27c.15-.64-.12.06-.08-.33l0,0c0-.22-.17.21-.23.15l0-.1a1,1,0,0,1-.34.47,1.21,1.21,0,0,0,.12-.38s-.1.41-.17.46a5.3,5.3,0,0,1,.05-.54h.07c.08-.35-.1,0-.12-.08l0-.15c-.15,0-.21.4-.33.34v.12c-.08.38,0-.23-.12.05v-.42c-.06.09-.16.34-.22.41a1.08,1.08,0,0,1,.17-.58c-.05,0-.19,0-.19.15,0,0,0-.12.06,0,0,.31-.08.46-.17.42-.14-.88-.27-.31-.56-1.09,0,.54-.3.25-.45.55.36.5,0,.09.3.64,0,.08,0,.08-.05,0l-.31-.21c-.13-.12,0-.15-.12-.26-.12.06-.19-.18-.36-.24.15.16.16.29.06.28.08,0,.17.09.25.15.09.37-.44-.28-.36.1L23,70.62c0,.07-.07.16-.08.23s0,.17.2.35a.91.91,0,0,1-.2-.19c-.14,0,.2.55-.09.42l-.1-.11c0,.05.18.22,0,.14l-.12-.11c0,.05.15.22.07.19l-.11-.13c-.22,0,.18.41.19.55a1.05,1.05,0,0,0-.58-.34l-.05,0c-.13.06.11.42.15.63-.4-.26-.33.06-.61,0a1.18,1.18,0,0,1,.27.28c-.09,0,.16.27-.13,0h0c-.3-.26-.27-.14-.31-.11l.39.36c-.66-.42,0,.44-.57,0,.07.12.05.14.12.25l-.21-.19c-.11,0-.16,0-.18.14l-.14-.15c-.05,0,.55.61.53.66l-.32-.27c-.07.08-.41-.1-.2.24,0,0-.13-.13-.13-.16s-.34,0,.1.33c-.28-.26-.1,0,0,.2l-.2-.19c.23.27.3.34.33.46s-.18-.14-.11-.11c-.14-.06.17.21,0,.15L20.82,74c-.05,0,0,.09.15.25s-.12,0-.31-.14c.11.11.24.27.17.25a.72.72,0,0,1-.13-.14c-.2-.06.15.32-.09.18l-.13-.1c.05,0,.1-.08.11-.07a2.88,2.88,0,0,1-.49-.43c.11.16.37.51.24.47l-.07-.06v0s0,0,0,0-.07,0-.09,0c-.16-.14-.12,0-.15,0,.21.19.15.18.34.31,0,0,0,0,0,0l0,0h0a.33.33,0,0,0,0-.06c.09.11.17.21,0,.13l.31.34c-.32-.24-.52-.33-.71-.49.06.18-.07.22.28.62,0,.06-.13-.09-.2-.14s0,0-.06-.11c.06.12-.06.14.21.41-.16-.06-.24-.27-.24-.15l-.08-.09c-.25-.11-.09.13,0,.32s.18.36-.08.25l.08,0c-.15,0-.15.16-.17.28s-.08.23-.22.24,0,.11.05.19l-.1-.07.08.15c0,.13-.26,0-.19.19l0,0s0,.13-.07.09,0,0,0,0h0a.36.36,0,0,1,0,.11c0,.07-.05-.06-.08.06s0,.14,0,.12l0,0,0,0s0,0,.07,0,0,0,.06,0h0c.05,0,.07,0,.08,0h.05a.09.09,0,0,0,0-.06s0,0,.07,0-.08,0,0-.07.07,0,.09,0,0,0,0,0,.09,0,.06-.08.1-.06.2,0,0-.09,0-.11c.08.15.12,0,.27.12-.09-.15.11-.1.09-.22s0,0,0,0a.6.6,0,0,1,.2.07c-.15-.14-.12-.2-.2-.32.22.13.17.2.34.34-.14-.13,0-.16-.18-.26a1,1,0,0,1,.26.16c-.23-.21,0,0-.11-.19.17.09.24.21.23.12A.25.25,0,0,1,20.93,76.67Zm.7-1.3h0v0Zm.07-.09,0,0c-.07-.06-.14-.13-.13-.14A.56.56,0,0,0,21.7,75.28Zm-1.6-1.13s0,0,.07,0v0l0,0Z" fill="#af5341"/>
          <path d="M20.35,74.43h0l.05,0-.06-.07Z" fill="#af5341"/>
          <path d="M30,72.14h0v0Z" fill="#af5341"/>
          <polygon points="23.22 74.43 23.16 74.39 23.2 74.43 23.22 74.43" fill="#af5341"/>
          <path d="M30.45,73.17a.2.2,0,0,0,0,.07Z" fill="#af5341"/>
          <path d="M30.73,73.22l0,.07S30.74,73.23,30.73,73.22Z" fill="#af5341"/>
          <path d="M30.93,73.3l0-.08h0Z" fill="#af5341"/>
          <path d="M27.42,73h0S27.39,73.05,27.42,73Z" fill="#af5341"/>
          <path d="M28.58,72.63a.44.44,0,0,1-.06.12S28.54,72.79,28.58,72.63Z" fill="#af5341"/>
          <polygon points="26.21 73.05 26.21 73.04 26.21 73.04 26.21 73.05" fill="#af5341"/>
          <path d="M28.47,72.74c0,.06,0,.05.05,0S28.5,72.7,28.47,72.74Z" fill="#af5341"/>
          <polygon points="31.94 73.2 31.95 73.2 31.95 73.2 31.94 73.2" fill="#af5341"/>
          <path d="M32,73.2h0A0,0,0,0,0,32,73.2Z" fill="#af5341"/>
          <path d="M32,73.18h0Z" fill="#af5341"/>
          <path d="M31.63,73.23v0Z" fill="#af5341"/>
          <path d="M31.54,73.25s0,.06.07,0v0S31.57,73.19,31.54,73.25Z" fill="#af5341"/>
          <path d="M31.31,72.64l.06.07c0-.06,0-.14,0-.13C31.37,72.37,31.4,72.71,31.31,72.64Z" fill="#af5341"/>
          <path d="M31.13,72.43s0-.1,0-.14A.14.14,0,0,0,31.13,72.43Z" fill="#af5341"/>
          <path d="M29.59,71.79l.07-.24S29.63,71.64,29.59,71.79Z" fill="#af5341"/>
          <polygon points="28.95 73 28.94 73.16 29.01 72.93 28.95 73" fill="#af5341"/>
          <polygon points="29.23 71.19 29.25 71.15 29.18 71.23 29.23 71.19" fill="#af5341"/>
          <path d="M26.52,70.58l-.07.3S26.58,70.49,26.52,70.58Z" fill="#af5341"/>
          <path d="M25.16,70.56c0-.17-.05-.29-.09-.14S25.14,70.59,25.16,70.56Z" fill="#af5341"/>
          <polygon points="21.57 72.49 21.51 72.4 21.55 72.49 21.57 72.49" fill="#af5341"/>
        </g>
      </g>
    </g>
  </g>
</svg>
